M48
; DRILL file {KiCad 6.0.3-a3aad9c10e~116~ubuntu20.04.1} date Sun 20 Mar 2022 09:21:37 PM EDT
; FORMAT={-:-/ absolute / inch / decimal}
; #@! TF.CreationDate,2022-03-20T21:21:37-04:00
; #@! TF.GenerationSoftware,Kicad,Pcbnew,6.0.3-a3aad9c10e~116~ubuntu20.04.1
; #@! TF.FileFunction,Plated,1,2,PTH
FMAT,2
INCH
; #@! TA.AperFunction,Plated,PTH,ViaDrill
T1C0.0160
; #@! TA.AperFunction,Plated,PTH,ComponentDrill
T2C0.0300
; #@! TA.AperFunction,Plated,PTH,ComponentDrill
T3C0.0315
; #@! TA.AperFunction,Plated,PTH,ComponentDrill
T4C0.0354
; #@! TA.AperFunction,Plated,PTH,ComponentDrill
T5C0.0360
; #@! TA.AperFunction,Plated,PTH,ComponentDrill
T6C0.0394
; #@! TA.AperFunction,Plated,PTH,ComponentDrill
T7C0.0433
; #@! TA.AperFunction,Plated,PTH,ComponentDrill
T8C0.0450
; #@! TA.AperFunction,Plated,PTH,ComponentDrill
T9C0.0470
; #@! TA.AperFunction,Plated,PTH,ComponentDrill
T10C0.0630
; #@! TA.AperFunction,Plated,PTH,ComponentDrill
T11C0.0630
; #@! TA.AperFunction,Plated,PTH,ComponentDrill
T12C0.0787
; #@! TA.AperFunction,Plated,PTH,ComponentDrill
T13C0.0800
%
G90
G05
T1
X-1.26Y0.6
X-0.4Y2.06
X-0.4Y1.97
X-0.4Y1.83
X-0.06Y1.81
X0.41Y-0.2
T2
X0.275Y3.45
X0.275Y3.25
X0.475Y3.35
T3
X-2.4Y-0.8
X-2.1Y-0.8
X-1.85Y3.65
X-1.7516Y3.65
X-1.53Y-0.539
X-1.53Y-0.6374
X-0.775Y-0.539
X-0.775Y-0.6374
X-0.3496Y3.4494
X-0.3496Y3.3494
X-0.3496Y3.2494
X-0.3496Y3.1494
X-0.3496Y3.0494
X-0.3496Y2.9494
X-0.3496Y2.8494
X-0.3496Y2.7494
X-0.0496Y3.4494
X-0.0496Y3.3494
X-0.0496Y3.2494
X-0.0496Y3.1494
X-0.0496Y3.0494
X-0.0496Y2.9494
X-0.0496Y2.8494
X-0.0496Y2.7494
X0.11Y1.81
X0.41Y1.81
T4
X-2.475Y-1.3
X-2.175Y-1.3
T5
X-2.1515Y3.497
X-2.0515Y3.497
X-1.9515Y3.497
X-1.8515Y3.497
X-1.7515Y3.497
X-1.6515Y3.497
T6
X-1.7854Y1.5984
X-1.7854Y1.5
X-1.7854Y1.4016
X-1.2463Y-0.6369
X-1.2146Y1.5984
X-1.2146Y1.4016
X-1.1463Y-0.6369
X-1.0463Y-0.6369
X-0.2Y1.1
X-0.2Y1.0
X-0.2Y0.9
X-0.2Y0.8
X-0.2Y0.7
X-0.2Y0.6
X-0.2Y0.5
X-0.2Y0.4
X-0.2Y0.3
X-0.2Y0.2
X-0.2Y0.1
X-0.2Y0.0
X-0.2Y-0.1
X-0.2Y-0.2
X-0.2Y-0.3
X-0.2Y-0.4
X-0.2Y-0.5
X-0.2Y-0.6
X-0.2Y-0.7
X-0.2Y-0.8
X-0.1Y1.1
X-0.1Y1.0
X-0.1Y0.9
X-0.1Y0.8
X-0.1Y0.7
X-0.1Y0.6
X-0.1Y0.5
X-0.1Y0.4
X-0.1Y0.3
X-0.1Y0.2
X-0.1Y0.1
X-0.1Y0.0
X-0.1Y-0.1
X-0.1Y-0.2
X-0.1Y-0.3
X-0.1Y-0.4
X-0.1Y-0.5
X-0.1Y-0.6
X-0.1Y-0.7
X-0.1Y-0.8
T7
X-2.35Y-0.5884
X-2.25Y-0.5884
X-2.15Y-0.5884
T8
X-1.05Y3.25
X-1.05Y3.15
X-1.05Y3.05
X-1.05Y2.95
X-1.05Y2.85
X-1.05Y2.75
X-1.05Y2.65
X-1.05Y2.55
X-1.05Y2.45
X-1.05Y2.35
X-0.55Y3.25
X-0.55Y3.15
X-0.55Y3.05
X-0.55Y2.95
X-0.55Y2.85
X-0.55Y2.75
X-0.55Y2.65
X-0.55Y2.55
X-0.55Y2.45
X-0.55Y2.35
T9
X-0.05Y2.225
X-0.05Y2.125
X-0.05Y2.025
T10
X1.1312Y3.55
X1.1312Y3.3
X1.1312Y3.05
X1.58Y3.55
X1.58Y3.3
X1.58Y3.05
T11
X-1.17Y-1.42
X-1.17Y-1.6562
X-0.985Y-1.5381
T13
X-2.425Y-1.575
X-2.225Y-1.575
X-0.72Y-1.5643
X-0.52Y-1.5643
T12
G00X-1.5Y1.7205
M15
G01X-1.4803Y1.7205
M16
G05
G00X-1.5Y1.2795
M15
G01X-1.4803Y1.2795
M16
G05
T0
M30
