%TF.GenerationSoftware,KiCad,Pcbnew,6.0.3-a3aad9c10e~116~ubuntu20.04.1*%
%TF.CreationDate,2022-03-20T21:21:38-04:00*%
%TF.ProjectId,ProtoPi-Board,50726f74-6f50-4692-9d42-6f6172642e6b,rev?*%
%TF.SameCoordinates,PX68290a0PY76b1be0*%
%TF.FileFunction,Legend,Top*%
%TF.FilePolarity,Positive*%
%FSLAX46Y46*%
G04 Gerber Fmt 4.6, Leading zero omitted, Abs format (unit mm)*
G04 Created by KiCad (PCBNEW 6.0.3-a3aad9c10e~116~ubuntu20.04.1) date 2022-03-20 21:21:38*
%MOMM*%
%LPD*%
G01*
G04 APERTURE LIST*
%ADD10C,0.203200*%
%ADD11C,0.120000*%
%ADD12C,0.150000*%
%ADD13C,0.076200*%
%ADD14C,0.100000*%
%ADD15C,0.254000*%
%ADD16C,2.500000*%
%ADD17C,1.600000*%
%ADD18O,1.600000X1.600000*%
%ADD19C,2.286000*%
%ADD20R,1.800000X1.800000*%
%ADD21O,1.800000X1.800000*%
%ADD22R,1.600000X1.600000*%
%ADD23C,3.302000*%
%ADD24C,3.048000*%
%ADD25R,2.000000X2.000000*%
%ADD26C,2.000000*%
%ADD27R,3.000000X2.500000*%
%ADD28C,1.524000*%
%ADD29C,2.159000*%
%ADD30C,2.540000*%
%ADD31R,1.700000X1.700000*%
%ADD32O,1.700000X1.700000*%
%ADD33O,3.500000X3.500000*%
%ADD34R,1.905000X2.000000*%
%ADD35O,1.905000X2.000000*%
%ADD36R,1.981200X1.981200*%
%ADD37C,1.981200*%
%ADD38R,1.500000X2.300000*%
%ADD39O,1.500000X2.300000*%
G04 APERTURE END LIST*
D10*
X-59255540Y24584177D02*
X-59255540Y25854177D01*
X-58771730Y25854177D01*
X-58650778Y25793700D01*
X-58590301Y25733224D01*
X-58529825Y25612272D01*
X-58529825Y25430843D01*
X-58590301Y25309891D01*
X-58650778Y25249415D01*
X-58771730Y25188939D01*
X-59255540Y25188939D01*
X-57985540Y24584177D02*
X-57985540Y25430843D01*
X-57985540Y25188939D02*
X-57925063Y25309891D01*
X-57864587Y25370367D01*
X-57743635Y25430843D01*
X-57622682Y25430843D01*
X-57017920Y24584177D02*
X-57138873Y24644653D01*
X-57199349Y24705129D01*
X-57259825Y24826081D01*
X-57259825Y25188939D01*
X-57199349Y25309891D01*
X-57138873Y25370367D01*
X-57017920Y25430843D01*
X-56836492Y25430843D01*
X-56715540Y25370367D01*
X-56655063Y25309891D01*
X-56594587Y25188939D01*
X-56594587Y24826081D01*
X-56655063Y24705129D01*
X-56715540Y24644653D01*
X-56836492Y24584177D01*
X-57017920Y24584177D01*
X-56231730Y25430843D02*
X-55747920Y25430843D01*
X-56050301Y25854177D02*
X-56050301Y24765605D01*
X-55989825Y24644653D01*
X-55868873Y24584177D01*
X-55747920Y24584177D01*
X-55143159Y24584177D02*
X-55264111Y24644653D01*
X-55324587Y24705129D01*
X-55385063Y24826081D01*
X-55385063Y25188939D01*
X-55324587Y25309891D01*
X-55264111Y25370367D01*
X-55143159Y25430843D01*
X-54961730Y25430843D01*
X-54840778Y25370367D01*
X-54780301Y25309891D01*
X-54719825Y25188939D01*
X-54719825Y24826081D01*
X-54780301Y24705129D01*
X-54840778Y24644653D01*
X-54961730Y24584177D01*
X-55143159Y24584177D01*
X-54175540Y24584177D02*
X-54175540Y25854177D01*
X-53691730Y25854177D01*
X-53570778Y25793700D01*
X-53510301Y25733224D01*
X-53449825Y25612272D01*
X-53449825Y25430843D01*
X-53510301Y25309891D01*
X-53570778Y25249415D01*
X-53691730Y25188939D01*
X-54175540Y25188939D01*
X-52905540Y24584177D02*
X-52905540Y25430843D01*
X-52905540Y25854177D02*
X-52966016Y25793700D01*
X-52905540Y25733224D01*
X-52845063Y25793700D01*
X-52905540Y25854177D01*
X-52905540Y25733224D01*
X-51514587Y25854177D02*
X-51091254Y24584177D01*
X-50667920Y25854177D01*
X-49579349Y24584177D02*
X-50305063Y24584177D01*
X-49942206Y24584177D02*
X-49942206Y25854177D01*
X-50063159Y25672748D01*
X-50184111Y25551796D01*
X-50305063Y25491320D01*
X-58711254Y23386143D02*
X-58711254Y22358048D01*
X-58771730Y22237096D01*
X-58832206Y22176620D01*
X-58953159Y22116143D01*
X-59134587Y22116143D01*
X-59255540Y22176620D01*
X-58711254Y22599953D02*
X-58832206Y22539477D01*
X-59074111Y22539477D01*
X-59195063Y22599953D01*
X-59255540Y22660429D01*
X-59316016Y22781381D01*
X-59316016Y23144239D01*
X-59255540Y23265191D01*
X-59195063Y23325667D01*
X-59074111Y23386143D01*
X-58832206Y23386143D01*
X-58711254Y23325667D01*
X-58106492Y22539477D02*
X-58106492Y23386143D01*
X-58106492Y23809477D02*
X-58166968Y23749000D01*
X-58106492Y23688524D01*
X-58046016Y23749000D01*
X-58106492Y23809477D01*
X-58106492Y23688524D01*
X-57683159Y23386143D02*
X-57199349Y23386143D01*
X-57501730Y23809477D02*
X-57501730Y22720905D01*
X-57441254Y22599953D01*
X-57320301Y22539477D01*
X-57199349Y22539477D01*
X-56776016Y22539477D02*
X-56776016Y23809477D01*
X-56231730Y22539477D02*
X-56231730Y23204715D01*
X-56292206Y23325667D01*
X-56413159Y23386143D01*
X-56594587Y23386143D01*
X-56715540Y23325667D01*
X-56776016Y23265191D01*
X-55082682Y23386143D02*
X-55082682Y22539477D01*
X-55626968Y23386143D02*
X-55626968Y22720905D01*
X-55566492Y22599953D01*
X-55445540Y22539477D01*
X-55264111Y22539477D01*
X-55143159Y22599953D01*
X-55082682Y22660429D01*
X-54477920Y22539477D02*
X-54477920Y23809477D01*
X-54477920Y23325667D02*
X-54356968Y23386143D01*
X-54115063Y23386143D01*
X-53994111Y23325667D01*
X-53933635Y23265191D01*
X-53873159Y23144239D01*
X-53873159Y22781381D01*
X-53933635Y22660429D01*
X-53994111Y22599953D01*
X-54115063Y22539477D01*
X-54356968Y22539477D01*
X-54477920Y22599953D01*
X-53328873Y22660429D02*
X-53268397Y22599953D01*
X-53328873Y22539477D01*
X-53389349Y22599953D01*
X-53328873Y22660429D01*
X-53328873Y22539477D01*
X-52179825Y22599953D02*
X-52300778Y22539477D01*
X-52542682Y22539477D01*
X-52663635Y22599953D01*
X-52724111Y22660429D01*
X-52784587Y22781381D01*
X-52784587Y23144239D01*
X-52724111Y23265191D01*
X-52663635Y23325667D01*
X-52542682Y23386143D01*
X-52300778Y23386143D01*
X-52179825Y23325667D01*
X-51454111Y22539477D02*
X-51575063Y22599953D01*
X-51635540Y22660429D01*
X-51696016Y22781381D01*
X-51696016Y23144239D01*
X-51635540Y23265191D01*
X-51575063Y23325667D01*
X-51454111Y23386143D01*
X-51272682Y23386143D01*
X-51151730Y23325667D01*
X-51091254Y23265191D01*
X-51030778Y23144239D01*
X-51030778Y22781381D01*
X-51091254Y22660429D01*
X-51151730Y22599953D01*
X-51272682Y22539477D01*
X-51454111Y22539477D01*
X-50486492Y22539477D02*
X-50486492Y23386143D01*
X-50486492Y23265191D02*
X-50426016Y23325667D01*
X-50305063Y23386143D01*
X-50123635Y23386143D01*
X-50002682Y23325667D01*
X-49942206Y23204715D01*
X-49942206Y22539477D01*
X-49942206Y23204715D02*
X-49881730Y23325667D01*
X-49760778Y23386143D01*
X-49579349Y23386143D01*
X-49458397Y23325667D01*
X-49397920Y23204715D01*
X-49397920Y22539477D01*
X-47886016Y23869953D02*
X-48974587Y22237096D01*
X-47462682Y23204715D02*
X-47039349Y23204715D01*
X-46857920Y22539477D02*
X-47462682Y22539477D01*
X-47462682Y23809477D01*
X-46857920Y23809477D01*
X-45769349Y22539477D02*
X-45769349Y23809477D01*
X-45769349Y22599953D02*
X-45890301Y22539477D01*
X-46132206Y22539477D01*
X-46253159Y22599953D01*
X-46313635Y22660429D01*
X-46374111Y22781381D01*
X-46374111Y23144239D01*
X-46313635Y23265191D01*
X-46253159Y23325667D01*
X-46132206Y23386143D01*
X-45890301Y23386143D01*
X-45769349Y23325667D01*
X-44620301Y23386143D02*
X-44620301Y22358048D01*
X-44680778Y22237096D01*
X-44741254Y22176620D01*
X-44862206Y22116143D01*
X-45043635Y22116143D01*
X-45164587Y22176620D01*
X-44620301Y22599953D02*
X-44741254Y22539477D01*
X-44983159Y22539477D01*
X-45104111Y22599953D01*
X-45164587Y22660429D01*
X-45225063Y22781381D01*
X-45225063Y23144239D01*
X-45164587Y23265191D01*
X-45104111Y23325667D01*
X-44983159Y23386143D01*
X-44741254Y23386143D01*
X-44620301Y23325667D01*
X-44015540Y22539477D02*
X-44015540Y23386143D01*
X-44015540Y23809477D02*
X-44076016Y23749000D01*
X-44015540Y23688524D01*
X-43955063Y23749000D01*
X-44015540Y23809477D01*
X-44015540Y23688524D01*
X-43410778Y23386143D02*
X-43410778Y22539477D01*
X-43410778Y23265191D02*
X-43350301Y23325667D01*
X-43229349Y23386143D01*
X-43047920Y23386143D01*
X-42926968Y23325667D01*
X-42866492Y23204715D01*
X-42866492Y22539477D01*
X-41717444Y23386143D02*
X-41717444Y22358048D01*
X-41777920Y22237096D01*
X-41838397Y22176620D01*
X-41959349Y22116143D01*
X-42140778Y22116143D01*
X-42261730Y22176620D01*
X-41717444Y22599953D02*
X-41838397Y22539477D01*
X-42080301Y22539477D01*
X-42201254Y22599953D01*
X-42261730Y22660429D01*
X-42322206Y22781381D01*
X-42322206Y23144239D01*
X-42261730Y23265191D01*
X-42201254Y23325667D01*
X-42080301Y23386143D01*
X-41838397Y23386143D01*
X-41717444Y23325667D01*
X-41112682Y23023286D02*
X-40145063Y23023286D01*
X-39540301Y22539477D02*
X-39540301Y23809477D01*
X-39116968Y22902334D01*
X-38693635Y23809477D01*
X-38693635Y22539477D01*
X-37544587Y22539477D02*
X-37544587Y23204715D01*
X-37605063Y23325667D01*
X-37726016Y23386143D01*
X-37967920Y23386143D01*
X-38088873Y23325667D01*
X-37544587Y22599953D02*
X-37665540Y22539477D01*
X-37967920Y22539477D01*
X-38088873Y22599953D01*
X-38149349Y22720905D01*
X-38149349Y22841858D01*
X-38088873Y22962810D01*
X-37967920Y23023286D01*
X-37665540Y23023286D01*
X-37544587Y23083762D01*
X-36395540Y22599953D02*
X-36516492Y22539477D01*
X-36758397Y22539477D01*
X-36879349Y22599953D01*
X-36939825Y22660429D01*
X-37000301Y22781381D01*
X-37000301Y23144239D01*
X-36939825Y23265191D01*
X-36879349Y23325667D01*
X-36758397Y23386143D01*
X-36516492Y23386143D01*
X-36395540Y23325667D01*
X-35851254Y22539477D02*
X-35851254Y23809477D01*
X-35306968Y22539477D02*
X-35306968Y23204715D01*
X-35367444Y23325667D01*
X-35488397Y23386143D01*
X-35669825Y23386143D01*
X-35790778Y23325667D01*
X-35851254Y23265191D01*
X-34702206Y22539477D02*
X-34702206Y23386143D01*
X-34702206Y23809477D02*
X-34762682Y23749000D01*
X-34702206Y23688524D01*
X-34641730Y23749000D01*
X-34702206Y23809477D01*
X-34702206Y23688524D01*
X-34097444Y23386143D02*
X-34097444Y22539477D01*
X-34097444Y23265191D02*
X-34036968Y23325667D01*
X-33916016Y23386143D01*
X-33734587Y23386143D01*
X-33613635Y23325667D01*
X-33553159Y23204715D01*
X-33553159Y22539477D01*
X-32464587Y22599953D02*
X-32585540Y22539477D01*
X-32827444Y22539477D01*
X-32948397Y22599953D01*
X-33008873Y22720905D01*
X-33008873Y23204715D01*
X-32948397Y23325667D01*
X-32827444Y23386143D01*
X-32585540Y23386143D01*
X-32464587Y23325667D01*
X-32404111Y23204715D01*
X-32404111Y23083762D01*
X-33008873Y22962810D01*
X-31920301Y22599953D02*
X-31799349Y22539477D01*
X-31557444Y22539477D01*
X-31436492Y22599953D01*
X-31376016Y22720905D01*
X-31376016Y22781381D01*
X-31436492Y22902334D01*
X-31557444Y22962810D01*
X-31738873Y22962810D01*
X-31859825Y23023286D01*
X-31920301Y23144239D01*
X-31920301Y23204715D01*
X-31859825Y23325667D01*
X-31738873Y23386143D01*
X-31557444Y23386143D01*
X-31436492Y23325667D01*
X-59316016Y20555253D02*
X-59195063Y20494777D01*
X-58953159Y20494777D01*
X-58832206Y20555253D01*
X-58771730Y20676205D01*
X-58771730Y20736681D01*
X-58832206Y20857634D01*
X-58953159Y20918110D01*
X-59134587Y20918110D01*
X-59255540Y20978586D01*
X-59316016Y21099539D01*
X-59316016Y21160015D01*
X-59255540Y21280967D01*
X-59134587Y21341443D01*
X-58953159Y21341443D01*
X-58832206Y21280967D01*
X-57683159Y21341443D02*
X-57683159Y20071443D01*
X-57683159Y20555253D02*
X-57804111Y20494777D01*
X-58046016Y20494777D01*
X-58166968Y20555253D01*
X-58227444Y20615729D01*
X-58287920Y20736681D01*
X-58287920Y21099539D01*
X-58227444Y21220491D01*
X-58166968Y21280967D01*
X-58046016Y21341443D01*
X-57804111Y21341443D01*
X-57683159Y21280967D01*
X-57078397Y20494777D02*
X-57078397Y21341443D01*
X-57078397Y21099539D02*
X-57017920Y21220491D01*
X-56957444Y21280967D01*
X-56836492Y21341443D01*
X-56715540Y21341443D01*
X-56473635Y21341443D02*
X-55989825Y21341443D01*
X-56292206Y21764777D02*
X-56292206Y20676205D01*
X-56231730Y20555253D01*
X-56110778Y20494777D01*
X-55989825Y20494777D01*
X-54901254Y20494777D02*
X-55626968Y20494777D01*
X-55264111Y20494777D02*
X-55264111Y21764777D01*
X-55385063Y21583348D01*
X-55506016Y21462396D01*
X-55626968Y21401920D01*
X-54115063Y21764777D02*
X-53994111Y21764777D01*
X-53873159Y21704300D01*
X-53812682Y21643824D01*
X-53752206Y21522872D01*
X-53691730Y21280967D01*
X-53691730Y20978586D01*
X-53752206Y20736681D01*
X-53812682Y20615729D01*
X-53873159Y20555253D01*
X-53994111Y20494777D01*
X-54115063Y20494777D01*
X-54236016Y20555253D01*
X-54296492Y20615729D01*
X-54356968Y20736681D01*
X-54417444Y20978586D01*
X-54417444Y21280967D01*
X-54356968Y21522872D01*
X-54296492Y21643824D01*
X-54236016Y21704300D01*
X-54115063Y21764777D01*
X-53147444Y21341443D02*
X-53147444Y20071443D01*
X-53147444Y21280967D02*
X-53026492Y21341443D01*
X-52784587Y21341443D01*
X-52663635Y21280967D01*
X-52603159Y21220491D01*
X-52542682Y21099539D01*
X-52542682Y20736681D01*
X-52603159Y20615729D01*
X-52663635Y20555253D01*
X-52784587Y20494777D01*
X-53026492Y20494777D01*
X-53147444Y20555253D01*
X-51998397Y20494777D02*
X-51998397Y21341443D01*
X-51998397Y21764777D02*
X-52058873Y21704300D01*
X-51998397Y21643824D01*
X-51937920Y21704300D01*
X-51998397Y21764777D01*
X-51998397Y21643824D01*
D11*
X52324000Y99060000D02*
X49784000Y99060000D01*
X-66040000Y99060000D02*
X-66040000Y-48260000D01*
X49784000Y99060000D02*
X49784000Y-48260000D01*
D12*
X-27931667Y85637620D02*
X-27360239Y85637620D01*
X-27645953Y84637620D02*
X-27645953Y85637620D01*
X-27122143Y85637620D02*
X-26455477Y84637620D01*
X-26455477Y85637620D02*
X-27122143Y84637620D01*
X-25741191Y85161429D02*
X-25598334Y85113810D01*
X-25550715Y85066191D01*
X-25503096Y84970953D01*
X-25503096Y84828096D01*
X-25550715Y84732858D01*
X-25598334Y84685239D01*
X-25693572Y84637620D01*
X-26074524Y84637620D01*
X-26074524Y85637620D01*
X-25741191Y85637620D01*
X-25645953Y85590000D01*
X-25598334Y85542381D01*
X-25550715Y85447143D01*
X-25550715Y85351905D01*
X-25598334Y85256667D01*
X-25645953Y85209048D01*
X-25741191Y85161429D01*
X-26074524Y85161429D01*
X-24884048Y85637620D02*
X-24788810Y85637620D01*
X-24693572Y85590000D01*
X-24645953Y85542381D01*
X-24598334Y85447143D01*
X-24550715Y85256667D01*
X-24550715Y85018572D01*
X-24598334Y84828096D01*
X-24645953Y84732858D01*
X-24693572Y84685239D01*
X-24788810Y84637620D01*
X-24884048Y84637620D01*
X-24979286Y84685239D01*
X-25026905Y84732858D01*
X-25074524Y84828096D01*
X-25122143Y85018572D01*
X-25122143Y85256667D01*
X-25074524Y85447143D01*
X-25026905Y85542381D01*
X-24979286Y85590000D01*
X-24884048Y85637620D01*
X-23598334Y84637620D02*
X-24169762Y84637620D01*
X-23884048Y84637620D02*
X-23884048Y85637620D01*
X-23979286Y85494762D01*
X-24074524Y85399524D01*
X-24169762Y85351905D01*
X-22979286Y85637620D02*
X-22884048Y85637620D01*
X-22788810Y85590000D01*
X-22741191Y85542381D01*
X-22693572Y85447143D01*
X-22645953Y85256667D01*
X-22645953Y85018572D01*
X-22693572Y84828096D01*
X-22741191Y84732858D01*
X-22788810Y84685239D01*
X-22884048Y84637620D01*
X-22979286Y84637620D01*
X-23074524Y84685239D01*
X-23122143Y84732858D01*
X-23169762Y84828096D01*
X-23217381Y85018572D01*
X-23217381Y85256667D01*
X-23169762Y85447143D01*
X-23122143Y85542381D01*
X-23074524Y85590000D01*
X-22979286Y85637620D01*
X-22074524Y85209048D02*
X-22169762Y85256667D01*
X-22217381Y85304286D01*
X-22265000Y85399524D01*
X-22265000Y85447143D01*
X-22217381Y85542381D01*
X-22169762Y85590000D01*
X-22074524Y85637620D01*
X-21884048Y85637620D01*
X-21788810Y85590000D01*
X-21741191Y85542381D01*
X-21693572Y85447143D01*
X-21693572Y85399524D01*
X-21741191Y85304286D01*
X-21788810Y85256667D01*
X-21884048Y85209048D01*
X-22074524Y85209048D01*
X-22169762Y85161429D01*
X-22217381Y85113810D01*
X-22265000Y85018572D01*
X-22265000Y84828096D01*
X-22217381Y84732858D01*
X-22169762Y84685239D01*
X-22074524Y84637620D01*
X-21884048Y84637620D01*
X-21788810Y84685239D01*
X-21741191Y84732858D01*
X-21693572Y84828096D01*
X-21693572Y85018572D01*
X-21741191Y85113810D01*
X-21788810Y85161429D01*
X-21884048Y85209048D01*
X-3840715Y36631620D02*
X-4174048Y37107810D01*
X-4412143Y36631620D02*
X-4412143Y37631620D01*
X-4031191Y37631620D01*
X-3935953Y37584000D01*
X-3888334Y37536381D01*
X-3840715Y37441143D01*
X-3840715Y37298286D01*
X-3888334Y37203048D01*
X-3935953Y37155429D01*
X-4031191Y37107810D01*
X-4412143Y37107810D01*
X-2983572Y36631620D02*
X-2983572Y37155429D01*
X-3031191Y37250667D01*
X-3126429Y37298286D01*
X-3316905Y37298286D01*
X-3412143Y37250667D01*
X-2983572Y36679239D02*
X-3078810Y36631620D01*
X-3316905Y36631620D01*
X-3412143Y36679239D01*
X-3459762Y36774477D01*
X-3459762Y36869715D01*
X-3412143Y36964953D01*
X-3316905Y37012572D01*
X-3078810Y37012572D01*
X-2983572Y37060191D01*
X-2555000Y36679239D02*
X-2459762Y36631620D01*
X-2269286Y36631620D01*
X-2174048Y36679239D01*
X-2126429Y36774477D01*
X-2126429Y36822096D01*
X-2174048Y36917334D01*
X-2269286Y36964953D01*
X-2412143Y36964953D01*
X-2507381Y37012572D01*
X-2555000Y37107810D01*
X-2555000Y37155429D01*
X-2507381Y37250667D01*
X-2412143Y37298286D01*
X-2269286Y37298286D01*
X-2174048Y37250667D01*
X-1697858Y37298286D02*
X-1697858Y36298286D01*
X-1697858Y37250667D02*
X-1602620Y37298286D01*
X-1412143Y37298286D01*
X-1316905Y37250667D01*
X-1269286Y37203048D01*
X-1221667Y37107810D01*
X-1221667Y36822096D01*
X-1269286Y36726858D01*
X-1316905Y36679239D01*
X-1412143Y36631620D01*
X-1602620Y36631620D01*
X-1697858Y36679239D01*
X-793096Y36631620D02*
X-793096Y37631620D01*
X-793096Y37250667D02*
X-697858Y37298286D01*
X-507381Y37298286D01*
X-412143Y37250667D01*
X-364524Y37203048D01*
X-316905Y37107810D01*
X-316905Y36822096D01*
X-364524Y36726858D01*
X-412143Y36679239D01*
X-507381Y36631620D01*
X-697858Y36631620D01*
X-793096Y36679239D01*
X492619Y36679239D02*
X397380Y36631620D01*
X206904Y36631620D01*
X111666Y36679239D01*
X64047Y36774477D01*
X64047Y37155429D01*
X111666Y37250667D01*
X206904Y37298286D01*
X397380Y37298286D01*
X492619Y37250667D01*
X540238Y37155429D01*
X540238Y37060191D01*
X64047Y36964953D01*
X968809Y36631620D02*
X968809Y37298286D01*
X968809Y37107810D02*
X1016428Y37203048D01*
X1064047Y37250667D01*
X1159285Y37298286D01*
X1254523Y37298286D01*
X1587857Y36631620D02*
X1587857Y37298286D01*
X1587857Y37107810D02*
X1635476Y37203048D01*
X1683095Y37250667D01*
X1778333Y37298286D01*
X1873571Y37298286D01*
X2111666Y37298286D02*
X2349761Y36631620D01*
X2587857Y37298286D02*
X2349761Y36631620D01*
X2254523Y36393524D01*
X2206904Y36345905D01*
X2111666Y36298286D01*
X3730714Y36631620D02*
X3730714Y37631620D01*
X4111666Y37631620D01*
X4206904Y37584000D01*
X4254523Y37536381D01*
X4302142Y37441143D01*
X4302142Y37298286D01*
X4254523Y37203048D01*
X4206904Y37155429D01*
X4111666Y37107810D01*
X3730714Y37107810D01*
X4730714Y36631620D02*
X4730714Y37298286D01*
X4730714Y37631620D02*
X4683095Y37584000D01*
X4730714Y37536381D01*
X4778333Y37584000D01*
X4730714Y37631620D01*
X4730714Y37536381D01*
X6397380Y37298286D02*
X6397380Y36631620D01*
X6159285Y37679239D02*
X5921190Y36964953D01*
X6540238Y36964953D01*
X7683095Y36631620D02*
X7683095Y37631620D01*
X8016428Y36917334D01*
X8349761Y37631620D01*
X8349761Y36631620D01*
X8968809Y36631620D02*
X8873571Y36679239D01*
X8825952Y36726858D01*
X8778333Y36822096D01*
X8778333Y37107810D01*
X8825952Y37203048D01*
X8873571Y37250667D01*
X8968809Y37298286D01*
X9111666Y37298286D01*
X9206904Y37250667D01*
X9254523Y37203048D01*
X9302142Y37107810D01*
X9302142Y36822096D01*
X9254523Y36726858D01*
X9206904Y36679239D01*
X9111666Y36631620D01*
X8968809Y36631620D01*
X10159285Y36631620D02*
X10159285Y37631620D01*
X10159285Y36679239D02*
X10064047Y36631620D01*
X9873571Y36631620D01*
X9778333Y36679239D01*
X9730714Y36726858D01*
X9683095Y36822096D01*
X9683095Y37107810D01*
X9730714Y37203048D01*
X9778333Y37250667D01*
X9873571Y37298286D01*
X10064047Y37298286D01*
X10159285Y37250667D01*
X11016428Y36679239D02*
X10921190Y36631620D01*
X10730714Y36631620D01*
X10635476Y36679239D01*
X10587857Y36774477D01*
X10587857Y37155429D01*
X10635476Y37250667D01*
X10730714Y37298286D01*
X10921190Y37298286D01*
X11016428Y37250667D01*
X11064047Y37155429D01*
X11064047Y37060191D01*
X10587857Y36964953D01*
X11635476Y36631620D02*
X11540238Y36679239D01*
X11492619Y36774477D01*
X11492619Y37631620D01*
X13111666Y37155429D02*
X13254523Y37107810D01*
X13302142Y37060191D01*
X13349761Y36964953D01*
X13349761Y36822096D01*
X13302142Y36726858D01*
X13254523Y36679239D01*
X13159285Y36631620D01*
X12778333Y36631620D01*
X12778333Y37631620D01*
X13111666Y37631620D01*
X13206904Y37584000D01*
X13254523Y37536381D01*
X13302142Y37441143D01*
X13302142Y37345905D01*
X13254523Y37250667D01*
X13206904Y37203048D01*
X13111666Y37155429D01*
X12778333Y37155429D01*
X-8318096Y66857620D02*
X-8318096Y67857620D01*
X-7984762Y67143334D01*
X-7651429Y67857620D01*
X-7651429Y66857620D01*
X-6603810Y66952858D02*
X-6651429Y66905239D01*
X-6794286Y66857620D01*
X-6889524Y66857620D01*
X-7032381Y66905239D01*
X-7127620Y67000477D01*
X-7175239Y67095715D01*
X-7222858Y67286191D01*
X-7222858Y67429048D01*
X-7175239Y67619524D01*
X-7127620Y67714762D01*
X-7032381Y67810000D01*
X-6889524Y67857620D01*
X-6794286Y67857620D01*
X-6651429Y67810000D01*
X-6603810Y67762381D01*
X-6175239Y66857620D02*
X-6175239Y67857620D01*
X-5794286Y67857620D01*
X-5699048Y67810000D01*
X-5651429Y67762381D01*
X-5603810Y67667143D01*
X-5603810Y67524286D01*
X-5651429Y67429048D01*
X-5699048Y67381429D01*
X-5794286Y67333810D01*
X-6175239Y67333810D01*
X-5270477Y67857620D02*
X-4651429Y67857620D01*
X-4984762Y67476667D01*
X-4841905Y67476667D01*
X-4746667Y67429048D01*
X-4699048Y67381429D01*
X-4651429Y67286191D01*
X-4651429Y67048096D01*
X-4699048Y66952858D01*
X-4746667Y66905239D01*
X-4841905Y66857620D01*
X-5127620Y66857620D01*
X-5222858Y66905239D01*
X-5270477Y66952858D01*
X-4032381Y67857620D02*
X-3937143Y67857620D01*
X-3841905Y67810000D01*
X-3794286Y67762381D01*
X-3746667Y67667143D01*
X-3699048Y67476667D01*
X-3699048Y67238572D01*
X-3746667Y67048096D01*
X-3794286Y66952858D01*
X-3841905Y66905239D01*
X-3937143Y66857620D01*
X-4032381Y66857620D01*
X-4127620Y66905239D01*
X-4175239Y66952858D01*
X-4222858Y67048096D01*
X-4270477Y67238572D01*
X-4270477Y67476667D01*
X-4222858Y67667143D01*
X-4175239Y67762381D01*
X-4127620Y67810000D01*
X-4032381Y67857620D01*
X-3080000Y67857620D02*
X-2984762Y67857620D01*
X-2889524Y67810000D01*
X-2841905Y67762381D01*
X-2794286Y67667143D01*
X-2746667Y67476667D01*
X-2746667Y67238572D01*
X-2794286Y67048096D01*
X-2841905Y66952858D01*
X-2889524Y66905239D01*
X-2984762Y66857620D01*
X-3080000Y66857620D01*
X-3175239Y66905239D01*
X-3222858Y66952858D01*
X-3270477Y67048096D01*
X-3318096Y67238572D01*
X-3318096Y67476667D01*
X-3270477Y67667143D01*
X-3222858Y67762381D01*
X-3175239Y67810000D01*
X-3080000Y67857620D01*
X-2175239Y67429048D02*
X-2270477Y67476667D01*
X-2318096Y67524286D01*
X-2365715Y67619524D01*
X-2365715Y67667143D01*
X-2318096Y67762381D01*
X-2270477Y67810000D01*
X-2175239Y67857620D01*
X-1984762Y67857620D01*
X-1889524Y67810000D01*
X-1841905Y67762381D01*
X-1794286Y67667143D01*
X-1794286Y67619524D01*
X-1841905Y67524286D01*
X-1889524Y67476667D01*
X-1984762Y67429048D01*
X-2175239Y67429048D01*
X-2270477Y67381429D01*
X-2318096Y67333810D01*
X-2365715Y67238572D01*
X-2365715Y67048096D01*
X-2318096Y66952858D01*
X-2270477Y66905239D01*
X-2175239Y66857620D01*
X-1984762Y66857620D01*
X-1889524Y66905239D01*
X-1841905Y66952858D01*
X-1794286Y67048096D01*
X-1794286Y67238572D01*
X-1841905Y67333810D01*
X-1889524Y67381429D01*
X-1984762Y67429048D01*
%TO.C,SW3*%
X27965333Y95074762D02*
X27822476Y95122381D01*
X27584380Y95122381D01*
X27489142Y95074762D01*
X27441523Y95027143D01*
X27393904Y94931905D01*
X27393904Y94836667D01*
X27441523Y94741429D01*
X27489142Y94693810D01*
X27584380Y94646191D01*
X27774857Y94598572D01*
X27870095Y94550953D01*
X27917714Y94503334D01*
X27965333Y94408096D01*
X27965333Y94312858D01*
X27917714Y94217620D01*
X27870095Y94170000D01*
X27774857Y94122381D01*
X27536761Y94122381D01*
X27393904Y94170000D01*
X27060571Y94122381D02*
X26822476Y95122381D01*
X26632000Y94408096D01*
X26441523Y95122381D01*
X26203428Y94122381D01*
X25917714Y94122381D02*
X25298666Y94122381D01*
X25632000Y94503334D01*
X25489142Y94503334D01*
X25393904Y94550953D01*
X25346285Y94598572D01*
X25298666Y94693810D01*
X25298666Y94931905D01*
X25346285Y95027143D01*
X25393904Y95074762D01*
X25489142Y95122381D01*
X25774857Y95122381D01*
X25870095Y95074762D01*
X25917714Y95027143D01*
%TO.C,R1*%
X-57316667Y-18402380D02*
X-57650000Y-17926190D01*
X-57888096Y-18402380D02*
X-57888096Y-17402380D01*
X-57507143Y-17402380D01*
X-57411905Y-17450000D01*
X-57364286Y-17497619D01*
X-57316667Y-17592857D01*
X-57316667Y-17735714D01*
X-57364286Y-17830952D01*
X-57411905Y-17878571D01*
X-57507143Y-17926190D01*
X-57888096Y-17926190D01*
X-56364286Y-18402380D02*
X-56935715Y-18402380D01*
X-56650000Y-18402380D02*
X-56650000Y-17402380D01*
X-56745239Y-17545238D01*
X-56840477Y-17640476D01*
X-56935715Y-17688095D01*
%TO.C,J2*%
X-33861334Y-33996380D02*
X-33861334Y-34710666D01*
X-33908953Y-34853523D01*
X-34004191Y-34948761D01*
X-34147048Y-34996380D01*
X-34242286Y-34996380D01*
X-33432762Y-34091619D02*
X-33385143Y-34044000D01*
X-33289905Y-33996380D01*
X-33051810Y-33996380D01*
X-32956572Y-34044000D01*
X-32908953Y-34091619D01*
X-32861334Y-34186857D01*
X-32861334Y-34282095D01*
X-32908953Y-34424952D01*
X-33480381Y-34996380D01*
X-32861334Y-34996380D01*
X-31369048Y-35996571D02*
X-32130953Y-35996571D01*
X-31750000Y-35615619D02*
X-31750000Y-36377523D01*
X-24257048Y-35996571D02*
X-25018953Y-35996571D01*
X-24638000Y-35615619D02*
X-24638000Y-36377523D01*
X-24257048Y-42092571D02*
X-25018953Y-42092571D01*
X-31623048Y-42092571D02*
X-32384953Y-42092571D01*
%TO.C,D1*%
X-59793096Y-35942380D02*
X-59793096Y-34942380D01*
X-59555000Y-34942380D01*
X-59412143Y-34990000D01*
X-59316905Y-35085238D01*
X-59269286Y-35180476D01*
X-59221667Y-35370952D01*
X-59221667Y-35513809D01*
X-59269286Y-35704285D01*
X-59316905Y-35799523D01*
X-59412143Y-35894761D01*
X-59555000Y-35942380D01*
X-59793096Y-35942380D01*
X-58269286Y-35942380D02*
X-58840715Y-35942380D01*
X-58555000Y-35942380D02*
X-58555000Y-34942380D01*
X-58650239Y-35085238D01*
X-58745477Y-35180476D01*
X-58840715Y-35228095D01*
X-55506905Y-35372380D02*
X-55506905Y-34372380D01*
X-54935477Y-35372380D02*
X-55364048Y-34800952D01*
X-54935477Y-34372380D02*
X-55506905Y-34943809D01*
%TO.C,U3*%
X-15239905Y85637620D02*
X-15239905Y84828096D01*
X-15192286Y84732858D01*
X-15144667Y84685239D01*
X-15049429Y84637620D01*
X-14858953Y84637620D01*
X-14763715Y84685239D01*
X-14716096Y84732858D01*
X-14668477Y84828096D01*
X-14668477Y85637620D01*
X-14287524Y85637620D02*
X-13668477Y85637620D01*
X-14001810Y85256667D01*
X-13858953Y85256667D01*
X-13763715Y85209048D01*
X-13716096Y85161429D01*
X-13668477Y85066191D01*
X-13668477Y84828096D01*
X-13716096Y84732858D01*
X-13763715Y84685239D01*
X-13858953Y84637620D01*
X-14144667Y84637620D01*
X-14239905Y84685239D01*
X-14287524Y84732858D01*
X-25098286Y77303334D02*
X-24622096Y77303334D01*
X-25193524Y77017620D02*
X-24860191Y78017620D01*
X-24526858Y77017620D01*
X-24241143Y77922381D02*
X-24193524Y77970000D01*
X-24098286Y78017620D01*
X-23860191Y78017620D01*
X-23764953Y77970000D01*
X-23717334Y77922381D01*
X-23669715Y77827143D01*
X-23669715Y77731905D01*
X-23717334Y77589048D01*
X-24288762Y77017620D01*
X-23669715Y77017620D01*
X-16660762Y77541429D02*
X-16517905Y77493810D01*
X-16470286Y77446191D01*
X-16422667Y77350953D01*
X-16422667Y77208096D01*
X-16470286Y77112858D01*
X-16517905Y77065239D01*
X-16613143Y77017620D01*
X-16994096Y77017620D01*
X-16994096Y78017620D01*
X-16660762Y78017620D01*
X-16565524Y77970000D01*
X-16517905Y77922381D01*
X-16470286Y77827143D01*
X-16470286Y77731905D01*
X-16517905Y77636667D01*
X-16565524Y77589048D01*
X-16660762Y77541429D01*
X-16994096Y77541429D01*
X-16041715Y77922381D02*
X-15994096Y77970000D01*
X-15898858Y78017620D01*
X-15660762Y78017620D01*
X-15565524Y77970000D01*
X-15517905Y77922381D01*
X-15470286Y77827143D01*
X-15470286Y77731905D01*
X-15517905Y77589048D01*
X-16089334Y77017620D01*
X-15470286Y77017620D01*
X-25129905Y83097620D02*
X-24796572Y82097620D01*
X-24463239Y83097620D01*
X-23558477Y82192858D02*
X-23606096Y82145239D01*
X-23748953Y82097620D01*
X-23844191Y82097620D01*
X-23987048Y82145239D01*
X-24082286Y82240477D01*
X-24129905Y82335715D01*
X-24177524Y82526191D01*
X-24177524Y82669048D01*
X-24129905Y82859524D01*
X-24082286Y82954762D01*
X-23987048Y83050000D01*
X-23844191Y83097620D01*
X-23748953Y83097620D01*
X-23606096Y83050000D01*
X-23558477Y83002381D01*
X-22558477Y82192858D02*
X-22606096Y82145239D01*
X-22748953Y82097620D01*
X-22844191Y82097620D01*
X-22987048Y82145239D01*
X-23082286Y82240477D01*
X-23129905Y82335715D01*
X-23177524Y82526191D01*
X-23177524Y82669048D01*
X-23129905Y82859524D01*
X-23082286Y82954762D01*
X-22987048Y83050000D01*
X-22844191Y83097620D01*
X-22748953Y83097620D01*
X-22606096Y83050000D01*
X-22558477Y83002381D01*
X-22177524Y82383334D02*
X-21701334Y82383334D01*
X-22272762Y82097620D02*
X-21939429Y83097620D01*
X-21606096Y82097620D01*
X-25098286Y79843334D02*
X-24622096Y79843334D01*
X-25193524Y79557620D02*
X-24860191Y80557620D01*
X-24526858Y79557620D01*
X-23669715Y79557620D02*
X-24241143Y79557620D01*
X-23955429Y79557620D02*
X-23955429Y80557620D01*
X-24050667Y80414762D01*
X-24145905Y80319524D01*
X-24241143Y80271905D01*
D13*
X-22122191Y65556191D02*
X-22364096Y65556191D01*
X-22364096Y66064191D01*
X-21759334Y65580381D02*
X-21807715Y65556191D01*
X-21904477Y65556191D01*
X-21952858Y65580381D01*
X-21977048Y65628762D01*
X-21977048Y65822286D01*
X-21952858Y65870667D01*
X-21904477Y65894858D01*
X-21807715Y65894858D01*
X-21759334Y65870667D01*
X-21735143Y65822286D01*
X-21735143Y65773905D01*
X-21977048Y65725524D01*
X-21565810Y65894858D02*
X-21444858Y65556191D01*
X-21323905Y65894858D01*
X-20936858Y65580381D02*
X-20985239Y65556191D01*
X-21082000Y65556191D01*
X-21130381Y65580381D01*
X-21154572Y65628762D01*
X-21154572Y65822286D01*
X-21130381Y65870667D01*
X-21082000Y65894858D01*
X-20985239Y65894858D01*
X-20936858Y65870667D01*
X-20912667Y65822286D01*
X-20912667Y65773905D01*
X-21154572Y65725524D01*
X-20622381Y65556191D02*
X-20670762Y65580381D01*
X-20694953Y65628762D01*
X-20694953Y66064191D01*
X-20066000Y65580381D02*
X-19993429Y65556191D01*
X-19872477Y65556191D01*
X-19824096Y65580381D01*
X-19799905Y65604572D01*
X-19775715Y65652953D01*
X-19775715Y65701334D01*
X-19799905Y65749715D01*
X-19824096Y65773905D01*
X-19872477Y65798096D01*
X-19969239Y65822286D01*
X-20017620Y65846477D01*
X-20041810Y65870667D01*
X-20066000Y65919048D01*
X-20066000Y65967429D01*
X-20041810Y66015810D01*
X-20017620Y66040000D01*
X-19969239Y66064191D01*
X-19848286Y66064191D01*
X-19775715Y66040000D01*
X-19558000Y65556191D02*
X-19558000Y66064191D01*
X-19340286Y65556191D02*
X-19340286Y65822286D01*
X-19364477Y65870667D01*
X-19412858Y65894858D01*
X-19485429Y65894858D01*
X-19533810Y65870667D01*
X-19558000Y65846477D01*
X-19098381Y65556191D02*
X-19098381Y65894858D01*
X-19098381Y66064191D02*
X-19122572Y66040000D01*
X-19098381Y66015810D01*
X-19074191Y66040000D01*
X-19098381Y66064191D01*
X-19098381Y66015810D01*
X-18929048Y65894858D02*
X-18735524Y65894858D01*
X-18856477Y65556191D02*
X-18856477Y65991620D01*
X-18832286Y66040000D01*
X-18783905Y66064191D01*
X-18735524Y66064191D01*
X-18638762Y65894858D02*
X-18445239Y65894858D01*
X-18566191Y66064191D02*
X-18566191Y65628762D01*
X-18542000Y65580381D01*
X-18493620Y65556191D01*
X-18445239Y65556191D01*
X-18082381Y65580381D02*
X-18130762Y65556191D01*
X-18227524Y65556191D01*
X-18275905Y65580381D01*
X-18300096Y65628762D01*
X-18300096Y65822286D01*
X-18275905Y65870667D01*
X-18227524Y65894858D01*
X-18130762Y65894858D01*
X-18082381Y65870667D01*
X-18058191Y65822286D01*
X-18058191Y65773905D01*
X-18300096Y65725524D01*
X-17840477Y65556191D02*
X-17840477Y65894858D01*
X-17840477Y65798096D02*
X-17816286Y65846477D01*
X-17792096Y65870667D01*
X-17743715Y65894858D01*
X-17695334Y65894858D01*
D12*
X-17525905Y60190000D02*
X-17621143Y60237620D01*
X-17764000Y60237620D01*
X-17906858Y60190000D01*
X-18002096Y60094762D01*
X-18049715Y59999524D01*
X-18097334Y59809048D01*
X-18097334Y59666191D01*
X-18049715Y59475715D01*
X-18002096Y59380477D01*
X-17906858Y59285239D01*
X-17764000Y59237620D01*
X-17668762Y59237620D01*
X-17525905Y59285239D01*
X-17478286Y59332858D01*
X-17478286Y59666191D01*
X-17668762Y59666191D01*
X-17049715Y59237620D02*
X-17049715Y60237620D01*
X-16478286Y59237620D01*
X-16478286Y60237620D01*
X-16002096Y59237620D02*
X-16002096Y60237620D01*
X-15764000Y60237620D01*
X-15621143Y60190000D01*
X-15525905Y60094762D01*
X-15478286Y59999524D01*
X-15430667Y59809048D01*
X-15430667Y59666191D01*
X-15478286Y59475715D01*
X-15525905Y59380477D01*
X-15621143Y59285239D01*
X-15764000Y59237620D01*
X-16002096Y59237620D01*
X-19105334Y83097620D02*
X-18772000Y82097620D01*
X-18438667Y83097620D01*
X-17533905Y82192858D02*
X-17581524Y82145239D01*
X-17724381Y82097620D01*
X-17819620Y82097620D01*
X-17962477Y82145239D01*
X-18057715Y82240477D01*
X-18105334Y82335715D01*
X-18152953Y82526191D01*
X-18152953Y82669048D01*
X-18105334Y82859524D01*
X-18057715Y82954762D01*
X-17962477Y83050000D01*
X-17819620Y83097620D01*
X-17724381Y83097620D01*
X-17581524Y83050000D01*
X-17533905Y83002381D01*
X-16533905Y82192858D02*
X-16581524Y82145239D01*
X-16724381Y82097620D01*
X-16819620Y82097620D01*
X-16962477Y82145239D01*
X-17057715Y82240477D01*
X-17105334Y82335715D01*
X-17152953Y82526191D01*
X-17152953Y82669048D01*
X-17105334Y82859524D01*
X-17057715Y82954762D01*
X-16962477Y83050000D01*
X-16819620Y83097620D01*
X-16724381Y83097620D01*
X-16581524Y83050000D01*
X-16533905Y83002381D01*
X-15772000Y82621429D02*
X-15629143Y82573810D01*
X-15581524Y82526191D01*
X-15533905Y82430953D01*
X-15533905Y82288096D01*
X-15581524Y82192858D01*
X-15629143Y82145239D01*
X-15724381Y82097620D01*
X-16105334Y82097620D01*
X-16105334Y83097620D01*
X-15772000Y83097620D01*
X-15676762Y83050000D01*
X-15629143Y83002381D01*
X-15581524Y82907143D01*
X-15581524Y82811905D01*
X-15629143Y82716667D01*
X-15676762Y82669048D01*
X-15772000Y82621429D01*
X-16105334Y82621429D01*
X-25098286Y62063334D02*
X-24622096Y62063334D01*
X-25193524Y61777620D02*
X-24860191Y62777620D01*
X-24526858Y61777620D01*
X-24050667Y62349048D02*
X-24145905Y62396667D01*
X-24193524Y62444286D01*
X-24241143Y62539524D01*
X-24241143Y62587143D01*
X-24193524Y62682381D01*
X-24145905Y62730000D01*
X-24050667Y62777620D01*
X-23860191Y62777620D01*
X-23764953Y62730000D01*
X-23717334Y62682381D01*
X-23669715Y62587143D01*
X-23669715Y62539524D01*
X-23717334Y62444286D01*
X-23764953Y62396667D01*
X-23860191Y62349048D01*
X-24050667Y62349048D01*
X-24145905Y62301429D01*
X-24193524Y62253810D01*
X-24241143Y62158572D01*
X-24241143Y61968096D01*
X-24193524Y61872858D01*
X-24145905Y61825239D01*
X-24050667Y61777620D01*
X-23860191Y61777620D01*
X-23764953Y61825239D01*
X-23717334Y61872858D01*
X-23669715Y61968096D01*
X-23669715Y62158572D01*
X-23717334Y62253810D01*
X-23764953Y62301429D01*
X-23860191Y62349048D01*
X-16660762Y67381429D02*
X-16517905Y67333810D01*
X-16470286Y67286191D01*
X-16422667Y67190953D01*
X-16422667Y67048096D01*
X-16470286Y66952858D01*
X-16517905Y66905239D01*
X-16613143Y66857620D01*
X-16994096Y66857620D01*
X-16994096Y67857620D01*
X-16660762Y67857620D01*
X-16565524Y67810000D01*
X-16517905Y67762381D01*
X-16470286Y67667143D01*
X-16470286Y67571905D01*
X-16517905Y67476667D01*
X-16565524Y67429048D01*
X-16660762Y67381429D01*
X-16994096Y67381429D01*
X-15565524Y67857620D02*
X-15756000Y67857620D01*
X-15851239Y67810000D01*
X-15898858Y67762381D01*
X-15994096Y67619524D01*
X-16041715Y67429048D01*
X-16041715Y67048096D01*
X-15994096Y66952858D01*
X-15946477Y66905239D01*
X-15851239Y66857620D01*
X-15660762Y66857620D01*
X-15565524Y66905239D01*
X-15517905Y66952858D01*
X-15470286Y67048096D01*
X-15470286Y67286191D01*
X-15517905Y67381429D01*
X-15565524Y67429048D01*
X-15660762Y67476667D01*
X-15851239Y67476667D01*
X-15946477Y67429048D01*
X-15994096Y67381429D01*
X-16041715Y67286191D01*
X-16660762Y64841429D02*
X-16517905Y64793810D01*
X-16470286Y64746191D01*
X-16422667Y64650953D01*
X-16422667Y64508096D01*
X-16470286Y64412858D01*
X-16517905Y64365239D01*
X-16613143Y64317620D01*
X-16994096Y64317620D01*
X-16994096Y65317620D01*
X-16660762Y65317620D01*
X-16565524Y65270000D01*
X-16517905Y65222381D01*
X-16470286Y65127143D01*
X-16470286Y65031905D01*
X-16517905Y64936667D01*
X-16565524Y64889048D01*
X-16660762Y64841429D01*
X-16994096Y64841429D01*
X-16089334Y65317620D02*
X-15422667Y65317620D01*
X-15851239Y64317620D01*
X-16660762Y62301429D02*
X-16517905Y62253810D01*
X-16470286Y62206191D01*
X-16422667Y62110953D01*
X-16422667Y61968096D01*
X-16470286Y61872858D01*
X-16517905Y61825239D01*
X-16613143Y61777620D01*
X-16994096Y61777620D01*
X-16994096Y62777620D01*
X-16660762Y62777620D01*
X-16565524Y62730000D01*
X-16517905Y62682381D01*
X-16470286Y62587143D01*
X-16470286Y62491905D01*
X-16517905Y62396667D01*
X-16565524Y62349048D01*
X-16660762Y62301429D01*
X-16994096Y62301429D01*
X-15851239Y62349048D02*
X-15946477Y62396667D01*
X-15994096Y62444286D01*
X-16041715Y62539524D01*
X-16041715Y62587143D01*
X-15994096Y62682381D01*
X-15946477Y62730000D01*
X-15851239Y62777620D01*
X-15660762Y62777620D01*
X-15565524Y62730000D01*
X-15517905Y62682381D01*
X-15470286Y62587143D01*
X-15470286Y62539524D01*
X-15517905Y62444286D01*
X-15565524Y62396667D01*
X-15660762Y62349048D01*
X-15851239Y62349048D01*
X-15946477Y62301429D01*
X-15994096Y62253810D01*
X-16041715Y62158572D01*
X-16041715Y61968096D01*
X-15994096Y61872858D01*
X-15946477Y61825239D01*
X-15851239Y61777620D01*
X-15660762Y61777620D01*
X-15565524Y61825239D01*
X-15517905Y61872858D01*
X-15470286Y61968096D01*
X-15470286Y62158572D01*
X-15517905Y62253810D01*
X-15565524Y62301429D01*
X-15660762Y62349048D01*
X-24931620Y60237620D02*
X-24741143Y60237620D01*
X-24645905Y60190000D01*
X-24550667Y60094762D01*
X-24503048Y59904286D01*
X-24503048Y59570953D01*
X-24550667Y59380477D01*
X-24645905Y59285239D01*
X-24741143Y59237620D01*
X-24931620Y59237620D01*
X-25026858Y59285239D01*
X-25122096Y59380477D01*
X-25169715Y59570953D01*
X-25169715Y59904286D01*
X-25122096Y60094762D01*
X-25026858Y60190000D01*
X-24931620Y60237620D01*
X-24074477Y59761429D02*
X-23741143Y59761429D01*
X-23598286Y59237620D02*
X-24074477Y59237620D01*
X-24074477Y60237620D01*
X-23598286Y60237620D01*
X-16660762Y69921429D02*
X-16517905Y69873810D01*
X-16470286Y69826191D01*
X-16422667Y69730953D01*
X-16422667Y69588096D01*
X-16470286Y69492858D01*
X-16517905Y69445239D01*
X-16613143Y69397620D01*
X-16994096Y69397620D01*
X-16994096Y70397620D01*
X-16660762Y70397620D01*
X-16565524Y70350000D01*
X-16517905Y70302381D01*
X-16470286Y70207143D01*
X-16470286Y70111905D01*
X-16517905Y70016667D01*
X-16565524Y69969048D01*
X-16660762Y69921429D01*
X-16994096Y69921429D01*
X-15517905Y70397620D02*
X-15994096Y70397620D01*
X-16041715Y69921429D01*
X-15994096Y69969048D01*
X-15898858Y70016667D01*
X-15660762Y70016667D01*
X-15565524Y69969048D01*
X-15517905Y69921429D01*
X-15470286Y69826191D01*
X-15470286Y69588096D01*
X-15517905Y69492858D01*
X-15565524Y69445239D01*
X-15660762Y69397620D01*
X-15898858Y69397620D01*
X-15994096Y69445239D01*
X-16041715Y69492858D01*
X-16660762Y80081429D02*
X-16517905Y80033810D01*
X-16470286Y79986191D01*
X-16422667Y79890953D01*
X-16422667Y79748096D01*
X-16470286Y79652858D01*
X-16517905Y79605239D01*
X-16613143Y79557620D01*
X-16994096Y79557620D01*
X-16994096Y80557620D01*
X-16660762Y80557620D01*
X-16565524Y80510000D01*
X-16517905Y80462381D01*
X-16470286Y80367143D01*
X-16470286Y80271905D01*
X-16517905Y80176667D01*
X-16565524Y80129048D01*
X-16660762Y80081429D01*
X-16994096Y80081429D01*
X-15470286Y79557620D02*
X-16041715Y79557620D01*
X-15756000Y79557620D02*
X-15756000Y80557620D01*
X-15851239Y80414762D01*
X-15946477Y80319524D01*
X-16041715Y80271905D01*
D13*
X-21674667Y66826191D02*
X-21384381Y66826191D01*
X-21529524Y66318191D02*
X-21529524Y66826191D01*
X-21263429Y66826191D02*
X-20924762Y66318191D01*
X-20924762Y66826191D02*
X-21263429Y66318191D01*
X-20561905Y66584286D02*
X-20489334Y66560096D01*
X-20465143Y66535905D01*
X-20440953Y66487524D01*
X-20440953Y66414953D01*
X-20465143Y66366572D01*
X-20489334Y66342381D01*
X-20537715Y66318191D01*
X-20731239Y66318191D01*
X-20731239Y66826191D01*
X-20561905Y66826191D01*
X-20513524Y66802000D01*
X-20489334Y66777810D01*
X-20465143Y66729429D01*
X-20465143Y66681048D01*
X-20489334Y66632667D01*
X-20513524Y66608477D01*
X-20561905Y66584286D01*
X-20731239Y66584286D01*
X-20126477Y66826191D02*
X-20078096Y66826191D01*
X-20029715Y66802000D01*
X-20005524Y66777810D01*
X-19981334Y66729429D01*
X-19957143Y66632667D01*
X-19957143Y66511715D01*
X-19981334Y66414953D01*
X-20005524Y66366572D01*
X-20029715Y66342381D01*
X-20078096Y66318191D01*
X-20126477Y66318191D01*
X-20174858Y66342381D01*
X-20199048Y66366572D01*
X-20223239Y66414953D01*
X-20247429Y66511715D01*
X-20247429Y66632667D01*
X-20223239Y66729429D01*
X-20199048Y66777810D01*
X-20174858Y66802000D01*
X-20126477Y66826191D01*
X-19473334Y66318191D02*
X-19763620Y66318191D01*
X-19618477Y66318191D02*
X-19618477Y66826191D01*
X-19666858Y66753620D01*
X-19715239Y66705239D01*
X-19763620Y66681048D01*
X-19158858Y66826191D02*
X-19110477Y66826191D01*
X-19062096Y66802000D01*
X-19037905Y66777810D01*
X-19013715Y66729429D01*
X-18989524Y66632667D01*
X-18989524Y66511715D01*
X-19013715Y66414953D01*
X-19037905Y66366572D01*
X-19062096Y66342381D01*
X-19110477Y66318191D01*
X-19158858Y66318191D01*
X-19207239Y66342381D01*
X-19231429Y66366572D01*
X-19255620Y66414953D01*
X-19279810Y66511715D01*
X-19279810Y66632667D01*
X-19255620Y66729429D01*
X-19231429Y66777810D01*
X-19207239Y66802000D01*
X-19158858Y66826191D01*
X-18699239Y66608477D02*
X-18747620Y66632667D01*
X-18771810Y66656858D01*
X-18796000Y66705239D01*
X-18796000Y66729429D01*
X-18771810Y66777810D01*
X-18747620Y66802000D01*
X-18699239Y66826191D01*
X-18602477Y66826191D01*
X-18554096Y66802000D01*
X-18529905Y66777810D01*
X-18505715Y66729429D01*
X-18505715Y66705239D01*
X-18529905Y66656858D01*
X-18554096Y66632667D01*
X-18602477Y66608477D01*
X-18699239Y66608477D01*
X-18747620Y66584286D01*
X-18771810Y66560096D01*
X-18796000Y66511715D01*
X-18796000Y66414953D01*
X-18771810Y66366572D01*
X-18747620Y66342381D01*
X-18699239Y66318191D01*
X-18602477Y66318191D01*
X-18554096Y66342381D01*
X-18529905Y66366572D01*
X-18505715Y66414953D01*
X-18505715Y66511715D01*
X-18529905Y66560096D01*
X-18554096Y66584286D01*
X-18602477Y66608477D01*
D12*
X-25098286Y72223334D02*
X-24622096Y72223334D01*
X-25193524Y71937620D02*
X-24860191Y72937620D01*
X-24526858Y71937620D01*
X-23764953Y72604286D02*
X-23764953Y71937620D01*
X-24003048Y72985239D02*
X-24241143Y72270953D01*
X-23622096Y72270953D01*
X-25098286Y67143334D02*
X-24622096Y67143334D01*
X-25193524Y66857620D02*
X-24860191Y67857620D01*
X-24526858Y66857620D01*
X-23764953Y67857620D02*
X-23955429Y67857620D01*
X-24050667Y67810000D01*
X-24098286Y67762381D01*
X-24193524Y67619524D01*
X-24241143Y67429048D01*
X-24241143Y67048096D01*
X-24193524Y66952858D01*
X-24145905Y66905239D01*
X-24050667Y66857620D01*
X-23860191Y66857620D01*
X-23764953Y66905239D01*
X-23717334Y66952858D01*
X-23669715Y67048096D01*
X-23669715Y67286191D01*
X-23717334Y67381429D01*
X-23764953Y67429048D01*
X-23860191Y67476667D01*
X-24050667Y67476667D01*
X-24145905Y67429048D01*
X-24193524Y67381429D01*
X-24241143Y67286191D01*
X-25098286Y69683334D02*
X-24622096Y69683334D01*
X-25193524Y69397620D02*
X-24860191Y70397620D01*
X-24526858Y69397620D01*
X-23717334Y70397620D02*
X-24193524Y70397620D01*
X-24241143Y69921429D01*
X-24193524Y69969048D01*
X-24098286Y70016667D01*
X-23860191Y70016667D01*
X-23764953Y69969048D01*
X-23717334Y69921429D01*
X-23669715Y69826191D01*
X-23669715Y69588096D01*
X-23717334Y69492858D01*
X-23764953Y69445239D01*
X-23860191Y69397620D01*
X-24098286Y69397620D01*
X-24193524Y69445239D01*
X-24241143Y69492858D01*
X-16660762Y75001429D02*
X-16517905Y74953810D01*
X-16470286Y74906191D01*
X-16422667Y74810953D01*
X-16422667Y74668096D01*
X-16470286Y74572858D01*
X-16517905Y74525239D01*
X-16613143Y74477620D01*
X-16994096Y74477620D01*
X-16994096Y75477620D01*
X-16660762Y75477620D01*
X-16565524Y75430000D01*
X-16517905Y75382381D01*
X-16470286Y75287143D01*
X-16470286Y75191905D01*
X-16517905Y75096667D01*
X-16565524Y75049048D01*
X-16660762Y75001429D01*
X-16994096Y75001429D01*
X-16089334Y75477620D02*
X-15470286Y75477620D01*
X-15803620Y75096667D01*
X-15660762Y75096667D01*
X-15565524Y75049048D01*
X-15517905Y75001429D01*
X-15470286Y74906191D01*
X-15470286Y74668096D01*
X-15517905Y74572858D01*
X-15565524Y74525239D01*
X-15660762Y74477620D01*
X-15946477Y74477620D01*
X-16041715Y74525239D01*
X-16089334Y74572858D01*
X-16660762Y72461429D02*
X-16517905Y72413810D01*
X-16470286Y72366191D01*
X-16422667Y72270953D01*
X-16422667Y72128096D01*
X-16470286Y72032858D01*
X-16517905Y71985239D01*
X-16613143Y71937620D01*
X-16994096Y71937620D01*
X-16994096Y72937620D01*
X-16660762Y72937620D01*
X-16565524Y72890000D01*
X-16517905Y72842381D01*
X-16470286Y72747143D01*
X-16470286Y72651905D01*
X-16517905Y72556667D01*
X-16565524Y72509048D01*
X-16660762Y72461429D01*
X-16994096Y72461429D01*
X-15565524Y72604286D02*
X-15565524Y71937620D01*
X-15803620Y72985239D02*
X-16041715Y72270953D01*
X-15422667Y72270953D01*
X-25098286Y64603334D02*
X-24622096Y64603334D01*
X-25193524Y64317620D02*
X-24860191Y65317620D01*
X-24526858Y64317620D01*
X-24288762Y65317620D02*
X-23622096Y65317620D01*
X-24050667Y64317620D01*
X-25098286Y74763334D02*
X-24622096Y74763334D01*
X-25193524Y74477620D02*
X-24860191Y75477620D01*
X-24526858Y74477620D01*
X-24288762Y75477620D02*
X-23669715Y75477620D01*
X-24003048Y75096667D01*
X-23860191Y75096667D01*
X-23764953Y75049048D01*
X-23717334Y75001429D01*
X-23669715Y74906191D01*
X-23669715Y74668096D01*
X-23717334Y74572858D01*
X-23764953Y74525239D01*
X-23860191Y74477620D01*
X-24145905Y74477620D01*
X-24241143Y74525239D01*
X-24288762Y74572858D01*
%TO.C,U4*%
X-5831905Y90492620D02*
X-5831905Y89683096D01*
X-5784286Y89587858D01*
X-5736667Y89540239D01*
X-5641429Y89492620D01*
X-5450953Y89492620D01*
X-5355715Y89540239D01*
X-5308096Y89587858D01*
X-5260477Y89683096D01*
X-5260477Y90492620D01*
X-4355715Y90159286D02*
X-4355715Y89492620D01*
X-4593810Y90540239D02*
X-4831905Y89825953D01*
X-4212858Y89825953D01*
%TO.C,M1*%
X-57830405Y-38044380D02*
X-57830405Y-37044380D01*
X-57497072Y-37758666D01*
X-57163739Y-37044380D01*
X-57163739Y-38044380D01*
X-56163739Y-38044380D02*
X-56735167Y-38044380D01*
X-56449453Y-38044380D02*
X-56449453Y-37044380D01*
X-56544691Y-37187238D01*
X-56639929Y-37282476D01*
X-56735167Y-37330095D01*
X-63418405Y-38044380D02*
X-63418405Y-37044380D01*
X-63085072Y-37758666D01*
X-62751739Y-37044380D01*
X-62751739Y-38044380D01*
X-62132691Y-38044380D02*
X-62227929Y-37996761D01*
X-62275548Y-37949142D01*
X-62323167Y-37853904D01*
X-62323167Y-37568190D01*
X-62275548Y-37472952D01*
X-62227929Y-37425333D01*
X-62132691Y-37377714D01*
X-61989834Y-37377714D01*
X-61894596Y-37425333D01*
X-61846977Y-37472952D01*
X-61799358Y-37568190D01*
X-61799358Y-37853904D01*
X-61846977Y-37949142D01*
X-61894596Y-37996761D01*
X-61989834Y-38044380D01*
X-62132691Y-38044380D01*
X-61513643Y-37377714D02*
X-61132691Y-37377714D01*
X-61370786Y-37044380D02*
X-61370786Y-37901523D01*
X-61323167Y-37996761D01*
X-61227929Y-38044380D01*
X-61132691Y-38044380D01*
X-60656500Y-38044380D02*
X-60751739Y-37996761D01*
X-60799358Y-37949142D01*
X-60846977Y-37853904D01*
X-60846977Y-37568190D01*
X-60799358Y-37472952D01*
X-60751739Y-37425333D01*
X-60656500Y-37377714D01*
X-60513643Y-37377714D01*
X-60418405Y-37425333D01*
X-60370786Y-37472952D01*
X-60323167Y-37568190D01*
X-60323167Y-37853904D01*
X-60370786Y-37949142D01*
X-60418405Y-37996761D01*
X-60513643Y-38044380D01*
X-60656500Y-38044380D01*
X-59894596Y-38044380D02*
X-59894596Y-37377714D01*
X-59894596Y-37568190D02*
X-59846977Y-37472952D01*
X-59799358Y-37425333D01*
X-59704120Y-37377714D01*
X-59608881Y-37377714D01*
X-60506429Y-41323380D02*
X-60506429Y-43258619D01*
X-57712429Y-41323380D02*
X-57712429Y-43258619D01*
X-58680048Y-42291000D02*
X-56744810Y-42291000D01*
%TO.C,SW1*%
X-43883334Y44895239D02*
X-43740477Y44847620D01*
X-43502381Y44847620D01*
X-43407143Y44895239D01*
X-43359524Y44942858D01*
X-43311905Y45038096D01*
X-43311905Y45133334D01*
X-43359524Y45228572D01*
X-43407143Y45276191D01*
X-43502381Y45323810D01*
X-43692858Y45371429D01*
X-43788096Y45419048D01*
X-43835715Y45466667D01*
X-43883334Y45561905D01*
X-43883334Y45657143D01*
X-43835715Y45752381D01*
X-43788096Y45800000D01*
X-43692858Y45847620D01*
X-43454762Y45847620D01*
X-43311905Y45800000D01*
X-42978572Y45847620D02*
X-42740477Y44847620D01*
X-42550000Y45561905D01*
X-42359524Y44847620D01*
X-42121429Y45847620D01*
X-41216667Y44847620D02*
X-41788096Y44847620D01*
X-41502381Y44847620D02*
X-41502381Y45847620D01*
X-41597620Y45704762D01*
X-41692858Y45609524D01*
X-41788096Y45561905D01*
%TO.C,R2*%
X6818333Y89082620D02*
X6485000Y89558810D01*
X6246904Y89082620D02*
X6246904Y90082620D01*
X6627857Y90082620D01*
X6723095Y90035000D01*
X6770714Y89987381D01*
X6818333Y89892143D01*
X6818333Y89749286D01*
X6770714Y89654048D01*
X6723095Y89606429D01*
X6627857Y89558810D01*
X6246904Y89558810D01*
X7199285Y89987381D02*
X7246904Y90035000D01*
X7342142Y90082620D01*
X7580238Y90082620D01*
X7675476Y90035000D01*
X7723095Y89987381D01*
X7770714Y89892143D01*
X7770714Y89796905D01*
X7723095Y89654048D01*
X7151666Y89082620D01*
X7770714Y89082620D01*
%TO.C,J1*%
X-2426691Y59348620D02*
X-2426691Y58634334D01*
X-2474310Y58491477D01*
X-2569548Y58396239D01*
X-2712405Y58348620D01*
X-2807643Y58348620D01*
X-1426691Y58348620D02*
X-1998120Y58348620D01*
X-1712405Y58348620D02*
X-1712405Y59348620D01*
X-1807643Y59205762D01*
X-1902881Y59110524D01*
X-1998120Y59062905D01*
X1367404Y51681000D02*
X1272166Y51728620D01*
X1129309Y51728620D01*
X986452Y51681000D01*
X891214Y51585762D01*
X843595Y51490524D01*
X795976Y51300048D01*
X795976Y51157191D01*
X843595Y50966715D01*
X891214Y50871477D01*
X986452Y50776239D01*
X1129309Y50728620D01*
X1224547Y50728620D01*
X1367404Y50776239D01*
X1415023Y50823858D01*
X1415023Y51157191D01*
X1224547Y51157191D01*
X1843595Y50728620D02*
X1843595Y51728620D01*
X2415023Y50728620D01*
X2415023Y51728620D01*
X2891214Y50728620D02*
X2891214Y51728620D01*
X3129309Y51728620D01*
X3272166Y51681000D01*
X3367404Y51585762D01*
X3415023Y51490524D01*
X3462642Y51300048D01*
X3462642Y51157191D01*
X3415023Y50966715D01*
X3367404Y50871477D01*
X3272166Y50776239D01*
X3129309Y50728620D01*
X2891214Y50728620D01*
X843595Y56443572D02*
X1605500Y56443572D01*
X1224547Y56062620D02*
X1224547Y56824524D01*
X2557880Y57062620D02*
X2081690Y57062620D01*
X2034071Y56586429D01*
X2081690Y56634048D01*
X2176928Y56681667D01*
X2415023Y56681667D01*
X2510261Y56634048D01*
X2557880Y56586429D01*
X2605500Y56491191D01*
X2605500Y56253096D01*
X2557880Y56157858D01*
X2510261Y56110239D01*
X2415023Y56062620D01*
X2176928Y56062620D01*
X2081690Y56110239D01*
X2034071Y56157858D01*
X2891214Y57062620D02*
X3224547Y56062620D01*
X3557880Y57062620D01*
X843595Y53522620D02*
X843595Y54522620D01*
X1081690Y54522620D01*
X1224547Y54475000D01*
X1319785Y54379762D01*
X1367404Y54284524D01*
X1415023Y54094048D01*
X1415023Y53951191D01*
X1367404Y53760715D01*
X1319785Y53665477D01*
X1224547Y53570239D01*
X1081690Y53522620D01*
X843595Y53522620D01*
X1795976Y53808334D02*
X2272166Y53808334D01*
X1700738Y53522620D02*
X2034071Y54522620D01*
X2367404Y53522620D01*
X2557880Y54522620D02*
X3129309Y54522620D01*
X2843595Y53522620D02*
X2843595Y54522620D01*
X3415023Y53808334D02*
X3891214Y53808334D01*
X3319785Y53522620D02*
X3653119Y54522620D01*
X3986452Y53522620D01*
X4081690Y53427381D02*
X4843595Y53427381D01*
X5081690Y53522620D02*
X5081690Y54522620D01*
X5557880Y53522620D02*
X5557880Y54522620D01*
X6129309Y53522620D01*
X6129309Y54522620D01*
X-2140977Y48442620D02*
X-2474310Y48918810D01*
X-2712405Y48442620D02*
X-2712405Y49442620D01*
X-2331453Y49442620D01*
X-2236215Y49395000D01*
X-2188596Y49347381D01*
X-2140977Y49252143D01*
X-2140977Y49109286D01*
X-2188596Y49014048D01*
X-2236215Y48966429D01*
X-2331453Y48918810D01*
X-2712405Y48918810D01*
X-1712405Y48442620D02*
X-1712405Y49442620D01*
X-1236215Y48442620D02*
X-1236215Y49442620D01*
X-664786Y48442620D01*
X-664786Y49442620D01*
X335214Y49395000D02*
X239976Y49442620D01*
X97119Y49442620D01*
X-45739Y49395000D01*
X-140977Y49299762D01*
X-188596Y49204524D01*
X-236215Y49014048D01*
X-236215Y48871191D01*
X-188596Y48680715D01*
X-140977Y48585477D01*
X-45739Y48490239D01*
X97119Y48442620D01*
X192357Y48442620D01*
X335214Y48490239D01*
X382833Y48537858D01*
X382833Y48871191D01*
X192357Y48871191D01*
%TO.C,R3*%
X3897333Y47807620D02*
X3564000Y48283810D01*
X3325904Y47807620D02*
X3325904Y48807620D01*
X3706857Y48807620D01*
X3802095Y48760000D01*
X3849714Y48712381D01*
X3897333Y48617143D01*
X3897333Y48474286D01*
X3849714Y48379048D01*
X3802095Y48331429D01*
X3706857Y48283810D01*
X3325904Y48283810D01*
X4230666Y48807620D02*
X4849714Y48807620D01*
X4516380Y48426667D01*
X4659238Y48426667D01*
X4754476Y48379048D01*
X4802095Y48331429D01*
X4849714Y48236191D01*
X4849714Y47998096D01*
X4802095Y47902858D01*
X4754476Y47855239D01*
X4659238Y47807620D01*
X4373523Y47807620D01*
X4278285Y47855239D01*
X4230666Y47902858D01*
%TO.C,C3*%
X-22264667Y-12676142D02*
X-22312286Y-12723761D01*
X-22455143Y-12771380D01*
X-22550381Y-12771380D01*
X-22693239Y-12723761D01*
X-22788477Y-12628523D01*
X-22836096Y-12533285D01*
X-22883715Y-12342809D01*
X-22883715Y-12199952D01*
X-22836096Y-12009476D01*
X-22788477Y-11914238D01*
X-22693239Y-11819000D01*
X-22550381Y-11771380D01*
X-22455143Y-11771380D01*
X-22312286Y-11819000D01*
X-22264667Y-11866619D01*
X-21931334Y-11771380D02*
X-21312286Y-11771380D01*
X-21645620Y-12152333D01*
X-21502762Y-12152333D01*
X-21407524Y-12199952D01*
X-21359905Y-12247571D01*
X-21312286Y-12342809D01*
X-21312286Y-12580904D01*
X-21359905Y-12676142D01*
X-21407524Y-12723761D01*
X-21502762Y-12771380D01*
X-21788477Y-12771380D01*
X-21883715Y-12723761D01*
X-21931334Y-12676142D01*
%TO.C,SW2*%
X-13428024Y-37488761D02*
X-13285167Y-37536380D01*
X-13047072Y-37536380D01*
X-12951834Y-37488761D01*
X-12904215Y-37441142D01*
X-12856596Y-37345904D01*
X-12856596Y-37250666D01*
X-12904215Y-37155428D01*
X-12951834Y-37107809D01*
X-13047072Y-37060190D01*
X-13237548Y-37012571D01*
X-13332786Y-36964952D01*
X-13380405Y-36917333D01*
X-13428024Y-36822095D01*
X-13428024Y-36726857D01*
X-13380405Y-36631619D01*
X-13332786Y-36584000D01*
X-13237548Y-36536380D01*
X-12999453Y-36536380D01*
X-12856596Y-36584000D01*
X-12523262Y-36536380D02*
X-12285167Y-37536380D01*
X-12094691Y-36822095D01*
X-11904215Y-37536380D01*
X-11666120Y-36536380D01*
X-11332786Y-36631619D02*
X-11285167Y-36584000D01*
X-11189929Y-36536380D01*
X-10951834Y-36536380D01*
X-10856596Y-36584000D01*
X-10808977Y-36631619D01*
X-10761358Y-36726857D01*
X-10761358Y-36822095D01*
X-10808977Y-36964952D01*
X-11380405Y-37536380D01*
X-10761358Y-37536380D01*
X-20032024Y-37488761D02*
X-19889167Y-37536380D01*
X-19651072Y-37536380D01*
X-19555834Y-37488761D01*
X-19508215Y-37441142D01*
X-19460596Y-37345904D01*
X-19460596Y-37250666D01*
X-19508215Y-37155428D01*
X-19555834Y-37107809D01*
X-19651072Y-37060190D01*
X-19841548Y-37012571D01*
X-19936786Y-36964952D01*
X-19984405Y-36917333D01*
X-20032024Y-36822095D01*
X-20032024Y-36726857D01*
X-19984405Y-36631619D01*
X-19936786Y-36584000D01*
X-19841548Y-36536380D01*
X-19603453Y-36536380D01*
X-19460596Y-36584000D01*
X-19127262Y-36536380D02*
X-18889167Y-37536380D01*
X-18698691Y-36822095D01*
X-18508215Y-37536380D01*
X-18270120Y-36536380D01*
X-17889167Y-37536380D02*
X-17889167Y-36536380D01*
X-17555834Y-36536380D02*
X-16984405Y-36536380D01*
X-17270120Y-37536380D02*
X-17270120Y-36536380D01*
X-16079643Y-37441142D02*
X-16127262Y-37488761D01*
X-16270120Y-37536380D01*
X-16365358Y-37536380D01*
X-16508215Y-37488761D01*
X-16603453Y-37393523D01*
X-16651072Y-37298285D01*
X-16698691Y-37107809D01*
X-16698691Y-36964952D01*
X-16651072Y-36774476D01*
X-16603453Y-36679238D01*
X-16508215Y-36584000D01*
X-16365358Y-36536380D01*
X-16270120Y-36536380D01*
X-16127262Y-36584000D01*
X-16079643Y-36631619D01*
X-15651072Y-37536380D02*
X-15651072Y-36536380D01*
X-15651072Y-37012571D02*
X-15079643Y-37012571D01*
X-15079643Y-37536380D02*
X-15079643Y-36536380D01*
X-14405429Y-41051880D02*
X-14405429Y-42987119D01*
X-15373048Y-42019500D02*
X-13437810Y-42019500D01*
X-17199429Y-41051880D02*
X-17199429Y-42987119D01*
%TO.C,J3*%
X-6683334Y37377620D02*
X-6683334Y36663334D01*
X-6730953Y36520477D01*
X-6826191Y36425239D01*
X-6969048Y36377620D01*
X-7064286Y36377620D01*
X-6302381Y37377620D02*
X-5683334Y37377620D01*
X-6016667Y36996667D01*
X-5873810Y36996667D01*
X-5778572Y36949048D01*
X-5730953Y36901429D01*
X-5683334Y36806191D01*
X-5683334Y36568096D01*
X-5730953Y36472858D01*
X-5778572Y36425239D01*
X-5873810Y36377620D01*
X-6159524Y36377620D01*
X-6254762Y36425239D01*
X-6302381Y36472858D01*
%TO.C,Q1*%
X-57245239Y5087381D02*
X-57340477Y5135000D01*
X-57435715Y5230239D01*
X-57578572Y5373096D01*
X-57673810Y5420715D01*
X-57769048Y5420715D01*
X-57721429Y5182620D02*
X-57816667Y5230239D01*
X-57911905Y5325477D01*
X-57959524Y5515953D01*
X-57959524Y5849286D01*
X-57911905Y6039762D01*
X-57816667Y6135000D01*
X-57721429Y6182620D01*
X-57530953Y6182620D01*
X-57435715Y6135000D01*
X-57340477Y6039762D01*
X-57292858Y5849286D01*
X-57292858Y5515953D01*
X-57340477Y5325477D01*
X-57435715Y5230239D01*
X-57530953Y5182620D01*
X-57721429Y5182620D01*
X-56340477Y5182620D02*
X-56911905Y5182620D01*
X-56626191Y5182620D02*
X-56626191Y6182620D01*
X-56721429Y6039762D01*
X-56816667Y5944524D01*
X-56911905Y5896905D01*
%TO.C,C2*%
X-41822667Y-12803142D02*
X-41870286Y-12850761D01*
X-42013143Y-12898380D01*
X-42108381Y-12898380D01*
X-42251239Y-12850761D01*
X-42346477Y-12755523D01*
X-42394096Y-12660285D01*
X-42441715Y-12469809D01*
X-42441715Y-12326952D01*
X-42394096Y-12136476D01*
X-42346477Y-12041238D01*
X-42251239Y-11946000D01*
X-42108381Y-11898380D01*
X-42013143Y-11898380D01*
X-41870286Y-11946000D01*
X-41822667Y-11993619D01*
X-41441715Y-11993619D02*
X-41394096Y-11946000D01*
X-41298858Y-11898380D01*
X-41060762Y-11898380D01*
X-40965524Y-11946000D01*
X-40917905Y-11993619D01*
X-40870286Y-12088857D01*
X-40870286Y-12184095D01*
X-40917905Y-12326952D01*
X-41489334Y-12898380D01*
X-40870286Y-12898380D01*
%TO.C,U2*%
X-40304405Y88812620D02*
X-40304405Y88003096D01*
X-40256786Y87907858D01*
X-40209167Y87860239D01*
X-40113929Y87812620D01*
X-39923453Y87812620D01*
X-39828215Y87860239D01*
X-39780596Y87907858D01*
X-39732977Y88003096D01*
X-39732977Y88812620D01*
X-39304405Y88717381D02*
X-39256786Y88765000D01*
X-39161548Y88812620D01*
X-38923453Y88812620D01*
X-38828215Y88765000D01*
X-38780596Y88717381D01*
X-38732977Y88622143D01*
X-38732977Y88526905D01*
X-38780596Y88384048D01*
X-39352024Y87812620D01*
X-38732977Y87812620D01*
X-41502081Y84059062D02*
X-42502081Y83725729D01*
X-41502081Y83392396D01*
X-42502081Y82916205D02*
X-42454462Y83011443D01*
X-42406843Y83059062D01*
X-42311605Y83106681D01*
X-42025891Y83106681D01*
X-41930653Y83059062D01*
X-41883034Y83011443D01*
X-41835415Y82916205D01*
X-41835415Y82773348D01*
X-41883034Y82678110D01*
X-41930653Y82630491D01*
X-42025891Y82582872D01*
X-42311605Y82582872D01*
X-42406843Y82630491D01*
X-42454462Y82678110D01*
X-42502081Y82773348D01*
X-42502081Y82916205D01*
X-41835415Y81725729D02*
X-42502081Y81725729D01*
X-41835415Y82154300D02*
X-42359224Y82154300D01*
X-42454462Y82106681D01*
X-42502081Y82011443D01*
X-42502081Y81868586D01*
X-42454462Y81773348D01*
X-42406843Y81725729D01*
X-41835415Y81392396D02*
X-41835415Y81011443D01*
X-41502081Y81249539D02*
X-42359224Y81249539D01*
X-42454462Y81201920D01*
X-42502081Y81106681D01*
X-42502081Y81011443D01*
X-40409286Y89717620D02*
X-40409286Y90717620D01*
X-40075953Y90003334D01*
X-39742620Y90717620D01*
X-39742620Y89717620D01*
X-39266429Y89717620D02*
X-39266429Y90717620D01*
X-38885477Y90717620D01*
X-38790239Y90670000D01*
X-38742620Y90622381D01*
X-38695000Y90527143D01*
X-38695000Y90384286D01*
X-38742620Y90289048D01*
X-38790239Y90241429D01*
X-38885477Y90193810D01*
X-39266429Y90193810D01*
X-38361667Y90717620D02*
X-37695000Y89717620D01*
X-37695000Y90717620D02*
X-38361667Y89717620D01*
X-36837858Y90717620D02*
X-37314048Y90717620D01*
X-37361667Y90241429D01*
X-37314048Y90289048D01*
X-37218810Y90336667D01*
X-36980715Y90336667D01*
X-36885477Y90289048D01*
X-36837858Y90241429D01*
X-36790239Y90146191D01*
X-36790239Y89908096D01*
X-36837858Y89812858D01*
X-36885477Y89765239D01*
X-36980715Y89717620D01*
X-37218810Y89717620D01*
X-37314048Y89765239D01*
X-37361667Y89812858D01*
X-36171191Y90717620D02*
X-36075953Y90717620D01*
X-35980715Y90670000D01*
X-35933096Y90622381D01*
X-35885477Y90527143D01*
X-35837858Y90336667D01*
X-35837858Y90098572D01*
X-35885477Y89908096D01*
X-35933096Y89812858D01*
X-35980715Y89765239D01*
X-36075953Y89717620D01*
X-36171191Y89717620D01*
X-36266429Y89765239D01*
X-36314048Y89812858D01*
X-36361667Y89908096D01*
X-36409286Y90098572D01*
X-36409286Y90336667D01*
X-36361667Y90527143D01*
X-36314048Y90622381D01*
X-36266429Y90670000D01*
X-36171191Y90717620D01*
X-34933096Y90717620D02*
X-35409286Y90717620D01*
X-35456905Y90241429D01*
X-35409286Y90289048D01*
X-35314048Y90336667D01*
X-35075953Y90336667D01*
X-34980715Y90289048D01*
X-34933096Y90241429D01*
X-34885477Y90146191D01*
X-34885477Y89908096D01*
X-34933096Y89812858D01*
X-34980715Y89765239D01*
X-35075953Y89717620D01*
X-35314048Y89717620D01*
X-35409286Y89765239D01*
X-35456905Y89812858D01*
X-34266429Y90717620D02*
X-34171191Y90717620D01*
X-34075953Y90670000D01*
X-34028334Y90622381D01*
X-33980715Y90527143D01*
X-33933096Y90336667D01*
X-33933096Y90098572D01*
X-33980715Y89908096D01*
X-34028334Y89812858D01*
X-34075953Y89765239D01*
X-34171191Y89717620D01*
X-34266429Y89717620D01*
X-34361667Y89765239D01*
X-34409286Y89812858D01*
X-34456905Y89908096D01*
X-34504524Y90098572D01*
X-34504524Y90336667D01*
X-34456905Y90527143D01*
X-34409286Y90622381D01*
X-34361667Y90670000D01*
X-34266429Y90717620D01*
X-32980715Y90670000D02*
X-33075953Y90717620D01*
X-33218810Y90717620D01*
X-33361667Y90670000D01*
X-33456905Y90574762D01*
X-33504524Y90479524D01*
X-33552143Y90289048D01*
X-33552143Y90146191D01*
X-33504524Y89955715D01*
X-33456905Y89860477D01*
X-33361667Y89765239D01*
X-33218810Y89717620D01*
X-33123572Y89717620D01*
X-32980715Y89765239D01*
X-32933096Y89812858D01*
X-32933096Y90146191D01*
X-33123572Y90146191D01*
X-32504524Y89717620D02*
X-32504524Y90717620D01*
X-32123572Y90717620D01*
X-32028334Y90670000D01*
X-31980715Y90622381D01*
X-31933096Y90527143D01*
X-31933096Y90384286D01*
X-31980715Y90289048D01*
X-32028334Y90241429D01*
X-32123572Y90193810D01*
X-32504524Y90193810D01*
X-51110481Y81998086D02*
X-50110481Y81998086D01*
X-50824767Y81664753D01*
X-50110481Y81331420D01*
X-51110481Y81331420D01*
X-51110481Y80855229D02*
X-50110481Y80855229D01*
X-50110481Y80474277D01*
X-50158100Y80379039D01*
X-50205720Y80331420D01*
X-50300958Y80283800D01*
X-50443815Y80283800D01*
X-50539053Y80331420D01*
X-50586672Y80379039D01*
X-50634291Y80474277D01*
X-50634291Y80855229D01*
X-50110481Y79950467D02*
X-51110481Y79283800D01*
X-50110481Y79283800D02*
X-51110481Y79950467D01*
X-50110481Y78426658D02*
X-50110481Y78902848D01*
X-50586672Y78950467D01*
X-50539053Y78902848D01*
X-50491434Y78807610D01*
X-50491434Y78569515D01*
X-50539053Y78474277D01*
X-50586672Y78426658D01*
X-50681910Y78379039D01*
X-50920005Y78379039D01*
X-51015243Y78426658D01*
X-51062862Y78474277D01*
X-51110481Y78569515D01*
X-51110481Y78807610D01*
X-51062862Y78902848D01*
X-51015243Y78950467D01*
X-50110481Y77759991D02*
X-50110481Y77664753D01*
X-50158100Y77569515D01*
X-50205720Y77521896D01*
X-50300958Y77474277D01*
X-50491434Y77426658D01*
X-50729529Y77426658D01*
X-50920005Y77474277D01*
X-51015243Y77521896D01*
X-51062862Y77569515D01*
X-51110481Y77664753D01*
X-51110481Y77759991D01*
X-51062862Y77855229D01*
X-51015243Y77902848D01*
X-50920005Y77950467D01*
X-50729529Y77998086D01*
X-50491434Y77998086D01*
X-50300958Y77950467D01*
X-50205720Y77902848D01*
X-50158100Y77855229D01*
X-50110481Y77759991D01*
X-50110481Y76521896D02*
X-50110481Y76998086D01*
X-50586672Y77045705D01*
X-50539053Y76998086D01*
X-50491434Y76902848D01*
X-50491434Y76664753D01*
X-50539053Y76569515D01*
X-50586672Y76521896D01*
X-50681910Y76474277D01*
X-50920005Y76474277D01*
X-51015243Y76521896D01*
X-51062862Y76569515D01*
X-51110481Y76664753D01*
X-51110481Y76902848D01*
X-51062862Y76998086D01*
X-51015243Y77045705D01*
X-50110481Y75855229D02*
X-50110481Y75759991D01*
X-50158100Y75664753D01*
X-50205720Y75617134D01*
X-50300958Y75569515D01*
X-50491434Y75521896D01*
X-50729529Y75521896D01*
X-50920005Y75569515D01*
X-51015243Y75617134D01*
X-51062862Y75664753D01*
X-51110481Y75759991D01*
X-51110481Y75855229D01*
X-51062862Y75950467D01*
X-51015243Y75998086D01*
X-50920005Y76045705D01*
X-50729529Y76093324D01*
X-50491434Y76093324D01*
X-50300958Y76045705D01*
X-50205720Y75998086D01*
X-50158100Y75950467D01*
X-50110481Y75855229D01*
X-50158100Y74569515D02*
X-50110481Y74664753D01*
X-50110481Y74807610D01*
X-50158100Y74950467D01*
X-50253339Y75045705D01*
X-50348577Y75093324D01*
X-50539053Y75140943D01*
X-50681910Y75140943D01*
X-50872386Y75093324D01*
X-50967624Y75045705D01*
X-51062862Y74950467D01*
X-51110481Y74807610D01*
X-51110481Y74712372D01*
X-51062862Y74569515D01*
X-51015243Y74521896D01*
X-50681910Y74521896D01*
X-50681910Y74712372D01*
X-51110481Y74093324D02*
X-50110481Y74093324D01*
X-50110481Y73712372D01*
X-50158100Y73617134D01*
X-50205720Y73569515D01*
X-50300958Y73521896D01*
X-50443815Y73521896D01*
X-50539053Y73569515D01*
X-50586672Y73617134D01*
X-50634291Y73712372D01*
X-50634291Y74093324D01*
X-49020481Y86345062D02*
X-50020481Y86011729D01*
X-49020481Y85678396D01*
X-50020481Y84821253D02*
X-50020481Y85392681D01*
X-50020481Y85106967D02*
X-49020481Y85106967D01*
X-49163339Y85202205D01*
X-49258577Y85297443D01*
X-49306196Y85392681D01*
X-44064300Y84916396D02*
X-44016681Y85011634D01*
X-44016681Y85154491D01*
X-44064300Y85297348D01*
X-44159539Y85392586D01*
X-44254777Y85440205D01*
X-44445253Y85487824D01*
X-44588110Y85487824D01*
X-44778586Y85440205D01*
X-44873824Y85392586D01*
X-44969062Y85297348D01*
X-45016681Y85154491D01*
X-45016681Y85059253D01*
X-44969062Y84916396D01*
X-44921443Y84868777D01*
X-44588110Y84868777D01*
X-44588110Y85059253D01*
X-45016681Y84440205D02*
X-44016681Y84440205D01*
X-45016681Y83868777D01*
X-44016681Y83868777D01*
X-45016681Y83392586D02*
X-44016681Y83392586D01*
X-44016681Y83154491D01*
X-44064300Y83011634D01*
X-44159539Y82916396D01*
X-44254777Y82868777D01*
X-44445253Y82821158D01*
X-44588110Y82821158D01*
X-44778586Y82868777D01*
X-44873824Y82916396D01*
X-44969062Y83011634D01*
X-45016681Y83154491D01*
X-45016681Y83392586D01*
X-51585881Y85583062D02*
X-52585881Y85249729D01*
X-51585881Y84916396D01*
X-51681120Y84630681D02*
X-51633500Y84583062D01*
X-51585881Y84487824D01*
X-51585881Y84249729D01*
X-51633500Y84154491D01*
X-51681120Y84106872D01*
X-51776358Y84059253D01*
X-51871596Y84059253D01*
X-52014453Y84106872D01*
X-52585881Y84678300D01*
X-52585881Y84059253D01*
X-46556681Y86345062D02*
X-47556681Y86011729D01*
X-46556681Y85678396D01*
X-47461443Y84773634D02*
X-47509062Y84821253D01*
X-47556681Y84964110D01*
X-47556681Y85059348D01*
X-47509062Y85202205D01*
X-47413824Y85297443D01*
X-47318586Y85345062D01*
X-47128110Y85392681D01*
X-46985253Y85392681D01*
X-46794777Y85345062D01*
X-46699539Y85297443D01*
X-46604300Y85202205D01*
X-46556681Y85059348D01*
X-46556681Y84964110D01*
X-46604300Y84821253D01*
X-46651920Y84773634D01*
X-47461443Y83773634D02*
X-47509062Y83821253D01*
X-47556681Y83964110D01*
X-47556681Y84059348D01*
X-47509062Y84202205D01*
X-47413824Y84297443D01*
X-47318586Y84345062D01*
X-47128110Y84392681D01*
X-46985253Y84392681D01*
X-46794777Y84345062D01*
X-46699539Y84297443D01*
X-46604300Y84202205D01*
X-46556681Y84059348D01*
X-46556681Y83964110D01*
X-46604300Y83821253D01*
X-46651920Y83773634D01*
X-54100481Y84059062D02*
X-55100481Y83725729D01*
X-54100481Y83392396D01*
X-55195720Y83297158D02*
X-55195720Y82535253D01*
X-54576672Y82297158D02*
X-54576672Y81963824D01*
X-55100481Y81820967D02*
X-55100481Y82297158D01*
X-54100481Y82297158D01*
X-54100481Y81820967D01*
X-55100481Y81487634D02*
X-54433815Y80963824D01*
X-54433815Y81487634D02*
X-55100481Y80963824D01*
%TO.C,C1*%
X-47791667Y94892858D02*
X-47839286Y94845239D01*
X-47982143Y94797620D01*
X-48077381Y94797620D01*
X-48220239Y94845239D01*
X-48315477Y94940477D01*
X-48363096Y95035715D01*
X-48410715Y95226191D01*
X-48410715Y95369048D01*
X-48363096Y95559524D01*
X-48315477Y95654762D01*
X-48220239Y95750000D01*
X-48077381Y95797620D01*
X-47982143Y95797620D01*
X-47839286Y95750000D01*
X-47791667Y95702381D01*
X-46839286Y94797620D02*
X-47410715Y94797620D01*
X-47125000Y94797620D02*
X-47125000Y95797620D01*
X-47220239Y95654762D01*
X-47315477Y95559524D01*
X-47410715Y95511905D01*
%TO.C,U1*%
X-29878905Y-8069880D02*
X-29878905Y-8879404D01*
X-29831286Y-8974642D01*
X-29783667Y-9022261D01*
X-29688429Y-9069880D01*
X-29497953Y-9069880D01*
X-29402715Y-9022261D01*
X-29355096Y-8974642D01*
X-29307477Y-8879404D01*
X-29307477Y-8069880D01*
X-28307477Y-9069880D02*
X-28878905Y-9069880D01*
X-28593191Y-9069880D02*
X-28593191Y-8069880D01*
X-28688429Y-8212738D01*
X-28783667Y-8307976D01*
X-28878905Y-8355595D01*
D11*
%TO.C,SW3*%
X43132000Y93670000D02*
X25632000Y93670000D01*
X25632000Y74670000D02*
X43132000Y74670000D01*
X25632000Y93670000D02*
X25632000Y74670000D01*
X43132000Y74670000D02*
X43132000Y93670000D01*
X30382000Y74670000D02*
X38382000Y74670000D01*
X38382000Y74670000D02*
X38382000Y69670000D01*
X38382000Y69670000D02*
X30382000Y69670000D01*
X30382000Y69670000D02*
X30382000Y74670000D01*
X38382000Y93670000D02*
X30507000Y93670000D01*
X33257000Y96420000D01*
X35632000Y96420000D01*
X38382000Y93670000D01*
%TO.C,R1*%
X-53880000Y-21690000D02*
X-53880000Y-21360000D01*
X-60420000Y-18950000D02*
X-53880000Y-18950000D01*
X-53880000Y-18950000D02*
X-53880000Y-19280000D01*
X-60420000Y-19280000D02*
X-60420000Y-18950000D01*
X-60420000Y-21690000D02*
X-53880000Y-21690000D01*
X-60420000Y-21360000D02*
X-60420000Y-21690000D01*
%TO.C,J2*%
X-25400000Y-35306000D02*
X-25400000Y-37871400D01*
D14*
X-34290000Y-50038000D02*
X-25400000Y-50038000D01*
X-25400000Y-50038000D02*
X-25400000Y-40259000D01*
D11*
X-25400000Y-35306000D02*
X-28752800Y-35306000D01*
D14*
X-34290000Y-35306000D02*
X-34290000Y-50038000D01*
D11*
X-34290000Y-35306000D02*
X-30683200Y-35306000D01*
X-34290000Y-50038000D02*
X-25400000Y-50038000D01*
X-25400000Y-50038000D02*
X-25400000Y-48260000D01*
X-25400000Y-48260000D02*
X-34290000Y-48260000D01*
X-34290000Y-48260000D02*
X-34290000Y-50038000D01*
%TO.C,D1*%
X-57115000Y-34490000D02*
X-57115000Y-31550000D01*
X-57355000Y-34490000D02*
X-57355000Y-31550000D01*
X-56335000Y-34160000D02*
X-56335000Y-34490000D01*
X-56335000Y-31550000D02*
X-61775000Y-31550000D01*
X-61775000Y-34490000D02*
X-61775000Y-34160000D01*
X-56335000Y-34490000D02*
X-61775000Y-34490000D01*
X-57235000Y-34490000D02*
X-57235000Y-31550000D01*
X-56335000Y-31880000D02*
X-56335000Y-31550000D01*
X-61775000Y-31550000D02*
X-61775000Y-31880000D01*
%TO.C,U3*%
X-23114000Y62230000D02*
X-22606000Y61722000D01*
X-20320000Y81788000D02*
X-20320000Y81026000D01*
X-23114000Y62230000D02*
X-17526000Y62230000D01*
X-20320000Y74168000D02*
X-20320000Y73406000D01*
X-23114000Y62230000D02*
X-22606000Y62738000D01*
X-20320000Y79248000D02*
X-20320000Y78486000D01*
X-20320000Y83058000D02*
X-20320000Y82296000D01*
X-20320000Y84328000D02*
X-20320000Y83566000D01*
X-22606000Y61722000D02*
X-23114000Y62230000D01*
X-20320000Y80518000D02*
X-20320000Y79756000D01*
X-20320000Y76708000D02*
X-20320000Y75946000D01*
X-20320000Y75438000D02*
X-20320000Y74676000D01*
X-20320000Y77978000D02*
X-20320000Y77216000D01*
X-17526000Y62230000D02*
X-18034000Y62738000D01*
X-17526000Y62230000D02*
X-18034000Y61722000D01*
X-27940000Y57912000D02*
X-12700000Y57912000D01*
X-12700000Y57912000D02*
X-12700000Y84328000D01*
X-12700000Y84328000D02*
X-27940000Y84328000D01*
X-27940000Y84328000D02*
X-27940000Y57912000D01*
%TO.C,U4*%
X-6070000Y88945000D02*
X-7720000Y88945000D01*
X-7720000Y68505000D02*
X-2420000Y68505000D01*
X-2420000Y68505000D02*
X-2420000Y88945000D01*
X-2420000Y88945000D02*
X-4070000Y88945000D01*
X-7720000Y88945000D02*
X-7720000Y68505000D01*
X-6070000Y88945000D02*
G75*
G03*
X-4070000Y88945000I1000000J0D01*
G01*
%TO.C,M1*%
X-54483000Y-38227000D02*
X-63627000Y-38227000D01*
X-63627000Y-38227000D02*
X-63627000Y-47244000D01*
X-63627000Y-47244000D02*
X-54483000Y-47244000D01*
X-54483000Y-47244000D02*
X-54483000Y-38227000D01*
%TO.C,SW1*%
X-37850000Y38600000D02*
X-37850000Y37600000D01*
X-45650000Y42200000D02*
X-45050000Y42200000D01*
X-31150000Y44400000D02*
X-31150000Y41800000D01*
X-36050000Y44400000D02*
X-31150000Y44400000D01*
X-44550000Y44400000D02*
X-44550000Y41900000D01*
X-44550000Y31800000D02*
X-44550000Y34600000D01*
X-31150000Y31800000D02*
X-36050000Y31800000D01*
X-31150000Y39400000D02*
X-31150000Y36800000D01*
X-31150000Y34400000D02*
X-31150000Y31800000D01*
X-39750000Y44400000D02*
X-44550000Y44400000D01*
X-39650000Y31800000D02*
X-44550000Y31800000D01*
X-45350000Y41900000D02*
X-45650000Y42200000D01*
X-45050000Y42200000D02*
X-45350000Y41900000D01*
X-38350000Y38100000D02*
X-37350000Y38100000D01*
X-34850000Y38100000D02*
G75*
G03*
X-34850000Y38100000I-3000000J0D01*
G01*
D14*
%TO.C,R2*%
X11115188Y86552253D02*
X10902025Y86754537D01*
X8687851Y87081498D02*
X8425319Y86949458D01*
X7738260Y83875733D02*
X7919586Y83644479D01*
X9547622Y87250179D02*
X9254243Y87233262D01*
X7589997Y84129456D02*
X7738260Y83875733D01*
X7402968Y84685201D02*
X7477539Y84400953D01*
X10902025Y86754537D02*
X10663381Y86926021D01*
X7621123Y86110850D02*
X7500193Y85843019D01*
D11*
X12065000Y87630000D02*
X12065000Y86030000D01*
X12065000Y82550000D02*
X7935000Y82550000D01*
D14*
X8425319Y86949458D02*
X8183136Y86783011D01*
X9840583Y87227122D02*
X9547622Y87250179D01*
D11*
X7935000Y87630000D02*
X12065000Y87630000D01*
D14*
X10382957Y83107377D02*
X10644092Y83242159D01*
X10127704Y87164520D02*
X9840583Y87227122D01*
X10403672Y87063530D02*
X10127704Y87164520D01*
X11285918Y83838581D02*
X11439463Y84089143D01*
D11*
X12065000Y84150000D02*
X12065000Y82550000D01*
D14*
X7777283Y86359791D02*
X7621123Y86110850D01*
X9818186Y82949690D02*
X10105947Y83009283D01*
X7919586Y83644479D02*
X8130620Y83439974D01*
X10644092Y83242159D02*
X10884519Y83411134D01*
D11*
X11049000Y85090000D02*
X8001000Y85090000D01*
D14*
X10884519Y83411134D02*
X11099789Y83611175D01*
X7477539Y84400953D02*
X7589997Y84129456D01*
X7416730Y85561254D02*
X7372279Y85270769D01*
X10663381Y86926021D02*
X10403672Y87063530D01*
X8625710Y83125780D02*
X8900605Y83021906D01*
X7372279Y85270769D02*
X7367664Y84976939D01*
D11*
X9525000Y86614000D02*
X9525000Y83566000D01*
D14*
X10105947Y83009283D02*
X10382957Y83107377D01*
X8130620Y83439974D02*
X8367455Y83266001D01*
X11298926Y86322911D02*
X11115188Y86552253D01*
X11439463Y84089143D02*
X11535000Y84330000D01*
X8367455Y83266001D02*
X8625710Y83125780D01*
X9187055Y82956300D02*
X9479758Y82930177D01*
X11099789Y83611175D02*
X11285918Y83838581D01*
X11449839Y86070754D02*
X11298926Y86322911D01*
X7965784Y86585235D02*
X7777283Y86359791D01*
D11*
X6985000Y83480000D02*
X6985000Y86730000D01*
D14*
X9525000Y82929703D02*
X9818186Y82949690D01*
X8900605Y83021906D02*
X9187055Y82956300D01*
X8965874Y87176687D02*
X8687851Y87081498D01*
X9479758Y82930177D02*
X9525000Y82929703D01*
X7367664Y84976939D02*
X7402968Y84685201D01*
X11535000Y85830000D02*
X11449839Y86070754D01*
X7500193Y85843019D02*
X7416730Y85561254D01*
X9254243Y87233262D02*
X8965874Y87176687D01*
X8183136Y86783011D02*
X7965784Y86585235D01*
D11*
%TO.C,J1*%
X-2794000Y58039000D02*
X254000Y58039000D01*
X254000Y58039000D02*
X254000Y49911000D01*
X254000Y49911000D02*
X-2794000Y49911000D01*
X-2794000Y49911000D02*
X-2794000Y58039000D01*
%TO.C,R3*%
X3334000Y47344000D02*
X9874000Y47344000D01*
X9874000Y47344000D02*
X9874000Y47014000D01*
X9874000Y44604000D02*
X9874000Y44934000D01*
X3334000Y44604000D02*
X9874000Y44604000D01*
X3334000Y47014000D02*
X3334000Y47344000D01*
X3334000Y44934000D02*
X3334000Y44604000D01*
%TO.C,C3*%
X-21004000Y-12700113D02*
X-20725000Y-12700113D01*
X-18645000Y-12820113D02*
X-18185000Y-12820113D01*
X-18645000Y-14701113D02*
X-17116000Y-14701113D01*
X-18645000Y-13180113D02*
X-17784000Y-13180113D01*
X-22261000Y-14781113D02*
X-17109000Y-14781113D01*
X-21885000Y-13580113D02*
X-20725000Y-13580113D01*
X-21909000Y-13620113D02*
X-20725000Y-13620113D01*
X-22250000Y-14661113D02*
X-20725000Y-14661113D01*
X-22241000Y-14581113D02*
X-20725000Y-14581113D01*
X-21239000Y-12860113D02*
X-20725000Y-12860113D01*
X-18645000Y-13580113D02*
X-17485000Y-13580113D01*
X-22014000Y-13820113D02*
X-20725000Y-13820113D01*
X-18645000Y-13980113D02*
X-17287000Y-13980113D01*
X-18645000Y-13220113D02*
X-17748000Y-13220113D01*
X-22228000Y-14501113D02*
X-20725000Y-14501113D01*
X-22246000Y-14621113D02*
X-20725000Y-14621113D01*
X-18645000Y-13700113D02*
X-17417000Y-13700113D01*
X-22221000Y-14461113D02*
X-20725000Y-14461113D01*
X-18645000Y-12780113D02*
X-18242000Y-12780113D01*
X-21834000Y-13500113D02*
X-20725000Y-13500113D01*
X-18645000Y-12900113D02*
X-18080000Y-12900113D01*
X-22213000Y-14421113D02*
X-20725000Y-14421113D01*
X-22067000Y-13940113D02*
X-20725000Y-13940113D01*
X-21975000Y-13740113D02*
X-20725000Y-13740113D01*
X-18645000Y-12940113D02*
X-18032000Y-12940113D01*
X-22153000Y-14180113D02*
X-20725000Y-14180113D01*
X-21470000Y-13060113D02*
X-20725000Y-13060113D01*
X-21428000Y-13020113D02*
X-20725000Y-13020113D01*
X-22186000Y-14301113D02*
X-20725000Y-14301113D01*
X-21549000Y-13140113D02*
X-20725000Y-13140113D01*
X-18645000Y-14261113D02*
X-17194000Y-14261113D01*
X-18645000Y-12660113D02*
X-18434000Y-12660113D01*
X-18645000Y-13820113D02*
X-17356000Y-13820113D01*
X-18645000Y-13940113D02*
X-17303000Y-13940113D01*
X-22265000Y-14901113D02*
X-17105000Y-14901113D01*
X-18645000Y-14020113D02*
X-17271000Y-14020113D01*
X-20936000Y-12660113D02*
X-20725000Y-12660113D01*
X-22083000Y-13980113D02*
X-20725000Y-13980113D01*
X-18645000Y-13900113D02*
X-17320000Y-13900113D01*
X-18645000Y-14381113D02*
X-17165000Y-14381113D01*
X-21290000Y-12900113D02*
X-20725000Y-12900113D01*
X-21068000Y-12740113D02*
X-20725000Y-12740113D01*
X-18645000Y-13500113D02*
X-17536000Y-13500113D01*
X-18645000Y-13340113D02*
X-17650000Y-13340113D01*
X-18645000Y-13140113D02*
X-17821000Y-13140113D01*
X-18645000Y-13260113D02*
X-17714000Y-13260113D01*
X-21689000Y-13300113D02*
X-20725000Y-13300113D01*
X-22258000Y-14741113D02*
X-17112000Y-14741113D01*
X-21160000Y-17745888D02*
X-21160000Y-17245888D01*
X-22050000Y-13900113D02*
X-20725000Y-13900113D01*
X-22176000Y-14261113D02*
X-20725000Y-14261113D01*
X-21410000Y-17495888D02*
X-20910000Y-17495888D01*
X-21750000Y-13380113D02*
X-20725000Y-13380113D01*
X-18645000Y-13100113D02*
X-17859000Y-13100113D01*
X-18645000Y-14541113D02*
X-17135000Y-14541113D01*
X-20203000Y-12380113D02*
X-19167000Y-12380113D01*
X-18645000Y-13660113D02*
X-17438000Y-13660113D01*
X-18645000Y-14461113D02*
X-17149000Y-14461113D01*
X-21622000Y-13220113D02*
X-20725000Y-13220113D01*
X-18645000Y-13620113D02*
X-17461000Y-13620113D01*
X-19969000Y-12340113D02*
X-19401000Y-12340113D01*
X-18645000Y-13540113D02*
X-17510000Y-13540113D01*
X-20362000Y-12420113D02*
X-19008000Y-12420113D01*
X-22165000Y-14220113D02*
X-20725000Y-14220113D01*
X-21128000Y-12780113D02*
X-20725000Y-12780113D01*
X-21586000Y-13180113D02*
X-20725000Y-13180113D01*
X-20696000Y-12540113D02*
X-18674000Y-12540113D01*
X-21932000Y-13660113D02*
X-20725000Y-13660113D01*
X-21720000Y-13340113D02*
X-20725000Y-13340113D01*
X-18645000Y-14621113D02*
X-17124000Y-14621113D01*
X-21807000Y-13460113D02*
X-20725000Y-13460113D01*
X-18645000Y-13380113D02*
X-17620000Y-13380113D01*
X-18645000Y-13020113D02*
X-17942000Y-13020113D01*
X-18645000Y-14581113D02*
X-17129000Y-14581113D01*
X-20863000Y-12620113D02*
X-18507000Y-12620113D01*
X-18645000Y-13060113D02*
X-17900000Y-13060113D01*
X-18645000Y-13740113D02*
X-17395000Y-13740113D01*
X-20490000Y-12460113D02*
X-18880000Y-12460113D01*
X-22196000Y-14341113D02*
X-20725000Y-14341113D01*
X-21780000Y-13420113D02*
X-20725000Y-13420113D01*
X-22033000Y-13860113D02*
X-20725000Y-13860113D01*
X-21953000Y-13700113D02*
X-20725000Y-13700113D01*
X-18645000Y-13460113D02*
X-17563000Y-13460113D01*
X-20600000Y-12500113D02*
X-18770000Y-12500113D01*
X-21656000Y-13260113D02*
X-20725000Y-13260113D01*
X-21511000Y-13100113D02*
X-20725000Y-13100113D01*
X-18645000Y-13860113D02*
X-17337000Y-13860113D01*
X-18645000Y-14100113D02*
X-17243000Y-14100113D01*
X-22140000Y-14140113D02*
X-20725000Y-14140113D01*
X-22254000Y-14701113D02*
X-20725000Y-14701113D01*
X-18645000Y-14140113D02*
X-17230000Y-14140113D01*
X-18645000Y-14180113D02*
X-17217000Y-14180113D01*
X-18645000Y-14301113D02*
X-17184000Y-14301113D01*
X-18645000Y-14501113D02*
X-17142000Y-14501113D01*
X-18645000Y-14421113D02*
X-17157000Y-14421113D01*
X-18645000Y-14220113D02*
X-17205000Y-14220113D01*
X-18645000Y-13420113D02*
X-17590000Y-13420113D01*
X-18645000Y-12980113D02*
X-17986000Y-12980113D01*
X-18645000Y-14661113D02*
X-17120000Y-14661113D01*
X-18645000Y-14341113D02*
X-17174000Y-14341113D01*
X-18645000Y-12860113D02*
X-18131000Y-12860113D01*
X-21860000Y-13540113D02*
X-20725000Y-13540113D01*
X-18645000Y-12740113D02*
X-18302000Y-12740113D01*
X-18645000Y-13300113D02*
X-17681000Y-13300113D01*
X-22265000Y-14941113D02*
X-17105000Y-14941113D01*
X-22127000Y-14100113D02*
X-20725000Y-14100113D01*
X-22099000Y-14020113D02*
X-20725000Y-14020113D01*
X-22235000Y-14541113D02*
X-20725000Y-14541113D01*
X-21995000Y-13780113D02*
X-20725000Y-13780113D01*
X-18645000Y-14060113D02*
X-17257000Y-14060113D01*
X-18645000Y-13780113D02*
X-17375000Y-13780113D01*
X-22264000Y-14861113D02*
X-17106000Y-14861113D01*
X-21338000Y-12940113D02*
X-20725000Y-12940113D01*
X-21185000Y-12820113D02*
X-20725000Y-12820113D01*
X-22113000Y-14060113D02*
X-20725000Y-14060113D01*
X-21384000Y-12980113D02*
X-20725000Y-12980113D01*
X-18645000Y-12700113D02*
X-18366000Y-12700113D01*
X-20783000Y-12580113D02*
X-18587000Y-12580113D01*
X-22205000Y-14381113D02*
X-20725000Y-14381113D01*
X-22263000Y-14821113D02*
X-17107000Y-14821113D01*
X-17065000Y-14941113D02*
G75*
G03*
X-17065000Y-14941113I-2620000J0D01*
G01*
%TO.C,SW2*%
X-11176000Y-37955500D02*
X-20320000Y-37955500D01*
X-20320000Y-37955500D02*
X-20320000Y-46972500D01*
X-20320000Y-46972500D02*
X-11176000Y-46972500D01*
X-11176000Y-46972500D02*
X-11176000Y-37955500D01*
%TO.C,J3*%
X-3810000Y29270000D02*
X-3810000Y26670000D01*
X-6410000Y-21650000D02*
X-1210000Y-21650000D01*
X-3810000Y26670000D02*
X-1210000Y26670000D01*
X-6410000Y29270000D02*
X-3810000Y29270000D01*
X25654000Y36068000D02*
X21844000Y36068000D01*
X-2540000Y29270000D02*
X-1210000Y29270000D01*
X-6410000Y29270000D02*
X-6410000Y-21650000D01*
X-1210000Y26670000D02*
X-1210000Y-21650000D01*
X-1210000Y29270000D02*
X-1210000Y27940000D01*
X-5080000Y-52070000D02*
X11684000Y-52070000D01*
X11684000Y-52070000D02*
X11684000Y-30734000D01*
X11684000Y-30734000D02*
X-5080000Y-30734000D01*
X-5080000Y-30734000D02*
X-5080000Y-52070000D01*
X32766000Y-52070000D02*
X46228000Y-52070000D01*
X46228000Y-52070000D02*
X46228000Y-34290000D01*
X46228000Y-34290000D02*
X32766000Y-34290000D01*
X32766000Y-34290000D02*
X32766000Y-52070000D01*
X48768000Y36068000D02*
X-7112000Y36068000D01*
X-7112000Y36068000D02*
X-7112000Y-48768000D01*
X-7112000Y-48768000D02*
X48768000Y-48768000D01*
X48768000Y-48768000D02*
X48768000Y36068000D01*
X14732000Y38608000D02*
X25908000Y38608000D01*
X25908000Y38608000D02*
X25908000Y23368000D01*
X25908000Y23368000D02*
X14732000Y23368000D01*
X14732000Y23368000D02*
X14732000Y38608000D01*
X14986000Y-52070000D02*
X28448000Y-52070000D01*
X28448000Y-52070000D02*
X28448000Y-34290000D01*
X28448000Y-34290000D02*
X14986000Y-34290000D01*
X14986000Y-34290000D02*
X14986000Y-52070000D01*
%TO.C,Q1*%
X-62270000Y4635000D02*
X-52030000Y4635000D01*
X-62270000Y-11255000D02*
X-52030000Y-11255000D01*
X-52030000Y4635000D02*
X-52030000Y-11255000D01*
X-54610000Y-11255000D02*
X-54610000Y-13795000D01*
X-59690000Y-11255000D02*
X-59690000Y-13795000D01*
X-57150000Y-11255000D02*
X-57150000Y-13795000D01*
X-62270000Y4635000D02*
X-62270000Y-11255000D01*
%TO.C,C2*%
X-41435000Y-14741113D02*
X-36289000Y-14741113D01*
X-37822000Y-13540113D02*
X-36687000Y-13540113D01*
X-37822000Y-12900113D02*
X-37257000Y-12900113D01*
X-37822000Y-13740113D02*
X-36572000Y-13740113D01*
X-41440000Y-14821113D02*
X-36284000Y-14821113D01*
X-40957000Y-13420113D02*
X-39902000Y-13420113D01*
X-41390000Y-14421113D02*
X-39902000Y-14421113D01*
X-37822000Y-14100113D02*
X-36420000Y-14100113D01*
X-37822000Y-12940113D02*
X-37209000Y-12940113D01*
X-41431000Y-14701113D02*
X-39902000Y-14701113D01*
X-37822000Y-12660113D02*
X-37611000Y-12660113D01*
X-40897000Y-13340113D02*
X-39902000Y-13340113D01*
X-40561000Y-12980113D02*
X-39902000Y-12980113D01*
X-37822000Y-14461113D02*
X-36326000Y-14461113D01*
X-41330000Y-14180113D02*
X-39902000Y-14180113D01*
X-37822000Y-13580113D02*
X-36662000Y-13580113D01*
X-37822000Y-12700113D02*
X-37543000Y-12700113D01*
X-41441000Y-14861113D02*
X-36283000Y-14861113D01*
X-37822000Y-12860113D02*
X-37308000Y-12860113D01*
X-40113000Y-12660113D02*
X-39902000Y-12660113D01*
X-37822000Y-13020113D02*
X-37119000Y-13020113D01*
X-37822000Y-14301113D02*
X-36361000Y-14301113D01*
X-41227000Y-13900113D02*
X-39902000Y-13900113D01*
X-41260000Y-13980113D02*
X-39902000Y-13980113D01*
X-37822000Y-14541113D02*
X-36312000Y-14541113D01*
X-41244000Y-13940113D02*
X-39902000Y-13940113D01*
X-37822000Y-14341113D02*
X-36351000Y-14341113D01*
X-41382000Y-14381113D02*
X-39902000Y-14381113D01*
X-41442000Y-14941113D02*
X-36282000Y-14941113D01*
X-40833000Y-13260113D02*
X-39902000Y-13260113D01*
X-40605000Y-13020113D02*
X-39902000Y-13020113D01*
X-37822000Y-13780113D02*
X-36552000Y-13780113D01*
X-37822000Y-13340113D02*
X-36827000Y-13340113D01*
X-37822000Y-14261113D02*
X-36371000Y-14261113D01*
X-40515000Y-12940113D02*
X-39902000Y-12940113D01*
X-37822000Y-13860113D02*
X-36514000Y-13860113D01*
X-37822000Y-14140113D02*
X-36407000Y-14140113D01*
X-41276000Y-14020113D02*
X-39902000Y-14020113D01*
X-41290000Y-14060113D02*
X-39902000Y-14060113D01*
X-37822000Y-13820113D02*
X-36533000Y-13820113D01*
X-41412000Y-14541113D02*
X-39902000Y-14541113D01*
X-37822000Y-12980113D02*
X-37163000Y-12980113D01*
X-37822000Y-13180113D02*
X-36961000Y-13180113D01*
X-40040000Y-12620113D02*
X-37684000Y-12620113D01*
X-41130000Y-13700113D02*
X-39902000Y-13700113D01*
X-39873000Y-12540113D02*
X-37851000Y-12540113D01*
X-41353000Y-14261113D02*
X-39902000Y-14261113D01*
X-37822000Y-13300113D02*
X-36858000Y-13300113D01*
X-37822000Y-14701113D02*
X-36293000Y-14701113D01*
X-41191000Y-13820113D02*
X-39902000Y-13820113D01*
X-37822000Y-13100113D02*
X-37036000Y-13100113D01*
X-37822000Y-13900113D02*
X-36497000Y-13900113D01*
X-41418000Y-14581113D02*
X-39902000Y-14581113D01*
X-41011000Y-13500113D02*
X-39902000Y-13500113D01*
X-40688000Y-13100113D02*
X-39902000Y-13100113D01*
X-37822000Y-13620113D02*
X-36638000Y-13620113D01*
X-37822000Y-14220113D02*
X-36382000Y-14220113D01*
X-40799000Y-13220113D02*
X-39902000Y-13220113D01*
X-41427000Y-14661113D02*
X-39902000Y-14661113D01*
X-37822000Y-13980113D02*
X-36464000Y-13980113D01*
X-41037000Y-13540113D02*
X-39902000Y-13540113D01*
X-37822000Y-14060113D02*
X-36434000Y-14060113D01*
X-37822000Y-13060113D02*
X-37077000Y-13060113D01*
X-37822000Y-14581113D02*
X-36306000Y-14581113D01*
X-37822000Y-13220113D02*
X-36925000Y-13220113D01*
X-37822000Y-14661113D02*
X-36297000Y-14661113D01*
X-40467000Y-12900113D02*
X-39902000Y-12900113D01*
X-39380000Y-12380113D02*
X-38344000Y-12380113D01*
X-39667000Y-12460113D02*
X-38057000Y-12460113D01*
X-41405000Y-14501113D02*
X-39902000Y-14501113D01*
X-40726000Y-13140113D02*
X-39902000Y-13140113D01*
X-40866000Y-13300113D02*
X-39902000Y-13300113D01*
X-40984000Y-13460113D02*
X-39902000Y-13460113D01*
X-39960000Y-12580113D02*
X-37764000Y-12580113D01*
X-37822000Y-13700113D02*
X-36594000Y-13700113D01*
X-40416000Y-12860113D02*
X-39902000Y-12860113D01*
X-39777000Y-12500113D02*
X-37947000Y-12500113D01*
X-41210000Y-13860113D02*
X-39902000Y-13860113D01*
X-37822000Y-14180113D02*
X-36394000Y-14180113D01*
X-37822000Y-14501113D02*
X-36319000Y-14501113D01*
X-37822000Y-14621113D02*
X-36301000Y-14621113D01*
X-40362000Y-12820113D02*
X-39902000Y-12820113D01*
X-37822000Y-13460113D02*
X-36740000Y-13460113D01*
X-41442000Y-14901113D02*
X-36282000Y-14901113D01*
X-40763000Y-13180113D02*
X-39902000Y-13180113D01*
X-39146000Y-12340113D02*
X-38578000Y-12340113D01*
X-41373000Y-14341113D02*
X-39902000Y-14341113D01*
X-40181000Y-12700113D02*
X-39902000Y-12700113D01*
X-41423000Y-14621113D02*
X-39902000Y-14621113D01*
X-40245000Y-12740113D02*
X-39902000Y-12740113D01*
X-40647000Y-13060113D02*
X-39902000Y-13060113D01*
X-41398000Y-14461113D02*
X-39902000Y-14461113D01*
X-37822000Y-12820113D02*
X-37362000Y-12820113D01*
X-39539000Y-12420113D02*
X-38185000Y-12420113D01*
X-37822000Y-13940113D02*
X-36480000Y-13940113D01*
X-40305000Y-12780113D02*
X-39902000Y-12780113D01*
X-41086000Y-13620113D02*
X-39902000Y-13620113D01*
X-37822000Y-14020113D02*
X-36448000Y-14020113D01*
X-37822000Y-14421113D02*
X-36334000Y-14421113D01*
X-41342000Y-14220113D02*
X-39902000Y-14220113D01*
X-37822000Y-13380113D02*
X-36797000Y-13380113D01*
X-41304000Y-14100113D02*
X-39902000Y-14100113D01*
X-37822000Y-13420113D02*
X-36767000Y-13420113D01*
X-41317000Y-14140113D02*
X-39902000Y-14140113D01*
X-41109000Y-13660113D02*
X-39902000Y-13660113D01*
X-37822000Y-13660113D02*
X-36615000Y-13660113D01*
X-37822000Y-13260113D02*
X-36891000Y-13260113D01*
X-41363000Y-14301113D02*
X-39902000Y-14301113D01*
X-41062000Y-13580113D02*
X-39902000Y-13580113D01*
X-41438000Y-14781113D02*
X-36286000Y-14781113D01*
X-37822000Y-13140113D02*
X-36998000Y-13140113D01*
X-40337000Y-17745888D02*
X-40337000Y-17245888D01*
X-41172000Y-13780113D02*
X-39902000Y-13780113D01*
X-37822000Y-14381113D02*
X-36342000Y-14381113D01*
X-41152000Y-13740113D02*
X-39902000Y-13740113D01*
X-40587000Y-17495888D02*
X-40087000Y-17495888D01*
X-40927000Y-13380113D02*
X-39902000Y-13380113D01*
X-37822000Y-13500113D02*
X-36713000Y-13500113D01*
X-37822000Y-12740113D02*
X-37479000Y-12740113D01*
X-37822000Y-12780113D02*
X-37419000Y-12780113D01*
X-36242000Y-14941113D02*
G75*
G03*
X-36242000Y-14941113I-2620000J0D01*
G01*
%TO.C,U2*%
X-43868100Y87823800D02*
X-43868100Y85893800D01*
X-46378100Y87823800D02*
X-46378100Y86848800D01*
X-41338100Y86823800D02*
X-41338100Y87723800D01*
X-43818100Y85883800D02*
X-45138100Y86553800D01*
X-54078100Y87828800D02*
X-54078100Y85158800D01*
X-47608100Y87823800D02*
X-47608100Y87028800D01*
X-51518100Y87823800D02*
X-51518100Y86413800D01*
X-52688100Y87823800D02*
X-52688100Y85893800D01*
X-48968100Y87823800D02*
X-48968100Y87023800D01*
X-42548100Y87723800D02*
X-42548100Y85183800D01*
X-55228100Y87823800D02*
X-55228100Y84423800D01*
X-50168100Y87823800D02*
X-50168100Y86808800D01*
X-41358100Y85743800D02*
X-41998100Y85743800D01*
X-41998100Y85743800D02*
X-41998100Y86823800D01*
X-41998100Y86823800D02*
X-41338100Y86823800D01*
X-41358100Y84613800D02*
X-41358100Y85743800D01*
X-45088100Y86553800D02*
X-45088100Y87823800D01*
D15*
X-34123100Y77973800D02*
G75*
G03*
X-39248100Y77948800I-2562500J-12500D01*
G01*
X-62448100Y78048800D02*
G75*
G03*
X-57073100Y77948800I2687500J-50000D01*
G01*
G36*
X-41784824Y64789419D02*
G01*
X-41744241Y64769248D01*
X-41732915Y64751479D01*
X-41733906Y64712972D01*
X-41742336Y64615582D01*
X-41757685Y64463828D01*
X-41779434Y64262230D01*
X-41807064Y64015306D01*
X-41840057Y63727577D01*
X-41877894Y63403561D01*
X-41920054Y63047777D01*
X-41966021Y62664745D01*
X-42015273Y62258984D01*
X-42067294Y61835012D01*
X-42075051Y61772171D01*
X-42138988Y61253283D01*
X-42195296Y60793136D01*
X-42244470Y60387089D01*
X-42287007Y60030503D01*
X-42323404Y59718737D01*
X-42354158Y59447152D01*
X-42379764Y59211107D01*
X-42400719Y59005963D01*
X-42417520Y58827079D01*
X-42430663Y58669816D01*
X-42440646Y58529533D01*
X-42447963Y58401591D01*
X-42453113Y58281349D01*
X-42455082Y58220907D01*
X-42473383Y57597888D01*
X-46147597Y57597888D01*
X-46153698Y57805561D01*
X-45939924Y57805561D01*
X-42681056Y57805561D01*
X-42681056Y58572354D01*
X-45939924Y58572354D01*
X-45939924Y57805561D01*
X-46153698Y57805561D01*
X-46165899Y58220907D01*
X-46170125Y58338993D01*
X-46176265Y58462390D01*
X-46184813Y58595738D01*
X-46196266Y58743676D01*
X-46211121Y58910845D01*
X-46229875Y59101885D01*
X-46253023Y59321436D01*
X-46281064Y59574137D01*
X-46314492Y59864629D01*
X-46353805Y60197552D01*
X-46399499Y60577545D01*
X-46452071Y61009249D01*
X-46512016Y61497304D01*
X-46545930Y61772171D01*
X-46598309Y62198412D01*
X-46647996Y62607099D01*
X-46694472Y62993714D01*
X-46737218Y63353737D01*
X-46775715Y63682649D01*
X-46809444Y63975931D01*
X-46837885Y64229063D01*
X-46858985Y64423382D01*
X-46631381Y64423382D01*
X-46628302Y64351337D01*
X-46627611Y64347259D01*
X-46621035Y64300064D01*
X-46607396Y64194355D01*
X-46587301Y64035053D01*
X-46561358Y63827082D01*
X-46530173Y63575363D01*
X-46494355Y63284821D01*
X-46454510Y62960377D01*
X-46411247Y62606953D01*
X-46365173Y62229474D01*
X-46316896Y61832860D01*
X-46291469Y61623549D01*
X-46242296Y61219029D01*
X-46195012Y60831117D01*
X-46150226Y60464736D01*
X-46108544Y60124809D01*
X-46070575Y59816258D01*
X-46036927Y59544006D01*
X-46008206Y59312975D01*
X-45985022Y59128089D01*
X-45967981Y58994268D01*
X-45957691Y58916437D01*
X-45955229Y58899838D01*
X-45939924Y58812519D01*
X-45937029Y58796002D01*
X-42683952Y58796002D01*
X-42665751Y58899838D01*
X-42659161Y58947033D01*
X-42645507Y59052743D01*
X-42625399Y59212045D01*
X-42599443Y59420016D01*
X-42568247Y59671735D01*
X-42532418Y59962278D01*
X-42492566Y60286722D01*
X-42449296Y60640146D01*
X-42403218Y61017626D01*
X-42354938Y61414240D01*
X-42329511Y61623549D01*
X-42280320Y62028201D01*
X-42233001Y62416340D01*
X-42188165Y62783033D01*
X-42146422Y63123346D01*
X-42108380Y63432344D01*
X-42074649Y63705095D01*
X-42045838Y63936664D01*
X-42022558Y64122119D01*
X-42005416Y64256524D01*
X-41995024Y64334947D01*
X-41992515Y64351813D01*
X-41973559Y64460204D01*
X-42095672Y64439621D01*
X-42337155Y64403400D01*
X-42596334Y64373731D01*
X-42880681Y64350208D01*
X-43197665Y64332427D01*
X-43554757Y64319986D01*
X-43959426Y64312478D01*
X-44419142Y64309501D01*
X-44502188Y64309416D01*
X-44826131Y64309545D01*
X-45094211Y64310385D01*
X-45314462Y64312277D01*
X-45494920Y64315560D01*
X-45643620Y64320573D01*
X-45768597Y64327658D01*
X-45877885Y64337153D01*
X-45979521Y64349399D01*
X-46081538Y64364735D01*
X-46172254Y64380054D01*
X-46327890Y64406731D01*
X-46461448Y64428838D01*
X-46559950Y64444284D01*
X-46610421Y64450976D01*
X-46613010Y64451096D01*
X-46631381Y64423382D01*
X-46858985Y64423382D01*
X-46860521Y64437527D01*
X-46871765Y64547320D01*
X-45341869Y64547320D01*
X-45332880Y64545314D01*
X-45252287Y64536737D01*
X-45122168Y64529510D01*
X-44956890Y64524149D01*
X-44770822Y64521167D01*
X-44645962Y64520747D01*
X-44438880Y64522576D01*
X-44228696Y64526945D01*
X-44034550Y64533287D01*
X-43875586Y64541038D01*
X-43815270Y64545266D01*
X-43754332Y64552118D01*
X-43753838Y64557819D01*
X-43814418Y64562393D01*
X-43936707Y64565862D01*
X-44121335Y64568249D01*
X-44368936Y64569575D01*
X-44502188Y64569834D01*
X-44761032Y64569360D01*
X-44977837Y64567411D01*
X-45148463Y64564111D01*
X-45268771Y64559581D01*
X-45334619Y64553943D01*
X-45341869Y64547320D01*
X-46871765Y64547320D01*
X-46876832Y64596803D01*
X-46886299Y64702372D01*
X-46888403Y64749714D01*
X-46888065Y64751479D01*
X-46865190Y64777948D01*
X-46813223Y64793719D01*
X-46719635Y64801108D01*
X-46611870Y64802542D01*
X-46355270Y64802542D01*
X-46131622Y64802542D01*
X-42457409Y64802542D01*
X-42457409Y68285058D01*
X-46131622Y68285058D01*
X-46131622Y64802542D01*
X-46355270Y64802542D01*
X-46355270Y68334582D01*
X-46587657Y68565418D01*
X-46787878Y68764303D01*
X-46464087Y68764303D01*
X-46339295Y68636505D01*
X-46214503Y68508706D01*
X-42406477Y68508706D01*
X-42281685Y68636505D01*
X-42156893Y68764303D01*
X-46464087Y68764303D01*
X-46787878Y68764303D01*
X-46820043Y68796253D01*
X-49759511Y68796253D01*
X-49990347Y68563867D01*
X-50221182Y68331480D01*
X-50221182Y64802542D01*
X-49980557Y64802542D01*
X-49850566Y64799619D01*
X-49771653Y64789214D01*
X-49731193Y64768876D01*
X-49720561Y64752063D01*
X-49721435Y64713605D01*
X-49729478Y64616244D01*
X-49744189Y64464514D01*
X-49765066Y64262949D01*
X-49791610Y64016084D01*
X-49823320Y63728452D01*
X-49859696Y63404589D01*
X-49900237Y63049028D01*
X-49944442Y62666305D01*
X-49991812Y62260952D01*
X-50041845Y61837504D01*
X-50047643Y61788730D01*
X-50109122Y61270454D01*
X-50163238Y60810905D01*
X-50210470Y60405391D01*
X-50251298Y60049223D01*
X-50286204Y59737711D01*
X-50315667Y59466165D01*
X-50340168Y59229894D01*
X-50360188Y59024210D01*
X-50376207Y58844421D01*
X-50388705Y58685838D01*
X-50398162Y58543770D01*
X-50405060Y58413528D01*
X-50409879Y58290422D01*
X-50411475Y58236882D01*
X-50428855Y57597888D01*
X-54135019Y57597888D01*
X-54140667Y57805561D01*
X-53927346Y57805561D01*
X-50636528Y57805561D01*
X-50636528Y58604303D01*
X-53927346Y58604303D01*
X-53927346Y57805561D01*
X-54140667Y57805561D01*
X-54152398Y58236882D01*
X-54156448Y58358325D01*
X-54162364Y58484823D01*
X-54170627Y58621067D01*
X-54181718Y58771747D01*
X-54196115Y58941551D01*
X-54214301Y59135172D01*
X-54236756Y59357298D01*
X-54263959Y59612619D01*
X-54296392Y59905827D01*
X-54334534Y60241610D01*
X-54378866Y60624658D01*
X-54429869Y61059663D01*
X-54488023Y61551313D01*
X-54516231Y61788730D01*
X-54566534Y62213937D01*
X-54614229Y62621561D01*
X-54658817Y63007069D01*
X-54699797Y63365925D01*
X-54736669Y63693596D01*
X-54768931Y63985548D01*
X-54796084Y64237246D01*
X-54817626Y64444156D01*
X-54818676Y64454877D01*
X-54594274Y64454877D01*
X-54587934Y64383955D01*
X-54583168Y64347259D01*
X-54576562Y64294885D01*
X-54563162Y64184079D01*
X-54543561Y64019882D01*
X-54518354Y63807334D01*
X-54488135Y63551473D01*
X-54453497Y63257341D01*
X-54415035Y62929976D01*
X-54373343Y62574419D01*
X-54329013Y62195709D01*
X-54282642Y61798885D01*
X-54262176Y61623549D01*
X-54215185Y61221402D01*
X-54170000Y60835878D01*
X-54127213Y60471937D01*
X-54087411Y60134538D01*
X-54051185Y59828642D01*
X-54019124Y59559210D01*
X-53991817Y59331200D01*
X-53969854Y59149573D01*
X-53953824Y59019290D01*
X-53944316Y58945311D01*
X-53942335Y58931788D01*
X-53927346Y58844765D01*
X-53924450Y58827951D01*
X-50639423Y58827951D01*
X-50621510Y58931788D01*
X-50614468Y58982557D01*
X-50600974Y59089447D01*
X-50581674Y59246905D01*
X-50557219Y59449377D01*
X-50528257Y59691308D01*
X-50495437Y59967146D01*
X-50459407Y60271336D01*
X-50420817Y60598324D01*
X-50380316Y60942556D01*
X-50338552Y61298479D01*
X-50296174Y61660539D01*
X-50253831Y62023181D01*
X-50212172Y62380852D01*
X-50171846Y62727999D01*
X-50133501Y63059066D01*
X-50097787Y63368501D01*
X-50065352Y63650749D01*
X-50036845Y63900257D01*
X-50012915Y64111470D01*
X-49994211Y64278836D01*
X-49981382Y64396799D01*
X-49975076Y64459806D01*
X-49974601Y64469019D01*
X-50006869Y64465975D01*
X-50088778Y64453684D01*
X-50207080Y64434225D01*
X-50317031Y64415247D01*
X-50523012Y64385785D01*
X-50780962Y64359672D01*
X-51079008Y64337453D01*
X-51405283Y64319674D01*
X-51747916Y64306882D01*
X-52095036Y64299622D01*
X-52434774Y64298439D01*
X-52745207Y64303592D01*
X-53029481Y64313891D01*
X-53314214Y64328371D01*
X-53589754Y64346215D01*
X-53846446Y64366603D01*
X-54074636Y64388717D01*
X-54264671Y64411739D01*
X-54406895Y64434848D01*
X-54470279Y64449869D01*
X-54545975Y64471625D01*
X-54589382Y64482693D01*
X-54592048Y64483046D01*
X-54594274Y64454877D01*
X-54818676Y64454877D01*
X-54829096Y64561283D01*
X-52922979Y64561283D01*
X-52882645Y64555867D01*
X-52799755Y64548587D01*
X-52721245Y64542459D01*
X-52516537Y64532860D01*
X-52286310Y64531437D01*
X-52068417Y64538188D01*
X-52002377Y64542459D01*
X-51892685Y64551157D01*
X-51823139Y64557806D01*
X-51797297Y64562678D01*
X-51818716Y64566044D01*
X-51890953Y64568175D01*
X-52017565Y64569344D01*
X-52202110Y64569822D01*
X-52361811Y64569890D01*
X-52587614Y64569727D01*
X-52753075Y64569056D01*
X-52861751Y64567606D01*
X-52917200Y64565106D01*
X-52922979Y64561283D01*
X-54829096Y64561283D01*
X-54833058Y64601743D01*
X-54841879Y64705473D01*
X-54843589Y64750813D01*
X-54843313Y64752063D01*
X-54819002Y64779098D01*
X-54763371Y64794815D01*
X-54663796Y64801665D01*
X-54592048Y64802447D01*
X-54583317Y64802542D01*
X-54342692Y64802542D01*
X-54119044Y64802542D01*
X-50444830Y64802542D01*
X-50444830Y68285058D01*
X-54119044Y68285058D01*
X-54119044Y64802542D01*
X-54342692Y64802542D01*
X-54342692Y68334582D01*
X-54574327Y68562612D01*
X-54678494Y68660262D01*
X-54772310Y68739433D01*
X-54842887Y68789692D01*
X-54857433Y68796253D01*
X-54451845Y68796253D01*
X-54310742Y68652480D01*
X-54169639Y68508706D01*
X-50394235Y68508706D01*
X-50253132Y68652480D01*
X-50112029Y68796253D01*
X-54451845Y68796253D01*
X-54857433Y68796253D01*
X-54869861Y68801859D01*
X-54886242Y68806602D01*
X-54899666Y68818544D01*
X-54910530Y68843730D01*
X-54919228Y68888204D01*
X-54926156Y68958011D01*
X-54929553Y69019901D01*
X-54726088Y69019901D01*
X-52545522Y69020873D01*
X-52166961Y69021431D01*
X-51813097Y69022718D01*
X-51488554Y69024671D01*
X-51197957Y69027230D01*
X-50945929Y69030333D01*
X-50737095Y69033918D01*
X-50658396Y69035876D01*
X-46115648Y69035876D01*
X-43993886Y69027659D01*
X-43631745Y69026423D01*
X-43288765Y69025577D01*
X-42970232Y69025112D01*
X-42681432Y69025021D01*
X-42427653Y69025296D01*
X-42214179Y69025930D01*
X-42156893Y69026266D01*
X-42046298Y69026914D01*
X-41929295Y69028241D01*
X-41868458Y69029902D01*
X-41860782Y69030783D01*
X-41858249Y69064324D01*
X-41856445Y69153979D01*
X-41855392Y69291969D01*
X-41855112Y69470513D01*
X-41855627Y69681830D01*
X-41856960Y69918140D01*
X-41857890Y70037276D01*
X-41866339Y71032428D01*
X-42792880Y70501108D01*
X-43188101Y70276424D01*
X-43538592Y70082036D01*
X-43853464Y69913829D01*
X-44141828Y69767686D01*
X-44412796Y69639492D01*
X-44675479Y69525131D01*
X-44938988Y69420487D01*
X-45212435Y69321445D01*
X-45504932Y69223888D01*
X-45825589Y69123702D01*
X-45876025Y69108390D01*
X-46115648Y69035876D01*
X-50658396Y69035876D01*
X-50576079Y69037924D01*
X-50467505Y69042289D01*
X-50415997Y69046951D01*
X-50412880Y69049265D01*
X-50461360Y69068362D01*
X-50557372Y69099800D01*
X-50686791Y69139135D01*
X-50828226Y69179888D01*
X-51086366Y69255929D01*
X-51333627Y69336875D01*
X-51577409Y69426148D01*
X-51825109Y69527168D01*
X-52084124Y69643356D01*
X-52361853Y69778134D01*
X-52665693Y69934920D01*
X-53003043Y70117137D01*
X-53381299Y70328205D01*
X-53683265Y70500038D01*
X-53912165Y70630680D01*
X-54123839Y70750640D01*
X-54311836Y70856329D01*
X-54469706Y70944155D01*
X-54590998Y71010529D01*
X-54669263Y71051860D01*
X-54697668Y71064681D01*
X-54704791Y71033902D01*
X-54711206Y70946245D01*
X-54716719Y70808728D01*
X-54721134Y70628371D01*
X-54724255Y70412192D01*
X-54725889Y70167211D01*
X-54726088Y70042291D01*
X-54726088Y69019901D01*
X-54929553Y69019901D01*
X-54931710Y69059195D01*
X-54936283Y69197801D01*
X-54940272Y69379873D01*
X-54944072Y69611456D01*
X-54948078Y69898594D01*
X-54949736Y70023435D01*
X-54965710Y71233794D01*
X-58368352Y73175942D01*
X-58801896Y73423594D01*
X-59222200Y73664062D01*
X-59625678Y73895276D01*
X-60008741Y74115163D01*
X-60367803Y74321651D01*
X-60699276Y74512669D01*
X-60999573Y74686146D01*
X-61265106Y74840009D01*
X-61492289Y74972186D01*
X-61677534Y75080606D01*
X-61817253Y75163197D01*
X-61907859Y75217887D01*
X-61942352Y75240002D01*
X-62056432Y75333243D01*
X-62195538Y75465734D01*
X-62347511Y75624758D01*
X-62500193Y75797597D01*
X-62640215Y75969967D01*
X-62732318Y76107758D01*
X-62833433Y76290182D01*
X-62935447Y76500309D01*
X-63030246Y76721211D01*
X-63109717Y76935960D01*
X-63123758Y76978879D01*
X-63234247Y77427175D01*
X-63281380Y77881055D01*
X-63274372Y78083829D01*
X-63049531Y78083829D01*
X-63045876Y77917888D01*
X-63037860Y77836504D01*
X-63027020Y77718137D01*
X-63016562Y77598392D01*
X-62998032Y77466288D01*
X-62964479Y77301129D01*
X-62921761Y77130254D01*
X-62900365Y77056331D01*
X-62761336Y76671778D01*
X-62588914Y76330113D01*
X-62373919Y76016485D01*
X-62107175Y75716044D01*
X-62017878Y75628354D01*
X-61983928Y75596548D01*
X-61947937Y75564696D01*
X-61907260Y75531234D01*
X-61859253Y75494596D01*
X-61801271Y75453219D01*
X-61730667Y75405539D01*
X-61644797Y75349990D01*
X-61541017Y75285009D01*
X-61416680Y75209031D01*
X-61269141Y75120492D01*
X-61095756Y75017827D01*
X-60893879Y74899472D01*
X-60660866Y74763863D01*
X-60394070Y74609435D01*
X-60090847Y74434624D01*
X-59748552Y74237865D01*
X-59364539Y74017595D01*
X-58936164Y73772248D01*
X-58460780Y73500261D01*
X-57935744Y73200069D01*
X-57358410Y72870107D01*
X-57229455Y72796416D01*
X-56577578Y72424114D01*
X-55978429Y72082396D01*
X-55429422Y71769859D01*
X-54927970Y71485094D01*
X-54697668Y71354729D01*
X-54471488Y71226698D01*
X-54057389Y70993264D01*
X-53683087Y70783386D01*
X-53345995Y70595658D01*
X-53043528Y70428675D01*
X-52773098Y70281031D01*
X-52532120Y70151320D01*
X-52318007Y70038136D01*
X-52128174Y69940073D01*
X-51960033Y69855725D01*
X-51810999Y69783688D01*
X-51678484Y69722554D01*
X-51559904Y69670918D01*
X-51452672Y69627375D01*
X-51354200Y69590518D01*
X-51291497Y69568750D01*
X-51079888Y69500941D01*
X-50837319Y69428774D01*
X-50578546Y69356151D01*
X-50318329Y69286971D01*
X-50112029Y69235304D01*
X-50071427Y69225135D01*
X-49852597Y69174544D01*
X-49676599Y69139099D01*
X-49646088Y69133883D01*
X-49346023Y69095088D01*
X-48998909Y69067485D01*
X-48620605Y69051074D01*
X-48226974Y69045855D01*
X-47833877Y69051827D01*
X-47457174Y69068992D01*
X-47112729Y69097348D01*
X-46834515Y69133883D01*
X-46669532Y69165604D01*
X-46458578Y69213299D01*
X-46216412Y69273070D01*
X-45957792Y69341014D01*
X-45697476Y69413231D01*
X-45450224Y69485822D01*
X-45230793Y69554884D01*
X-45189107Y69568750D01*
X-45095080Y69601894D01*
X-44994034Y69640778D01*
X-44883384Y69686807D01*
X-44760541Y69741387D01*
X-44622922Y69805924D01*
X-44467938Y69881824D01*
X-44293004Y69970491D01*
X-44095533Y70073333D01*
X-43872939Y70191755D01*
X-43622637Y70327162D01*
X-43342039Y70480962D01*
X-43028559Y70654558D01*
X-42679611Y70849358D01*
X-42292609Y71066767D01*
X-41866339Y71307416D01*
X-41864966Y71308191D01*
X-41394096Y71575036D01*
X-40877414Y71868707D01*
X-40312331Y72190611D01*
X-39696263Y72542152D01*
X-39251148Y72796416D01*
X-38662423Y73132870D01*
X-38126555Y73439223D01*
X-37640898Y73717040D01*
X-37202809Y73967887D01*
X-36809641Y74193326D01*
X-36458750Y74394923D01*
X-36147490Y74574242D01*
X-35873217Y74732848D01*
X-35633284Y74872303D01*
X-35425047Y74994174D01*
X-35245861Y75100025D01*
X-35093081Y75191419D01*
X-34964061Y75269921D01*
X-34856157Y75337096D01*
X-34766722Y75394508D01*
X-34693113Y75443721D01*
X-34632683Y75486299D01*
X-34582789Y75523808D01*
X-34540784Y75557811D01*
X-34504023Y75589873D01*
X-34469861Y75621558D01*
X-34462725Y75628354D01*
X-34179333Y75927438D01*
X-33950247Y76235408D01*
X-33766167Y76567302D01*
X-33617797Y76938155D01*
X-33579756Y77056331D01*
X-33478983Y77490918D01*
X-33441701Y77930748D01*
X-33467913Y78376392D01*
X-33557624Y78828420D01*
X-33592024Y78949295D01*
X-33675113Y79205766D01*
X-33759618Y79420235D01*
X-33854612Y79607525D01*
X-33969164Y79782461D01*
X-34112346Y79959866D01*
X-34293229Y80154564D01*
X-34388541Y80250969D01*
X-34805459Y80667069D01*
X-38495648Y82758677D01*
X-38967177Y83025941D01*
X-39438178Y83292902D01*
X-39904041Y83556951D01*
X-40360158Y83815474D01*
X-40801920Y84065859D01*
X-41224720Y84305495D01*
X-41623948Y84531769D01*
X-41994996Y84742070D01*
X-42333255Y84933786D01*
X-42634117Y85104303D01*
X-42892974Y85251012D01*
X-43105217Y85371299D01*
X-43259174Y85458549D01*
X-43687477Y85697412D01*
X-44071634Y85902886D01*
X-44419643Y86078514D01*
X-44739504Y86227844D01*
X-45039214Y86354420D01*
X-45326770Y86461787D01*
X-45610171Y86553491D01*
X-45897416Y86633078D01*
X-45924158Y86639875D01*
X-46619912Y86793717D01*
X-47289271Y86895556D01*
X-47942970Y86945393D01*
X-48591749Y86943227D01*
X-49246343Y86889058D01*
X-49917490Y86782888D01*
X-50556445Y86639875D01*
X-50844440Y86561220D01*
X-51127861Y86470772D01*
X-51414705Y86364984D01*
X-51712971Y86240313D01*
X-52030656Y86093211D01*
X-52375759Y85920135D01*
X-52756277Y85717539D01*
X-53180210Y85481877D01*
X-53221429Y85458549D01*
X-53385236Y85365716D01*
X-53600026Y85243986D01*
X-53861189Y85095970D01*
X-54164117Y84924281D01*
X-54504202Y84731531D01*
X-54876835Y84520332D01*
X-55277407Y84293296D01*
X-55701310Y84053034D01*
X-56143935Y83802160D01*
X-56600675Y83543284D01*
X-57066920Y83279019D01*
X-57538062Y83011977D01*
X-57984956Y82758677D01*
X-61675144Y80667069D01*
X-62092062Y80250969D01*
X-62251764Y80089410D01*
X-62373368Y79960158D01*
X-62465792Y79852253D01*
X-62537959Y79754731D01*
X-62598786Y79656630D01*
X-62644276Y79572313D01*
X-62746358Y79348339D01*
X-62839304Y79095441D01*
X-62919605Y78828080D01*
X-62983749Y78560717D01*
X-63028228Y78307813D01*
X-63049531Y78083829D01*
X-63274372Y78083829D01*
X-63265404Y78343312D01*
X-63253895Y78442948D01*
X-63199866Y78728663D01*
X-63112219Y79035417D01*
X-62998064Y79345424D01*
X-62864513Y79640897D01*
X-62718675Y79904048D01*
X-62601684Y80074493D01*
X-62480850Y80217427D01*
X-62328326Y80376912D01*
X-62158062Y80540171D01*
X-61984005Y80694426D01*
X-61820106Y80826900D01*
X-61680314Y80924814D01*
X-61660065Y80937036D01*
X-61604041Y80969311D01*
X-61496356Y81030826D01*
X-61340954Y81119340D01*
X-61141781Y81232615D01*
X-60902782Y81368409D01*
X-60627903Y81524484D01*
X-60321090Y81698600D01*
X-59986288Y81888517D01*
X-59627442Y82091996D01*
X-59248499Y82306797D01*
X-58853403Y82530679D01*
X-58480176Y82742105D01*
X-58073378Y82972529D01*
X-57678861Y83196028D01*
X-57300596Y83410351D01*
X-56942552Y83613246D01*
X-56608701Y83802463D01*
X-56303013Y83975751D01*
X-56029459Y84130859D01*
X-55792009Y84265534D01*
X-55594635Y84377528D01*
X-55441306Y84464587D01*
X-55335993Y84524462D01*
X-55285207Y84553440D01*
X-55207032Y84598078D01*
X-55080851Y84669829D01*
X-54914290Y84764369D01*
X-54714976Y84877374D01*
X-54490534Y85004521D01*
X-54248590Y85141487D01*
X-53996771Y85283948D01*
X-53959295Y85305141D01*
X-53713706Y85444280D01*
X-53482990Y85575497D01*
X-53273675Y85695042D01*
X-53092289Y85799165D01*
X-52945359Y85884116D01*
X-52839414Y85946145D01*
X-52780981Y85981503D01*
X-52774556Y85985739D01*
X-52662650Y86053826D01*
X-52502072Y86138417D01*
X-52304322Y86234509D01*
X-52080898Y86337102D01*
X-51843301Y86441196D01*
X-51603030Y86541788D01*
X-51371586Y86633877D01*
X-51160467Y86712464D01*
X-50981174Y86772546D01*
X-50931222Y86787383D01*
X-50658270Y86858546D01*
X-50337364Y86931279D01*
X-49984280Y87002502D01*
X-49614793Y87069139D01*
X-49244679Y87128113D01*
X-49027606Y87158707D01*
X-48759543Y87183914D01*
X-48448093Y87195713D01*
X-48112289Y87194356D01*
X-47942970Y87187276D01*
X-47771167Y87180093D01*
X-47443761Y87153175D01*
X-47297786Y87135928D01*
X-47042830Y87099431D01*
X-46777431Y87056264D01*
X-46511224Y87008452D01*
X-46253841Y86958022D01*
X-46014918Y86906999D01*
X-45804088Y86857410D01*
X-45630986Y86811281D01*
X-45505246Y86770638D01*
X-45453306Y86748030D01*
X-45388111Y86720438D01*
X-45285900Y86684667D01*
X-45192556Y86655594D01*
X-45027109Y86600281D01*
X-44822387Y86521505D01*
X-44595184Y86426453D01*
X-44362295Y86322310D01*
X-44140515Y86216260D01*
X-44011240Y86150220D01*
X-43849182Y86063149D01*
X-43659338Y85958520D01*
X-43453892Y85843309D01*
X-43245029Y85724489D01*
X-43044934Y85609036D01*
X-42865791Y85503924D01*
X-42719786Y85416128D01*
X-42627662Y85358255D01*
X-42529716Y85296874D01*
X-42445902Y85248922D01*
X-42404015Y85228815D01*
X-42333544Y85197055D01*
X-42234620Y85145135D01*
X-42120812Y85081120D01*
X-42005689Y85013079D01*
X-41902822Y84949078D01*
X-41825780Y84897185D01*
X-41788132Y84865466D01*
X-41786465Y84861684D01*
X-41759468Y84832115D01*
X-41693423Y84799391D01*
X-41682927Y84795578D01*
X-41599287Y84761563D01*
X-41486259Y84709536D01*
X-41387392Y84660453D01*
X-41339190Y84634161D01*
X-41239784Y84578751D01*
X-41093519Y84496684D01*
X-40904740Y84390424D01*
X-40677791Y84262435D01*
X-40417017Y84115180D01*
X-40126763Y83951123D01*
X-39811373Y83772726D01*
X-39475193Y83582455D01*
X-39122566Y83382771D01*
X-38757838Y83176139D01*
X-38385354Y82965022D01*
X-38009458Y82751883D01*
X-37634494Y82539186D01*
X-37264808Y82329394D01*
X-36904744Y82124971D01*
X-36558647Y81928380D01*
X-36230862Y81742085D01*
X-35925733Y81568549D01*
X-35647605Y81410236D01*
X-35400823Y81269609D01*
X-35189731Y81149131D01*
X-35018675Y81051266D01*
X-34891998Y80978478D01*
X-34820538Y80937038D01*
X-34686197Y80846225D01*
X-34525392Y80718693D01*
X-34352072Y80567221D01*
X-34180186Y80404586D01*
X-34023684Y80243566D01*
X-33896516Y80096938D01*
X-33878919Y80074493D01*
X-33672562Y79760401D01*
X-33498949Y79402772D01*
X-33361725Y79014959D01*
X-33264539Y78610317D01*
X-33211036Y78202198D01*
X-33204863Y77803956D01*
X-33216594Y77649156D01*
X-33262170Y77363287D01*
X-33338117Y77059724D01*
X-33438491Y76754461D01*
X-33557344Y76463494D01*
X-33688732Y76202819D01*
X-33826709Y75988431D01*
X-33840784Y75969967D01*
X-34002146Y75771732D01*
X-34168339Y75584835D01*
X-34327277Y75422098D01*
X-34466873Y75296340D01*
X-34501937Y75268675D01*
X-34551573Y75236249D01*
X-34653220Y75174328D01*
X-34803323Y75084972D01*
X-34998328Y74970238D01*
X-35234679Y74832184D01*
X-35508822Y74672868D01*
X-35817201Y74494350D01*
X-36156262Y74298687D01*
X-36522450Y74087937D01*
X-36912209Y73864158D01*
X-37321986Y73629409D01*
X-37748225Y73385748D01*
X-38150808Y73156071D01*
X-41623955Y71176505D01*
X-41633323Y69994796D01*
X-41635846Y69689034D01*
X-41638326Y69441049D01*
X-41641140Y69244723D01*
X-41644663Y69093935D01*
X-41649271Y68982566D01*
X-41655341Y68904495D01*
X-41663247Y68853602D01*
X-41673366Y68823768D01*
X-41686074Y68808873D01*
X-41701746Y68802797D01*
X-41706591Y68801865D01*
X-41755597Y68775513D01*
X-41836067Y68713590D01*
X-41935114Y68626530D01*
X-42002126Y68562612D01*
X-42233761Y68334582D01*
X-42233761Y64802542D01*
X-41993135Y64802542D01*
X-41973559Y64802110D01*
X-41863523Y64799680D01*
X-41784824Y64789419D01*
G37*
D11*
%TO.C,C1*%
X-48360000Y94080000D02*
X-48360000Y91340000D01*
X-48360000Y91340000D02*
X-43120000Y91340000D01*
X-43120000Y94080000D02*
X-43120000Y91340000D01*
X-48360000Y94080000D02*
X-43120000Y94080000D01*
%TO.C,U1*%
X-35028000Y-18237500D02*
X-23307000Y-18237500D01*
X-35028000Y-9617500D02*
X-35028000Y-18237500D01*
X-35268000Y-17237500D02*
X-35268000Y-18477500D01*
X-35028000Y-9617500D02*
X-23307000Y-9617500D01*
X-23307000Y-9617500D02*
X-23307000Y-18237500D01*
X-35268000Y-18477500D02*
X-34028000Y-18477500D01*
%TD*%
%LPC*%
D16*
%TO.C,SW3*%
X40132000Y90170000D03*
X40132000Y77470000D03*
X28732000Y90170000D03*
X28732000Y77470000D03*
X40132000Y83820000D03*
X28732000Y83820000D03*
%TD*%
D17*
%TO.C,R1*%
X-60960000Y-20320000D03*
D18*
X-53340000Y-20320000D03*
%TD*%
D19*
%TO.C,J2*%
X-29718000Y-36068000D03*
X-29718000Y-42068001D03*
X-25018000Y-39068000D03*
%TD*%
D20*
%TO.C,D1*%
X-55245000Y-33020000D03*
D21*
X-62865000Y-33020000D03*
%TD*%
D19*
%TO.C,U3*%
X-26670000Y82550000D03*
X-26670000Y80010000D03*
X-26670000Y77470000D03*
X-26670000Y74930000D03*
X-26670000Y72390000D03*
X-26670000Y69850000D03*
X-26670000Y67310000D03*
X-26670000Y64770000D03*
X-26670000Y62230000D03*
X-26670000Y59690000D03*
X-13970000Y59690000D03*
X-13970000Y62230000D03*
X-13970000Y64770000D03*
X-13970000Y67310000D03*
X-13970000Y69850000D03*
X-13970000Y72390000D03*
X-13970000Y74930000D03*
X-13970000Y77470000D03*
X-13970000Y80010000D03*
X-13970000Y82550000D03*
%TD*%
D22*
%TO.C,U4*%
X-8880000Y87615000D03*
D18*
X-8880000Y85075000D03*
X-8880000Y82535000D03*
X-8880000Y79995000D03*
X-8880000Y77455000D03*
X-8880000Y74915000D03*
X-8880000Y72375000D03*
X-8880000Y69835000D03*
X-1260000Y69835000D03*
X-1260000Y72375000D03*
X-1260000Y74915000D03*
X-1260000Y77455000D03*
X-1260000Y79995000D03*
X-1260000Y82535000D03*
X-1260000Y85075000D03*
X-1260000Y87615000D03*
%TD*%
D23*
%TO.C,M1*%
X-56515000Y-45085000D03*
X-61595000Y-45085000D03*
D24*
X-56515000Y-40005000D03*
X-61595000Y-40005000D03*
%TD*%
D25*
%TO.C,SW1*%
X-45350000Y40600000D03*
D26*
X-45350000Y35600000D03*
X-45350000Y38100000D03*
D27*
X-37850000Y32500000D03*
X-37850000Y43700000D03*
D26*
X-30850000Y40600000D03*
X-30850000Y35600000D03*
%TD*%
D28*
%TO.C,R2*%
X6985000Y87630000D03*
X12065000Y85090000D03*
X6985000Y82550000D03*
%TD*%
D29*
%TO.C,J1*%
X-1270000Y56515000D03*
X-1270000Y53975000D03*
X-1270000Y51435000D03*
%TD*%
D17*
%TO.C,R3*%
X2794000Y45974000D03*
D18*
X10414000Y45974000D03*
%TD*%
D22*
%TO.C,C3*%
X-19685000Y-16191113D03*
D17*
X-19685000Y-13691113D03*
%TD*%
D23*
%TO.C,SW2*%
X-18288000Y-44813500D03*
X-13208000Y-44813500D03*
D24*
X-13208000Y-39733500D03*
X-18288000Y-39733500D03*
%TD*%
D30*
%TO.C,J3*%
X-3810000Y32766000D03*
X-3810000Y-25146000D03*
X45466000Y-25146000D03*
X45466000Y32766000D03*
D31*
X-2540000Y27940000D03*
D32*
X-5080000Y27940000D03*
X-2540000Y25400000D03*
X-5080000Y25400000D03*
X-2540000Y22860000D03*
X-5080000Y22860000D03*
X-2540000Y20320000D03*
X-5080000Y20320000D03*
X-2540000Y17780000D03*
X-5080000Y17780000D03*
X-2540000Y15240000D03*
X-5080000Y15240000D03*
X-2540000Y12700000D03*
X-5080000Y12700000D03*
X-2540000Y10160000D03*
X-5080000Y10160000D03*
X-2540000Y7620000D03*
X-5080000Y7620000D03*
X-2540000Y5080000D03*
X-5080000Y5080000D03*
X-2540000Y2540000D03*
X-5080000Y2540000D03*
X-2540000Y0D03*
X-5080000Y0D03*
X-2540000Y-2540000D03*
X-5080000Y-2540000D03*
X-2540000Y-5080000D03*
X-5080000Y-5080000D03*
X-2540000Y-7620000D03*
X-5080000Y-7620000D03*
X-2540000Y-10160000D03*
X-5080000Y-10160000D03*
X-2540000Y-12700000D03*
X-5080000Y-12700000D03*
X-2540000Y-15240000D03*
X-5080000Y-15240000D03*
X-2540000Y-17780000D03*
X-5080000Y-17780000D03*
X-2540000Y-20320000D03*
X-5080000Y-20320000D03*
%TD*%
D33*
%TO.C,Q1*%
X-57150000Y1715000D03*
D34*
X-59690000Y-14945000D03*
D35*
X-57150000Y-14945000D03*
X-54610000Y-14945000D03*
%TD*%
D22*
%TO.C,C2*%
X-38862000Y-16191113D03*
D17*
X-38862000Y-13691113D03*
%TD*%
D30*
%TO.C,U2*%
X-59778900Y77978000D03*
X-36690300Y77978000D03*
D36*
X-41948100Y88823800D03*
D37*
X-44488100Y88823800D03*
X-47028100Y88823800D03*
X-49568100Y88823800D03*
X-52108100Y88823800D03*
X-54648100Y88823800D03*
%TD*%
D17*
%TO.C,C1*%
X-46990000Y92710000D03*
X-44490000Y92710000D03*
%TD*%
D38*
%TO.C,U1*%
X-31657000Y-16177500D03*
D39*
X-29117000Y-16177500D03*
X-26577000Y-16177500D03*
%TD*%
M02*
