%TF.GenerationSoftware,KiCad,Pcbnew,6.0.3-a3aad9c10e~116~ubuntu20.04.1*%
%TF.CreationDate,2022-03-20T21:21:38-04:00*%
%TF.ProjectId,ProtoPi-Board,50726f74-6f50-4692-9d42-6f6172642e6b,rev?*%
%TF.SameCoordinates,PX68290a0PY76b1be0*%
%TF.FileFunction,Copper,L2,Bot*%
%TF.FilePolarity,Positive*%
%FSLAX46Y46*%
G04 Gerber Fmt 4.6, Leading zero omitted, Abs format (unit mm)*
G04 Created by KiCad (PCBNEW 6.0.3-a3aad9c10e~116~ubuntu20.04.1) date 2022-03-20 21:21:38*
%MOMM*%
%LPD*%
G01*
G04 APERTURE LIST*
%TA.AperFunction,ComponentPad*%
%ADD10C,2.500000*%
%TD*%
%TA.AperFunction,ComponentPad*%
%ADD11C,1.600000*%
%TD*%
%TA.AperFunction,ComponentPad*%
%ADD12O,1.600000X1.600000*%
%TD*%
%TA.AperFunction,ComponentPad*%
%ADD13C,2.286000*%
%TD*%
%TA.AperFunction,ComponentPad*%
%ADD14R,1.800000X1.800000*%
%TD*%
%TA.AperFunction,ComponentPad*%
%ADD15O,1.800000X1.800000*%
%TD*%
%TA.AperFunction,ComponentPad*%
%ADD16R,1.600000X1.600000*%
%TD*%
%TA.AperFunction,ComponentPad*%
%ADD17C,3.048000*%
%TD*%
%TA.AperFunction,ComponentPad*%
%ADD18R,2.000000X2.000000*%
%TD*%
%TA.AperFunction,ComponentPad*%
%ADD19C,2.000000*%
%TD*%
%TA.AperFunction,ComponentPad*%
%ADD20R,3.000000X2.500000*%
%TD*%
%TA.AperFunction,ComponentPad*%
%ADD21C,1.524000*%
%TD*%
%TA.AperFunction,ComponentPad*%
%ADD22C,2.159000*%
%TD*%
%TA.AperFunction,ComponentPad*%
%ADD23R,1.700000X1.700000*%
%TD*%
%TA.AperFunction,ComponentPad*%
%ADD24O,1.700000X1.700000*%
%TD*%
%TA.AperFunction,ComponentPad*%
%ADD25R,1.905000X2.000000*%
%TD*%
%TA.AperFunction,ComponentPad*%
%ADD26O,1.905000X2.000000*%
%TD*%
%TA.AperFunction,ComponentPad*%
%ADD27R,1.981200X1.981200*%
%TD*%
%TA.AperFunction,ComponentPad*%
%ADD28C,1.981200*%
%TD*%
%TA.AperFunction,ComponentPad*%
%ADD29R,1.500000X2.300000*%
%TD*%
%TA.AperFunction,ComponentPad*%
%ADD30O,1.500000X2.300000*%
%TD*%
%TA.AperFunction,ViaPad*%
%ADD31C,0.812800*%
%TD*%
%TA.AperFunction,Conductor*%
%ADD32C,0.635000*%
%TD*%
%TA.AperFunction,Conductor*%
%ADD33C,0.254000*%
%TD*%
G04 APERTURE END LIST*
D10*
%TO.P,SW3,1,A*%
%TO.N,Net-(J3-Pad27)*%
X40132000Y90170000D03*
%TO.P,SW3,2,B*%
%TO.N,GND*%
X40132000Y77470000D03*
%TO.P,SW3,3*%
%TO.N,N/C*%
X28732000Y90170000D03*
%TO.P,SW3,4*%
X28732000Y77470000D03*
%TO.P,SW3,5*%
X40132000Y83820000D03*
%TO.P,SW3,6*%
X28732000Y83820000D03*
%TD*%
D11*
%TO.P,R1,1*%
%TO.N,/MOTOR_3V3*%
X-60960000Y-20320000D03*
D12*
%TO.P,R1,2*%
%TO.N,GND*%
X-53340000Y-20320000D03*
%TD*%
D13*
%TO.P,J2,1*%
%TO.N,+12V*%
X-29718000Y-36068000D03*
%TO.P,J2,2*%
%TO.N,GND*%
X-29718000Y-42068001D03*
%TO.P,J2,3*%
%TO.N,N/C*%
X-25018000Y-39068000D03*
%TD*%
D14*
%TO.P,D1,1,K*%
%TO.N,+12V*%
X-55245000Y-33020000D03*
D15*
%TO.P,D1,2,A*%
%TO.N,/MOTOR-*%
X-62865000Y-33020000D03*
%TD*%
D13*
%TO.P,U3,1,VCCA*%
%TO.N,+3V3*%
X-26670000Y82550000D03*
%TO.P,U3,2,A1*%
%TO.N,/CLK_3V3*%
X-26670000Y80010000D03*
%TO.P,U3,3,A2*%
%TO.N,/MISO_3V3*%
X-26670000Y77470000D03*
%TO.P,U3,4,A3*%
%TO.N,/MOSI_3V3*%
X-26670000Y74930000D03*
%TO.P,U3,5,A4*%
%TO.N,/~{CS_3V3}*%
X-26670000Y72390000D03*
%TO.P,U3,6,A5*%
%TO.N,/NEO_DATA_3V3*%
X-26670000Y69850000D03*
%TO.P,U3,7,A6*%
%TO.N,unconnected-(U3-Pad7)*%
X-26670000Y67310000D03*
%TO.P,U3,8,A7*%
%TO.N,unconnected-(U3-Pad8)*%
X-26670000Y64770000D03*
%TO.P,U3,9,A8*%
%TO.N,unconnected-(U3-Pad9)*%
X-26670000Y62230000D03*
%TO.P,U3,10,OE*%
%TO.N,/TXB_OE*%
X-26670000Y59690000D03*
%TO.P,U3,11,GND*%
%TO.N,GND*%
X-13970000Y59690000D03*
%TO.P,U3,12,B8*%
%TO.N,unconnected-(U3-Pad12)*%
X-13970000Y62230000D03*
%TO.P,U3,13,B7*%
%TO.N,unconnected-(U3-Pad13)*%
X-13970000Y64770000D03*
%TO.P,U3,14,B6*%
%TO.N,unconnected-(U3-Pad14)*%
X-13970000Y67310000D03*
%TO.P,U3,15,B5*%
%TO.N,/NEO_DATA_5V*%
X-13970000Y69850000D03*
%TO.P,U3,16,B4*%
%TO.N,/~{CS_5V}*%
X-13970000Y72390000D03*
%TO.P,U3,17,B3*%
%TO.N,/MOSI_5V*%
X-13970000Y74930000D03*
%TO.P,U3,18,B2*%
%TO.N,/MISO_5V*%
X-13970000Y77470000D03*
%TO.P,U3,19,B1*%
%TO.N,/CLK_5V*%
X-13970000Y80010000D03*
%TO.P,U3,20,VCCB*%
%TO.N,+5V*%
X-13970000Y82550000D03*
%TD*%
D16*
%TO.P,U4,1,CH0*%
%TO.N,/A_CH0*%
X-8880000Y87615000D03*
D12*
%TO.P,U4,2,CH1*%
%TO.N,unconnected-(U4-Pad2)*%
X-8880000Y85075000D03*
%TO.P,U4,3,CH2*%
%TO.N,unconnected-(U4-Pad3)*%
X-8880000Y82535000D03*
%TO.P,U4,4,CH3*%
%TO.N,unconnected-(U4-Pad4)*%
X-8880000Y79995000D03*
%TO.P,U4,5,CH4*%
%TO.N,unconnected-(U4-Pad5)*%
X-8880000Y77455000D03*
%TO.P,U4,6,CH5*%
%TO.N,unconnected-(U4-Pad6)*%
X-8880000Y74915000D03*
%TO.P,U4,7,CH6*%
%TO.N,unconnected-(U4-Pad7)*%
X-8880000Y72375000D03*
%TO.P,U4,8,CH7*%
%TO.N,unconnected-(U4-Pad8)*%
X-8880000Y69835000D03*
%TO.P,U4,9,DGND*%
%TO.N,GND*%
X-1260000Y69835000D03*
%TO.P,U4,10,~{CS}/SHDN*%
%TO.N,/~{CS_5V}*%
X-1260000Y72375000D03*
%TO.P,U4,11,Din*%
%TO.N,/MOSI_5V*%
X-1260000Y74915000D03*
%TO.P,U4,12,Dout*%
%TO.N,/MISO_5V*%
X-1260000Y77455000D03*
%TO.P,U4,13,CLK*%
%TO.N,/CLK_5V*%
X-1260000Y79995000D03*
%TO.P,U4,14,AGND*%
%TO.N,GND*%
X-1260000Y82535000D03*
%TO.P,U4,15,Vref*%
%TO.N,/A_REF*%
X-1260000Y85075000D03*
%TO.P,U4,16,Vdd*%
%TO.N,+5V*%
X-1260000Y87615000D03*
%TD*%
D17*
%TO.P,M1,1,+*%
%TO.N,+12V*%
X-56515000Y-40005000D03*
%TO.P,M1,2,-*%
%TO.N,/MOTOR-*%
X-61595000Y-40005000D03*
%TD*%
D18*
%TO.P,SW1,A,A*%
%TO.N,/SW_ROTA*%
X-45350000Y40600000D03*
D19*
%TO.P,SW1,B,B*%
%TO.N,/SW_ROTB*%
X-45350000Y35600000D03*
%TO.P,SW1,C,C*%
%TO.N,GND*%
X-45350000Y38100000D03*
D20*
%TO.P,SW1,MP*%
%TO.N,N/C*%
X-37850000Y32500000D03*
X-37850000Y43700000D03*
D19*
%TO.P,SW1,S1,S1*%
%TO.N,GND*%
X-30850000Y40600000D03*
%TO.P,SW1,S2,S2*%
%TO.N,/SW_PRESS*%
X-30850000Y35600000D03*
%TD*%
D21*
%TO.P,R2,1,1*%
%TO.N,+5V*%
X6985000Y87630000D03*
%TO.P,R2,2,2*%
%TO.N,/A_REF*%
X12065000Y85090000D03*
%TO.P,R2,3,3*%
%TO.N,GND*%
X6985000Y82550000D03*
%TD*%
D22*
%TO.P,J1,1,+5V*%
%TO.N,+5V*%
X-1270000Y56515000D03*
%TO.P,J1,2,Data_Input*%
%TO.N,/NEO_DATA_5V*%
X-1270000Y53975000D03*
%TO.P,J1,3,GND*%
%TO.N,GND*%
X-1270000Y51435000D03*
%TD*%
D11*
%TO.P,R3,1*%
%TO.N,+3V3*%
X2794000Y45974000D03*
D12*
%TO.P,R3,2*%
%TO.N,Net-(J3-Pad27)*%
X10414000Y45974000D03*
%TD*%
D16*
%TO.P,C3,1*%
%TO.N,+5V*%
X-19685000Y-16191113D03*
D11*
%TO.P,C3,2*%
%TO.N,GND*%
X-19685000Y-13691113D03*
%TD*%
D17*
%TO.P,SW2,1,A*%
%TO.N,Net-(J3-Pad27)*%
X-13208000Y-39733500D03*
%TO.P,SW2,2,B*%
%TO.N,GND*%
X-18288000Y-39733500D03*
%TD*%
D23*
%TO.P,J3,1,3V3*%
%TO.N,+3V3*%
X-2540000Y27940000D03*
D24*
%TO.P,J3,2,5V*%
%TO.N,unconnected-(J3-Pad2)*%
X-5080000Y27940000D03*
%TO.P,J3,3,SDA/GPIO2*%
%TO.N,unconnected-(J3-Pad3)*%
X-2540000Y25400000D03*
%TO.P,J3,4,5V*%
%TO.N,unconnected-(J3-Pad4)*%
X-5080000Y25400000D03*
%TO.P,J3,5,SCL/GPIO3*%
%TO.N,unconnected-(J3-Pad5)*%
X-2540000Y22860000D03*
%TO.P,J3,6,GND*%
%TO.N,GND*%
X-5080000Y22860000D03*
%TO.P,J3,7,GCLK0/GPIO4*%
%TO.N,unconnected-(J3-Pad7)*%
X-2540000Y20320000D03*
%TO.P,J3,8,GPIO14/TXD*%
%TO.N,/SW_ROTA*%
X-5080000Y20320000D03*
%TO.P,J3,9,GND*%
%TO.N,unconnected-(J3-Pad9)*%
X-2540000Y17780000D03*
%TO.P,J3,10,GPIO15/RXD*%
%TO.N,/SW_ROTB*%
X-5080000Y17780000D03*
%TO.P,J3,11,GPIO17*%
%TO.N,unconnected-(J3-Pad11)*%
X-2540000Y15240000D03*
%TO.P,J3,12,GPIO18/PWM0*%
%TO.N,/MOTOR_3V3*%
X-5080000Y15240000D03*
%TO.P,J3,13,GPIO27*%
%TO.N,/~{CS_3V3}*%
X-2540000Y12700000D03*
%TO.P,J3,14,GND*%
%TO.N,unconnected-(J3-Pad14)*%
X-5080000Y12700000D03*
%TO.P,J3,15,GPIO22*%
%TO.N,unconnected-(J3-Pad15)*%
X-2540000Y10160000D03*
%TO.P,J3,16,GPIO23*%
%TO.N,unconnected-(J3-Pad16)*%
X-5080000Y10160000D03*
%TO.P,J3,17,3V3*%
%TO.N,unconnected-(J3-Pad17)*%
X-2540000Y7620000D03*
%TO.P,J3,18,GPIO24*%
%TO.N,unconnected-(J3-Pad18)*%
X-5080000Y7620000D03*
%TO.P,J3,19,MOSI0/GPIO10*%
%TO.N,/MOSI_3V3*%
X-2540000Y5080000D03*
%TO.P,J3,20,GND*%
%TO.N,unconnected-(J3-Pad20)*%
X-5080000Y5080000D03*
%TO.P,J3,21,MISO0/GPIO9*%
%TO.N,/MISO_3V3*%
X-2540000Y2540000D03*
%TO.P,J3,22,GPIO25*%
%TO.N,unconnected-(J3-Pad22)*%
X-5080000Y2540000D03*
%TO.P,J3,23,SCLK0/GPIO11*%
%TO.N,/CLK_3V3*%
X-2540000Y0D03*
%TO.P,J3,24,~{CE0}/GPIO8*%
%TO.N,unconnected-(J3-Pad24)*%
X-5080000Y0D03*
%TO.P,J3,25,GND*%
%TO.N,unconnected-(J3-Pad25)*%
X-2540000Y-2540000D03*
%TO.P,J3,26,~{CE1}/GPIO7*%
%TO.N,unconnected-(J3-Pad26)*%
X-5080000Y-2540000D03*
%TO.P,J3,27,ID_SD/GPIO0*%
%TO.N,Net-(J3-Pad27)*%
X-2540000Y-5080000D03*
%TO.P,J3,28,ID_SC/GPIO1*%
%TO.N,unconnected-(J3-Pad28)*%
X-5080000Y-5080000D03*
%TO.P,J3,29,GCLK1/GPIO5*%
%TO.N,unconnected-(J3-Pad29)*%
X-2540000Y-7620000D03*
%TO.P,J3,30,GND*%
%TO.N,unconnected-(J3-Pad30)*%
X-5080000Y-7620000D03*
%TO.P,J3,31,GCLK2/GPIO6*%
%TO.N,/TXB_OE*%
X-2540000Y-10160000D03*
%TO.P,J3,32,PWM0/GPIO12*%
%TO.N,unconnected-(J3-Pad32)*%
X-5080000Y-10160000D03*
%TO.P,J3,33,PWM1/GPIO13*%
%TO.N,unconnected-(J3-Pad33)*%
X-2540000Y-12700000D03*
%TO.P,J3,34,GND*%
%TO.N,unconnected-(J3-Pad34)*%
X-5080000Y-12700000D03*
%TO.P,J3,35,GPIO19/MISO1*%
%TO.N,unconnected-(J3-Pad35)*%
X-2540000Y-15240000D03*
%TO.P,J3,36,GPIO16*%
%TO.N,/SW_PRESS*%
X-5080000Y-15240000D03*
%TO.P,J3,37,GPIO26*%
%TO.N,unconnected-(J3-Pad37)*%
X-2540000Y-17780000D03*
%TO.P,J3,38,GPIO20/MOSI1*%
%TO.N,unconnected-(J3-Pad38)*%
X-5080000Y-17780000D03*
%TO.P,J3,39,GND*%
%TO.N,unconnected-(J3-Pad39)*%
X-2540000Y-20320000D03*
%TO.P,J3,40,GPIO21/SCLK1*%
%TO.N,/NEO_DATA_3V3*%
X-5080000Y-20320000D03*
%TD*%
D25*
%TO.P,Q1,1,G*%
%TO.N,/MOTOR_3V3*%
X-59690000Y-14945000D03*
D26*
%TO.P,Q1,2,D*%
%TO.N,/MOTOR-*%
X-57150000Y-14945000D03*
%TO.P,Q1,3,S*%
%TO.N,GND*%
X-54610000Y-14945000D03*
%TD*%
D16*
%TO.P,C2,1*%
%TO.N,+12V*%
X-38862000Y-16191113D03*
D11*
%TO.P,C2,2*%
%TO.N,GND*%
X-38862000Y-13691113D03*
%TD*%
D27*
%TO.P,U2,1,Vout*%
%TO.N,/A_CH0*%
X-41948100Y88823800D03*
D28*
%TO.P,U2,2,GND*%
%TO.N,GND*%
X-44488100Y88823800D03*
%TO.P,U2,3,VCC*%
%TO.N,+5V*%
X-47028100Y88823800D03*
%TO.P,U2,4,V1*%
%TO.N,unconnected-(U2-Pad4)*%
X-49568100Y88823800D03*
%TO.P,U2,5,V2*%
%TO.N,unconnected-(U2-Pad5)*%
X-52108100Y88823800D03*
%TO.P,U2,6,V_Ex*%
%TO.N,unconnected-(U2-Pad6)*%
X-54648100Y88823800D03*
%TD*%
D11*
%TO.P,C1,1*%
%TO.N,+5V*%
X-46990000Y92710000D03*
%TO.P,C1,2*%
%TO.N,GND*%
X-44490000Y92710000D03*
%TD*%
D29*
%TO.P,U1,1,IN*%
%TO.N,+12V*%
X-31657000Y-16177500D03*
D30*
%TO.P,U1,2,GND*%
%TO.N,GND*%
X-29117000Y-16177500D03*
%TO.P,U1,3,OUT*%
%TO.N,+5V*%
X-26577000Y-16177500D03*
%TD*%
D31*
%TO.N,+3V3*%
X-1524000Y45974000D03*
%TO.N,/MOTOR_3V3*%
X-32004000Y15240000D03*
%TO.N,/~{CS_3V3}*%
X-10160000Y46482000D03*
%TO.N,/MOSI_3V3*%
X-10160000Y50038000D03*
%TO.N,/MISO_3V3*%
X-10160000Y52324000D03*
%TO.N,Net-(J3-Pad27)*%
X10414000Y-5080000D03*
%TD*%
D32*
%TO.N,+5V*%
X-2758011Y89113011D02*
X-1260000Y87615000D01*
X-2758011Y86116989D02*
X-2758011Y58003011D01*
X-2758011Y58003011D02*
X-1270000Y56515000D01*
X-13970000Y82550000D02*
X-13970000Y85521022D01*
X-10378011Y89113011D02*
X-2758011Y89113011D01*
X-13970000Y85521022D02*
X-10378011Y89113011D01*
X-1260000Y87615000D02*
X-2758011Y86116989D01*
%TO.N,GND*%
X-5715000Y51435000D02*
X-13970000Y59690000D01*
X-33350000Y38100000D02*
X-30850000Y40600000D01*
X-45350000Y38100000D02*
X-33350000Y38100000D01*
X-1270000Y51435000D02*
X-5715000Y51435000D01*
D33*
%TO.N,/NEO_DATA_5V*%
X-8382000Y64262000D02*
X-13970000Y69850000D01*
X-1270000Y53975000D02*
X-8382000Y61087000D01*
X-8382000Y61087000D02*
X-8382000Y64262000D01*
D32*
%TO.N,+3V3*%
X-16002000Y41402000D02*
X-2540000Y27940000D01*
X-1524000Y45974000D02*
X2794000Y45974000D01*
X-25053554Y82550000D02*
X-16002000Y73498446D01*
X-16002000Y73498446D02*
X-16002000Y41402000D01*
X-26670000Y82550000D02*
X-25053554Y82550000D01*
D33*
%TO.N,/MOTOR_3V3*%
X-59690000Y-12446000D02*
X-59690000Y-14945000D01*
X-32004000Y15240000D02*
X-59690000Y-12446000D01*
%TO.N,/~{CS_3V3}*%
X762000Y35052000D02*
X762000Y35560000D01*
X762000Y35560000D02*
X-3302000Y39624000D01*
X-3302000Y39624000D02*
X-10033000Y46355000D01*
X762000Y16002000D02*
X762000Y35052000D01*
X-2540000Y12700000D02*
X762000Y16002000D01*
X-10033000Y46355000D02*
X-10160000Y46482000D01*
%TO.N,/MOSI_3V3*%
X2286000Y37592000D02*
X2286000Y9906000D01*
X2286000Y9906000D02*
X-2540000Y5080000D01*
X-10160000Y50038000D02*
X2286000Y37592000D01*
%TO.N,/MISO_3V3*%
X3810000Y38354000D02*
X-2540000Y44704000D01*
X3810000Y4826000D02*
X3810000Y38354000D01*
X-1182489Y3897511D02*
X3135511Y3897511D01*
X-2540000Y44704000D02*
X-10160000Y52324000D01*
X3810000Y4572000D02*
X3810000Y4826000D01*
X-2540000Y2540000D02*
X-1182489Y3897511D01*
X3135511Y3897511D02*
X3810000Y4572000D01*
%TO.N,/CLK_3V3*%
X-16827020Y15158656D02*
X-5478364Y3810000D01*
X-3719711Y3028653D02*
X-3719711Y1179711D01*
X-3719711Y1179711D02*
X-2540000Y0D01*
X-5478364Y3810000D02*
X-4501058Y3810000D01*
X-4501058Y3810000D02*
X-3719711Y3028653D01*
X-16827020Y70167020D02*
X-16827020Y15158656D01*
X-26670000Y80010000D02*
X-16827020Y70167020D01*
%TO.N,Net-(J3-Pad27)*%
X10414000Y-5080000D02*
X-2540000Y-5080000D01*
%TO.N,/TXB_OE*%
X-5568653Y-8799711D02*
X-26670000Y12301636D01*
X-3900289Y-8799711D02*
X-5568653Y-8799711D01*
X-2540000Y-10160000D02*
X-3900289Y-8799711D01*
X-26670000Y12301636D02*
X-26670000Y59690000D01*
%TO.N,/NEO_DATA_3V3*%
X-5080000Y-20320000D02*
X-28142711Y2742711D01*
X-28142711Y68377289D02*
X-26670000Y69850000D01*
X-28142711Y2742711D02*
X-28142711Y68377289D01*
%TD*%
M02*
