M48
; DRILL file {KiCad 6.0.1-79c1e3a40b~116~ubuntu20.04.1} date Sat 29 Jan 2022 09:04:52 PM EST
; FORMAT={-:-/ absolute / inch / decimal}
; #@! TF.CreationDate,2022-01-29T21:04:52-05:00
; #@! TF.GenerationSoftware,Kicad,Pcbnew,6.0.1-79c1e3a40b~116~ubuntu20.04.1
; #@! TF.FileFunction,Plated,1,2,PTH
FMAT,2
INCH
; #@! TA.AperFunction,Plated,PTH,ViaDrill
T1C0.0157
; #@! TA.AperFunction,Plated,PTH,ComponentDrill
T2C0.0300
; #@! TA.AperFunction,Plated,PTH,ComponentDrill
T3C0.0315
; #@! TA.AperFunction,Plated,PTH,ComponentDrill
T4C0.0354
; #@! TA.AperFunction,Plated,PTH,ComponentDrill
T5C0.0360
; #@! TA.AperFunction,Plated,PTH,ComponentDrill
T6C0.0394
; #@! TA.AperFunction,Plated,PTH,ComponentDrill
T7C0.0433
; #@! TA.AperFunction,Plated,PTH,ComponentDrill
T8C0.0470
; #@! TA.AperFunction,Plated,PTH,ComponentDrill
T9C0.0600
; #@! TA.AperFunction,Plated,PTH,ComponentDrill
T10C0.0787
%
G90
G05
T1
X0.8Y0.2
X1.3Y1.8715
T2
X0.8202Y1.575
X0.9202Y1.775
X1.0202Y1.575
T3
X0.9352Y1.2494
X0.9352Y1.151
X1.9102Y0.945
X2.2102Y0.945
T4
X1.7852Y0.719
X1.7852Y0.419
T5
X0.6752Y1.348
X0.6752Y1.248
X0.6752Y1.148
X0.6752Y1.048
X0.6752Y0.948
X0.6752Y0.848
T6
X0.7402Y2.0
X0.8402Y2.0
X0.9402Y2.0
X1.0402Y2.0
X1.1Y0.1
X1.1402Y2.0
X1.2Y0.1
X1.2402Y2.0
X1.3Y0.1
X1.3402Y2.0
X1.3463Y1.435
X1.3463Y0.8641
X1.4Y0.1
X1.4402Y2.0
X1.4447Y1.435
X1.5Y0.1
X1.5402Y2.0
X1.5432Y1.435
X1.5432Y0.8641
X1.6Y0.1
X1.6402Y2.0
X1.7Y0.1
X1.8Y2.0
X1.8Y0.1
X1.9Y2.0
X2.0Y2.0
X2.0Y0.1
X2.1Y2.0
X2.1Y0.1
X2.2Y2.0
X2.2Y0.1
X2.3Y2.0
X2.3Y0.1
X2.4Y2.0
X2.4Y0.1
X2.5Y2.0
X2.5Y0.1
T7
X1.979Y1.155
X2.079Y1.155
X2.179Y1.155
T8
X0.94Y0.81
X0.94Y0.71
X0.94Y0.61
T9
X2.4502Y0.92
X2.4502Y0.72
T10
G00X1.2243Y1.1496
M15
G01X1.2243Y1.1299
M16
G05
G00X1.6652Y1.1496
M15
G01X1.6652Y1.1299
M16
G05
T0
M30
