M48
; DRILL file {KiCad 6.0.1-79c1e3a40b~116~ubuntu20.04.1} date Sun 30 Jan 2022 12:58:36 AM EST
; FORMAT={-:-/ absolute / inch / decimal}
; #@! TF.CreationDate,2022-01-30T00:58:36-05:00
; #@! TF.GenerationSoftware,Kicad,Pcbnew,6.0.1-79c1e3a40b~116~ubuntu20.04.1
; #@! TF.FileFunction,Plated,1,2,PTH
FMAT,2
INCH
; #@! TA.AperFunction,Plated,PTH,ViaDrill
T1C0.0157
; #@! TA.AperFunction,Plated,PTH,ComponentDrill
T2C0.0300
; #@! TA.AperFunction,Plated,PTH,ComponentDrill
T3C0.0315
; #@! TA.AperFunction,Plated,PTH,ComponentDrill
T4C0.0354
; #@! TA.AperFunction,Plated,PTH,ComponentDrill
T5C0.0360
; #@! TA.AperFunction,Plated,PTH,ComponentDrill
T6C0.0394
; #@! TA.AperFunction,Plated,PTH,ComponentDrill
T7C0.0433
; #@! TA.AperFunction,Plated,PTH,ComponentDrill
T8C0.0470
; #@! TA.AperFunction,Plated,PTH,ComponentDrill
T9C0.0600
; #@! TA.AperFunction,Plated,PTH,ComponentDrill
T10C0.0787
%
G90
G05
T1
X0.87Y0.42
X1.15Y0.33
X1.39Y0.33
X1.88Y1.84
X2.0Y0.87
T2
X0.1Y1.81
X0.2Y2.01
X0.3Y1.81
T3
X0.54Y1.61
X0.84Y1.61
X1.01Y1.6084
X1.01Y1.51
T4
X0.28Y1.25
X0.28Y0.95
T5
X1.0Y1.83
X1.0866Y1.78
X1.1732Y1.73
X1.2598Y1.68
X1.3464Y1.63
X1.433Y1.58
T6
X0.7402Y2.0
X0.8402Y2.0
X0.9402Y2.0
X1.0402Y2.0
X1.1Y0.1
X1.1402Y2.0
X1.1916Y1.3554
X1.1916Y0.7846
X1.2Y0.1
X1.2402Y2.0
X1.29Y1.3554
X1.3Y0.1
X1.3402Y2.0
X1.3884Y1.3554
X1.3884Y0.7846
X1.4Y0.1
X1.4402Y2.0
X1.5Y0.1
X1.5402Y2.0
X1.6Y0.1
X1.6402Y2.0
X1.7Y0.1
X1.8Y2.0
X1.8Y0.1
X1.9Y2.0
X2.0Y2.0
X2.0Y0.1
X2.1Y2.0
X2.1Y0.1
X2.2Y2.0
X2.2Y0.1
X2.3Y2.0
X2.3Y0.1
X2.4Y2.0
X2.4Y0.1
X2.5Y2.0
X2.5Y0.1
T7
X0.59Y1.48
X0.69Y1.48
X0.79Y1.48
T8
X0.09Y0.8
X0.09Y0.7
X0.09Y0.6
T9
X0.09Y1.19
X0.09Y0.99
T10
G00X1.0695Y1.07
M15
G01X1.0695Y1.0503
M16
G05
G00X1.5105Y1.07
M15
G01X1.5105Y1.0503
M16
G05
T0
M30
