%TF.GenerationSoftware,KiCad,Pcbnew,6.0.1-79c1e3a40b~116~ubuntu20.04.1*%
%TF.CreationDate,2022-01-29T19:32:23-05:00*%
%TF.ProjectId,Protogasm-Board-V2,50726f74-6f67-4617-936d-2d426f617264,rev?*%
%TF.SameCoordinates,Original*%
%TF.FileFunction,Legend,Bot*%
%TF.FilePolarity,Positive*%
%FSLAX46Y46*%
G04 Gerber Fmt 4.6, Leading zero omitted, Abs format (unit mm)*
G04 Created by KiCad (PCBNEW 6.0.1-79c1e3a40b~116~ubuntu20.04.1) date 2022-01-29 19:32:23*
%MOMM*%
%LPD*%
G01*
G04 APERTURE LIST*
%ADD10C,0.150000*%
%ADD11C,0.120000*%
%ADD12C,1.600000*%
%ADD13O,1.600000X1.600000*%
%ADD14R,2.000000X2.000000*%
%ADD15C,2.000000*%
%ADD16R,2.500000X3.000000*%
%ADD17O,3.500000X3.500000*%
%ADD18R,1.905000X2.000000*%
%ADD19O,1.905000X2.000000*%
%ADD20C,2.159000*%
%ADD21R,1.800000X1.800000*%
%ADD22O,1.800000X1.800000*%
%ADD23C,1.524000*%
%ADD24C,2.540000*%
%ADD25C,3.200000*%
%ADD26R,1.600000X1.600000*%
%ADD27R,1.981200X1.981200*%
%ADD28C,1.981200*%
G04 APERTURE END LIST*
D10*
%TO.C,U1*%
X134919404Y-121372380D02*
X134919404Y-122181904D01*
X134871785Y-122277142D01*
X134824166Y-122324761D01*
X134728928Y-122372380D01*
X134538452Y-122372380D01*
X134443214Y-122324761D01*
X134395595Y-122277142D01*
X134347976Y-122181904D01*
X134347976Y-121372380D01*
X133347976Y-122372380D02*
X133919404Y-122372380D01*
X133633690Y-122372380D02*
X133633690Y-121372380D01*
X133728928Y-121515238D01*
X133824166Y-121610476D01*
X133919404Y-121658095D01*
%TO.C,U2*%
X127223404Y-87683180D02*
X127223404Y-88492704D01*
X127175785Y-88587942D01*
X127128166Y-88635561D01*
X127032928Y-88683180D01*
X126842452Y-88683180D01*
X126747214Y-88635561D01*
X126699595Y-88587942D01*
X126651976Y-88492704D01*
X126651976Y-87683180D01*
X126223404Y-87778419D02*
X126175785Y-87730800D01*
X126080547Y-87683180D01*
X125842452Y-87683180D01*
X125747214Y-87730800D01*
X125699595Y-87778419D01*
X125651976Y-87873657D01*
X125651976Y-87968895D01*
X125699595Y-88111752D01*
X126271023Y-88683180D01*
X125651976Y-88683180D01*
X121604261Y-102373180D02*
X121270928Y-103373180D01*
X120937595Y-102373180D01*
X120842357Y-103468419D02*
X120080452Y-103468419D01*
X119842357Y-102849371D02*
X119509023Y-102849371D01*
X119366166Y-103373180D02*
X119842357Y-103373180D01*
X119842357Y-102373180D01*
X119366166Y-102373180D01*
X119032833Y-103373180D02*
X118509023Y-102706514D01*
X119032833Y-102706514D02*
X118509023Y-103373180D01*
X130373285Y-87223180D02*
X130373285Y-86223180D01*
X130039952Y-86937466D01*
X129706619Y-86223180D01*
X129706619Y-87223180D01*
X129230428Y-87223180D02*
X129230428Y-86223180D01*
X128849476Y-86223180D01*
X128754238Y-86270800D01*
X128706619Y-86318419D01*
X128659000Y-86413657D01*
X128659000Y-86556514D01*
X128706619Y-86651752D01*
X128754238Y-86699371D01*
X128849476Y-86746990D01*
X129230428Y-86746990D01*
X128325666Y-86223180D02*
X127659000Y-87223180D01*
X127659000Y-86223180D02*
X128325666Y-87223180D01*
X126801857Y-86223180D02*
X127278047Y-86223180D01*
X127325666Y-86699371D01*
X127278047Y-86651752D01*
X127182809Y-86604133D01*
X126944714Y-86604133D01*
X126849476Y-86651752D01*
X126801857Y-86699371D01*
X126754238Y-86794609D01*
X126754238Y-87032704D01*
X126801857Y-87127942D01*
X126849476Y-87175561D01*
X126944714Y-87223180D01*
X127182809Y-87223180D01*
X127278047Y-87175561D01*
X127325666Y-87127942D01*
X126135190Y-86223180D02*
X126039952Y-86223180D01*
X125944714Y-86270800D01*
X125897095Y-86318419D01*
X125849476Y-86413657D01*
X125801857Y-86604133D01*
X125801857Y-86842228D01*
X125849476Y-87032704D01*
X125897095Y-87127942D01*
X125944714Y-87175561D01*
X126039952Y-87223180D01*
X126135190Y-87223180D01*
X126230428Y-87175561D01*
X126278047Y-87127942D01*
X126325666Y-87032704D01*
X126373285Y-86842228D01*
X126373285Y-86604133D01*
X126325666Y-86413657D01*
X126278047Y-86318419D01*
X126230428Y-86270800D01*
X126135190Y-86223180D01*
X124897095Y-86223180D02*
X125373285Y-86223180D01*
X125420904Y-86699371D01*
X125373285Y-86651752D01*
X125278047Y-86604133D01*
X125039952Y-86604133D01*
X124944714Y-86651752D01*
X124897095Y-86699371D01*
X124849476Y-86794609D01*
X124849476Y-87032704D01*
X124897095Y-87127942D01*
X124944714Y-87175561D01*
X125039952Y-87223180D01*
X125278047Y-87223180D01*
X125373285Y-87175561D01*
X125420904Y-87127942D01*
X124230428Y-86223180D02*
X124135190Y-86223180D01*
X124039952Y-86270800D01*
X123992333Y-86318419D01*
X123944714Y-86413657D01*
X123897095Y-86604133D01*
X123897095Y-86842228D01*
X123944714Y-87032704D01*
X123992333Y-87127942D01*
X124039952Y-87175561D01*
X124135190Y-87223180D01*
X124230428Y-87223180D01*
X124325666Y-87175561D01*
X124373285Y-87127942D01*
X124420904Y-87032704D01*
X124468523Y-86842228D01*
X124468523Y-86604133D01*
X124420904Y-86413657D01*
X124373285Y-86318419D01*
X124325666Y-86270800D01*
X124230428Y-86223180D01*
X122944714Y-86270800D02*
X123039952Y-86223180D01*
X123182809Y-86223180D01*
X123325666Y-86270800D01*
X123420904Y-86366038D01*
X123468523Y-86461276D01*
X123516142Y-86651752D01*
X123516142Y-86794609D01*
X123468523Y-86985085D01*
X123420904Y-87080323D01*
X123325666Y-87175561D01*
X123182809Y-87223180D01*
X123087571Y-87223180D01*
X122944714Y-87175561D01*
X122897095Y-87127942D01*
X122897095Y-86794609D01*
X123087571Y-86794609D01*
X122468523Y-87223180D02*
X122468523Y-86223180D01*
X122087571Y-86223180D01*
X121992333Y-86270800D01*
X121944714Y-86318419D01*
X121897095Y-86413657D01*
X121897095Y-86556514D01*
X121944714Y-86651752D01*
X121992333Y-86699371D01*
X122087571Y-86746990D01*
X122468523Y-86746990D01*
X121604261Y-89774780D02*
X121270928Y-90774780D01*
X120937595Y-89774780D01*
X120461404Y-90774780D02*
X120556642Y-90727161D01*
X120604261Y-90679542D01*
X120651880Y-90584304D01*
X120651880Y-90298590D01*
X120604261Y-90203352D01*
X120556642Y-90155733D01*
X120461404Y-90108114D01*
X120318547Y-90108114D01*
X120223309Y-90155733D01*
X120175690Y-90203352D01*
X120128071Y-90298590D01*
X120128071Y-90584304D01*
X120175690Y-90679542D01*
X120223309Y-90727161D01*
X120318547Y-90774780D01*
X120461404Y-90774780D01*
X119270928Y-90108114D02*
X119270928Y-90774780D01*
X119699500Y-90108114D02*
X119699500Y-90631923D01*
X119651880Y-90727161D01*
X119556642Y-90774780D01*
X119413785Y-90774780D01*
X119318547Y-90727161D01*
X119270928Y-90679542D01*
X118937595Y-90108114D02*
X118556642Y-90108114D01*
X118794738Y-89774780D02*
X118794738Y-90631923D01*
X118747119Y-90727161D01*
X118651880Y-90774780D01*
X118556642Y-90774780D01*
X123890261Y-97293180D02*
X123556928Y-98293180D01*
X123223595Y-97293180D01*
X122366452Y-98293180D02*
X122937880Y-98293180D01*
X122652166Y-98293180D02*
X122652166Y-97293180D01*
X122747404Y-97436038D01*
X122842642Y-97531276D01*
X122937880Y-97578895D01*
X123128261Y-99858580D02*
X122794928Y-100858580D01*
X122461595Y-99858580D01*
X122175880Y-99953819D02*
X122128261Y-99906200D01*
X122033023Y-99858580D01*
X121794928Y-99858580D01*
X121699690Y-99906200D01*
X121652071Y-99953819D01*
X121604452Y-100049057D01*
X121604452Y-100144295D01*
X121652071Y-100287152D01*
X122223500Y-100858580D01*
X121604452Y-100858580D01*
X119543285Y-99383180D02*
X119543285Y-98383180D01*
X119209952Y-99097466D01*
X118876619Y-98383180D01*
X118876619Y-99383180D01*
X118400428Y-99383180D02*
X118400428Y-98383180D01*
X118019476Y-98383180D01*
X117924238Y-98430800D01*
X117876619Y-98478419D01*
X117829000Y-98573657D01*
X117829000Y-98716514D01*
X117876619Y-98811752D01*
X117924238Y-98859371D01*
X118019476Y-98906990D01*
X118400428Y-98906990D01*
X117495666Y-98383180D02*
X116829000Y-99383180D01*
X116829000Y-98383180D02*
X117495666Y-99383180D01*
X115971857Y-98383180D02*
X116448047Y-98383180D01*
X116495666Y-98859371D01*
X116448047Y-98811752D01*
X116352809Y-98764133D01*
X116114714Y-98764133D01*
X116019476Y-98811752D01*
X115971857Y-98859371D01*
X115924238Y-98954609D01*
X115924238Y-99192704D01*
X115971857Y-99287942D01*
X116019476Y-99335561D01*
X116114714Y-99383180D01*
X116352809Y-99383180D01*
X116448047Y-99335561D01*
X116495666Y-99287942D01*
X115305190Y-98383180D02*
X115209952Y-98383180D01*
X115114714Y-98430800D01*
X115067095Y-98478419D01*
X115019476Y-98573657D01*
X114971857Y-98764133D01*
X114971857Y-99002228D01*
X115019476Y-99192704D01*
X115067095Y-99287942D01*
X115114714Y-99335561D01*
X115209952Y-99383180D01*
X115305190Y-99383180D01*
X115400428Y-99335561D01*
X115448047Y-99287942D01*
X115495666Y-99192704D01*
X115543285Y-99002228D01*
X115543285Y-98764133D01*
X115495666Y-98573657D01*
X115448047Y-98478419D01*
X115400428Y-98430800D01*
X115305190Y-98383180D01*
X114067095Y-98383180D02*
X114543285Y-98383180D01*
X114590904Y-98859371D01*
X114543285Y-98811752D01*
X114448047Y-98764133D01*
X114209952Y-98764133D01*
X114114714Y-98811752D01*
X114067095Y-98859371D01*
X114019476Y-98954609D01*
X114019476Y-99192704D01*
X114067095Y-99287942D01*
X114114714Y-99335561D01*
X114209952Y-99383180D01*
X114448047Y-99383180D01*
X114543285Y-99335561D01*
X114590904Y-99287942D01*
X113400428Y-98383180D02*
X113305190Y-98383180D01*
X113209952Y-98430800D01*
X113162333Y-98478419D01*
X113114714Y-98573657D01*
X113067095Y-98764133D01*
X113067095Y-99002228D01*
X113114714Y-99192704D01*
X113162333Y-99287942D01*
X113209952Y-99335561D01*
X113305190Y-99383180D01*
X113400428Y-99383180D01*
X113495666Y-99335561D01*
X113543285Y-99287942D01*
X113590904Y-99192704D01*
X113638523Y-99002228D01*
X113638523Y-98764133D01*
X113590904Y-98573657D01*
X113543285Y-98478419D01*
X113495666Y-98430800D01*
X113400428Y-98383180D01*
X112114714Y-98430800D02*
X112209952Y-98383180D01*
X112352809Y-98383180D01*
X112495666Y-98430800D01*
X112590904Y-98526038D01*
X112638523Y-98621276D01*
X112686142Y-98811752D01*
X112686142Y-98954609D01*
X112638523Y-99145085D01*
X112590904Y-99240323D01*
X112495666Y-99335561D01*
X112352809Y-99383180D01*
X112257571Y-99383180D01*
X112114714Y-99335561D01*
X112067095Y-99287942D01*
X112067095Y-98954609D01*
X112257571Y-98954609D01*
X111638523Y-99383180D02*
X111638523Y-98383180D01*
X111257571Y-98383180D01*
X111162333Y-98430800D01*
X111114714Y-98478419D01*
X111067095Y-98573657D01*
X111067095Y-98716514D01*
X111114714Y-98811752D01*
X111162333Y-98859371D01*
X111257571Y-98906990D01*
X111638523Y-98906990D01*
X123890261Y-94829380D02*
X123556928Y-95829380D01*
X123223595Y-94829380D01*
X122318833Y-95734142D02*
X122366452Y-95781761D01*
X122509309Y-95829380D01*
X122604547Y-95829380D01*
X122747404Y-95781761D01*
X122842642Y-95686523D01*
X122890261Y-95591285D01*
X122937880Y-95400809D01*
X122937880Y-95257952D01*
X122890261Y-95067476D01*
X122842642Y-94972238D01*
X122747404Y-94877000D01*
X122604547Y-94829380D01*
X122509309Y-94829380D01*
X122366452Y-94877000D01*
X122318833Y-94924619D01*
X121318833Y-95734142D02*
X121366452Y-95781761D01*
X121509309Y-95829380D01*
X121604547Y-95829380D01*
X121747404Y-95781761D01*
X121842642Y-95686523D01*
X121890261Y-95591285D01*
X121937880Y-95400809D01*
X121937880Y-95257952D01*
X121890261Y-95067476D01*
X121842642Y-94972238D01*
X121747404Y-94877000D01*
X121604547Y-94829380D01*
X121509309Y-94829380D01*
X121366452Y-94877000D01*
X121318833Y-94924619D01*
X122461595Y-92337000D02*
X122556833Y-92289380D01*
X122699690Y-92289380D01*
X122842547Y-92337000D01*
X122937785Y-92432238D01*
X122985404Y-92527476D01*
X123033023Y-92717952D01*
X123033023Y-92860809D01*
X122985404Y-93051285D01*
X122937785Y-93146523D01*
X122842547Y-93241761D01*
X122699690Y-93289380D01*
X122604452Y-93289380D01*
X122461595Y-93241761D01*
X122413976Y-93194142D01*
X122413976Y-92860809D01*
X122604452Y-92860809D01*
X121985404Y-93289380D02*
X121985404Y-92289380D01*
X121413976Y-93289380D01*
X121413976Y-92289380D01*
X120937785Y-93289380D02*
X120937785Y-92289380D01*
X120699690Y-92289380D01*
X120556833Y-92337000D01*
X120461595Y-92432238D01*
X120413976Y-92527476D01*
X120366357Y-92717952D01*
X120366357Y-92860809D01*
X120413976Y-93051285D01*
X120461595Y-93146523D01*
X120556833Y-93241761D01*
X120699690Y-93289380D01*
X120937785Y-93289380D01*
D11*
%TO.C,U1*%
X175390000Y-72640000D02*
X175390000Y-84070000D01*
X177930000Y-86610000D02*
X177930000Y-119380000D01*
X107190000Y-112270000D02*
X109090000Y-112270000D01*
X109090000Y-121410000D02*
X107190000Y-121410000D01*
X175390000Y-124590000D02*
X109090000Y-124590000D01*
X102740000Y-80520000D02*
X109090000Y-80520000D01*
X109090000Y-112270000D02*
X109090000Y-92200000D01*
X102740000Y-92200000D02*
X102740000Y-80520000D01*
X175390000Y-84070000D02*
X177930000Y-86610000D01*
X175390000Y-121920000D02*
X175390000Y-124590000D01*
X109090000Y-80520000D02*
X109090000Y-70990000D01*
X109090000Y-92200000D02*
X102740000Y-92200000D01*
X107190000Y-121410000D02*
X107190000Y-112270000D01*
X109090000Y-70990000D02*
X173740000Y-70990000D01*
X177930000Y-119380000D02*
X175390000Y-121920000D01*
X173740000Y-70990000D02*
X175390000Y-72640000D01*
X109090000Y-124590000D02*
X109090000Y-121410000D01*
%TO.C,U2*%
X125369000Y-97240800D02*
X124569000Y-97240800D01*
X124099000Y-93360800D02*
X125369000Y-93360800D01*
X125369000Y-98440800D02*
X124354000Y-98440800D01*
X125374000Y-102350800D02*
X122704000Y-102350800D01*
X125269000Y-90820800D02*
X122729000Y-90820800D01*
X125369000Y-103500800D02*
X121969000Y-103500800D01*
X123289000Y-90270800D02*
X124369000Y-90270800D01*
X124369000Y-89610800D02*
X125269000Y-89610800D01*
X122159000Y-89630800D02*
X123289000Y-89630800D01*
X125369000Y-94650800D02*
X124394000Y-94650800D01*
X123429000Y-92090800D02*
X124099000Y-93410800D01*
X124369000Y-90270800D02*
X124369000Y-89610800D01*
X125369000Y-92140800D02*
X123439000Y-92140800D01*
X125369000Y-100960800D02*
X123439000Y-100960800D01*
X123289000Y-89630800D02*
X123289000Y-90270800D01*
X125369000Y-95880800D02*
X124574000Y-95880800D01*
X125369000Y-99790800D02*
X123959000Y-99790800D01*
G36*
X124740913Y-96720793D02*
G01*
X124729114Y-97032243D01*
X124703907Y-97300306D01*
X124673313Y-97517379D01*
X124614339Y-97887493D01*
X124547702Y-98256980D01*
X124476479Y-98610064D01*
X124403746Y-98930970D01*
X124332583Y-99203922D01*
X124317746Y-99253874D01*
X124257664Y-99433167D01*
X124179077Y-99644286D01*
X124086988Y-99875730D01*
X123986396Y-100116001D01*
X123882302Y-100353598D01*
X123779709Y-100577022D01*
X123683617Y-100774772D01*
X123599026Y-100935350D01*
X123530939Y-101047256D01*
X123526703Y-101053681D01*
X123491345Y-101112114D01*
X123429316Y-101218059D01*
X123344365Y-101364989D01*
X123240242Y-101546375D01*
X123120697Y-101755690D01*
X122989480Y-101986406D01*
X122850341Y-102231995D01*
X122829148Y-102269471D01*
X122686687Y-102521290D01*
X122549721Y-102763234D01*
X122422574Y-102987676D01*
X122309569Y-103186990D01*
X122215029Y-103353551D01*
X122143278Y-103479732D01*
X122098640Y-103557907D01*
X122069662Y-103608693D01*
X122009787Y-103714006D01*
X121922728Y-103867335D01*
X121810734Y-104064709D01*
X121676059Y-104302159D01*
X121520951Y-104575713D01*
X121347663Y-104881401D01*
X121158446Y-105215252D01*
X120955551Y-105573296D01*
X120741228Y-105951561D01*
X120517729Y-106346078D01*
X120287305Y-106752876D01*
X120075879Y-107126103D01*
X119851997Y-107521199D01*
X119637196Y-107900142D01*
X119433717Y-108258988D01*
X119243800Y-108593790D01*
X119069684Y-108900603D01*
X118913609Y-109175482D01*
X118777815Y-109414481D01*
X118664540Y-109613654D01*
X118576026Y-109769056D01*
X118514511Y-109876741D01*
X118482236Y-109932765D01*
X118470014Y-109953014D01*
X118372100Y-110092806D01*
X118239626Y-110256705D01*
X118085371Y-110430762D01*
X117922112Y-110601026D01*
X117762627Y-110753550D01*
X117619693Y-110874384D01*
X117449248Y-110991375D01*
X117186097Y-111137213D01*
X116890624Y-111270764D01*
X116580617Y-111384919D01*
X116273863Y-111472566D01*
X115988148Y-111526595D01*
X115888512Y-111538104D01*
X115426255Y-111554080D01*
X114972375Y-111506947D01*
X114524079Y-111396458D01*
X114481160Y-111382417D01*
X114266411Y-111302946D01*
X114045509Y-111208147D01*
X113835382Y-111106133D01*
X113652958Y-111005018D01*
X113515167Y-110912915D01*
X113342797Y-110772893D01*
X113169958Y-110620211D01*
X113010934Y-110468238D01*
X112878443Y-110329132D01*
X112785202Y-110215052D01*
X112763087Y-110180559D01*
X112708397Y-110089953D01*
X112625806Y-109950234D01*
X112517386Y-109764989D01*
X112385209Y-109537806D01*
X112231346Y-109272273D01*
X112057869Y-108971976D01*
X111866851Y-108640503D01*
X111660363Y-108281441D01*
X111440476Y-107898378D01*
X111209262Y-107494900D01*
X110968794Y-107074596D01*
X110721142Y-106641052D01*
X108778994Y-103238410D01*
X107568635Y-103222436D01*
X107443794Y-103220778D01*
X107156656Y-103216772D01*
X106925073Y-103212972D01*
X106743001Y-103208983D01*
X106604395Y-103204410D01*
X106503211Y-103198856D01*
X106433404Y-103191928D01*
X106388930Y-103183230D01*
X106363744Y-103172366D01*
X106351802Y-103158942D01*
X106347059Y-103142561D01*
X106334892Y-103115587D01*
X106284633Y-103045010D01*
X106245626Y-102998788D01*
X106565101Y-102998788D01*
X107587491Y-102998788D01*
X107712411Y-102998589D01*
X107957392Y-102996955D01*
X108173571Y-102993834D01*
X108353928Y-102989419D01*
X108491445Y-102983906D01*
X108579102Y-102977491D01*
X108609881Y-102970368D01*
X108597060Y-102941963D01*
X108555729Y-102863698D01*
X108489355Y-102742406D01*
X108401529Y-102584536D01*
X108295840Y-102396539D01*
X108175880Y-102184865D01*
X108045238Y-101955965D01*
X107873405Y-101653999D01*
X107662337Y-101275743D01*
X107480120Y-100938393D01*
X107323334Y-100634553D01*
X107188556Y-100356824D01*
X107072368Y-100097809D01*
X106971348Y-99850109D01*
X106882075Y-99606327D01*
X106801129Y-99359066D01*
X106725088Y-99100926D01*
X106684335Y-98959491D01*
X106645000Y-98830072D01*
X106613562Y-98734060D01*
X106594465Y-98685580D01*
X106592151Y-98688697D01*
X106587489Y-98740205D01*
X106583124Y-98848779D01*
X106579118Y-99009795D01*
X106575533Y-99218629D01*
X106572430Y-99470657D01*
X106569871Y-99761254D01*
X106567918Y-100085797D01*
X106566631Y-100439661D01*
X106566073Y-100818222D01*
X106565101Y-102998788D01*
X106245626Y-102998788D01*
X106205462Y-102951194D01*
X106107812Y-102847027D01*
X105879782Y-102615392D01*
X102347742Y-102615392D01*
X102347742Y-102856017D01*
X102347647Y-102864748D01*
X102346865Y-102936496D01*
X102340015Y-103036071D01*
X102324298Y-103091702D01*
X102297263Y-103116013D01*
X102296013Y-103116289D01*
X102250673Y-103114579D01*
X102146943Y-103105758D01*
X101989356Y-103090326D01*
X101782446Y-103068784D01*
X101530748Y-103041631D01*
X101238796Y-103009369D01*
X100911125Y-102972497D01*
X100552269Y-102931517D01*
X100166761Y-102886929D01*
X99759137Y-102839234D01*
X99333930Y-102788931D01*
X99096513Y-102760723D01*
X98604863Y-102702569D01*
X98169858Y-102651566D01*
X97786810Y-102607234D01*
X97451027Y-102569092D01*
X97157819Y-102536659D01*
X96902498Y-102509456D01*
X96680372Y-102487001D01*
X96486751Y-102468815D01*
X96316947Y-102454418D01*
X96166267Y-102443327D01*
X96030023Y-102435064D01*
X95903525Y-102429148D01*
X95782082Y-102425098D01*
X95143088Y-102407719D01*
X95143088Y-102200046D01*
X95350761Y-102200046D01*
X96149503Y-102200046D01*
X96149503Y-102197150D01*
X96373151Y-102197150D01*
X96389965Y-102200046D01*
X96476988Y-102215035D01*
X96490511Y-102217016D01*
X96564490Y-102226524D01*
X96694773Y-102242554D01*
X96876400Y-102264517D01*
X97104410Y-102291824D01*
X97373842Y-102323885D01*
X97679738Y-102360111D01*
X98017137Y-102399913D01*
X98381078Y-102442700D01*
X98766602Y-102487885D01*
X99168749Y-102534876D01*
X99344085Y-102555342D01*
X99740909Y-102601713D01*
X100119619Y-102646043D01*
X100475176Y-102687735D01*
X100802541Y-102726197D01*
X101096673Y-102760835D01*
X101352534Y-102791054D01*
X101565082Y-102816261D01*
X101729279Y-102835862D01*
X101840085Y-102849262D01*
X101892459Y-102855868D01*
X101929155Y-102860634D01*
X102000077Y-102866974D01*
X102028246Y-102864748D01*
X102027893Y-102862082D01*
X102016825Y-102818675D01*
X101995069Y-102742979D01*
X101980048Y-102679595D01*
X101956939Y-102537371D01*
X101945426Y-102442339D01*
X106053906Y-102442339D01*
X106197680Y-102583442D01*
X106341453Y-102724545D01*
X106341453Y-98384729D01*
X106197680Y-98525832D01*
X106053906Y-98666935D01*
X106053906Y-102442339D01*
X101945426Y-102442339D01*
X101939297Y-102391744D01*
X102347742Y-102391744D01*
X105830258Y-102391744D01*
X105830258Y-98717530D01*
X102347742Y-98717530D01*
X102347742Y-102391744D01*
X101939297Y-102391744D01*
X101933917Y-102347336D01*
X101911803Y-102119146D01*
X101891415Y-101862454D01*
X101873571Y-101586914D01*
X101859091Y-101302181D01*
X101848792Y-101017907D01*
X101843639Y-100707474D01*
X101844156Y-100559010D01*
X102076637Y-100559010D01*
X102078060Y-100789237D01*
X102087659Y-100993945D01*
X102093787Y-101072455D01*
X102101067Y-101155345D01*
X102106483Y-101195679D01*
X102110306Y-101189900D01*
X102112806Y-101134451D01*
X102114256Y-101025775D01*
X102114927Y-100860314D01*
X102115090Y-100634511D01*
X102115022Y-100474810D01*
X102114544Y-100290265D01*
X102113375Y-100163653D01*
X102111244Y-100091416D01*
X102107878Y-100069997D01*
X102103006Y-100095839D01*
X102096357Y-100165385D01*
X102087659Y-100275077D01*
X102083388Y-100341117D01*
X102076637Y-100559010D01*
X101844156Y-100559010D01*
X101844822Y-100367736D01*
X101852082Y-100020616D01*
X101864874Y-99677983D01*
X101882653Y-99351708D01*
X101904872Y-99053662D01*
X101930985Y-98795712D01*
X101960447Y-98589731D01*
X101979425Y-98479780D01*
X101998884Y-98361478D01*
X102011175Y-98279569D01*
X102014219Y-98247301D01*
X102005006Y-98247776D01*
X101941999Y-98254082D01*
X101824036Y-98266911D01*
X101656670Y-98285615D01*
X101445457Y-98309545D01*
X101195949Y-98338052D01*
X100913701Y-98370487D01*
X100604266Y-98406201D01*
X100273199Y-98444546D01*
X99926052Y-98484872D01*
X99568381Y-98526531D01*
X99205739Y-98568874D01*
X98843679Y-98611252D01*
X98487756Y-98653016D01*
X98143524Y-98693517D01*
X97816536Y-98732107D01*
X97512346Y-98768137D01*
X97236508Y-98800957D01*
X96994577Y-98829919D01*
X96792105Y-98854374D01*
X96634647Y-98873674D01*
X96527757Y-98887168D01*
X96476988Y-98894210D01*
X96373151Y-98912123D01*
X96373151Y-102197150D01*
X96149503Y-102197150D01*
X96149503Y-98909228D01*
X95350761Y-98909228D01*
X95350761Y-102200046D01*
X95143088Y-102200046D01*
X95143088Y-98701555D01*
X95782082Y-98684175D01*
X95835622Y-98682579D01*
X95958728Y-98677760D01*
X96088970Y-98670862D01*
X96231038Y-98661405D01*
X96389621Y-98648907D01*
X96569410Y-98632888D01*
X96775094Y-98612868D01*
X97011365Y-98588367D01*
X97282911Y-98558904D01*
X97594423Y-98523998D01*
X97950591Y-98483170D01*
X98356105Y-98435938D01*
X98815654Y-98381822D01*
X99333930Y-98320343D01*
X99382704Y-98314545D01*
X99806152Y-98264512D01*
X100211505Y-98217142D01*
X100594228Y-98172937D01*
X100949789Y-98132396D01*
X101273652Y-98096020D01*
X101561284Y-98064310D01*
X101808149Y-98037766D01*
X102009714Y-98016889D01*
X102161444Y-98002178D01*
X102258805Y-97994135D01*
X102297263Y-97993261D01*
X102314076Y-98003893D01*
X102334414Y-98044353D01*
X102344819Y-98123266D01*
X102347742Y-98253257D01*
X102347742Y-98493882D01*
X105876680Y-98493882D01*
X106109067Y-98263047D01*
X106341453Y-98032211D01*
X106341453Y-96499674D01*
X106591055Y-96499674D01*
X106596274Y-96893305D01*
X106612685Y-97271609D01*
X106640288Y-97618723D01*
X106679083Y-97918788D01*
X106684299Y-97949299D01*
X106719744Y-98125297D01*
X106770335Y-98344127D01*
X106780504Y-98384729D01*
X106832171Y-98591029D01*
X106901351Y-98851246D01*
X106973974Y-99110019D01*
X107046141Y-99352588D01*
X107113950Y-99564197D01*
X107135718Y-99626900D01*
X107172575Y-99725372D01*
X107216118Y-99832604D01*
X107267754Y-99951184D01*
X107328888Y-100083699D01*
X107400925Y-100232733D01*
X107485273Y-100400874D01*
X107583336Y-100590707D01*
X107696520Y-100804820D01*
X107826231Y-101045798D01*
X107973875Y-101316228D01*
X108140858Y-101618695D01*
X108328586Y-101955787D01*
X108538464Y-102330089D01*
X108771898Y-102744188D01*
X108899929Y-102970368D01*
X109030294Y-103200670D01*
X109315059Y-103702122D01*
X109627596Y-104251129D01*
X109969314Y-104850278D01*
X110341616Y-105502155D01*
X110415307Y-105631110D01*
X110745269Y-106208444D01*
X111045461Y-106733480D01*
X111317448Y-107208864D01*
X111562795Y-107637239D01*
X111783065Y-108021252D01*
X111979824Y-108363547D01*
X112154635Y-108666770D01*
X112309063Y-108933566D01*
X112444672Y-109166579D01*
X112563027Y-109368456D01*
X112665692Y-109541841D01*
X112754231Y-109689380D01*
X112830209Y-109813717D01*
X112895190Y-109917497D01*
X112950739Y-110003367D01*
X112998419Y-110073971D01*
X113039796Y-110131953D01*
X113076434Y-110179960D01*
X113109896Y-110220637D01*
X113141748Y-110256628D01*
X113173554Y-110290578D01*
X113261244Y-110379875D01*
X113561685Y-110646619D01*
X113875313Y-110861614D01*
X114216978Y-111034036D01*
X114601531Y-111173065D01*
X114675454Y-111194461D01*
X114846329Y-111237179D01*
X115011488Y-111270732D01*
X115143592Y-111289262D01*
X115263337Y-111299720D01*
X115381704Y-111310560D01*
X115463088Y-111318576D01*
X115629029Y-111322231D01*
X115853013Y-111300928D01*
X116105917Y-111256449D01*
X116373280Y-111192305D01*
X116640641Y-111112004D01*
X116893539Y-111019058D01*
X117117513Y-110916976D01*
X117201830Y-110871486D01*
X117299931Y-110810659D01*
X117397453Y-110738492D01*
X117505358Y-110646068D01*
X117634610Y-110524464D01*
X117796169Y-110364762D01*
X118212269Y-109947844D01*
X120303877Y-106257656D01*
X120557177Y-105810762D01*
X120824219Y-105339620D01*
X121088484Y-104873375D01*
X121347360Y-104416635D01*
X121598234Y-103974010D01*
X121838496Y-103550107D01*
X122065532Y-103149535D01*
X122276731Y-102776902D01*
X122469481Y-102436817D01*
X122641170Y-102133889D01*
X122789186Y-101872726D01*
X122910916Y-101657936D01*
X123003749Y-101494129D01*
X123027077Y-101452910D01*
X123262739Y-101028977D01*
X123465335Y-100648459D01*
X123638411Y-100303356D01*
X123785513Y-99985671D01*
X123910184Y-99687405D01*
X124015972Y-99400561D01*
X124106420Y-99117140D01*
X124185075Y-98829145D01*
X124328088Y-98190190D01*
X124434258Y-97519043D01*
X124488427Y-96864449D01*
X124490593Y-96215670D01*
X124440756Y-95561971D01*
X124338917Y-94892612D01*
X124185075Y-94196858D01*
X124178278Y-94170116D01*
X124098691Y-93882871D01*
X124006987Y-93599470D01*
X123899620Y-93311914D01*
X123773044Y-93012204D01*
X123623714Y-92692343D01*
X123448086Y-92344334D01*
X123242612Y-91960177D01*
X123003749Y-91531874D01*
X122916499Y-91377917D01*
X122796212Y-91165674D01*
X122649503Y-90906817D01*
X122478986Y-90605955D01*
X122287270Y-90267696D01*
X122076969Y-89896648D01*
X121850695Y-89497420D01*
X121611059Y-89074620D01*
X121360674Y-88632858D01*
X121102151Y-88176741D01*
X120838102Y-87710878D01*
X120571141Y-87239877D01*
X120303877Y-86768348D01*
X118212269Y-83078159D01*
X117796169Y-82661241D01*
X117699764Y-82565929D01*
X117505066Y-82385046D01*
X117327661Y-82241864D01*
X117152725Y-82127312D01*
X116965435Y-82032318D01*
X116750966Y-81947813D01*
X116494495Y-81864724D01*
X116373620Y-81830324D01*
X115921592Y-81740613D01*
X115475948Y-81714401D01*
X115036118Y-81751683D01*
X114601531Y-81852456D01*
X114483355Y-81890497D01*
X114112502Y-82038867D01*
X113780608Y-82222947D01*
X113472638Y-82452033D01*
X113173554Y-82735425D01*
X113166758Y-82742561D01*
X113135073Y-82776723D01*
X113103011Y-82813484D01*
X113069008Y-82855489D01*
X113031499Y-82905383D01*
X112988921Y-82965813D01*
X112939708Y-83039422D01*
X112882296Y-83128857D01*
X112815121Y-83236761D01*
X112736619Y-83365781D01*
X112645225Y-83518561D01*
X112539374Y-83697747D01*
X112417503Y-83905984D01*
X112278048Y-84145917D01*
X112119442Y-84420190D01*
X111940123Y-84731450D01*
X111738526Y-85082341D01*
X111513087Y-85475509D01*
X111262240Y-85913598D01*
X110984423Y-86399255D01*
X110678070Y-86935123D01*
X110341616Y-87523848D01*
X110087352Y-87968963D01*
X109735811Y-88585031D01*
X109413907Y-89150114D01*
X109120236Y-89666796D01*
X108853391Y-90137666D01*
X108852616Y-90139039D01*
X108611967Y-90565309D01*
X108394558Y-90952311D01*
X108199758Y-91301259D01*
X108026162Y-91614739D01*
X107872362Y-91895337D01*
X107736955Y-92145639D01*
X107618533Y-92368233D01*
X107515691Y-92565704D01*
X107427024Y-92740638D01*
X107351124Y-92895622D01*
X107286587Y-93033241D01*
X107232007Y-93156084D01*
X107185978Y-93266734D01*
X107147094Y-93367780D01*
X107113950Y-93461807D01*
X107100084Y-93503493D01*
X107031022Y-93722924D01*
X106958431Y-93970176D01*
X106886214Y-94230492D01*
X106818270Y-94489112D01*
X106758499Y-94731278D01*
X106710804Y-94942232D01*
X106679083Y-95107215D01*
X106642548Y-95385429D01*
X106614192Y-95729874D01*
X106597027Y-96106577D01*
X106591055Y-96499674D01*
X106341453Y-96499674D01*
X106341453Y-95092743D01*
X106110618Y-94860357D01*
X105879782Y-94627970D01*
X102347742Y-94627970D01*
X102347742Y-94884570D01*
X102346308Y-94992335D01*
X102338919Y-95085923D01*
X102323148Y-95137890D01*
X102296679Y-95160765D01*
X102294914Y-95161103D01*
X102247572Y-95158999D01*
X102142003Y-95149532D01*
X101982727Y-95133221D01*
X101774263Y-95110585D01*
X101521131Y-95082144D01*
X101227849Y-95048415D01*
X100898937Y-95009918D01*
X100538914Y-94967172D01*
X100152299Y-94920696D01*
X99743612Y-94871009D01*
X99317371Y-94818630D01*
X99042504Y-94784716D01*
X98554449Y-94724771D01*
X98122745Y-94672199D01*
X97742752Y-94626505D01*
X97409829Y-94587192D01*
X97119337Y-94553764D01*
X96866636Y-94525723D01*
X96647085Y-94502575D01*
X96456045Y-94483821D01*
X96288876Y-94468966D01*
X96140938Y-94457513D01*
X96007590Y-94448965D01*
X95884193Y-94442825D01*
X95766107Y-94438599D01*
X95143088Y-94420297D01*
X95143088Y-94212624D01*
X95350761Y-94212624D01*
X96117554Y-94212624D01*
X96117554Y-94209729D01*
X96341202Y-94209729D01*
X96357719Y-94212624D01*
X96445038Y-94227929D01*
X96461637Y-94230391D01*
X96539468Y-94240681D01*
X96673289Y-94257722D01*
X96858175Y-94280906D01*
X97089206Y-94309627D01*
X97361458Y-94343275D01*
X97670009Y-94381244D01*
X98009936Y-94422926D01*
X98376317Y-94467712D01*
X98764229Y-94514996D01*
X99168749Y-94564169D01*
X99378060Y-94589596D01*
X99774674Y-94637873D01*
X100152153Y-94683947D01*
X100505577Y-94727210D01*
X100830021Y-94767055D01*
X101120563Y-94802873D01*
X101372282Y-94834058D01*
X101580253Y-94860001D01*
X101739555Y-94880096D01*
X101845264Y-94893735D01*
X101892459Y-94900311D01*
X101896537Y-94901002D01*
X101968582Y-94904081D01*
X101996296Y-94885710D01*
X101996176Y-94883121D01*
X101989484Y-94832650D01*
X101974038Y-94734148D01*
X101951931Y-94600590D01*
X101932496Y-94487203D01*
X106053906Y-94487203D01*
X106181705Y-94611995D01*
X106309503Y-94736787D01*
X106309503Y-90954132D01*
X106570221Y-90954132D01*
X106570312Y-91242932D01*
X106570777Y-91561465D01*
X106571623Y-91904445D01*
X106572859Y-92266586D01*
X106581076Y-94388348D01*
X106653590Y-94148725D01*
X106668902Y-94098289D01*
X106769088Y-93777632D01*
X106866645Y-93485135D01*
X106965687Y-93211688D01*
X107070331Y-92948179D01*
X107184692Y-92685496D01*
X107312886Y-92414528D01*
X107459029Y-92126164D01*
X107627236Y-91811292D01*
X107821624Y-91460801D01*
X108046308Y-91065580D01*
X108577628Y-90139039D01*
X107582476Y-90130590D01*
X107463340Y-90129660D01*
X107227030Y-90128327D01*
X107015713Y-90127812D01*
X106837169Y-90128092D01*
X106699179Y-90129145D01*
X106609524Y-90130949D01*
X106575983Y-90133482D01*
X106575102Y-90141158D01*
X106573441Y-90201995D01*
X106572114Y-90318998D01*
X106571466Y-90429593D01*
X106571130Y-90486879D01*
X106570496Y-90700353D01*
X106570221Y-90954132D01*
X106309503Y-90954132D01*
X106309503Y-90429593D01*
X106181705Y-90554385D01*
X106053906Y-90679177D01*
X106053906Y-94487203D01*
X101932496Y-94487203D01*
X101925254Y-94444954D01*
X101918393Y-94404322D01*
X102347742Y-94404322D01*
X105830258Y-94404322D01*
X105830258Y-90730109D01*
X102347742Y-90730109D01*
X102347742Y-94404322D01*
X101918393Y-94404322D01*
X101909935Y-94354238D01*
X101894599Y-94252221D01*
X101882353Y-94150585D01*
X101872858Y-94041297D01*
X101865773Y-93916320D01*
X101860760Y-93767620D01*
X101857477Y-93587162D01*
X101855585Y-93366911D01*
X101854745Y-93098831D01*
X101854673Y-92918662D01*
X102065947Y-92918662D01*
X102066367Y-93043522D01*
X102069349Y-93229590D01*
X102074710Y-93394868D01*
X102081937Y-93524987D01*
X102090514Y-93605580D01*
X102092520Y-93614569D01*
X102099143Y-93607319D01*
X102104781Y-93541471D01*
X102109311Y-93421163D01*
X102112611Y-93250537D01*
X102114560Y-93033732D01*
X102115034Y-92774888D01*
X102114775Y-92641636D01*
X102113449Y-92394035D01*
X102111062Y-92209407D01*
X102107593Y-92087118D01*
X102103019Y-92026538D01*
X102097318Y-92027032D01*
X102090466Y-92087970D01*
X102086238Y-92148286D01*
X102078487Y-92307250D01*
X102072145Y-92501396D01*
X102067776Y-92711580D01*
X102065947Y-92918662D01*
X101854673Y-92918662D01*
X101854616Y-92774888D01*
X101854701Y-92691842D01*
X101857678Y-92232126D01*
X101865186Y-91827457D01*
X101877627Y-91470365D01*
X101895408Y-91153381D01*
X101918931Y-90869034D01*
X101948600Y-90609855D01*
X101984821Y-90368372D01*
X102005404Y-90246259D01*
X101897013Y-90265215D01*
X101880147Y-90267724D01*
X101801724Y-90278116D01*
X101667319Y-90295258D01*
X101481864Y-90318538D01*
X101250295Y-90347349D01*
X100977544Y-90381080D01*
X100668546Y-90419122D01*
X100328233Y-90460865D01*
X99961540Y-90505701D01*
X99573401Y-90553020D01*
X99168749Y-90602211D01*
X98959440Y-90627638D01*
X98562826Y-90675918D01*
X98185346Y-90721996D01*
X97831922Y-90765266D01*
X97507478Y-90805118D01*
X97216935Y-90840947D01*
X96965216Y-90872143D01*
X96757245Y-90898099D01*
X96597943Y-90918207D01*
X96492233Y-90931861D01*
X96445038Y-90938451D01*
X96341202Y-90956652D01*
X96341202Y-94209729D01*
X96117554Y-94209729D01*
X96117554Y-90953756D01*
X95350761Y-90953756D01*
X95350761Y-94212624D01*
X95143088Y-94212624D01*
X95143088Y-90746083D01*
X95766107Y-90727782D01*
X95826549Y-90725813D01*
X95946791Y-90720663D01*
X96074733Y-90713346D01*
X96215016Y-90703363D01*
X96372279Y-90690220D01*
X96551163Y-90673419D01*
X96756307Y-90652464D01*
X96992352Y-90626858D01*
X97263937Y-90596104D01*
X97575703Y-90559707D01*
X97932289Y-90517170D01*
X98338336Y-90467996D01*
X98798483Y-90411688D01*
X99317371Y-90347751D01*
X99380212Y-90339994D01*
X99804184Y-90287973D01*
X100209945Y-90238721D01*
X100592977Y-90192754D01*
X100948761Y-90150594D01*
X101272777Y-90112757D01*
X101560506Y-90079764D01*
X101807430Y-90052134D01*
X102009028Y-90030385D01*
X102160782Y-90015036D01*
X102258172Y-90006606D01*
X102296679Y-90005615D01*
X102314448Y-90016941D01*
X102334619Y-90057524D01*
X102344880Y-90136223D01*
X102347310Y-90246259D01*
X102347742Y-90265835D01*
X102347742Y-90506461D01*
X105879782Y-90506461D01*
X106107812Y-90274826D01*
X106171730Y-90207814D01*
X106258790Y-90108767D01*
X106320713Y-90028297D01*
X106347065Y-89979291D01*
X106347997Y-89974446D01*
X106354073Y-89958774D01*
X106368968Y-89946066D01*
X106398802Y-89935947D01*
X106449695Y-89928041D01*
X106527766Y-89921971D01*
X106639135Y-89917363D01*
X106789923Y-89913840D01*
X106986249Y-89911026D01*
X107234234Y-89908546D01*
X107539996Y-89906023D01*
X108721705Y-89896655D01*
X110701271Y-86423508D01*
X110930948Y-86020925D01*
X111174609Y-85594686D01*
X111409358Y-85184909D01*
X111633137Y-84795150D01*
X111843887Y-84428962D01*
X112039550Y-84089901D01*
X112218068Y-83781522D01*
X112377384Y-83507379D01*
X112515438Y-83271028D01*
X112630172Y-83076023D01*
X112719528Y-82925920D01*
X112781449Y-82824273D01*
X112813875Y-82774637D01*
X112841540Y-82739573D01*
X112967298Y-82599977D01*
X113130035Y-82441039D01*
X113316932Y-82274846D01*
X113515167Y-82113484D01*
X113533631Y-82099409D01*
X113748019Y-81961432D01*
X114008694Y-81830044D01*
X114299661Y-81711191D01*
X114604924Y-81610817D01*
X114908487Y-81534870D01*
X115194356Y-81489294D01*
X115349156Y-81477563D01*
X115747398Y-81483736D01*
X116155517Y-81537239D01*
X116560159Y-81634425D01*
X116947972Y-81771649D01*
X117305601Y-81945262D01*
X117619693Y-82151619D01*
X117642138Y-82169216D01*
X117788766Y-82296384D01*
X117949786Y-82452886D01*
X118112421Y-82624772D01*
X118263893Y-82798092D01*
X118391425Y-82958897D01*
X118482238Y-83093238D01*
X118523678Y-83164698D01*
X118596466Y-83291375D01*
X118694331Y-83462431D01*
X118814809Y-83673523D01*
X118955436Y-83920305D01*
X119113749Y-84198433D01*
X119287285Y-84503562D01*
X119473580Y-84831347D01*
X119670171Y-85177444D01*
X119874594Y-85537508D01*
X120084386Y-85907194D01*
X120297083Y-86282158D01*
X120510222Y-86658054D01*
X120721339Y-87030538D01*
X120927971Y-87395266D01*
X121127655Y-87747893D01*
X121317926Y-88084073D01*
X121496323Y-88399463D01*
X121660380Y-88689717D01*
X121807635Y-88950491D01*
X121935624Y-89177440D01*
X122041884Y-89366219D01*
X122123951Y-89512484D01*
X122179361Y-89611890D01*
X122205653Y-89660092D01*
X122254736Y-89758959D01*
X122306763Y-89871987D01*
X122340778Y-89955627D01*
X122344591Y-89966123D01*
X122377315Y-90032168D01*
X122406884Y-90059165D01*
X122410666Y-90060832D01*
X122442385Y-90098480D01*
X122494278Y-90175522D01*
X122558279Y-90278389D01*
X122626320Y-90393512D01*
X122690335Y-90507320D01*
X122742255Y-90606244D01*
X122774015Y-90676715D01*
X122794122Y-90718602D01*
X122842074Y-90802416D01*
X122903455Y-90900362D01*
X122961328Y-90992486D01*
X123049124Y-91138491D01*
X123154236Y-91317634D01*
X123269689Y-91517729D01*
X123388509Y-91726592D01*
X123503720Y-91932038D01*
X123608349Y-92121882D01*
X123695420Y-92283940D01*
X123761460Y-92413215D01*
X123867510Y-92634995D01*
X123971653Y-92867884D01*
X124066705Y-93095087D01*
X124145481Y-93299809D01*
X124200794Y-93465256D01*
X124229867Y-93558600D01*
X124265638Y-93660811D01*
X124293230Y-93726006D01*
X124315838Y-93777946D01*
X124356481Y-93903686D01*
X124402610Y-94076788D01*
X124452199Y-94287618D01*
X124503222Y-94526541D01*
X124553652Y-94783924D01*
X124601464Y-95050131D01*
X124644631Y-95315530D01*
X124681128Y-95570486D01*
X124698375Y-95716461D01*
X124725293Y-96043867D01*
X124732476Y-96215670D01*
X124739556Y-96384989D01*
X124740913Y-96720793D01*
G37*
%TD*%
%LPC*%
D12*
%TO.C,R1*%
X165358000Y-100457000D03*
D13*
X157738000Y-100457000D03*
%TD*%
D14*
%TO.C,SW1*%
X148416200Y-88011000D03*
D15*
X143416200Y-88011000D03*
X145916200Y-88011000D03*
D16*
X140316200Y-95511000D03*
X151516200Y-95511000D03*
D15*
X148416200Y-102511000D03*
X143416200Y-102511000D03*
%TD*%
D12*
%TO.C,C1*%
X132973000Y-95224600D03*
X132973000Y-92724600D03*
%TD*%
D17*
%TO.C,Q1*%
X162026600Y-78463000D03*
D18*
X159486600Y-95123000D03*
D19*
X162026600Y-95123000D03*
X164566600Y-95123000D03*
%TD*%
D20*
%TO.C,J1*%
X133096000Y-103886000D03*
X133096000Y-106426000D03*
X133096000Y-108966000D03*
%TD*%
D21*
%TO.C,D1*%
X154563000Y-113817400D03*
D22*
X154563000Y-106197400D03*
%TD*%
D23*
%TO.C,R2*%
X130052000Y-84455000D03*
X132592000Y-79375000D03*
X135132000Y-84455000D03*
%TD*%
D24*
%TO.C,M1*%
X171454000Y-101092000D03*
X171454000Y-106172000D03*
%TD*%
D25*
%TO.C,U1*%
X123190000Y-121920000D03*
X175260000Y-116840000D03*
X124460000Y-73660000D03*
X175260000Y-88900000D03*
D26*
X137160000Y-121920000D03*
D13*
X139700000Y-121920000D03*
X142240000Y-121920000D03*
X144780000Y-121920000D03*
X147320000Y-121920000D03*
X149860000Y-121920000D03*
X152400000Y-121920000D03*
X154940000Y-121920000D03*
X160020000Y-121920000D03*
X162560000Y-121920000D03*
X165100000Y-121920000D03*
X167640000Y-121920000D03*
X170180000Y-121920000D03*
X172720000Y-121920000D03*
X172720000Y-73660000D03*
X170180000Y-73660000D03*
X167640000Y-73660000D03*
X165100000Y-73660000D03*
X162560000Y-73660000D03*
X160020000Y-73660000D03*
X157480000Y-73660000D03*
X154940000Y-73660000D03*
X150880000Y-73660000D03*
X148340000Y-73660000D03*
X145800000Y-73660000D03*
X143260000Y-73660000D03*
X140720000Y-73660000D03*
X138180000Y-73660000D03*
X135640000Y-73660000D03*
X133100000Y-73660000D03*
X130560000Y-73660000D03*
X128020000Y-73660000D03*
%TD*%
D24*
%TO.C,U2*%
X115523200Y-108051600D03*
X115523200Y-84963000D03*
D27*
X126369000Y-90220800D03*
D28*
X126369000Y-92760800D03*
X126369000Y-95300800D03*
X126369000Y-97840800D03*
X126369000Y-100380800D03*
X126369000Y-102920800D03*
%TD*%
M02*
