%TF.GenerationSoftware,KiCad,Pcbnew,6.0.1-79c1e3a40b~116~ubuntu20.04.1*%
%TF.CreationDate,2022-01-29T21:04:50-05:00*%
%TF.ProjectId,Protogasm-Board-V2,50726f74-6f67-4617-936d-2d426f617264,rev?*%
%TF.SameCoordinates,PX68290a0PY76b1be0*%
%TF.FileFunction,Legend,Top*%
%TF.FilePolarity,Positive*%
%FSLAX46Y46*%
G04 Gerber Fmt 4.6, Leading zero omitted, Abs format (unit mm)*
G04 Created by KiCad (PCBNEW 6.0.1-79c1e3a40b~116~ubuntu20.04.1) date 2022-01-29 21:04:50*
%MOMM*%
%LPD*%
G01*
G04 APERTURE LIST*
%ADD10C,0.150000*%
%ADD11C,0.120000*%
%ADD12C,0.100000*%
%ADD13C,1.600000*%
%ADD14O,1.600000X1.600000*%
%ADD15R,2.000000X2.000000*%
%ADD16C,2.000000*%
%ADD17R,2.500000X3.000000*%
%ADD18O,3.500000X3.500000*%
%ADD19R,1.905000X2.000000*%
%ADD20O,1.905000X2.000000*%
%ADD21C,2.159000*%
%ADD22R,1.800000X1.800000*%
%ADD23O,1.800000X1.800000*%
%ADD24C,1.524000*%
%ADD25C,2.540000*%
%ADD26C,3.200000*%
%ADD27R,1.600000X1.600000*%
%ADD28R,1.981200X1.981200*%
%ADD29C,1.981200*%
G04 APERTURE END LIST*
D10*
X2621595Y9074620D02*
X2621595Y10074620D01*
X3002547Y10074620D01*
X3097785Y10027000D01*
X3145404Y9979381D01*
X3193023Y9884143D01*
X3193023Y9741286D01*
X3145404Y9646048D01*
X3097785Y9598429D01*
X3002547Y9550810D01*
X2621595Y9550810D01*
X3621595Y9074620D02*
X3621595Y9741286D01*
X3621595Y9550810D02*
X3669214Y9646048D01*
X3716833Y9693667D01*
X3812071Y9741286D01*
X3907309Y9741286D01*
X4383500Y9074620D02*
X4288261Y9122239D01*
X4240642Y9169858D01*
X4193023Y9265096D01*
X4193023Y9550810D01*
X4240642Y9646048D01*
X4288261Y9693667D01*
X4383500Y9741286D01*
X4526357Y9741286D01*
X4621595Y9693667D01*
X4669214Y9646048D01*
X4716833Y9550810D01*
X4716833Y9265096D01*
X4669214Y9169858D01*
X4621595Y9122239D01*
X4526357Y9074620D01*
X4383500Y9074620D01*
X5002547Y9741286D02*
X5383500Y9741286D01*
X5145404Y10074620D02*
X5145404Y9217477D01*
X5193023Y9122239D01*
X5288261Y9074620D01*
X5383500Y9074620D01*
X5859690Y9074620D02*
X5764452Y9122239D01*
X5716833Y9169858D01*
X5669214Y9265096D01*
X5669214Y9550810D01*
X5716833Y9646048D01*
X5764452Y9693667D01*
X5859690Y9741286D01*
X6002547Y9741286D01*
X6097785Y9693667D01*
X6145404Y9646048D01*
X6193023Y9550810D01*
X6193023Y9265096D01*
X6145404Y9169858D01*
X6097785Y9122239D01*
X6002547Y9074620D01*
X5859690Y9074620D01*
X7050166Y9741286D02*
X7050166Y8931762D01*
X7002547Y8836524D01*
X6954928Y8788905D01*
X6859690Y8741286D01*
X6716833Y8741286D01*
X6621595Y8788905D01*
X7050166Y9122239D02*
X6954928Y9074620D01*
X6764452Y9074620D01*
X6669214Y9122239D01*
X6621595Y9169858D01*
X6573976Y9265096D01*
X6573976Y9550810D01*
X6621595Y9646048D01*
X6669214Y9693667D01*
X6764452Y9741286D01*
X6954928Y9741286D01*
X7050166Y9693667D01*
X7954928Y9074620D02*
X7954928Y9598429D01*
X7907309Y9693667D01*
X7812071Y9741286D01*
X7621595Y9741286D01*
X7526357Y9693667D01*
X7954928Y9122239D02*
X7859690Y9074620D01*
X7621595Y9074620D01*
X7526357Y9122239D01*
X7478738Y9217477D01*
X7478738Y9312715D01*
X7526357Y9407953D01*
X7621595Y9455572D01*
X7859690Y9455572D01*
X7954928Y9503191D01*
X8383500Y9122239D02*
X8478738Y9074620D01*
X8669214Y9074620D01*
X8764452Y9122239D01*
X8812071Y9217477D01*
X8812071Y9265096D01*
X8764452Y9360334D01*
X8669214Y9407953D01*
X8526357Y9407953D01*
X8431119Y9455572D01*
X8383500Y9550810D01*
X8383500Y9598429D01*
X8431119Y9693667D01*
X8526357Y9741286D01*
X8669214Y9741286D01*
X8764452Y9693667D01*
X9240642Y9074620D02*
X9240642Y9741286D01*
X9240642Y9646048D02*
X9288261Y9693667D01*
X9383500Y9741286D01*
X9526357Y9741286D01*
X9621595Y9693667D01*
X9669214Y9598429D01*
X9669214Y9074620D01*
X9669214Y9598429D02*
X9716833Y9693667D01*
X9812071Y9741286D01*
X9954928Y9741286D01*
X10050166Y9693667D01*
X10097785Y9598429D01*
X10097785Y9074620D01*
X11193023Y10074620D02*
X11526357Y9074620D01*
X11859690Y10074620D01*
X12145404Y9979381D02*
X12193023Y10027000D01*
X12288261Y10074620D01*
X12526357Y10074620D01*
X12621595Y10027000D01*
X12669214Y9979381D01*
X12716833Y9884143D01*
X12716833Y9788905D01*
X12669214Y9646048D01*
X12097785Y9074620D01*
X12716833Y9074620D01*
X2573976Y7750334D02*
X3050166Y7750334D01*
X2478738Y7464620D02*
X2812071Y8464620D01*
X3145404Y7464620D01*
X3478738Y7464620D02*
X3478738Y8131286D01*
X3478738Y7940810D02*
X3526357Y8036048D01*
X3573976Y8083667D01*
X3669214Y8131286D01*
X3764452Y8131286D01*
X4526357Y7464620D02*
X4526357Y8464620D01*
X4526357Y7512239D02*
X4431119Y7464620D01*
X4240642Y7464620D01*
X4145404Y7512239D01*
X4097785Y7559858D01*
X4050166Y7655096D01*
X4050166Y7940810D01*
X4097785Y8036048D01*
X4145404Y8083667D01*
X4240642Y8131286D01*
X4431119Y8131286D01*
X4526357Y8083667D01*
X5431119Y8131286D02*
X5431119Y7464620D01*
X5002547Y8131286D02*
X5002547Y7607477D01*
X5050166Y7512239D01*
X5145404Y7464620D01*
X5288261Y7464620D01*
X5383500Y7512239D01*
X5431119Y7559858D01*
X5907309Y7464620D02*
X5907309Y8131286D01*
X5907309Y8464620D02*
X5859690Y8417000D01*
X5907309Y8369381D01*
X5954928Y8417000D01*
X5907309Y8464620D01*
X5907309Y8369381D01*
X6383500Y8131286D02*
X6383500Y7464620D01*
X6383500Y8036048D02*
X6431119Y8083667D01*
X6526357Y8131286D01*
X6669214Y8131286D01*
X6764452Y8083667D01*
X6812071Y7988429D01*
X6812071Y7464620D01*
X7431119Y7464620D02*
X7335880Y7512239D01*
X7288261Y7559858D01*
X7240642Y7655096D01*
X7240642Y7940810D01*
X7288261Y8036048D01*
X7335880Y8083667D01*
X7431119Y8131286D01*
X7573976Y8131286D01*
X7669214Y8083667D01*
X7716833Y8036048D01*
X7764452Y7940810D01*
X7764452Y7655096D01*
X7716833Y7559858D01*
X7669214Y7512239D01*
X7573976Y7464620D01*
X7431119Y7464620D01*
X8954928Y8464620D02*
X8954928Y7655096D01*
X9002547Y7559858D01*
X9050166Y7512239D01*
X9145404Y7464620D01*
X9335880Y7464620D01*
X9431119Y7512239D01*
X9478738Y7559858D01*
X9526357Y7655096D01*
X9526357Y8464620D01*
X10002547Y7464620D02*
X10002547Y8464620D01*
X10573976Y7464620D01*
X10573976Y8464620D01*
X11240642Y8464620D02*
X11431119Y8464620D01*
X11526357Y8417000D01*
X11621595Y8321762D01*
X11669214Y8131286D01*
X11669214Y7797953D01*
X11621595Y7607477D01*
X11526357Y7512239D01*
X11431119Y7464620D01*
X11240642Y7464620D01*
X11145404Y7512239D01*
X11050166Y7607477D01*
X11002547Y7797953D01*
X11002547Y8131286D01*
X11050166Y8321762D01*
X11145404Y8417000D01*
X11240642Y8464620D01*
X13431119Y7464620D02*
X13097785Y7940810D01*
X12859690Y7464620D02*
X12859690Y8464620D01*
X13240642Y8464620D01*
X13335880Y8417000D01*
X13383500Y8369381D01*
X13431119Y8274143D01*
X13431119Y8131286D01*
X13383500Y8036048D01*
X13335880Y7988429D01*
X13240642Y7940810D01*
X12859690Y7940810D01*
X13764452Y8464620D02*
X14383500Y8464620D01*
X14050166Y8083667D01*
X14193023Y8083667D01*
X14288261Y8036048D01*
X14335880Y7988429D01*
X14383500Y7893191D01*
X14383500Y7655096D01*
X14335880Y7559858D01*
X14288261Y7512239D01*
X14193023Y7464620D01*
X13907309Y7464620D01*
X13812071Y7512239D01*
X13764452Y7559858D01*
X15526357Y7512239D02*
X15669214Y7464620D01*
X15907309Y7464620D01*
X16002547Y7512239D01*
X16050166Y7559858D01*
X16097785Y7655096D01*
X16097785Y7750334D01*
X16050166Y7845572D01*
X16002547Y7893191D01*
X15907309Y7940810D01*
X15716833Y7988429D01*
X15621595Y8036048D01*
X15573976Y8083667D01*
X15526357Y8178905D01*
X15526357Y8274143D01*
X15573976Y8369381D01*
X15621595Y8417000D01*
X15716833Y8464620D01*
X15954928Y8464620D01*
X16097785Y8417000D01*
X16526357Y7464620D02*
X16526357Y8464620D01*
X16954928Y7464620D02*
X16954928Y7988429D01*
X16907309Y8083667D01*
X16812071Y8131286D01*
X16669214Y8131286D01*
X16573976Y8083667D01*
X16526357Y8036048D01*
X17431119Y7464620D02*
X17431119Y8131286D01*
X17431119Y8464620D02*
X17383500Y8417000D01*
X17431119Y8369381D01*
X17478738Y8417000D01*
X17431119Y8464620D01*
X17431119Y8369381D01*
X18288261Y7512239D02*
X18193023Y7464620D01*
X18002547Y7464620D01*
X17907309Y7512239D01*
X17859690Y7607477D01*
X17859690Y7988429D01*
X17907309Y8083667D01*
X18002547Y8131286D01*
X18193023Y8131286D01*
X18288261Y8083667D01*
X18335880Y7988429D01*
X18335880Y7893191D01*
X17859690Y7797953D01*
X18907309Y7464620D02*
X18812071Y7512239D01*
X18764452Y7607477D01*
X18764452Y8464620D01*
X19716833Y7464620D02*
X19716833Y8464620D01*
X19716833Y7512239D02*
X19621595Y7464620D01*
X19431119Y7464620D01*
X19335880Y7512239D01*
X19288261Y7559858D01*
X19240642Y7655096D01*
X19240642Y7940810D01*
X19288261Y8036048D01*
X19335880Y8083667D01*
X19431119Y8131286D01*
X19621595Y8131286D01*
X19716833Y8083667D01*
X3050166Y6521286D02*
X3050166Y5711762D01*
X3002547Y5616524D01*
X2954928Y5568905D01*
X2859690Y5521286D01*
X2716833Y5521286D01*
X2621595Y5568905D01*
X3050166Y5902239D02*
X2954928Y5854620D01*
X2764452Y5854620D01*
X2669214Y5902239D01*
X2621595Y5949858D01*
X2573976Y6045096D01*
X2573976Y6330810D01*
X2621595Y6426048D01*
X2669214Y6473667D01*
X2764452Y6521286D01*
X2954928Y6521286D01*
X3050166Y6473667D01*
X3526357Y5854620D02*
X3526357Y6521286D01*
X3526357Y6854620D02*
X3478738Y6807000D01*
X3526357Y6759381D01*
X3573976Y6807000D01*
X3526357Y6854620D01*
X3526357Y6759381D01*
X3859690Y6521286D02*
X4240642Y6521286D01*
X4002547Y6854620D02*
X4002547Y5997477D01*
X4050166Y5902239D01*
X4145404Y5854620D01*
X4240642Y5854620D01*
X4573976Y5854620D02*
X4573976Y6854620D01*
X5002547Y5854620D02*
X5002547Y6378429D01*
X4954928Y6473667D01*
X4859690Y6521286D01*
X4716833Y6521286D01*
X4621595Y6473667D01*
X4573976Y6426048D01*
X5907309Y6521286D02*
X5907309Y5854620D01*
X5478738Y6521286D02*
X5478738Y5997477D01*
X5526357Y5902239D01*
X5621595Y5854620D01*
X5764452Y5854620D01*
X5859690Y5902239D01*
X5907309Y5949858D01*
X6383500Y5854620D02*
X6383500Y6854620D01*
X6383500Y6473667D02*
X6478738Y6521286D01*
X6669214Y6521286D01*
X6764452Y6473667D01*
X6812071Y6426048D01*
X6859690Y6330810D01*
X6859690Y6045096D01*
X6812071Y5949858D01*
X6764452Y5902239D01*
X6669214Y5854620D01*
X6478738Y5854620D01*
X6383500Y5902239D01*
X7288261Y5949858D02*
X7335880Y5902239D01*
X7288261Y5854620D01*
X7240642Y5902239D01*
X7288261Y5949858D01*
X7288261Y5854620D01*
X8193023Y5902239D02*
X8097785Y5854620D01*
X7907309Y5854620D01*
X7812071Y5902239D01*
X7764452Y5949858D01*
X7716833Y6045096D01*
X7716833Y6330810D01*
X7764452Y6426048D01*
X7812071Y6473667D01*
X7907309Y6521286D01*
X8097785Y6521286D01*
X8193023Y6473667D01*
X8764452Y5854620D02*
X8669214Y5902239D01*
X8621595Y5949858D01*
X8573976Y6045096D01*
X8573976Y6330810D01*
X8621595Y6426048D01*
X8669214Y6473667D01*
X8764452Y6521286D01*
X8907309Y6521286D01*
X9002547Y6473667D01*
X9050166Y6426048D01*
X9097785Y6330810D01*
X9097785Y6045096D01*
X9050166Y5949858D01*
X9002547Y5902239D01*
X8907309Y5854620D01*
X8764452Y5854620D01*
X9526357Y5854620D02*
X9526357Y6521286D01*
X9526357Y6426048D02*
X9573976Y6473667D01*
X9669214Y6521286D01*
X9812071Y6521286D01*
X9907309Y6473667D01*
X9954928Y6378429D01*
X9954928Y5854620D01*
X9954928Y6378429D02*
X10002547Y6473667D01*
X10097785Y6521286D01*
X10240642Y6521286D01*
X10335880Y6473667D01*
X10383500Y6378429D01*
X10383500Y5854620D01*
X11573976Y6902239D02*
X10716833Y5616524D01*
X11907309Y6378429D02*
X12240642Y6378429D01*
X12383500Y5854620D02*
X11907309Y5854620D01*
X11907309Y6854620D01*
X12383500Y6854620D01*
X13240642Y5854620D02*
X13240642Y6854620D01*
X13240642Y5902239D02*
X13145404Y5854620D01*
X12954928Y5854620D01*
X12859690Y5902239D01*
X12812071Y5949858D01*
X12764452Y6045096D01*
X12764452Y6330810D01*
X12812071Y6426048D01*
X12859690Y6473667D01*
X12954928Y6521286D01*
X13145404Y6521286D01*
X13240642Y6473667D01*
X14145404Y6521286D02*
X14145404Y5711762D01*
X14097785Y5616524D01*
X14050166Y5568905D01*
X13954928Y5521286D01*
X13812071Y5521286D01*
X13716833Y5568905D01*
X14145404Y5902239D02*
X14050166Y5854620D01*
X13859690Y5854620D01*
X13764452Y5902239D01*
X13716833Y5949858D01*
X13669214Y6045096D01*
X13669214Y6330810D01*
X13716833Y6426048D01*
X13764452Y6473667D01*
X13859690Y6521286D01*
X14050166Y6521286D01*
X14145404Y6473667D01*
X14621595Y5854620D02*
X14621595Y6521286D01*
X14621595Y6854620D02*
X14573976Y6807000D01*
X14621595Y6759381D01*
X14669214Y6807000D01*
X14621595Y6854620D01*
X14621595Y6759381D01*
X15097785Y6521286D02*
X15097785Y5854620D01*
X15097785Y6426048D02*
X15145404Y6473667D01*
X15240642Y6521286D01*
X15383500Y6521286D01*
X15478738Y6473667D01*
X15526357Y6378429D01*
X15526357Y5854620D01*
X16431119Y6521286D02*
X16431119Y5711762D01*
X16383500Y5616524D01*
X16335880Y5568905D01*
X16240642Y5521286D01*
X16097785Y5521286D01*
X16002547Y5568905D01*
X16431119Y5902239D02*
X16335880Y5854620D01*
X16145404Y5854620D01*
X16050166Y5902239D01*
X16002547Y5949858D01*
X15954928Y6045096D01*
X15954928Y6330810D01*
X16002547Y6426048D01*
X16050166Y6473667D01*
X16145404Y6521286D01*
X16335880Y6521286D01*
X16431119Y6473667D01*
X16907309Y6235572D02*
X17669214Y6235572D01*
X18145404Y5854620D02*
X18145404Y6854620D01*
X18478738Y6140334D01*
X18812071Y6854620D01*
X18812071Y5854620D01*
X19716833Y5854620D02*
X19716833Y6378429D01*
X19669214Y6473667D01*
X19573976Y6521286D01*
X19383500Y6521286D01*
X19288261Y6473667D01*
X19716833Y5902239D02*
X19621595Y5854620D01*
X19383500Y5854620D01*
X19288261Y5902239D01*
X19240642Y5997477D01*
X19240642Y6092715D01*
X19288261Y6187953D01*
X19383500Y6235572D01*
X19621595Y6235572D01*
X19716833Y6283191D01*
X20621595Y5902239D02*
X20526357Y5854620D01*
X20335880Y5854620D01*
X20240642Y5902239D01*
X20193023Y5949858D01*
X20145404Y6045096D01*
X20145404Y6330810D01*
X20193023Y6426048D01*
X20240642Y6473667D01*
X20335880Y6521286D01*
X20526357Y6521286D01*
X20621595Y6473667D01*
X21050166Y5854620D02*
X21050166Y6854620D01*
X21478738Y5854620D02*
X21478738Y6378429D01*
X21431119Y6473667D01*
X21335880Y6521286D01*
X21193023Y6521286D01*
X21097785Y6473667D01*
X21050166Y6426048D01*
X21954928Y5854620D02*
X21954928Y6521286D01*
X21954928Y6854620D02*
X21907309Y6807000D01*
X21954928Y6759381D01*
X22002547Y6807000D01*
X21954928Y6854620D01*
X21954928Y6759381D01*
X22431119Y6521286D02*
X22431119Y5854620D01*
X22431119Y6426048D02*
X22478738Y6473667D01*
X22573976Y6521286D01*
X22716833Y6521286D01*
X22812071Y6473667D01*
X22859690Y6378429D01*
X22859690Y5854620D01*
X23716833Y5902239D02*
X23621595Y5854620D01*
X23431119Y5854620D01*
X23335880Y5902239D01*
X23288261Y5997477D01*
X23288261Y6378429D01*
X23335880Y6473667D01*
X23431119Y6521286D01*
X23621595Y6521286D01*
X23716833Y6473667D01*
X23764452Y6378429D01*
X23764452Y6283191D01*
X23288261Y6187953D01*
X24145404Y5902239D02*
X24240642Y5854620D01*
X24431119Y5854620D01*
X24526357Y5902239D01*
X24573976Y5997477D01*
X24573976Y6045096D01*
X24526357Y6140334D01*
X24431119Y6187953D01*
X24288261Y6187953D01*
X24193023Y6235572D01*
X24145404Y6330810D01*
X24145404Y6378429D01*
X24193023Y6473667D01*
X24288261Y6521286D01*
X24431119Y6521286D01*
X24526357Y6473667D01*
X2573976Y4292239D02*
X2669214Y4244620D01*
X2859690Y4244620D01*
X2954928Y4292239D01*
X3002547Y4387477D01*
X3002547Y4435096D01*
X2954928Y4530334D01*
X2859690Y4577953D01*
X2716833Y4577953D01*
X2621595Y4625572D01*
X2573976Y4720810D01*
X2573976Y4768429D01*
X2621595Y4863667D01*
X2716833Y4911286D01*
X2859690Y4911286D01*
X2954928Y4863667D01*
X3859690Y4911286D02*
X3859690Y3911286D01*
X3859690Y4292239D02*
X3764452Y4244620D01*
X3573976Y4244620D01*
X3478738Y4292239D01*
X3431119Y4339858D01*
X3383500Y4435096D01*
X3383500Y4720810D01*
X3431119Y4816048D01*
X3478738Y4863667D01*
X3573976Y4911286D01*
X3764452Y4911286D01*
X3859690Y4863667D01*
X4335880Y4244620D02*
X4335880Y4911286D01*
X4335880Y4720810D02*
X4383500Y4816048D01*
X4431119Y4863667D01*
X4526357Y4911286D01*
X4621595Y4911286D01*
X4812071Y4911286D02*
X5193023Y4911286D01*
X4954928Y5244620D02*
X4954928Y4387477D01*
X5002547Y4292239D01*
X5097785Y4244620D01*
X5193023Y4244620D01*
X6050166Y4244620D02*
X5478738Y4244620D01*
X5764452Y4244620D02*
X5764452Y5244620D01*
X5669214Y5101762D01*
X5573976Y5006524D01*
X5478738Y4958905D01*
X6669214Y5244620D02*
X6764452Y5244620D01*
X6859690Y5197000D01*
X6907309Y5149381D01*
X6954928Y5054143D01*
X7002547Y4863667D01*
X7002547Y4625572D01*
X6954928Y4435096D01*
X6907309Y4339858D01*
X6859690Y4292239D01*
X6764452Y4244620D01*
X6669214Y4244620D01*
X6573976Y4292239D01*
X6526357Y4339858D01*
X6478738Y4435096D01*
X6431119Y4625572D01*
X6431119Y4863667D01*
X6478738Y5054143D01*
X6526357Y5149381D01*
X6573976Y5197000D01*
X6669214Y5244620D01*
X7431119Y4911286D02*
X7431119Y3911286D01*
X7431119Y4863667D02*
X7526357Y4911286D01*
X7716833Y4911286D01*
X7812071Y4863667D01*
X7859690Y4816048D01*
X7907309Y4720810D01*
X7907309Y4435096D01*
X7859690Y4339858D01*
X7812071Y4292239D01*
X7716833Y4244620D01*
X7526357Y4244620D01*
X7431119Y4292239D01*
X8335880Y4244620D02*
X8335880Y4911286D01*
X8335880Y5244620D02*
X8288261Y5197000D01*
X8335880Y5149381D01*
X8383500Y5197000D01*
X8335880Y5244620D01*
X8335880Y5149381D01*
%TO.C,R1*%
X49617333Y25709620D02*
X49284000Y26185810D01*
X49045904Y25709620D02*
X49045904Y26709620D01*
X49426857Y26709620D01*
X49522095Y26662000D01*
X49569714Y26614381D01*
X49617333Y26519143D01*
X49617333Y26376286D01*
X49569714Y26281048D01*
X49522095Y26233429D01*
X49426857Y26185810D01*
X49045904Y26185810D01*
X50569714Y25709620D02*
X49998285Y25709620D01*
X50284000Y25709620D02*
X50284000Y26709620D01*
X50188761Y26566762D01*
X50093523Y26471524D01*
X49998285Y26423905D01*
%TO.C,SW1*%
X29908666Y36171239D02*
X30051523Y36123620D01*
X30289619Y36123620D01*
X30384857Y36171239D01*
X30432476Y36218858D01*
X30480095Y36314096D01*
X30480095Y36409334D01*
X30432476Y36504572D01*
X30384857Y36552191D01*
X30289619Y36599810D01*
X30099142Y36647429D01*
X30003904Y36695048D01*
X29956285Y36742667D01*
X29908666Y36837905D01*
X29908666Y36933143D01*
X29956285Y37028381D01*
X30003904Y37076000D01*
X30099142Y37123620D01*
X30337238Y37123620D01*
X30480095Y37076000D01*
X30813428Y37123620D02*
X31051523Y36123620D01*
X31242000Y36837905D01*
X31432476Y36123620D01*
X31670571Y37123620D01*
X32575333Y36123620D02*
X32003904Y36123620D01*
X32289619Y36123620D02*
X32289619Y37123620D01*
X32194380Y36980762D01*
X32099142Y36885524D01*
X32003904Y36837905D01*
%TO.C,C1*%
X22947333Y33678858D02*
X22899714Y33631239D01*
X22756857Y33583620D01*
X22661619Y33583620D01*
X22518761Y33631239D01*
X22423523Y33726477D01*
X22375904Y33821715D01*
X22328285Y34012191D01*
X22328285Y34155048D01*
X22375904Y34345524D01*
X22423523Y34440762D01*
X22518761Y34536000D01*
X22661619Y34583620D01*
X22756857Y34583620D01*
X22899714Y34536000D01*
X22947333Y34488381D01*
X23899714Y33583620D02*
X23328285Y33583620D01*
X23614000Y33583620D02*
X23614000Y34583620D01*
X23518761Y34440762D01*
X23423523Y34345524D01*
X23328285Y34297905D01*
%TO.C,Q1*%
X46386761Y47839381D02*
X46291523Y47887000D01*
X46196285Y47982239D01*
X46053428Y48125096D01*
X45958190Y48172715D01*
X45862952Y48172715D01*
X45910571Y47934620D02*
X45815333Y47982239D01*
X45720095Y48077477D01*
X45672476Y48267953D01*
X45672476Y48601286D01*
X45720095Y48791762D01*
X45815333Y48887000D01*
X45910571Y48934620D01*
X46101047Y48934620D01*
X46196285Y48887000D01*
X46291523Y48791762D01*
X46339142Y48601286D01*
X46339142Y48267953D01*
X46291523Y48077477D01*
X46196285Y47982239D01*
X46101047Y47934620D01*
X45910571Y47934620D01*
X47291523Y47934620D02*
X46720095Y47934620D01*
X47005809Y47934620D02*
X47005809Y48934620D01*
X46910571Y48791762D01*
X46815333Y48696524D01*
X46720095Y48648905D01*
%TO.C,J1*%
X22719309Y23407620D02*
X22719309Y22693334D01*
X22671690Y22550477D01*
X22576452Y22455239D01*
X22433595Y22407620D01*
X22338357Y22407620D01*
X23719309Y22407620D02*
X23147880Y22407620D01*
X23433595Y22407620D02*
X23433595Y23407620D01*
X23338357Y23264762D01*
X23243119Y23169524D01*
X23147880Y23121905D01*
X16587595Y17581620D02*
X16587595Y18581620D01*
X16825690Y18581620D01*
X16968547Y18534000D01*
X17063785Y18438762D01*
X17111404Y18343524D01*
X17159023Y18153048D01*
X17159023Y18010191D01*
X17111404Y17819715D01*
X17063785Y17724477D01*
X16968547Y17629239D01*
X16825690Y17581620D01*
X16587595Y17581620D01*
X17539976Y17867334D02*
X18016166Y17867334D01*
X17444738Y17581620D02*
X17778071Y18581620D01*
X18111404Y17581620D01*
X18301880Y18581620D02*
X18873309Y18581620D01*
X18587595Y17581620D02*
X18587595Y18581620D01*
X19159023Y17867334D02*
X19635214Y17867334D01*
X19063785Y17581620D02*
X19397119Y18581620D01*
X19730452Y17581620D01*
X19825690Y17486381D02*
X20587595Y17486381D01*
X20825690Y17581620D02*
X20825690Y18581620D01*
X21301880Y17581620D02*
X21301880Y18581620D01*
X21873309Y17581620D01*
X21873309Y18581620D01*
X23005023Y12501620D02*
X22671690Y12977810D01*
X22433595Y12501620D02*
X22433595Y13501620D01*
X22814547Y13501620D01*
X22909785Y13454000D01*
X22957404Y13406381D01*
X23005023Y13311143D01*
X23005023Y13168286D01*
X22957404Y13073048D01*
X22909785Y13025429D01*
X22814547Y12977810D01*
X22433595Y12977810D01*
X23433595Y12501620D02*
X23433595Y13501620D01*
X23909785Y12501620D02*
X23909785Y13501620D01*
X24481214Y12501620D01*
X24481214Y13501620D01*
X25481214Y13454000D02*
X25385976Y13501620D01*
X25243119Y13501620D01*
X25100261Y13454000D01*
X25005023Y13358762D01*
X24957404Y13263524D01*
X24909785Y13073048D01*
X24909785Y12930191D01*
X24957404Y12739715D01*
X25005023Y12644477D01*
X25100261Y12549239D01*
X25243119Y12501620D01*
X25338357Y12501620D01*
X25481214Y12549239D01*
X25528833Y12596858D01*
X25528833Y12930191D01*
X25338357Y12930191D01*
X19381595Y20502572D02*
X20143500Y20502572D01*
X19762547Y20121620D02*
X19762547Y20883524D01*
X21095880Y21121620D02*
X20619690Y21121620D01*
X20572071Y20645429D01*
X20619690Y20693048D01*
X20714928Y20740667D01*
X20953023Y20740667D01*
X21048261Y20693048D01*
X21095880Y20645429D01*
X21143500Y20550191D01*
X21143500Y20312096D01*
X21095880Y20216858D01*
X21048261Y20169239D01*
X20953023Y20121620D01*
X20714928Y20121620D01*
X20619690Y20169239D01*
X20572071Y20216858D01*
X21429214Y21121620D02*
X21762547Y20121620D01*
X22095880Y21121620D01*
X19905404Y15994000D02*
X19810166Y16041620D01*
X19667309Y16041620D01*
X19524452Y15994000D01*
X19429214Y15898762D01*
X19381595Y15803524D01*
X19333976Y15613048D01*
X19333976Y15470191D01*
X19381595Y15279715D01*
X19429214Y15184477D01*
X19524452Y15089239D01*
X19667309Y15041620D01*
X19762547Y15041620D01*
X19905404Y15089239D01*
X19953023Y15136858D01*
X19953023Y15470191D01*
X19762547Y15470191D01*
X20381595Y15041620D02*
X20381595Y16041620D01*
X20953023Y15041620D01*
X20953023Y16041620D01*
X21429214Y15041620D02*
X21429214Y16041620D01*
X21667309Y16041620D01*
X21810166Y15994000D01*
X21905404Y15898762D01*
X21953023Y15803524D01*
X22000642Y15613048D01*
X22000642Y15470191D01*
X21953023Y15279715D01*
X21905404Y15184477D01*
X21810166Y15089239D01*
X21667309Y15041620D01*
X21429214Y15041620D01*
%TO.C,D1*%
X41933904Y16057620D02*
X41933904Y17057620D01*
X42172000Y17057620D01*
X42314857Y17010000D01*
X42410095Y16914762D01*
X42457714Y16819524D01*
X42505333Y16629048D01*
X42505333Y16486191D01*
X42457714Y16295715D01*
X42410095Y16200477D01*
X42314857Y16105239D01*
X42172000Y16057620D01*
X41933904Y16057620D01*
X43457714Y16057620D02*
X42886285Y16057620D01*
X43172000Y16057620D02*
X43172000Y17057620D01*
X43076761Y16914762D01*
X42981523Y16819524D01*
X42886285Y16771905D01*
X43172095Y10190220D02*
X43172095Y11190220D01*
X43743523Y10190220D02*
X43314952Y10761648D01*
X43743523Y11190220D02*
X43172095Y10618791D01*
%TO.C,R2*%
X21423333Y45521620D02*
X21090000Y45997810D01*
X20851904Y45521620D02*
X20851904Y46521620D01*
X21232857Y46521620D01*
X21328095Y46474000D01*
X21375714Y46426381D01*
X21423333Y46331143D01*
X21423333Y46188286D01*
X21375714Y46093048D01*
X21328095Y46045429D01*
X21232857Y45997810D01*
X20851904Y45997810D01*
X21804285Y46426381D02*
X21851904Y46474000D01*
X21947142Y46521620D01*
X22185238Y46521620D01*
X22280476Y46474000D01*
X22328095Y46426381D01*
X22375714Y46331143D01*
X22375714Y46235905D01*
X22328095Y46093048D01*
X21756666Y45521620D01*
X22375714Y45521620D01*
%TO.C,M1*%
X60787595Y25201620D02*
X60787595Y26201620D01*
X61120928Y25487334D01*
X61454261Y26201620D01*
X61454261Y25201620D01*
X62454261Y25201620D02*
X61882833Y25201620D01*
X62168547Y25201620D02*
X62168547Y26201620D01*
X62073309Y26058762D01*
X61978071Y25963524D01*
X61882833Y25915905D01*
X60279595Y15295620D02*
X60279595Y16295620D01*
X60612928Y15581334D01*
X60946261Y16295620D01*
X60946261Y15295620D01*
X61565309Y15295620D02*
X61470071Y15343239D01*
X61422452Y15390858D01*
X61374833Y15486096D01*
X61374833Y15771810D01*
X61422452Y15867048D01*
X61470071Y15914667D01*
X61565309Y15962286D01*
X61708166Y15962286D01*
X61803404Y15914667D01*
X61851023Y15867048D01*
X61898642Y15771810D01*
X61898642Y15486096D01*
X61851023Y15390858D01*
X61803404Y15343239D01*
X61708166Y15295620D01*
X61565309Y15295620D01*
X62184357Y15962286D02*
X62565309Y15962286D01*
X62327214Y16295620D02*
X62327214Y15438477D01*
X62374833Y15343239D01*
X62470071Y15295620D01*
X62565309Y15295620D01*
X63041500Y15295620D02*
X62946261Y15343239D01*
X62898642Y15390858D01*
X62851023Y15486096D01*
X62851023Y15771810D01*
X62898642Y15867048D01*
X62946261Y15914667D01*
X63041500Y15962286D01*
X63184357Y15962286D01*
X63279595Y15914667D01*
X63327214Y15867048D01*
X63374833Y15771810D01*
X63374833Y15486096D01*
X63327214Y15390858D01*
X63279595Y15343239D01*
X63184357Y15295620D01*
X63041500Y15295620D01*
X63803404Y15295620D02*
X63803404Y15962286D01*
X63803404Y15771810D02*
X63851023Y15867048D01*
X63898642Y15914667D01*
X63993880Y15962286D01*
X64089119Y15962286D01*
X64714261Y23186572D02*
X66649500Y23186572D01*
X65681880Y22218953D02*
X65681880Y24154191D01*
X64714261Y18106572D02*
X66649500Y18106572D01*
D11*
%TO.C,R1*%
X49058000Y25373000D02*
X49058000Y25043000D01*
X55598000Y22633000D02*
X49058000Y22633000D01*
X55598000Y25373000D02*
X49058000Y25373000D01*
X55598000Y25043000D02*
X55598000Y25373000D01*
X55598000Y22963000D02*
X55598000Y22633000D01*
X49058000Y22633000D02*
X49058000Y22963000D01*
%TO.C,SW1*%
X32996200Y22249000D02*
X30396200Y22249000D01*
X42996200Y30849000D02*
X42996200Y35649000D01*
X40796200Y36149000D02*
X40496200Y36449000D01*
X30396200Y22249000D02*
X30396200Y27149000D01*
X42996200Y22249000D02*
X40396200Y22249000D01*
X37196200Y28949000D02*
X36196200Y28949000D01*
X42996200Y35649000D02*
X40496200Y35649000D01*
X40796200Y36749000D02*
X40796200Y36149000D01*
X42996200Y27149000D02*
X42996200Y22249000D01*
X37996200Y22249000D02*
X35396200Y22249000D01*
X40496200Y36449000D02*
X40796200Y36749000D01*
X30396200Y30749000D02*
X30396200Y35649000D01*
X30396200Y35649000D02*
X33196200Y35649000D01*
X36696200Y29449000D02*
X36696200Y28449000D01*
X39696200Y28949000D02*
G75*
G03*
X39696200Y28949000I-3000000J0D01*
G01*
%TO.C,C1*%
X22383000Y27865400D02*
X25123000Y27865400D01*
X22383000Y27865400D02*
X22383000Y33105400D01*
X22383000Y33105400D02*
X25123000Y33105400D01*
X25123000Y27865400D02*
X25123000Y33105400D01*
%TO.C,Q1*%
X47686600Y48917000D02*
X47686600Y33027000D01*
X47686600Y48917000D02*
X57926600Y48917000D01*
X57926600Y48917000D02*
X57926600Y33027000D01*
X47686600Y33027000D02*
X57926600Y33027000D01*
X52806600Y33027000D02*
X52806600Y30487000D01*
X55346600Y33027000D02*
X55346600Y30487000D01*
X50266600Y33027000D02*
X50266600Y30487000D01*
%TO.C,J1*%
X22352000Y22098000D02*
X25400000Y22098000D01*
X25400000Y22098000D02*
X25400000Y13970000D01*
X25400000Y13970000D02*
X22352000Y13970000D01*
X22352000Y13970000D02*
X22352000Y22098000D01*
%TO.C,D1*%
X43873000Y12632600D02*
X46813000Y12632600D01*
X43873000Y11732600D02*
X43873000Y17172600D01*
X43873000Y12512600D02*
X46813000Y12512600D01*
X44203000Y11732600D02*
X43873000Y11732600D01*
X46813000Y11732600D02*
X46813000Y17172600D01*
X43873000Y12752600D02*
X46813000Y12752600D01*
X46483000Y11732600D02*
X46813000Y11732600D01*
X46813000Y17172600D02*
X46483000Y17172600D01*
X43873000Y17172600D02*
X44203000Y17172600D01*
D12*
%TO.C,R2*%
X24061047Y40497539D02*
X24332544Y40609997D01*
X22632000Y44555000D02*
X22391246Y44469839D01*
X21285313Y41985874D02*
X21380502Y41707851D01*
X21380502Y41707851D02*
X21512542Y41445319D01*
X21535979Y43683381D02*
X21398470Y43423672D01*
X25505700Y42207055D02*
X25531823Y42499758D01*
X21707463Y43922025D02*
X21535979Y43683381D01*
X25336220Y41645710D02*
X25440094Y41920605D01*
X22139089Y44318926D02*
X21909747Y44135188D01*
D11*
X20832000Y40955000D02*
X20832000Y45085000D01*
X21848000Y42545000D02*
X24896000Y42545000D01*
D12*
X22618981Y40520193D02*
X22900746Y40436730D01*
X24332544Y40609997D02*
X24586267Y40758260D01*
D11*
X23372000Y44069000D02*
X23372000Y41021000D01*
D12*
X25532297Y42545000D02*
X25512310Y42838186D01*
X25195999Y41387455D02*
X25336220Y41645710D01*
X21228738Y42274243D02*
X21285313Y41985874D01*
X24817521Y40939586D02*
X25022026Y41150620D01*
X24372857Y44459463D02*
X24132000Y44555000D01*
D11*
X20832000Y45085000D02*
X22432000Y45085000D01*
D12*
X25452717Y43125947D02*
X25354623Y43402957D01*
X21876765Y40985784D02*
X22102209Y40797283D01*
D11*
X24982000Y40005000D02*
X21732000Y40005000D01*
D12*
X22900746Y40436730D02*
X23191231Y40392279D01*
X25531823Y42499758D02*
X25532297Y42545000D01*
X25050866Y43904519D02*
X24850825Y44119789D01*
X25219841Y43664092D02*
X25050866Y43904519D01*
X21512542Y41445319D02*
X21678989Y41203136D01*
X21398470Y43423672D02*
X21297480Y43147704D01*
X21297480Y43147704D02*
X21234878Y42860583D01*
X25512310Y42838186D02*
X25452717Y43125947D01*
X24623419Y44305918D02*
X24372857Y44459463D01*
X22391246Y44469839D02*
X22139089Y44318926D01*
D11*
X25912000Y45085000D02*
X25912000Y40955000D01*
D12*
X23191231Y40392279D02*
X23485061Y40387664D01*
X22102209Y40797283D02*
X22351150Y40641123D01*
X25440094Y41920605D02*
X25505700Y42207055D01*
X21678989Y41203136D02*
X21876765Y40985784D01*
X24850825Y44119789D02*
X24623419Y44305918D01*
X23776799Y40422968D02*
X24061047Y40497539D01*
X21211821Y42567622D02*
X21228738Y42274243D01*
X21909747Y44135188D02*
X21707463Y43922025D01*
X25022026Y41150620D02*
X25195999Y41387455D01*
X22351150Y40641123D02*
X22618981Y40520193D01*
X25354623Y43402957D02*
X25219841Y43664092D01*
X24586267Y40758260D02*
X24817521Y40939586D01*
D11*
X24312000Y45085000D02*
X25912000Y45085000D01*
D12*
X21234878Y42860583D02*
X21211821Y42567622D01*
X23485061Y40387664D02*
X23776799Y40422968D01*
D11*
%TO.C,M1*%
X60710000Y24892000D02*
X63758000Y24892000D01*
X63758000Y24892000D02*
X63758000Y16764000D01*
X63758000Y16764000D02*
X60710000Y16764000D01*
X60710000Y16764000D02*
X60710000Y24892000D01*
%TD*%
%LPC*%
D13*
%TO.C,R1*%
X56138000Y24003000D03*
D14*
X48518000Y24003000D03*
%TD*%
D15*
%TO.C,SW1*%
X39196200Y36449000D03*
D16*
X34196200Y36449000D03*
X36696200Y36449000D03*
D17*
X31096200Y28949000D03*
X42296200Y28949000D03*
D16*
X39196200Y21949000D03*
X34196200Y21949000D03*
%TD*%
D13*
%TO.C,C1*%
X23753000Y29235400D03*
X23753000Y31735400D03*
%TD*%
D18*
%TO.C,Q1*%
X52806600Y45997000D03*
D19*
X50266600Y29337000D03*
D20*
X52806600Y29337000D03*
X55346600Y29337000D03*
%TD*%
D21*
%TO.C,J1*%
X23876000Y20574000D03*
X23876000Y18034000D03*
X23876000Y15494000D03*
%TD*%
D22*
%TO.C,D1*%
X45343000Y10642600D03*
D23*
X45343000Y18262600D03*
%TD*%
D24*
%TO.C,R2*%
X20832000Y40005000D03*
X23372000Y45085000D03*
X25912000Y40005000D03*
%TD*%
D25*
%TO.C,M1*%
X62234000Y23368000D03*
X62234000Y18288000D03*
%TD*%
D26*
%TO.C,U1*%
X13970000Y2540000D03*
X66040000Y7620000D03*
X15240000Y50800000D03*
X66040000Y35560000D03*
D27*
X27940000Y2540000D03*
D14*
X30480000Y2540000D03*
X33020000Y2540000D03*
X35560000Y2540000D03*
X38100000Y2540000D03*
X40640000Y2540000D03*
X43180000Y2540000D03*
X45720000Y2540000D03*
X50800000Y2540000D03*
X53340000Y2540000D03*
X55880000Y2540000D03*
X58420000Y2540000D03*
X60960000Y2540000D03*
X63500000Y2540000D03*
X63500000Y50800000D03*
X60960000Y50800000D03*
X58420000Y50800000D03*
X55880000Y50800000D03*
X53340000Y50800000D03*
X50800000Y50800000D03*
X48260000Y50800000D03*
X45720000Y50800000D03*
X41660000Y50800000D03*
X39120000Y50800000D03*
X36580000Y50800000D03*
X34040000Y50800000D03*
X31500000Y50800000D03*
X28960000Y50800000D03*
X26420000Y50800000D03*
X23880000Y50800000D03*
X21340000Y50800000D03*
X18800000Y50800000D03*
%TD*%
D25*
%TO.C,U2*%
X6303200Y16408400D03*
X6303200Y39497000D03*
D28*
X17149000Y34239200D03*
D29*
X17149000Y31699200D03*
X17149000Y29159200D03*
X17149000Y26619200D03*
X17149000Y24079200D03*
X17149000Y21539200D03*
%TD*%
M02*
