M48
; DRILL file {KiCad 6.0.1-79c1e3a40b~116~ubuntu20.04.1} date Sat 29 Jan 2022 07:32:40 PM EST
; FORMAT={-:-/ absolute / inch / decimal}
; #@! TF.CreationDate,2022-01-29T19:32:40-05:00
; #@! TF.GenerationSoftware,Kicad,Pcbnew,6.0.1-79c1e3a40b~116~ubuntu20.04.1
; #@! TF.FileFunction,Plated,1,2,PTH
FMAT,2
INCH
; #@! TA.AperFunction,Plated,PTH,ViaDrill
T1C0.0157
; #@! TA.AperFunction,Plated,PTH,ComponentDrill
T2C0.0300
; #@! TA.AperFunction,Plated,PTH,ComponentDrill
T3C0.0315
; #@! TA.AperFunction,Plated,PTH,ComponentDrill
T4C0.0354
; #@! TA.AperFunction,Plated,PTH,ComponentDrill
T5C0.0360
; #@! TA.AperFunction,Plated,PTH,ComponentDrill
T6C0.0394
; #@! TA.AperFunction,Plated,PTH,ComponentDrill
T7C0.0433
; #@! TA.AperFunction,Plated,PTH,ComponentDrill
T8C0.0470
; #@! TA.AperFunction,Plated,PTH,ComponentDrill
T9C0.0600
; #@! TA.AperFunction,Plated,PTH,ComponentDrill
T10C0.0787
%
G90
G05
T1
X5.1Y-4.7
X5.6Y-3.0285
T2
X5.1202Y-3.325
X5.2202Y-3.125
X5.3202Y-3.325
T3
X5.2352Y-3.6506
X5.2352Y-3.749
X6.2102Y-3.955
X6.5102Y-3.955
T4
X6.0852Y-4.181
X6.0852Y-4.481
T5
X4.9752Y-3.552
X4.9752Y-3.652
X4.9752Y-3.752
X4.9752Y-3.852
X4.9752Y-3.952
X4.9752Y-4.052
T6
X5.0402Y-2.9
X5.1402Y-2.9
X5.2402Y-2.9
X5.3402Y-2.9
X5.4Y-4.8
X5.4402Y-2.9
X5.5Y-4.8
X5.5402Y-2.9
X5.6Y-4.8
X5.6402Y-2.9
X5.6463Y-3.465
X5.6463Y-4.0359
X5.7Y-4.8
X5.7402Y-2.9
X5.7447Y-3.465
X5.8Y-4.8
X5.8402Y-2.9
X5.8432Y-3.465
X5.8432Y-4.0359
X5.9Y-4.8
X5.9402Y-2.9
X6.0Y-4.8
X6.1Y-2.9
X6.1Y-4.8
X6.2Y-2.9
X6.3Y-2.9
X6.3Y-4.8
X6.4Y-2.9
X6.4Y-4.8
X6.5Y-2.9
X6.5Y-4.8
X6.6Y-2.9
X6.6Y-4.8
X6.7Y-2.9
X6.7Y-4.8
X6.8Y-2.9
X6.8Y-4.8
T7
X6.279Y-3.745
X6.379Y-3.745
X6.479Y-3.745
T8
X5.24Y-4.09
X5.24Y-4.19
X5.24Y-4.29
T9
X6.7502Y-3.98
X6.7502Y-4.18
T10
G00X5.5243Y-3.7504
M15
G01X5.5243Y-3.7701
M16
G05
G00X5.9652Y-3.7504
M15
G01X5.9652Y-3.7701
M16
G05
T0
M30
