%TF.GenerationSoftware,KiCad,Pcbnew,6.0.1-79c1e3a40b~116~ubuntu20.04.1*%
%TF.CreationDate,2022-01-29T21:04:50-05:00*%
%TF.ProjectId,Protogasm-Board-V2,50726f74-6f67-4617-936d-2d426f617264,rev?*%
%TF.SameCoordinates,PX68290a0PY76b1be0*%
%TF.FileFunction,Soldermask,Bot*%
%TF.FilePolarity,Negative*%
%FSLAX46Y46*%
G04 Gerber Fmt 4.6, Leading zero omitted, Abs format (unit mm)*
G04 Created by KiCad (PCBNEW 6.0.1-79c1e3a40b~116~ubuntu20.04.1) date 2022-01-29 21:04:50*
%MOMM*%
%LPD*%
G01*
G04 APERTURE LIST*
%ADD10C,1.600000*%
%ADD11O,1.600000X1.600000*%
%ADD12R,2.000000X2.000000*%
%ADD13C,2.000000*%
%ADD14R,2.500000X3.000000*%
%ADD15O,3.500000X3.500000*%
%ADD16R,1.905000X2.000000*%
%ADD17O,1.905000X2.000000*%
%ADD18C,2.159000*%
%ADD19R,1.800000X1.800000*%
%ADD20O,1.800000X1.800000*%
%ADD21C,1.524000*%
%ADD22C,2.540000*%
%ADD23C,3.200000*%
%ADD24R,1.600000X1.600000*%
%ADD25R,1.981200X1.981200*%
%ADD26C,1.981200*%
G04 APERTURE END LIST*
D10*
%TO.C,R1*%
X56138000Y24003000D03*
D11*
X48518000Y24003000D03*
%TD*%
D12*
%TO.C,SW1*%
X39196200Y36449000D03*
D13*
X34196200Y36449000D03*
X36696200Y36449000D03*
D14*
X31096200Y28949000D03*
X42296200Y28949000D03*
D13*
X39196200Y21949000D03*
X34196200Y21949000D03*
%TD*%
D10*
%TO.C,C1*%
X23753000Y29235400D03*
X23753000Y31735400D03*
%TD*%
D15*
%TO.C,Q1*%
X52806600Y45997000D03*
D16*
X50266600Y29337000D03*
D17*
X52806600Y29337000D03*
X55346600Y29337000D03*
%TD*%
D18*
%TO.C,J1*%
X23876000Y20574000D03*
X23876000Y18034000D03*
X23876000Y15494000D03*
%TD*%
D19*
%TO.C,D1*%
X45343000Y10642600D03*
D20*
X45343000Y18262600D03*
%TD*%
D21*
%TO.C,R2*%
X20832000Y40005000D03*
X23372000Y45085000D03*
X25912000Y40005000D03*
%TD*%
D22*
%TO.C,M1*%
X62234000Y23368000D03*
X62234000Y18288000D03*
%TD*%
D23*
%TO.C,U1*%
X13970000Y2540000D03*
X66040000Y7620000D03*
X15240000Y50800000D03*
X66040000Y35560000D03*
D24*
X27940000Y2540000D03*
D11*
X30480000Y2540000D03*
X33020000Y2540000D03*
X35560000Y2540000D03*
X38100000Y2540000D03*
X40640000Y2540000D03*
X43180000Y2540000D03*
X45720000Y2540000D03*
X50800000Y2540000D03*
X53340000Y2540000D03*
X55880000Y2540000D03*
X58420000Y2540000D03*
X60960000Y2540000D03*
X63500000Y2540000D03*
X63500000Y50800000D03*
X60960000Y50800000D03*
X58420000Y50800000D03*
X55880000Y50800000D03*
X53340000Y50800000D03*
X50800000Y50800000D03*
X48260000Y50800000D03*
X45720000Y50800000D03*
X41660000Y50800000D03*
X39120000Y50800000D03*
X36580000Y50800000D03*
X34040000Y50800000D03*
X31500000Y50800000D03*
X28960000Y50800000D03*
X26420000Y50800000D03*
X23880000Y50800000D03*
X21340000Y50800000D03*
X18800000Y50800000D03*
%TD*%
D22*
%TO.C,U2*%
X6303200Y16408400D03*
X6303200Y39497000D03*
D25*
X17149000Y34239200D03*
D26*
X17149000Y31699200D03*
X17149000Y29159200D03*
X17149000Y26619200D03*
X17149000Y24079200D03*
X17149000Y21539200D03*
%TD*%
M02*
