M48
; DRILL file {KiCad 6.0.3-a3aad9c10e~116~ubuntu20.04.1} date Mon 21 Mar 2022 01:13:55 AM EDT
; FORMAT={-:-/ absolute / inch / decimal}
; #@! TF.CreationDate,2022-03-21T01:13:55-04:00
; #@! TF.GenerationSoftware,Kicad,Pcbnew,6.0.3-a3aad9c10e~116~ubuntu20.04.1
; #@! TF.FileFunction,Plated,1,2,PTH
FMAT,2
INCH
; #@! TA.AperFunction,Plated,PTH,ViaDrill
T1C0.0160
; #@! TA.AperFunction,Plated,PTH,ComponentDrill
T2C0.0300
; #@! TA.AperFunction,Plated,PTH,ComponentDrill
T3C0.0315
; #@! TA.AperFunction,Plated,PTH,ComponentDrill
T4C0.0354
; #@! TA.AperFunction,Plated,PTH,ComponentDrill
T5C0.0360
; #@! TA.AperFunction,Plated,PTH,ComponentDrill
T6C0.0394
; #@! TA.AperFunction,Plated,PTH,ComponentDrill
T7C0.0433
; #@! TA.AperFunction,Plated,PTH,ComponentDrill
T8C0.0470
; #@! TA.AperFunction,Plated,PTH,ComponentDrill
T9C0.0630
; #@! TA.AperFunction,Plated,PTH,ComponentDrill
T10C0.0787
; #@! TA.AperFunction,Plated,PTH,ComponentDrill
T11C0.0800
%
G90
G05
T1
X1.85Y1.49
X1.96Y1.38
T2
X0.1Y1.81
X0.2Y2.01
X0.3Y1.81
T3
X0.54Y1.61
X0.84Y1.61
X1.01Y1.6084
X1.01Y1.51
T4
X0.42Y0.81
X0.42Y0.51
T5
X2.19Y1.77
X2.2258Y1.6766
X2.2617Y1.5833
X2.2975Y1.4899
X2.3333Y1.3966
X2.3692Y1.3032
T6
X0.7402Y2.0
X0.8402Y2.0
X0.9402Y2.0
X1.0402Y2.0
X1.1Y0.1
X1.1402Y2.0
X1.1916Y1.3554
X1.1916Y0.7846
X1.2Y0.1
X1.2402Y2.0
X1.29Y1.3554
X1.3Y0.1
X1.3402Y2.0
X1.3884Y1.3554
X1.3884Y0.7846
X1.4Y0.1
X1.4402Y2.0
X1.5Y0.1
X1.5402Y2.0
X1.6Y0.1
X1.6402Y2.0
X1.7Y0.1
X1.8Y2.0
X1.8Y0.1
X1.9Y2.0
X2.0Y2.0
X2.0Y0.1
X2.1Y2.0
X2.1Y0.1
X2.2Y2.0
X2.2Y0.1
X2.3Y2.0
X2.3Y0.1
X2.4Y2.0
X2.4Y0.1
X2.5Y2.0
X2.5Y0.1
T7
X0.59Y1.48
X0.69Y1.48
X0.79Y1.48
T8
X2.33Y1.11
X2.33Y1.01
X2.33Y0.91
T9
X0.1338Y1.045
X0.2519Y1.23
X0.37Y1.045
T11
X0.2857Y0.76
X0.2857Y0.56
T10
G00X1.0695Y1.07
M15
G01X1.0695Y1.0503
M16
G05
G00X1.5105Y1.07
M15
G01X1.5105Y1.0503
M16
G05
T0
M30
