%TF.GenerationSoftware,KiCad,Pcbnew,6.0.1-79c1e3a40b~116~ubuntu20.04.1*%
%TF.CreationDate,2022-01-29T21:04:50-05:00*%
%TF.ProjectId,Protogasm-Board-V2,50726f74-6f67-4617-936d-2d426f617264,rev?*%
%TF.SameCoordinates,PX68290a0PY76b1be0*%
%TF.FileFunction,Legend,Bot*%
%TF.FilePolarity,Positive*%
%FSLAX46Y46*%
G04 Gerber Fmt 4.6, Leading zero omitted, Abs format (unit mm)*
G04 Created by KiCad (PCBNEW 6.0.1-79c1e3a40b~116~ubuntu20.04.1) date 2022-01-29 21:04:50*
%MOMM*%
%LPD*%
G01*
G04 APERTURE LIST*
%ADD10C,0.150000*%
%ADD11C,0.120000*%
%ADD12C,0.254000*%
%ADD13C,1.600000*%
%ADD14O,1.600000X1.600000*%
%ADD15R,2.000000X2.000000*%
%ADD16C,2.000000*%
%ADD17R,2.500000X3.000000*%
%ADD18O,3.500000X3.500000*%
%ADD19R,1.905000X2.000000*%
%ADD20O,1.905000X2.000000*%
%ADD21C,2.159000*%
%ADD22R,1.800000X1.800000*%
%ADD23O,1.800000X1.800000*%
%ADD24C,1.524000*%
%ADD25C,2.540000*%
%ADD26C,3.200000*%
%ADD27R,1.600000X1.600000*%
%ADD28R,1.981200X1.981200*%
%ADD29C,1.981200*%
G04 APERTURE END LIST*
D10*
%TO.C,U1*%
X25699404Y3087620D02*
X25699404Y2278096D01*
X25651785Y2182858D01*
X25604166Y2135239D01*
X25508928Y2087620D01*
X25318452Y2087620D01*
X25223214Y2135239D01*
X25175595Y2182858D01*
X25127976Y2278096D01*
X25127976Y3087620D01*
X24127976Y2087620D02*
X24699404Y2087620D01*
X24413690Y2087620D02*
X24413690Y3087620D01*
X24508928Y2944762D01*
X24604166Y2849524D01*
X24699404Y2801905D01*
%TO.C,U2*%
X18003404Y36776820D02*
X18003404Y35967296D01*
X17955785Y35872058D01*
X17908166Y35824439D01*
X17812928Y35776820D01*
X17622452Y35776820D01*
X17527214Y35824439D01*
X17479595Y35872058D01*
X17431976Y35967296D01*
X17431976Y36776820D01*
X17003404Y36681581D02*
X16955785Y36729200D01*
X16860547Y36776820D01*
X16622452Y36776820D01*
X16527214Y36729200D01*
X16479595Y36681581D01*
X16431976Y36586343D01*
X16431976Y36491105D01*
X16479595Y36348248D01*
X17051023Y35776820D01*
X16431976Y35776820D01*
X12384261Y22086820D02*
X12050928Y21086820D01*
X11717595Y22086820D01*
X11622357Y20991581D02*
X10860452Y20991581D01*
X10622357Y21610629D02*
X10289023Y21610629D01*
X10146166Y21086820D02*
X10622357Y21086820D01*
X10622357Y22086820D01*
X10146166Y22086820D01*
X9812833Y21086820D02*
X9289023Y21753486D01*
X9812833Y21753486D02*
X9289023Y21086820D01*
X21153285Y37236820D02*
X21153285Y38236820D01*
X20819952Y37522534D01*
X20486619Y38236820D01*
X20486619Y37236820D01*
X20010428Y37236820D02*
X20010428Y38236820D01*
X19629476Y38236820D01*
X19534238Y38189200D01*
X19486619Y38141581D01*
X19439000Y38046343D01*
X19439000Y37903486D01*
X19486619Y37808248D01*
X19534238Y37760629D01*
X19629476Y37713010D01*
X20010428Y37713010D01*
X19105666Y38236820D02*
X18439000Y37236820D01*
X18439000Y38236820D02*
X19105666Y37236820D01*
X17581857Y38236820D02*
X18058047Y38236820D01*
X18105666Y37760629D01*
X18058047Y37808248D01*
X17962809Y37855867D01*
X17724714Y37855867D01*
X17629476Y37808248D01*
X17581857Y37760629D01*
X17534238Y37665391D01*
X17534238Y37427296D01*
X17581857Y37332058D01*
X17629476Y37284439D01*
X17724714Y37236820D01*
X17962809Y37236820D01*
X18058047Y37284439D01*
X18105666Y37332058D01*
X16915190Y38236820D02*
X16819952Y38236820D01*
X16724714Y38189200D01*
X16677095Y38141581D01*
X16629476Y38046343D01*
X16581857Y37855867D01*
X16581857Y37617772D01*
X16629476Y37427296D01*
X16677095Y37332058D01*
X16724714Y37284439D01*
X16819952Y37236820D01*
X16915190Y37236820D01*
X17010428Y37284439D01*
X17058047Y37332058D01*
X17105666Y37427296D01*
X17153285Y37617772D01*
X17153285Y37855867D01*
X17105666Y38046343D01*
X17058047Y38141581D01*
X17010428Y38189200D01*
X16915190Y38236820D01*
X15677095Y38236820D02*
X16153285Y38236820D01*
X16200904Y37760629D01*
X16153285Y37808248D01*
X16058047Y37855867D01*
X15819952Y37855867D01*
X15724714Y37808248D01*
X15677095Y37760629D01*
X15629476Y37665391D01*
X15629476Y37427296D01*
X15677095Y37332058D01*
X15724714Y37284439D01*
X15819952Y37236820D01*
X16058047Y37236820D01*
X16153285Y37284439D01*
X16200904Y37332058D01*
X15010428Y38236820D02*
X14915190Y38236820D01*
X14819952Y38189200D01*
X14772333Y38141581D01*
X14724714Y38046343D01*
X14677095Y37855867D01*
X14677095Y37617772D01*
X14724714Y37427296D01*
X14772333Y37332058D01*
X14819952Y37284439D01*
X14915190Y37236820D01*
X15010428Y37236820D01*
X15105666Y37284439D01*
X15153285Y37332058D01*
X15200904Y37427296D01*
X15248523Y37617772D01*
X15248523Y37855867D01*
X15200904Y38046343D01*
X15153285Y38141581D01*
X15105666Y38189200D01*
X15010428Y38236820D01*
X13724714Y38189200D02*
X13819952Y38236820D01*
X13962809Y38236820D01*
X14105666Y38189200D01*
X14200904Y38093962D01*
X14248523Y37998724D01*
X14296142Y37808248D01*
X14296142Y37665391D01*
X14248523Y37474915D01*
X14200904Y37379677D01*
X14105666Y37284439D01*
X13962809Y37236820D01*
X13867571Y37236820D01*
X13724714Y37284439D01*
X13677095Y37332058D01*
X13677095Y37665391D01*
X13867571Y37665391D01*
X13248523Y37236820D02*
X13248523Y38236820D01*
X12867571Y38236820D01*
X12772333Y38189200D01*
X12724714Y38141581D01*
X12677095Y38046343D01*
X12677095Y37903486D01*
X12724714Y37808248D01*
X12772333Y37760629D01*
X12867571Y37713010D01*
X13248523Y37713010D01*
X12384261Y34685220D02*
X12050928Y33685220D01*
X11717595Y34685220D01*
X11241404Y33685220D02*
X11336642Y33732839D01*
X11384261Y33780458D01*
X11431880Y33875696D01*
X11431880Y34161410D01*
X11384261Y34256648D01*
X11336642Y34304267D01*
X11241404Y34351886D01*
X11098547Y34351886D01*
X11003309Y34304267D01*
X10955690Y34256648D01*
X10908071Y34161410D01*
X10908071Y33875696D01*
X10955690Y33780458D01*
X11003309Y33732839D01*
X11098547Y33685220D01*
X11241404Y33685220D01*
X10050928Y34351886D02*
X10050928Y33685220D01*
X10479500Y34351886D02*
X10479500Y33828077D01*
X10431880Y33732839D01*
X10336642Y33685220D01*
X10193785Y33685220D01*
X10098547Y33732839D01*
X10050928Y33780458D01*
X9717595Y34351886D02*
X9336642Y34351886D01*
X9574738Y34685220D02*
X9574738Y33828077D01*
X9527119Y33732839D01*
X9431880Y33685220D01*
X9336642Y33685220D01*
X14670261Y27166820D02*
X14336928Y26166820D01*
X14003595Y27166820D01*
X13146452Y26166820D02*
X13717880Y26166820D01*
X13432166Y26166820D02*
X13432166Y27166820D01*
X13527404Y27023962D01*
X13622642Y26928724D01*
X13717880Y26881105D01*
X13908261Y24601420D02*
X13574928Y23601420D01*
X13241595Y24601420D01*
X12955880Y24506181D02*
X12908261Y24553800D01*
X12813023Y24601420D01*
X12574928Y24601420D01*
X12479690Y24553800D01*
X12432071Y24506181D01*
X12384452Y24410943D01*
X12384452Y24315705D01*
X12432071Y24172848D01*
X13003500Y23601420D01*
X12384452Y23601420D01*
X10323285Y25076820D02*
X10323285Y26076820D01*
X9989952Y25362534D01*
X9656619Y26076820D01*
X9656619Y25076820D01*
X9180428Y25076820D02*
X9180428Y26076820D01*
X8799476Y26076820D01*
X8704238Y26029200D01*
X8656619Y25981581D01*
X8609000Y25886343D01*
X8609000Y25743486D01*
X8656619Y25648248D01*
X8704238Y25600629D01*
X8799476Y25553010D01*
X9180428Y25553010D01*
X8275666Y26076820D02*
X7609000Y25076820D01*
X7609000Y26076820D02*
X8275666Y25076820D01*
X6751857Y26076820D02*
X7228047Y26076820D01*
X7275666Y25600629D01*
X7228047Y25648248D01*
X7132809Y25695867D01*
X6894714Y25695867D01*
X6799476Y25648248D01*
X6751857Y25600629D01*
X6704238Y25505391D01*
X6704238Y25267296D01*
X6751857Y25172058D01*
X6799476Y25124439D01*
X6894714Y25076820D01*
X7132809Y25076820D01*
X7228047Y25124439D01*
X7275666Y25172058D01*
X6085190Y26076820D02*
X5989952Y26076820D01*
X5894714Y26029200D01*
X5847095Y25981581D01*
X5799476Y25886343D01*
X5751857Y25695867D01*
X5751857Y25457772D01*
X5799476Y25267296D01*
X5847095Y25172058D01*
X5894714Y25124439D01*
X5989952Y25076820D01*
X6085190Y25076820D01*
X6180428Y25124439D01*
X6228047Y25172058D01*
X6275666Y25267296D01*
X6323285Y25457772D01*
X6323285Y25695867D01*
X6275666Y25886343D01*
X6228047Y25981581D01*
X6180428Y26029200D01*
X6085190Y26076820D01*
X4847095Y26076820D02*
X5323285Y26076820D01*
X5370904Y25600629D01*
X5323285Y25648248D01*
X5228047Y25695867D01*
X4989952Y25695867D01*
X4894714Y25648248D01*
X4847095Y25600629D01*
X4799476Y25505391D01*
X4799476Y25267296D01*
X4847095Y25172058D01*
X4894714Y25124439D01*
X4989952Y25076820D01*
X5228047Y25076820D01*
X5323285Y25124439D01*
X5370904Y25172058D01*
X4180428Y26076820D02*
X4085190Y26076820D01*
X3989952Y26029200D01*
X3942333Y25981581D01*
X3894714Y25886343D01*
X3847095Y25695867D01*
X3847095Y25457772D01*
X3894714Y25267296D01*
X3942333Y25172058D01*
X3989952Y25124439D01*
X4085190Y25076820D01*
X4180428Y25076820D01*
X4275666Y25124439D01*
X4323285Y25172058D01*
X4370904Y25267296D01*
X4418523Y25457772D01*
X4418523Y25695867D01*
X4370904Y25886343D01*
X4323285Y25981581D01*
X4275666Y26029200D01*
X4180428Y26076820D01*
X2894714Y26029200D02*
X2989952Y26076820D01*
X3132809Y26076820D01*
X3275666Y26029200D01*
X3370904Y25933962D01*
X3418523Y25838724D01*
X3466142Y25648248D01*
X3466142Y25505391D01*
X3418523Y25314915D01*
X3370904Y25219677D01*
X3275666Y25124439D01*
X3132809Y25076820D01*
X3037571Y25076820D01*
X2894714Y25124439D01*
X2847095Y25172058D01*
X2847095Y25505391D01*
X3037571Y25505391D01*
X2418523Y25076820D02*
X2418523Y26076820D01*
X2037571Y26076820D01*
X1942333Y26029200D01*
X1894714Y25981581D01*
X1847095Y25886343D01*
X1847095Y25743486D01*
X1894714Y25648248D01*
X1942333Y25600629D01*
X2037571Y25553010D01*
X2418523Y25553010D01*
X14670261Y29630620D02*
X14336928Y28630620D01*
X14003595Y29630620D01*
X13098833Y28725858D02*
X13146452Y28678239D01*
X13289309Y28630620D01*
X13384547Y28630620D01*
X13527404Y28678239D01*
X13622642Y28773477D01*
X13670261Y28868715D01*
X13717880Y29059191D01*
X13717880Y29202048D01*
X13670261Y29392524D01*
X13622642Y29487762D01*
X13527404Y29583000D01*
X13384547Y29630620D01*
X13289309Y29630620D01*
X13146452Y29583000D01*
X13098833Y29535381D01*
X12098833Y28725858D02*
X12146452Y28678239D01*
X12289309Y28630620D01*
X12384547Y28630620D01*
X12527404Y28678239D01*
X12622642Y28773477D01*
X12670261Y28868715D01*
X12717880Y29059191D01*
X12717880Y29202048D01*
X12670261Y29392524D01*
X12622642Y29487762D01*
X12527404Y29583000D01*
X12384547Y29630620D01*
X12289309Y29630620D01*
X12146452Y29583000D01*
X12098833Y29535381D01*
X13241595Y32123000D02*
X13336833Y32170620D01*
X13479690Y32170620D01*
X13622547Y32123000D01*
X13717785Y32027762D01*
X13765404Y31932524D01*
X13813023Y31742048D01*
X13813023Y31599191D01*
X13765404Y31408715D01*
X13717785Y31313477D01*
X13622547Y31218239D01*
X13479690Y31170620D01*
X13384452Y31170620D01*
X13241595Y31218239D01*
X13193976Y31265858D01*
X13193976Y31599191D01*
X13384452Y31599191D01*
X12765404Y31170620D02*
X12765404Y32170620D01*
X12193976Y31170620D01*
X12193976Y32170620D01*
X11717785Y31170620D02*
X11717785Y32170620D01*
X11479690Y32170620D01*
X11336833Y32123000D01*
X11241595Y32027762D01*
X11193976Y31932524D01*
X11146357Y31742048D01*
X11146357Y31599191D01*
X11193976Y31408715D01*
X11241595Y31313477D01*
X11336833Y31218239D01*
X11479690Y31170620D01*
X11717785Y31170620D01*
D11*
%TO.C,U1*%
X66170000Y51820000D02*
X66170000Y40390000D01*
X68710000Y37850000D02*
X68710000Y5080000D01*
X-2030000Y12190000D02*
X-130000Y12190000D01*
X-130000Y3050000D02*
X-2030000Y3050000D01*
X66170000Y-130000D02*
X-130000Y-130000D01*
X-6480000Y43940000D02*
X-130000Y43940000D01*
X-130000Y12190000D02*
X-130000Y32260000D01*
X-6480000Y32260000D02*
X-6480000Y43940000D01*
X66170000Y40390000D02*
X68710000Y37850000D01*
X66170000Y2540000D02*
X66170000Y-130000D01*
X-130000Y43940000D02*
X-130000Y53470000D01*
X-130000Y32260000D02*
X-6480000Y32260000D01*
X-2030000Y3050000D02*
X-2030000Y12190000D01*
X-130000Y53470000D02*
X64520000Y53470000D01*
X68710000Y5080000D02*
X66170000Y2540000D01*
X64520000Y53470000D02*
X66170000Y51820000D01*
X-130000Y-130000D02*
X-130000Y3050000D01*
%TO.C,U2*%
X16149000Y27219200D02*
X15349000Y27219200D01*
X14879000Y31099200D02*
X16149000Y31099200D01*
X16149000Y26019200D02*
X15134000Y26019200D01*
X16154000Y22109200D02*
X13484000Y22109200D01*
X16049000Y33639200D02*
X13509000Y33639200D01*
X16149000Y20959200D02*
X12749000Y20959200D01*
X14069000Y34189200D02*
X15149000Y34189200D01*
X15149000Y34849200D02*
X16049000Y34849200D01*
X12939000Y34829200D02*
X14069000Y34829200D01*
X16149000Y29809200D02*
X15174000Y29809200D01*
X14209000Y32369200D02*
X14879000Y31049200D01*
X15149000Y34189200D02*
X15149000Y34849200D01*
X16149000Y32319200D02*
X14219000Y32319200D01*
X16149000Y23499200D02*
X14219000Y23499200D01*
X14069000Y34829200D02*
X14069000Y34189200D01*
X16149000Y28579200D02*
X15354000Y28579200D01*
X16149000Y24669200D02*
X14739000Y24669200D01*
D12*
X6274000Y19114200D02*
G75*
G03*
X6374000Y13739200I50000J-2687500D01*
G01*
X6274000Y36939200D02*
G75*
G03*
X6299000Y42064200I12500J2562500D01*
G01*
G36*
X15520913Y27739207D02*
G01*
X15509114Y27427757D01*
X15483907Y27159694D01*
X15453313Y26942621D01*
X15394339Y26572507D01*
X15327702Y26203020D01*
X15256479Y25849936D01*
X15183746Y25529030D01*
X15112583Y25256078D01*
X15097746Y25206126D01*
X15037664Y25026833D01*
X14959077Y24815714D01*
X14866988Y24584270D01*
X14766396Y24343999D01*
X14662302Y24106402D01*
X14559709Y23882978D01*
X14463617Y23685228D01*
X14379026Y23524650D01*
X14310939Y23412744D01*
X14306703Y23406319D01*
X14271345Y23347886D01*
X14209316Y23241941D01*
X14124365Y23095011D01*
X14020242Y22913625D01*
X13900697Y22704310D01*
X13769480Y22473594D01*
X13630341Y22228005D01*
X13609148Y22190529D01*
X13466687Y21938710D01*
X13329721Y21696766D01*
X13202574Y21472324D01*
X13089569Y21273010D01*
X12995029Y21106449D01*
X12923278Y20980268D01*
X12878640Y20902093D01*
X12849662Y20851307D01*
X12789787Y20745994D01*
X12702728Y20592665D01*
X12590734Y20395291D01*
X12456059Y20157841D01*
X12300951Y19884287D01*
X12127663Y19578599D01*
X11938446Y19244748D01*
X11735551Y18886704D01*
X11521228Y18508439D01*
X11297729Y18113922D01*
X11067305Y17707124D01*
X10855879Y17333897D01*
X10631997Y16938801D01*
X10417196Y16559858D01*
X10213717Y16201012D01*
X10023800Y15866210D01*
X9849684Y15559397D01*
X9693609Y15284518D01*
X9557815Y15045519D01*
X9444540Y14846346D01*
X9356026Y14690944D01*
X9294511Y14583259D01*
X9262236Y14527235D01*
X9250014Y14506986D01*
X9152100Y14367194D01*
X9019626Y14203295D01*
X8865371Y14029238D01*
X8702112Y13858974D01*
X8542627Y13706450D01*
X8399693Y13585616D01*
X8229248Y13468625D01*
X7966097Y13322787D01*
X7670624Y13189236D01*
X7360617Y13075081D01*
X7053863Y12987434D01*
X6768148Y12933405D01*
X6668512Y12921896D01*
X6206255Y12905920D01*
X5752375Y12953053D01*
X5304079Y13063542D01*
X5261160Y13077583D01*
X5046411Y13157054D01*
X4825509Y13251853D01*
X4615382Y13353867D01*
X4432958Y13454982D01*
X4295167Y13547085D01*
X4122797Y13687107D01*
X3949958Y13839789D01*
X3790934Y13991762D01*
X3658443Y14130868D01*
X3565202Y14244948D01*
X3543087Y14279441D01*
X3488397Y14370047D01*
X3405806Y14509766D01*
X3297386Y14695011D01*
X3165209Y14922194D01*
X3011346Y15187727D01*
X2837869Y15488024D01*
X2646851Y15819497D01*
X2440363Y16178559D01*
X2220476Y16561622D01*
X1989262Y16965100D01*
X1748794Y17385404D01*
X1501142Y17818948D01*
X-441006Y21221590D01*
X-1651365Y21237564D01*
X-1776206Y21239222D01*
X-2063344Y21243228D01*
X-2294927Y21247028D01*
X-2476999Y21251017D01*
X-2615605Y21255590D01*
X-2716789Y21261144D01*
X-2786596Y21268072D01*
X-2831070Y21276770D01*
X-2856256Y21287634D01*
X-2868198Y21301058D01*
X-2872941Y21317439D01*
X-2885108Y21344413D01*
X-2935367Y21414990D01*
X-2974374Y21461212D01*
X-2654899Y21461212D01*
X-1632509Y21461212D01*
X-1507589Y21461411D01*
X-1262608Y21463045D01*
X-1046429Y21466166D01*
X-866072Y21470581D01*
X-728555Y21476094D01*
X-640898Y21482509D01*
X-610119Y21489632D01*
X-622940Y21518037D01*
X-664271Y21596302D01*
X-730645Y21717594D01*
X-818471Y21875464D01*
X-924160Y22063461D01*
X-1044120Y22275135D01*
X-1174762Y22504035D01*
X-1346595Y22806001D01*
X-1557663Y23184257D01*
X-1739880Y23521607D01*
X-1896666Y23825447D01*
X-2031444Y24103176D01*
X-2147632Y24362191D01*
X-2248652Y24609891D01*
X-2337925Y24853673D01*
X-2418871Y25100934D01*
X-2494912Y25359074D01*
X-2535665Y25500509D01*
X-2575000Y25629928D01*
X-2606438Y25725940D01*
X-2625535Y25774420D01*
X-2627849Y25771303D01*
X-2632511Y25719795D01*
X-2636876Y25611221D01*
X-2640882Y25450205D01*
X-2644467Y25241371D01*
X-2647570Y24989343D01*
X-2650129Y24698746D01*
X-2652082Y24374203D01*
X-2653369Y24020339D01*
X-2653927Y23641778D01*
X-2654899Y21461212D01*
X-2974374Y21461212D01*
X-3014538Y21508806D01*
X-3112188Y21612973D01*
X-3340218Y21844608D01*
X-6872258Y21844608D01*
X-6872258Y21603983D01*
X-6872353Y21595252D01*
X-6873135Y21523504D01*
X-6879985Y21423929D01*
X-6895702Y21368298D01*
X-6922737Y21343987D01*
X-6923987Y21343711D01*
X-6969327Y21345421D01*
X-7073057Y21354242D01*
X-7230644Y21369674D01*
X-7437554Y21391216D01*
X-7689252Y21418369D01*
X-7981204Y21450631D01*
X-8308875Y21487503D01*
X-8667731Y21528483D01*
X-9053239Y21573071D01*
X-9460863Y21620766D01*
X-9886070Y21671069D01*
X-10123487Y21699277D01*
X-10615137Y21757431D01*
X-11050142Y21808434D01*
X-11433190Y21852766D01*
X-11768973Y21890908D01*
X-12062181Y21923341D01*
X-12317502Y21950544D01*
X-12539628Y21972999D01*
X-12733249Y21991185D01*
X-12903053Y22005582D01*
X-13053733Y22016673D01*
X-13189977Y22024936D01*
X-13316475Y22030852D01*
X-13437918Y22034902D01*
X-14076912Y22052281D01*
X-14076912Y22259954D01*
X-13869239Y22259954D01*
X-13070497Y22259954D01*
X-13070497Y22262850D01*
X-12846849Y22262850D01*
X-12830035Y22259954D01*
X-12743012Y22244965D01*
X-12729489Y22242984D01*
X-12655510Y22233476D01*
X-12525227Y22217446D01*
X-12343600Y22195483D01*
X-12115590Y22168176D01*
X-11846158Y22136115D01*
X-11540262Y22099889D01*
X-11202863Y22060087D01*
X-10838922Y22017300D01*
X-10453398Y21972115D01*
X-10051251Y21925124D01*
X-9875915Y21904658D01*
X-9479091Y21858287D01*
X-9100381Y21813957D01*
X-8744824Y21772265D01*
X-8417459Y21733803D01*
X-8123327Y21699165D01*
X-7867466Y21668946D01*
X-7654918Y21643739D01*
X-7490721Y21624138D01*
X-7379915Y21610738D01*
X-7327541Y21604132D01*
X-7290845Y21599366D01*
X-7219923Y21593026D01*
X-7191754Y21595252D01*
X-7192107Y21597918D01*
X-7203175Y21641325D01*
X-7224931Y21717021D01*
X-7239952Y21780405D01*
X-7263061Y21922629D01*
X-7274574Y22017661D01*
X-3166094Y22017661D01*
X-3022320Y21876558D01*
X-2878547Y21735455D01*
X-2878547Y26075271D01*
X-3022320Y25934168D01*
X-3166094Y25793065D01*
X-3166094Y22017661D01*
X-7274574Y22017661D01*
X-7280703Y22068256D01*
X-6872258Y22068256D01*
X-3389742Y22068256D01*
X-3389742Y25742470D01*
X-6872258Y25742470D01*
X-6872258Y22068256D01*
X-7280703Y22068256D01*
X-7286083Y22112664D01*
X-7308197Y22340854D01*
X-7328585Y22597546D01*
X-7346429Y22873086D01*
X-7360909Y23157819D01*
X-7371208Y23442093D01*
X-7376361Y23752526D01*
X-7375844Y23900990D01*
X-7143363Y23900990D01*
X-7141940Y23670763D01*
X-7132341Y23466055D01*
X-7126213Y23387545D01*
X-7118933Y23304655D01*
X-7113517Y23264321D01*
X-7109694Y23270100D01*
X-7107194Y23325549D01*
X-7105744Y23434225D01*
X-7105073Y23599686D01*
X-7104910Y23825489D01*
X-7104978Y23985190D01*
X-7105456Y24169735D01*
X-7106625Y24296347D01*
X-7108756Y24368584D01*
X-7112122Y24390003D01*
X-7116994Y24364161D01*
X-7123643Y24294615D01*
X-7132341Y24184923D01*
X-7136612Y24118883D01*
X-7143363Y23900990D01*
X-7375844Y23900990D01*
X-7375178Y24092264D01*
X-7367918Y24439384D01*
X-7355126Y24782017D01*
X-7337347Y25108292D01*
X-7315128Y25406338D01*
X-7289015Y25664288D01*
X-7259553Y25870269D01*
X-7240575Y25980220D01*
X-7221116Y26098522D01*
X-7208825Y26180431D01*
X-7205781Y26212699D01*
X-7214994Y26212224D01*
X-7278001Y26205918D01*
X-7395964Y26193089D01*
X-7563330Y26174385D01*
X-7774543Y26150455D01*
X-8024051Y26121948D01*
X-8306299Y26089513D01*
X-8615734Y26053799D01*
X-8946801Y26015454D01*
X-9293948Y25975128D01*
X-9651619Y25933469D01*
X-10014261Y25891126D01*
X-10376321Y25848748D01*
X-10732244Y25806984D01*
X-11076476Y25766483D01*
X-11403464Y25727893D01*
X-11707654Y25691863D01*
X-11983492Y25659043D01*
X-12225423Y25630081D01*
X-12427895Y25605626D01*
X-12585353Y25586326D01*
X-12692243Y25572832D01*
X-12743012Y25565790D01*
X-12846849Y25547877D01*
X-12846849Y22262850D01*
X-13070497Y22262850D01*
X-13070497Y25550772D01*
X-13869239Y25550772D01*
X-13869239Y22259954D01*
X-14076912Y22259954D01*
X-14076912Y25758445D01*
X-13437918Y25775825D01*
X-13384378Y25777421D01*
X-13261272Y25782240D01*
X-13131030Y25789138D01*
X-12988962Y25798595D01*
X-12830379Y25811093D01*
X-12650590Y25827112D01*
X-12444906Y25847132D01*
X-12208635Y25871633D01*
X-11937089Y25901096D01*
X-11625577Y25936002D01*
X-11269409Y25976830D01*
X-10863895Y26024062D01*
X-10404346Y26078178D01*
X-9886070Y26139657D01*
X-9837296Y26145455D01*
X-9413848Y26195488D01*
X-9008495Y26242858D01*
X-8625772Y26287063D01*
X-8270211Y26327604D01*
X-7946348Y26363980D01*
X-7658716Y26395690D01*
X-7411851Y26422234D01*
X-7210286Y26443111D01*
X-7058556Y26457822D01*
X-6961195Y26465865D01*
X-6922737Y26466739D01*
X-6905924Y26456107D01*
X-6885586Y26415647D01*
X-6875181Y26336734D01*
X-6872258Y26206743D01*
X-6872258Y25966118D01*
X-3343320Y25966118D01*
X-3110933Y26196953D01*
X-2878547Y26427789D01*
X-2878547Y27960326D01*
X-2628945Y27960326D01*
X-2623726Y27566695D01*
X-2607315Y27188391D01*
X-2579712Y26841277D01*
X-2540917Y26541212D01*
X-2535701Y26510701D01*
X-2500256Y26334703D01*
X-2449665Y26115873D01*
X-2439496Y26075271D01*
X-2387829Y25868971D01*
X-2318649Y25608754D01*
X-2246026Y25349981D01*
X-2173859Y25107412D01*
X-2106050Y24895803D01*
X-2084282Y24833100D01*
X-2047425Y24734628D01*
X-2003882Y24627396D01*
X-1952246Y24508816D01*
X-1891112Y24376301D01*
X-1819075Y24227267D01*
X-1734727Y24059126D01*
X-1636664Y23869293D01*
X-1523480Y23655180D01*
X-1393769Y23414202D01*
X-1246125Y23143772D01*
X-1079142Y22841305D01*
X-891414Y22504213D01*
X-681536Y22129911D01*
X-448102Y21715812D01*
X-320071Y21489632D01*
X-189706Y21259330D01*
X95059Y20757878D01*
X407596Y20208871D01*
X749314Y19609722D01*
X1121616Y18957845D01*
X1195307Y18828890D01*
X1525269Y18251556D01*
X1825461Y17726520D01*
X2097448Y17251136D01*
X2342795Y16822761D01*
X2563065Y16438748D01*
X2759824Y16096453D01*
X2934635Y15793230D01*
X3089063Y15526434D01*
X3224672Y15293421D01*
X3343027Y15091544D01*
X3445692Y14918159D01*
X3534231Y14770620D01*
X3610209Y14646283D01*
X3675190Y14542503D01*
X3730739Y14456633D01*
X3778419Y14386029D01*
X3819796Y14328047D01*
X3856434Y14280040D01*
X3889896Y14239363D01*
X3921748Y14203372D01*
X3953554Y14169422D01*
X4041244Y14080125D01*
X4341685Y13813381D01*
X4655313Y13598386D01*
X4996978Y13425964D01*
X5381531Y13286935D01*
X5455454Y13265539D01*
X5626329Y13222821D01*
X5791488Y13189268D01*
X5923592Y13170738D01*
X6043337Y13160280D01*
X6161704Y13149440D01*
X6243088Y13141424D01*
X6409029Y13137769D01*
X6633013Y13159072D01*
X6885917Y13203551D01*
X7153280Y13267695D01*
X7420641Y13347996D01*
X7673539Y13440942D01*
X7897513Y13543024D01*
X7981830Y13588514D01*
X8079931Y13649341D01*
X8177453Y13721508D01*
X8285358Y13813932D01*
X8414610Y13935536D01*
X8576169Y14095238D01*
X8992269Y14512156D01*
X11083877Y18202344D01*
X11337177Y18649238D01*
X11604219Y19120380D01*
X11868484Y19586625D01*
X12127360Y20043365D01*
X12378234Y20485990D01*
X12618496Y20909893D01*
X12845532Y21310465D01*
X13056731Y21683098D01*
X13249481Y22023183D01*
X13421170Y22326111D01*
X13569186Y22587274D01*
X13690916Y22802064D01*
X13783749Y22965871D01*
X13807077Y23007090D01*
X14042739Y23431023D01*
X14245335Y23811541D01*
X14418411Y24156644D01*
X14565513Y24474329D01*
X14690184Y24772595D01*
X14795972Y25059439D01*
X14886420Y25342860D01*
X14965075Y25630855D01*
X15108088Y26269810D01*
X15214258Y26940957D01*
X15268427Y27595551D01*
X15270593Y28244330D01*
X15220756Y28898029D01*
X15118917Y29567388D01*
X14965075Y30263142D01*
X14958278Y30289884D01*
X14878691Y30577129D01*
X14786987Y30860530D01*
X14679620Y31148086D01*
X14553044Y31447796D01*
X14403714Y31767657D01*
X14228086Y32115666D01*
X14022612Y32499823D01*
X13783749Y32928126D01*
X13696499Y33082083D01*
X13576212Y33294326D01*
X13429503Y33553183D01*
X13258986Y33854045D01*
X13067270Y34192304D01*
X12856969Y34563352D01*
X12630695Y34962580D01*
X12391059Y35385380D01*
X12140674Y35827142D01*
X11882151Y36283259D01*
X11618102Y36749122D01*
X11351141Y37220123D01*
X11083877Y37691652D01*
X8992269Y41381841D01*
X8576169Y41798759D01*
X8479764Y41894071D01*
X8285066Y42074954D01*
X8107661Y42218136D01*
X7932725Y42332688D01*
X7745435Y42427682D01*
X7530966Y42512187D01*
X7274495Y42595276D01*
X7153620Y42629676D01*
X6701592Y42719387D01*
X6255948Y42745599D01*
X5816118Y42708317D01*
X5381531Y42607544D01*
X5263355Y42569503D01*
X4892502Y42421133D01*
X4560608Y42237053D01*
X4252638Y42007967D01*
X3953554Y41724575D01*
X3946758Y41717439D01*
X3915073Y41683277D01*
X3883011Y41646516D01*
X3849008Y41604511D01*
X3811499Y41554617D01*
X3768921Y41494187D01*
X3719708Y41420578D01*
X3662296Y41331143D01*
X3595121Y41223239D01*
X3516619Y41094219D01*
X3425225Y40941439D01*
X3319374Y40762253D01*
X3197503Y40554016D01*
X3058048Y40314083D01*
X2899442Y40039810D01*
X2720123Y39728550D01*
X2518526Y39377659D01*
X2293087Y38984491D01*
X2042240Y38546402D01*
X1764423Y38060745D01*
X1458070Y37524877D01*
X1121616Y36936152D01*
X867352Y36491037D01*
X515811Y35874969D01*
X193907Y35309886D01*
X-99764Y34793204D01*
X-366609Y34322334D01*
X-367384Y34320961D01*
X-608033Y33894691D01*
X-825442Y33507689D01*
X-1020242Y33158741D01*
X-1193838Y32845261D01*
X-1347638Y32564663D01*
X-1483045Y32314361D01*
X-1601467Y32091767D01*
X-1704309Y31894296D01*
X-1792976Y31719362D01*
X-1868876Y31564378D01*
X-1933413Y31426759D01*
X-1987993Y31303916D01*
X-2034022Y31193266D01*
X-2072906Y31092220D01*
X-2106050Y30998193D01*
X-2119916Y30956507D01*
X-2188978Y30737076D01*
X-2261569Y30489824D01*
X-2333786Y30229508D01*
X-2401730Y29970888D01*
X-2461501Y29728722D01*
X-2509196Y29517768D01*
X-2540917Y29352785D01*
X-2577452Y29074571D01*
X-2605808Y28730126D01*
X-2622973Y28353423D01*
X-2628945Y27960326D01*
X-2878547Y27960326D01*
X-2878547Y29367257D01*
X-3109382Y29599643D01*
X-3340218Y29832030D01*
X-6872258Y29832030D01*
X-6872258Y29575430D01*
X-6873692Y29467665D01*
X-6881081Y29374077D01*
X-6896852Y29322110D01*
X-6923321Y29299235D01*
X-6925086Y29298897D01*
X-6972428Y29301001D01*
X-7077997Y29310468D01*
X-7237273Y29326779D01*
X-7445737Y29349415D01*
X-7698869Y29377856D01*
X-7992151Y29411585D01*
X-8321063Y29450082D01*
X-8681086Y29492828D01*
X-9067701Y29539304D01*
X-9476388Y29588991D01*
X-9902629Y29641370D01*
X-10177496Y29675284D01*
X-10665551Y29735229D01*
X-11097255Y29787801D01*
X-11477248Y29833495D01*
X-11810171Y29872808D01*
X-12100663Y29906236D01*
X-12353364Y29934277D01*
X-12572915Y29957425D01*
X-12763955Y29976179D01*
X-12931124Y29991034D01*
X-13079062Y30002487D01*
X-13212410Y30011035D01*
X-13335807Y30017175D01*
X-13453893Y30021401D01*
X-14076912Y30039703D01*
X-14076912Y30247376D01*
X-13869239Y30247376D01*
X-13102446Y30247376D01*
X-13102446Y30250271D01*
X-12878798Y30250271D01*
X-12862281Y30247376D01*
X-12774962Y30232071D01*
X-12758363Y30229609D01*
X-12680532Y30219319D01*
X-12546711Y30202278D01*
X-12361825Y30179094D01*
X-12130794Y30150373D01*
X-11858542Y30116725D01*
X-11549991Y30078756D01*
X-11210064Y30037074D01*
X-10843683Y29992288D01*
X-10455771Y29945004D01*
X-10051251Y29895831D01*
X-9841940Y29870404D01*
X-9445326Y29822127D01*
X-9067847Y29776053D01*
X-8714423Y29732790D01*
X-8389979Y29692945D01*
X-8099437Y29657127D01*
X-7847718Y29625942D01*
X-7639747Y29599999D01*
X-7480445Y29579904D01*
X-7374736Y29566265D01*
X-7327541Y29559689D01*
X-7323463Y29558998D01*
X-7251418Y29555919D01*
X-7223704Y29574290D01*
X-7223824Y29576879D01*
X-7230516Y29627350D01*
X-7245962Y29725852D01*
X-7268069Y29859410D01*
X-7287504Y29972797D01*
X-3166094Y29972797D01*
X-3038295Y29848005D01*
X-2910497Y29723213D01*
X-2910497Y33505868D01*
X-2649779Y33505868D01*
X-2649688Y33217068D01*
X-2649223Y32898535D01*
X-2648377Y32555555D01*
X-2647141Y32193414D01*
X-2638924Y30071652D01*
X-2566410Y30311275D01*
X-2551098Y30361711D01*
X-2450912Y30682368D01*
X-2353355Y30974865D01*
X-2254313Y31248312D01*
X-2149669Y31511821D01*
X-2035308Y31774504D01*
X-1907114Y32045472D01*
X-1760971Y32333836D01*
X-1592764Y32648708D01*
X-1398376Y32999199D01*
X-1173692Y33394420D01*
X-642372Y34320961D01*
X-1637524Y34329410D01*
X-1756660Y34330340D01*
X-1992970Y34331673D01*
X-2204287Y34332188D01*
X-2382831Y34331908D01*
X-2520821Y34330855D01*
X-2610476Y34329051D01*
X-2644017Y34326518D01*
X-2644898Y34318842D01*
X-2646559Y34258005D01*
X-2647886Y34141002D01*
X-2648534Y34030407D01*
X-2648870Y33973121D01*
X-2649504Y33759647D01*
X-2649779Y33505868D01*
X-2910497Y33505868D01*
X-2910497Y34030407D01*
X-3038295Y33905615D01*
X-3166094Y33780823D01*
X-3166094Y29972797D01*
X-7287504Y29972797D01*
X-7294746Y30015046D01*
X-7301607Y30055678D01*
X-6872258Y30055678D01*
X-3389742Y30055678D01*
X-3389742Y33729891D01*
X-6872258Y33729891D01*
X-6872258Y30055678D01*
X-7301607Y30055678D01*
X-7310065Y30105762D01*
X-7325401Y30207779D01*
X-7337647Y30309415D01*
X-7347142Y30418703D01*
X-7354227Y30543680D01*
X-7359240Y30692380D01*
X-7362523Y30872838D01*
X-7364415Y31093089D01*
X-7365255Y31361169D01*
X-7365327Y31541338D01*
X-7154053Y31541338D01*
X-7153633Y31416478D01*
X-7150651Y31230410D01*
X-7145290Y31065132D01*
X-7138063Y30935013D01*
X-7129486Y30854420D01*
X-7127480Y30845431D01*
X-7120857Y30852681D01*
X-7115219Y30918529D01*
X-7110689Y31038837D01*
X-7107389Y31209463D01*
X-7105440Y31426268D01*
X-7104966Y31685112D01*
X-7105225Y31818364D01*
X-7106551Y32065965D01*
X-7108938Y32250593D01*
X-7112407Y32372882D01*
X-7116981Y32433462D01*
X-7122682Y32432968D01*
X-7129534Y32372030D01*
X-7133762Y32311714D01*
X-7141513Y32152750D01*
X-7147855Y31958604D01*
X-7152224Y31748420D01*
X-7154053Y31541338D01*
X-7365327Y31541338D01*
X-7365384Y31685112D01*
X-7365299Y31768158D01*
X-7362322Y32227874D01*
X-7354814Y32632543D01*
X-7342373Y32989635D01*
X-7324592Y33306619D01*
X-7301069Y33590966D01*
X-7271400Y33850145D01*
X-7235179Y34091628D01*
X-7214596Y34213741D01*
X-7322987Y34194785D01*
X-7339853Y34192276D01*
X-7418276Y34181884D01*
X-7552681Y34164742D01*
X-7738136Y34141462D01*
X-7969705Y34112651D01*
X-8242456Y34078920D01*
X-8551454Y34040878D01*
X-8891767Y33999135D01*
X-9258460Y33954299D01*
X-9646599Y33906980D01*
X-10051251Y33857789D01*
X-10260560Y33832362D01*
X-10657174Y33784082D01*
X-11034654Y33738004D01*
X-11388078Y33694734D01*
X-11712522Y33654882D01*
X-12003065Y33619053D01*
X-12254784Y33587857D01*
X-12462755Y33561901D01*
X-12622057Y33541793D01*
X-12727767Y33528139D01*
X-12774962Y33521549D01*
X-12878798Y33503348D01*
X-12878798Y30250271D01*
X-13102446Y30250271D01*
X-13102446Y33506244D01*
X-13869239Y33506244D01*
X-13869239Y30247376D01*
X-14076912Y30247376D01*
X-14076912Y33713917D01*
X-13453893Y33732218D01*
X-13393451Y33734187D01*
X-13273209Y33739337D01*
X-13145267Y33746654D01*
X-13004984Y33756637D01*
X-12847721Y33769780D01*
X-12668837Y33786581D01*
X-12463693Y33807536D01*
X-12227648Y33833142D01*
X-11956063Y33863896D01*
X-11644297Y33900293D01*
X-11287711Y33942830D01*
X-10881664Y33992004D01*
X-10421517Y34048312D01*
X-9902629Y34112249D01*
X-9839788Y34120006D01*
X-9415816Y34172027D01*
X-9010055Y34221279D01*
X-8627023Y34267246D01*
X-8271239Y34309406D01*
X-7947223Y34347243D01*
X-7659494Y34380236D01*
X-7412570Y34407866D01*
X-7210972Y34429615D01*
X-7059218Y34444964D01*
X-6961828Y34453394D01*
X-6923321Y34454385D01*
X-6905552Y34443059D01*
X-6885381Y34402476D01*
X-6875120Y34323777D01*
X-6872690Y34213741D01*
X-6872258Y34194165D01*
X-6872258Y33953539D01*
X-3340218Y33953539D01*
X-3112188Y34185174D01*
X-3048270Y34252186D01*
X-2961210Y34351233D01*
X-2899287Y34431703D01*
X-2872935Y34480709D01*
X-2872003Y34485554D01*
X-2865927Y34501226D01*
X-2851032Y34513934D01*
X-2821198Y34524053D01*
X-2770305Y34531959D01*
X-2692234Y34538029D01*
X-2580865Y34542637D01*
X-2430077Y34546160D01*
X-2233751Y34548974D01*
X-1985766Y34551454D01*
X-1680004Y34553977D01*
X-498295Y34563345D01*
X1481271Y38036492D01*
X1710948Y38439075D01*
X1954609Y38865314D01*
X2189358Y39275091D01*
X2413137Y39664850D01*
X2623887Y40031038D01*
X2819550Y40370099D01*
X2998068Y40678478D01*
X3157384Y40952621D01*
X3295438Y41188972D01*
X3410172Y41383977D01*
X3499528Y41534080D01*
X3561449Y41635727D01*
X3593875Y41685363D01*
X3621540Y41720427D01*
X3747298Y41860023D01*
X3910035Y42018961D01*
X4096932Y42185154D01*
X4295167Y42346516D01*
X4313631Y42360591D01*
X4528019Y42498568D01*
X4788694Y42629956D01*
X5079661Y42748809D01*
X5384924Y42849183D01*
X5688487Y42925130D01*
X5974356Y42970706D01*
X6129156Y42982437D01*
X6527398Y42976264D01*
X6935517Y42922761D01*
X7340159Y42825575D01*
X7727972Y42688351D01*
X8085601Y42514738D01*
X8399693Y42308381D01*
X8422138Y42290784D01*
X8568766Y42163616D01*
X8729786Y42007114D01*
X8892421Y41835228D01*
X9043893Y41661908D01*
X9171425Y41501103D01*
X9262238Y41366762D01*
X9303678Y41295302D01*
X9376466Y41168625D01*
X9474331Y40997569D01*
X9594809Y40786477D01*
X9735436Y40539695D01*
X9893749Y40261567D01*
X10067285Y39956438D01*
X10253580Y39628653D01*
X10450171Y39282556D01*
X10654594Y38922492D01*
X10864386Y38552806D01*
X11077083Y38177842D01*
X11290222Y37801946D01*
X11501339Y37429462D01*
X11707971Y37064734D01*
X11907655Y36712107D01*
X12097926Y36375927D01*
X12276323Y36060537D01*
X12440380Y35770283D01*
X12587635Y35509509D01*
X12715624Y35282560D01*
X12821884Y35093781D01*
X12903951Y34947516D01*
X12959361Y34848110D01*
X12985653Y34799908D01*
X13034736Y34701041D01*
X13086763Y34588013D01*
X13120778Y34504373D01*
X13124591Y34493877D01*
X13157315Y34427832D01*
X13186884Y34400835D01*
X13190666Y34399168D01*
X13222385Y34361520D01*
X13274278Y34284478D01*
X13338279Y34181611D01*
X13406320Y34066488D01*
X13470335Y33952680D01*
X13522255Y33853756D01*
X13554015Y33783285D01*
X13574122Y33741398D01*
X13622074Y33657584D01*
X13683455Y33559638D01*
X13741328Y33467514D01*
X13829124Y33321509D01*
X13934236Y33142366D01*
X14049689Y32942271D01*
X14168509Y32733408D01*
X14283720Y32527962D01*
X14388349Y32338118D01*
X14475420Y32176060D01*
X14541460Y32046785D01*
X14647510Y31825005D01*
X14751653Y31592116D01*
X14846705Y31364913D01*
X14925481Y31160191D01*
X14980794Y30994744D01*
X15009867Y30901400D01*
X15045638Y30799189D01*
X15073230Y30733994D01*
X15095838Y30682054D01*
X15136481Y30556314D01*
X15182610Y30383212D01*
X15232199Y30172382D01*
X15283222Y29933459D01*
X15333652Y29676076D01*
X15381464Y29409869D01*
X15424631Y29144470D01*
X15461128Y28889514D01*
X15478375Y28743539D01*
X15505293Y28416133D01*
X15512476Y28244330D01*
X15519556Y28075011D01*
X15520913Y27739207D01*
G37*
%TD*%
%LPC*%
D13*
%TO.C,R1*%
X56138000Y24003000D03*
D14*
X48518000Y24003000D03*
%TD*%
D15*
%TO.C,SW1*%
X39196200Y36449000D03*
D16*
X34196200Y36449000D03*
X36696200Y36449000D03*
D17*
X31096200Y28949000D03*
X42296200Y28949000D03*
D16*
X39196200Y21949000D03*
X34196200Y21949000D03*
%TD*%
D13*
%TO.C,C1*%
X23753000Y29235400D03*
X23753000Y31735400D03*
%TD*%
D18*
%TO.C,Q1*%
X52806600Y45997000D03*
D19*
X50266600Y29337000D03*
D20*
X52806600Y29337000D03*
X55346600Y29337000D03*
%TD*%
D21*
%TO.C,J1*%
X23876000Y20574000D03*
X23876000Y18034000D03*
X23876000Y15494000D03*
%TD*%
D22*
%TO.C,D1*%
X45343000Y10642600D03*
D23*
X45343000Y18262600D03*
%TD*%
D24*
%TO.C,R2*%
X20832000Y40005000D03*
X23372000Y45085000D03*
X25912000Y40005000D03*
%TD*%
D25*
%TO.C,M1*%
X62234000Y23368000D03*
X62234000Y18288000D03*
%TD*%
D26*
%TO.C,U1*%
X13970000Y2540000D03*
X66040000Y7620000D03*
X15240000Y50800000D03*
X66040000Y35560000D03*
D27*
X27940000Y2540000D03*
D14*
X30480000Y2540000D03*
X33020000Y2540000D03*
X35560000Y2540000D03*
X38100000Y2540000D03*
X40640000Y2540000D03*
X43180000Y2540000D03*
X45720000Y2540000D03*
X50800000Y2540000D03*
X53340000Y2540000D03*
X55880000Y2540000D03*
X58420000Y2540000D03*
X60960000Y2540000D03*
X63500000Y2540000D03*
X63500000Y50800000D03*
X60960000Y50800000D03*
X58420000Y50800000D03*
X55880000Y50800000D03*
X53340000Y50800000D03*
X50800000Y50800000D03*
X48260000Y50800000D03*
X45720000Y50800000D03*
X41660000Y50800000D03*
X39120000Y50800000D03*
X36580000Y50800000D03*
X34040000Y50800000D03*
X31500000Y50800000D03*
X28960000Y50800000D03*
X26420000Y50800000D03*
X23880000Y50800000D03*
X21340000Y50800000D03*
X18800000Y50800000D03*
%TD*%
D25*
%TO.C,U2*%
X6303200Y16408400D03*
X6303200Y39497000D03*
D28*
X17149000Y34239200D03*
D29*
X17149000Y31699200D03*
X17149000Y29159200D03*
X17149000Y26619200D03*
X17149000Y24079200D03*
X17149000Y21539200D03*
%TD*%
M02*
