%TF.GenerationSoftware,KiCad,Pcbnew,6.0.1-79c1e3a40b~116~ubuntu20.04.1*%
%TF.CreationDate,2022-01-29T19:32:23-05:00*%
%TF.ProjectId,Protogasm-Board-V2,50726f74-6f67-4617-936d-2d426f617264,rev?*%
%TF.SameCoordinates,Original*%
%TF.FileFunction,Copper,L2,Bot*%
%TF.FilePolarity,Positive*%
%FSLAX46Y46*%
G04 Gerber Fmt 4.6, Leading zero omitted, Abs format (unit mm)*
G04 Created by KiCad (PCBNEW 6.0.1-79c1e3a40b~116~ubuntu20.04.1) date 2022-01-29 19:32:23*
%MOMM*%
%LPD*%
G01*
G04 APERTURE LIST*
%TA.AperFunction,ComponentPad*%
%ADD10C,1.600000*%
%TD*%
%TA.AperFunction,ComponentPad*%
%ADD11O,1.600000X1.600000*%
%TD*%
%TA.AperFunction,ComponentPad*%
%ADD12R,2.000000X2.000000*%
%TD*%
%TA.AperFunction,ComponentPad*%
%ADD13C,2.000000*%
%TD*%
%TA.AperFunction,ComponentPad*%
%ADD14R,2.500000X3.000000*%
%TD*%
%TA.AperFunction,ComponentPad*%
%ADD15R,1.905000X2.000000*%
%TD*%
%TA.AperFunction,ComponentPad*%
%ADD16O,1.905000X2.000000*%
%TD*%
%TA.AperFunction,ComponentPad*%
%ADD17C,2.159000*%
%TD*%
%TA.AperFunction,ComponentPad*%
%ADD18R,1.800000X1.800000*%
%TD*%
%TA.AperFunction,ComponentPad*%
%ADD19O,1.800000X1.800000*%
%TD*%
%TA.AperFunction,ComponentPad*%
%ADD20C,1.524000*%
%TD*%
%TA.AperFunction,ComponentPad*%
%ADD21C,2.540000*%
%TD*%
%TA.AperFunction,ComponentPad*%
%ADD22R,1.600000X1.600000*%
%TD*%
%TA.AperFunction,ComponentPad*%
%ADD23R,1.981200X1.981200*%
%TD*%
%TA.AperFunction,ComponentPad*%
%ADD24C,1.981200*%
%TD*%
%TA.AperFunction,ViaPad*%
%ADD25C,0.800000*%
%TD*%
%TA.AperFunction,Conductor*%
%ADD26C,0.381000*%
%TD*%
%TA.AperFunction,Conductor*%
%ADD27C,0.250000*%
%TD*%
G04 APERTURE END LIST*
D10*
%TO.P,R1,1*%
%TO.N,Net-(Q1-Pad1)*%
X165358000Y-100457000D03*
D11*
%TO.P,R1,2*%
%TO.N,GND*%
X157738000Y-100457000D03*
%TD*%
D12*
%TO.P,SW1,A,A*%
%TO.N,Net-(SW1-PadA)*%
X148416200Y-88011000D03*
D13*
%TO.P,SW1,B,B*%
%TO.N,Net-(SW1-PadB)*%
X143416200Y-88011000D03*
%TO.P,SW1,C,C*%
%TO.N,GND*%
X145916200Y-88011000D03*
D14*
%TO.P,SW1,MP*%
%TO.N,N/C*%
X140316200Y-95511000D03*
X151516200Y-95511000D03*
D13*
%TO.P,SW1,S1,S1*%
%TO.N,GND*%
X148416200Y-102511000D03*
%TO.P,SW1,S2,S2*%
%TO.N,Net-(SW1-PadS2)*%
X143416200Y-102511000D03*
%TD*%
D10*
%TO.P,C1,1*%
%TO.N,+5V*%
X132973000Y-95224600D03*
%TO.P,C1,2*%
%TO.N,GND*%
X132973000Y-92724600D03*
%TD*%
D15*
%TO.P,Q1,1,G*%
%TO.N,Net-(Q1-Pad1)*%
X159486600Y-95123000D03*
D16*
%TO.P,Q1,2,D*%
%TO.N,Net-(D1-Pad2)*%
X162026600Y-95123000D03*
%TO.P,Q1,3,S*%
%TO.N,GND*%
X164566600Y-95123000D03*
%TD*%
D17*
%TO.P,J1,1,+5V*%
%TO.N,+5V*%
X133096000Y-103886000D03*
%TO.P,J1,2,Data_Input*%
%TO.N,Net-(J1-Pad2)*%
X133096000Y-106426000D03*
%TO.P,J1,3,GND*%
%TO.N,GND*%
X133096000Y-108966000D03*
%TD*%
D18*
%TO.P,D1,1,K*%
%TO.N,+12V*%
X154563000Y-113817400D03*
D19*
%TO.P,D1,2,A*%
%TO.N,Net-(D1-Pad2)*%
X154563000Y-106197400D03*
%TD*%
D20*
%TO.P,R2,1,1*%
%TO.N,+5V*%
X130052000Y-84455000D03*
%TO.P,R2,2,2*%
%TO.N,Net-(R2-Pad2)*%
X132592000Y-79375000D03*
%TO.P,R2,3,3*%
%TO.N,GND*%
X135132000Y-84455000D03*
%TD*%
D21*
%TO.P,M1,1,+*%
%TO.N,+12V*%
X171454000Y-101092000D03*
%TO.P,M1,2,-*%
%TO.N,Net-(D1-Pad2)*%
X171454000Y-106172000D03*
%TD*%
D22*
%TO.P,U1,1,NC*%
%TO.N,unconnected-(U1-Pad1)*%
X137160000Y-121920000D03*
D11*
%TO.P,U1,2,IOREF*%
%TO.N,unconnected-(U1-Pad2)*%
X139700000Y-121920000D03*
%TO.P,U1,3,~{RESET}*%
%TO.N,unconnected-(U1-Pad3)*%
X142240000Y-121920000D03*
%TO.P,U1,4,3V3*%
%TO.N,unconnected-(U1-Pad4)*%
X144780000Y-121920000D03*
%TO.P,U1,5,+5V*%
%TO.N,+5V*%
X147320000Y-121920000D03*
%TO.P,U1,6,GND*%
%TO.N,unconnected-(U1-Pad6)*%
X149860000Y-121920000D03*
%TO.P,U1,7,GND*%
%TO.N,unconnected-(U1-Pad7)*%
X152400000Y-121920000D03*
%TO.P,U1,8,VIN*%
%TO.N,+12V*%
X154940000Y-121920000D03*
%TO.P,U1,9,A0*%
%TO.N,Net-(U1-Pad9)*%
X160020000Y-121920000D03*
%TO.P,U1,10,A1*%
%TO.N,unconnected-(U1-Pad10)*%
X162560000Y-121920000D03*
%TO.P,U1,11,A2*%
%TO.N,unconnected-(U1-Pad11)*%
X165100000Y-121920000D03*
%TO.P,U1,12,A3*%
%TO.N,unconnected-(U1-Pad12)*%
X167640000Y-121920000D03*
%TO.P,U1,13,SDA/A4*%
%TO.N,unconnected-(U1-Pad13)*%
X170180000Y-121920000D03*
%TO.P,U1,14,SCL/A5*%
%TO.N,unconnected-(U1-Pad14)*%
X172720000Y-121920000D03*
%TO.P,U1,15,D0/RX*%
%TO.N,unconnected-(U1-Pad15)*%
X172720000Y-73660000D03*
%TO.P,U1,16,D1/TX*%
%TO.N,unconnected-(U1-Pad16)*%
X170180000Y-73660000D03*
%TO.P,U1,17,D2*%
%TO.N,Net-(SW1-PadA)*%
X167640000Y-73660000D03*
%TO.P,U1,18,D3*%
%TO.N,Net-(SW1-PadB)*%
X165100000Y-73660000D03*
%TO.P,U1,19,D4*%
%TO.N,unconnected-(U1-Pad19)*%
X162560000Y-73660000D03*
%TO.P,U1,20,D5*%
%TO.N,Net-(SW1-PadS2)*%
X160020000Y-73660000D03*
%TO.P,U1,21,D6*%
%TO.N,unconnected-(U1-Pad21)*%
X157480000Y-73660000D03*
%TO.P,U1,22,D7*%
%TO.N,unconnected-(U1-Pad22)*%
X154940000Y-73660000D03*
%TO.P,U1,23,D8*%
%TO.N,unconnected-(U1-Pad23)*%
X150880000Y-73660000D03*
%TO.P,U1,24,D9*%
%TO.N,Net-(Q1-Pad1)*%
X148340000Y-73660000D03*
%TO.P,U1,25,D10*%
%TO.N,Net-(J1-Pad2)*%
X145800000Y-73660000D03*
%TO.P,U1,26,D11*%
%TO.N,unconnected-(U1-Pad26)*%
X143260000Y-73660000D03*
%TO.P,U1,27,D12*%
%TO.N,unconnected-(U1-Pad27)*%
X140720000Y-73660000D03*
%TO.P,U1,28,D13*%
%TO.N,unconnected-(U1-Pad28)*%
X138180000Y-73660000D03*
%TO.P,U1,29,GND*%
%TO.N,GND*%
X135640000Y-73660000D03*
%TO.P,U1,30,AREF*%
%TO.N,Net-(R2-Pad2)*%
X133100000Y-73660000D03*
%TO.P,U1,31,SDA/A4*%
%TO.N,unconnected-(U1-Pad31)*%
X130560000Y-73660000D03*
%TO.P,U1,32,SCL/A5*%
%TO.N,unconnected-(U1-Pad32)*%
X128020000Y-73660000D03*
%TD*%
D23*
%TO.P,U2,1,Vout*%
%TO.N,Net-(U1-Pad9)*%
X126369000Y-90220800D03*
D24*
%TO.P,U2,2,GND*%
%TO.N,GND*%
X126369000Y-92760800D03*
%TO.P,U2,3,VCC*%
%TO.N,+5V*%
X126369000Y-95300800D03*
%TO.P,U2,4,V1*%
%TO.N,unconnected-(U2-Pad4)*%
X126369000Y-97840800D03*
%TO.P,U2,5,V2*%
%TO.N,unconnected-(U2-Pad5)*%
X126369000Y-100380800D03*
%TO.P,U2,6,V_Ex*%
%TO.N,unconnected-(U2-Pad6)*%
X126369000Y-102920800D03*
%TD*%
D25*
%TO.N,Net-(SW1-PadS2)*%
X142240000Y-76924511D03*
%TO.N,Net-(U1-Pad9)*%
X129540000Y-119380000D03*
%TD*%
D26*
%TO.N,+5V*%
X131318000Y-105664000D02*
X131318000Y-109474000D01*
X131318000Y-109474000D02*
X142240000Y-120396000D01*
X133096000Y-103886000D02*
X131318000Y-105664000D01*
X132973000Y-95224600D02*
X130052000Y-92303600D01*
X145796000Y-120396000D02*
X147320000Y-121920000D01*
X142240000Y-120396000D02*
X145796000Y-120396000D01*
X130052000Y-92303600D02*
X130052000Y-84455000D01*
%TO.N,GND*%
X135640000Y-83947000D02*
X135132000Y-84455000D01*
X135132000Y-90565600D02*
X132973000Y-92724600D01*
X135640000Y-73660000D02*
X135640000Y-83947000D01*
X135132000Y-84455000D02*
X135132000Y-90565600D01*
%TO.N,+12V*%
X154940000Y-121920000D02*
X154940000Y-114194400D01*
X154940000Y-114194400D02*
X154563000Y-113817400D01*
X158728600Y-113817400D02*
X171454000Y-101092000D01*
X154563000Y-113817400D02*
X158728600Y-113817400D01*
D27*
%TO.N,Net-(D1-Pad2)*%
X154563000Y-106197400D02*
X162026600Y-98733800D01*
X162026600Y-98733800D02*
X162026600Y-95123000D01*
%TO.N,Net-(J1-Pad2)*%
X141374343Y-106426000D02*
X149740711Y-98059632D01*
X149740711Y-77600711D02*
X145800000Y-73660000D01*
X149740711Y-98059632D02*
X149740711Y-77600711D01*
X133096000Y-106426000D02*
X141374343Y-106426000D01*
%TO.N,Net-(Q1-Pad1)*%
X165358000Y-100457000D02*
X166157999Y-99657001D01*
X159486600Y-84806600D02*
X148340000Y-73660000D01*
X166157999Y-94783999D02*
X165118480Y-93744480D01*
X165118480Y-93744480D02*
X160865120Y-93744480D01*
X159486600Y-95123000D02*
X159486600Y-84806600D01*
X160865120Y-93744480D02*
X159486600Y-95123000D01*
X166157999Y-99657001D02*
X166157999Y-94783999D01*
%TO.N,Net-(R2-Pad2)*%
X133100000Y-78867000D02*
X132592000Y-79375000D01*
X133100000Y-73660000D02*
X133100000Y-78867000D01*
%TO.N,Net-(SW1-PadS2)*%
X142240000Y-76924511D02*
X142091689Y-76924511D01*
X143416200Y-102511000D02*
X142091689Y-101186489D01*
X142091689Y-101186489D02*
X142091689Y-76924511D01*
%TO.N,Net-(U1-Pad9)*%
X128778000Y-92629800D02*
X128778000Y-118618000D01*
X126369000Y-90220800D02*
X128778000Y-92629800D01*
X128778000Y-118618000D02*
X129540000Y-119380000D01*
%TD*%
M02*
