%TF.GenerationSoftware,KiCad,Pcbnew,6.0.1-79c1e3a40b~116~ubuntu20.04.1*%
%TF.CreationDate,2022-01-29T19:32:23-05:00*%
%TF.ProjectId,Protogasm-Board-V2,50726f74-6f67-4617-936d-2d426f617264,rev?*%
%TF.SameCoordinates,Original*%
%TF.FileFunction,Soldermask,Bot*%
%TF.FilePolarity,Negative*%
%FSLAX46Y46*%
G04 Gerber Fmt 4.6, Leading zero omitted, Abs format (unit mm)*
G04 Created by KiCad (PCBNEW 6.0.1-79c1e3a40b~116~ubuntu20.04.1) date 2022-01-29 19:32:23*
%MOMM*%
%LPD*%
G01*
G04 APERTURE LIST*
%ADD10C,1.600000*%
%ADD11O,1.600000X1.600000*%
%ADD12R,2.000000X2.000000*%
%ADD13C,2.000000*%
%ADD14R,2.500000X3.000000*%
%ADD15O,3.500000X3.500000*%
%ADD16R,1.905000X2.000000*%
%ADD17O,1.905000X2.000000*%
%ADD18C,2.159000*%
%ADD19R,1.800000X1.800000*%
%ADD20O,1.800000X1.800000*%
%ADD21C,1.524000*%
%ADD22C,2.540000*%
%ADD23C,3.200000*%
%ADD24R,1.600000X1.600000*%
%ADD25R,1.981200X1.981200*%
%ADD26C,1.981200*%
G04 APERTURE END LIST*
D10*
%TO.C,R1*%
X165358000Y-100457000D03*
D11*
X157738000Y-100457000D03*
%TD*%
D12*
%TO.C,SW1*%
X148416200Y-88011000D03*
D13*
X143416200Y-88011000D03*
X145916200Y-88011000D03*
D14*
X140316200Y-95511000D03*
X151516200Y-95511000D03*
D13*
X148416200Y-102511000D03*
X143416200Y-102511000D03*
%TD*%
D10*
%TO.C,C1*%
X132973000Y-95224600D03*
X132973000Y-92724600D03*
%TD*%
D15*
%TO.C,Q1*%
X162026600Y-78463000D03*
D16*
X159486600Y-95123000D03*
D17*
X162026600Y-95123000D03*
X164566600Y-95123000D03*
%TD*%
D18*
%TO.C,J1*%
X133096000Y-103886000D03*
X133096000Y-106426000D03*
X133096000Y-108966000D03*
%TD*%
D19*
%TO.C,D1*%
X154563000Y-113817400D03*
D20*
X154563000Y-106197400D03*
%TD*%
D21*
%TO.C,R2*%
X130052000Y-84455000D03*
X132592000Y-79375000D03*
X135132000Y-84455000D03*
%TD*%
D22*
%TO.C,M1*%
X171454000Y-101092000D03*
X171454000Y-106172000D03*
%TD*%
D23*
%TO.C,U1*%
X123190000Y-121920000D03*
X175260000Y-116840000D03*
X124460000Y-73660000D03*
X175260000Y-88900000D03*
D24*
X137160000Y-121920000D03*
D11*
X139700000Y-121920000D03*
X142240000Y-121920000D03*
X144780000Y-121920000D03*
X147320000Y-121920000D03*
X149860000Y-121920000D03*
X152400000Y-121920000D03*
X154940000Y-121920000D03*
X160020000Y-121920000D03*
X162560000Y-121920000D03*
X165100000Y-121920000D03*
X167640000Y-121920000D03*
X170180000Y-121920000D03*
X172720000Y-121920000D03*
X172720000Y-73660000D03*
X170180000Y-73660000D03*
X167640000Y-73660000D03*
X165100000Y-73660000D03*
X162560000Y-73660000D03*
X160020000Y-73660000D03*
X157480000Y-73660000D03*
X154940000Y-73660000D03*
X150880000Y-73660000D03*
X148340000Y-73660000D03*
X145800000Y-73660000D03*
X143260000Y-73660000D03*
X140720000Y-73660000D03*
X138180000Y-73660000D03*
X135640000Y-73660000D03*
X133100000Y-73660000D03*
X130560000Y-73660000D03*
X128020000Y-73660000D03*
%TD*%
D22*
%TO.C,U2*%
X115523200Y-108051600D03*
X115523200Y-84963000D03*
D25*
X126369000Y-90220800D03*
D26*
X126369000Y-92760800D03*
X126369000Y-95300800D03*
X126369000Y-97840800D03*
X126369000Y-100380800D03*
X126369000Y-102920800D03*
%TD*%
M02*
