%TF.GenerationSoftware,KiCad,Pcbnew,6.0.3-a3aad9c10e~116~ubuntu20.04.1*%
%TF.CreationDate,2022-03-20T15:10:46-04:00*%
%TF.ProjectId,Protogasm-Board-V2,50726f74-6f67-4617-936d-2d426f617264,rev?*%
%TF.SameCoordinates,PX68290a0PY76b1be0*%
%TF.FileFunction,Legend,Top*%
%TF.FilePolarity,Positive*%
%FSLAX46Y46*%
G04 Gerber Fmt 4.6, Leading zero omitted, Abs format (unit mm)*
G04 Created by KiCad (PCBNEW 6.0.3-a3aad9c10e~116~ubuntu20.04.1) date 2022-03-20 15:10:46*
%MOMM*%
%LPD*%
G01*
G04 APERTURE LIST*
G04 Aperture macros list*
%AMRotRect*
0 Rectangle, with rotation*
0 The origin of the aperture is its center*
0 $1 length*
0 $2 width*
0 $3 Rotation angle, in degrees counterclockwise*
0 Add horizontal line*
21,1,$1,$2,0,0,$3*%
G04 Aperture macros list end*
%ADD10C,0.150000*%
%ADD11C,0.120000*%
%ADD12C,0.100000*%
%ADD13C,3.302000*%
%ADD14C,3.048000*%
%ADD15C,1.600000*%
%ADD16O,1.600000X1.600000*%
%ADD17R,2.000000X2.000000*%
%ADD18C,2.000000*%
%ADD19R,2.500000X3.000000*%
%ADD20O,3.500000X3.500000*%
%ADD21R,1.905000X2.000000*%
%ADD22O,1.905000X2.000000*%
%ADD23C,2.159000*%
%ADD24R,1.800000X1.800000*%
%ADD25O,1.800000X1.800000*%
%ADD26C,1.524000*%
%ADD27C,2.286000*%
%ADD28C,3.200000*%
%ADD29R,1.600000X1.600000*%
%ADD30RotRect,1.981200X1.981200X201.000000*%
%ADD31C,1.981200*%
G04 APERTURE END LIST*
D10*
X40213595Y12376620D02*
X40213595Y13376620D01*
X40594547Y13376620D01*
X40689785Y13329000D01*
X40737404Y13281381D01*
X40785023Y13186143D01*
X40785023Y13043286D01*
X40737404Y12948048D01*
X40689785Y12900429D01*
X40594547Y12852810D01*
X40213595Y12852810D01*
X41213595Y12376620D02*
X41213595Y13043286D01*
X41213595Y12852810D02*
X41261214Y12948048D01*
X41308833Y12995667D01*
X41404071Y13043286D01*
X41499309Y13043286D01*
X41975500Y12376620D02*
X41880261Y12424239D01*
X41832642Y12471858D01*
X41785023Y12567096D01*
X41785023Y12852810D01*
X41832642Y12948048D01*
X41880261Y12995667D01*
X41975500Y13043286D01*
X42118357Y13043286D01*
X42213595Y12995667D01*
X42261214Y12948048D01*
X42308833Y12852810D01*
X42308833Y12567096D01*
X42261214Y12471858D01*
X42213595Y12424239D01*
X42118357Y12376620D01*
X41975500Y12376620D01*
X42594547Y13043286D02*
X42975500Y13043286D01*
X42737404Y13376620D02*
X42737404Y12519477D01*
X42785023Y12424239D01*
X42880261Y12376620D01*
X42975500Y12376620D01*
X43451690Y12376620D02*
X43356452Y12424239D01*
X43308833Y12471858D01*
X43261214Y12567096D01*
X43261214Y12852810D01*
X43308833Y12948048D01*
X43356452Y12995667D01*
X43451690Y13043286D01*
X43594547Y13043286D01*
X43689785Y12995667D01*
X43737404Y12948048D01*
X43785023Y12852810D01*
X43785023Y12567096D01*
X43737404Y12471858D01*
X43689785Y12424239D01*
X43594547Y12376620D01*
X43451690Y12376620D01*
X44642166Y13043286D02*
X44642166Y12233762D01*
X44594547Y12138524D01*
X44546928Y12090905D01*
X44451690Y12043286D01*
X44308833Y12043286D01*
X44213595Y12090905D01*
X44642166Y12424239D02*
X44546928Y12376620D01*
X44356452Y12376620D01*
X44261214Y12424239D01*
X44213595Y12471858D01*
X44165976Y12567096D01*
X44165976Y12852810D01*
X44213595Y12948048D01*
X44261214Y12995667D01*
X44356452Y13043286D01*
X44546928Y13043286D01*
X44642166Y12995667D01*
X45546928Y12376620D02*
X45546928Y12900429D01*
X45499309Y12995667D01*
X45404071Y13043286D01*
X45213595Y13043286D01*
X45118357Y12995667D01*
X45546928Y12424239D02*
X45451690Y12376620D01*
X45213595Y12376620D01*
X45118357Y12424239D01*
X45070738Y12519477D01*
X45070738Y12614715D01*
X45118357Y12709953D01*
X45213595Y12757572D01*
X45451690Y12757572D01*
X45546928Y12805191D01*
X45975500Y12424239D02*
X46070738Y12376620D01*
X46261214Y12376620D01*
X46356452Y12424239D01*
X46404071Y12519477D01*
X46404071Y12567096D01*
X46356452Y12662334D01*
X46261214Y12709953D01*
X46118357Y12709953D01*
X46023119Y12757572D01*
X45975500Y12852810D01*
X45975500Y12900429D01*
X46023119Y12995667D01*
X46118357Y13043286D01*
X46261214Y13043286D01*
X46356452Y12995667D01*
X46832642Y12376620D02*
X46832642Y13043286D01*
X46832642Y12948048D02*
X46880261Y12995667D01*
X46975500Y13043286D01*
X47118357Y13043286D01*
X47213595Y12995667D01*
X47261214Y12900429D01*
X47261214Y12376620D01*
X47261214Y12900429D02*
X47308833Y12995667D01*
X47404071Y13043286D01*
X47546928Y13043286D01*
X47642166Y12995667D01*
X47689785Y12900429D01*
X47689785Y12376620D01*
X48785023Y13376620D02*
X49118357Y12376620D01*
X49451690Y13376620D01*
X50261214Y13376620D02*
X49785023Y13376620D01*
X49737404Y12900429D01*
X49785023Y12948048D01*
X49880261Y12995667D01*
X50118357Y12995667D01*
X50213595Y12948048D01*
X50261214Y12900429D01*
X50308833Y12805191D01*
X50308833Y12567096D01*
X50261214Y12471858D01*
X50213595Y12424239D01*
X50118357Y12376620D01*
X49880261Y12376620D01*
X49785023Y12424239D01*
X49737404Y12471858D01*
X40165976Y11052334D02*
X40642166Y11052334D01*
X40070738Y10766620D02*
X40404071Y11766620D01*
X40737404Y10766620D01*
X41070738Y10766620D02*
X41070738Y11433286D01*
X41070738Y11242810D02*
X41118357Y11338048D01*
X41165976Y11385667D01*
X41261214Y11433286D01*
X41356452Y11433286D01*
X42118357Y10766620D02*
X42118357Y11766620D01*
X42118357Y10814239D02*
X42023119Y10766620D01*
X41832642Y10766620D01*
X41737404Y10814239D01*
X41689785Y10861858D01*
X41642166Y10957096D01*
X41642166Y11242810D01*
X41689785Y11338048D01*
X41737404Y11385667D01*
X41832642Y11433286D01*
X42023119Y11433286D01*
X42118357Y11385667D01*
X43023119Y11433286D02*
X43023119Y10766620D01*
X42594547Y11433286D02*
X42594547Y10909477D01*
X42642166Y10814239D01*
X42737404Y10766620D01*
X42880261Y10766620D01*
X42975500Y10814239D01*
X43023119Y10861858D01*
X43499309Y10766620D02*
X43499309Y11433286D01*
X43499309Y11766620D02*
X43451690Y11719000D01*
X43499309Y11671381D01*
X43546928Y11719000D01*
X43499309Y11766620D01*
X43499309Y11671381D01*
X43975500Y11433286D02*
X43975500Y10766620D01*
X43975500Y11338048D02*
X44023119Y11385667D01*
X44118357Y11433286D01*
X44261214Y11433286D01*
X44356452Y11385667D01*
X44404071Y11290429D01*
X44404071Y10766620D01*
X45023119Y10766620D02*
X44927880Y10814239D01*
X44880261Y10861858D01*
X44832642Y10957096D01*
X44832642Y11242810D01*
X44880261Y11338048D01*
X44927880Y11385667D01*
X45023119Y11433286D01*
X45165976Y11433286D01*
X45261214Y11385667D01*
X45308833Y11338048D01*
X45356452Y11242810D01*
X45356452Y10957096D01*
X45308833Y10861858D01*
X45261214Y10814239D01*
X45165976Y10766620D01*
X45023119Y10766620D01*
X46546928Y11766620D02*
X46546928Y10957096D01*
X46594547Y10861858D01*
X46642166Y10814239D01*
X46737404Y10766620D01*
X46927880Y10766620D01*
X47023119Y10814239D01*
X47070738Y10861858D01*
X47118357Y10957096D01*
X47118357Y11766620D01*
X47594547Y10766620D02*
X47594547Y11766620D01*
X48165976Y10766620D01*
X48165976Y11766620D01*
X48832642Y11766620D02*
X49023119Y11766620D01*
X49118357Y11719000D01*
X49213595Y11623762D01*
X49261214Y11433286D01*
X49261214Y11099953D01*
X49213595Y10909477D01*
X49118357Y10814239D01*
X49023119Y10766620D01*
X48832642Y10766620D01*
X48737404Y10814239D01*
X48642166Y10909477D01*
X48594547Y11099953D01*
X48594547Y11433286D01*
X48642166Y11623762D01*
X48737404Y11719000D01*
X48832642Y11766620D01*
X51023119Y10766620D02*
X50689785Y11242810D01*
X50451690Y10766620D02*
X50451690Y11766620D01*
X50832642Y11766620D01*
X50927880Y11719000D01*
X50975500Y11671381D01*
X51023119Y11576143D01*
X51023119Y11433286D01*
X50975500Y11338048D01*
X50927880Y11290429D01*
X50832642Y11242810D01*
X50451690Y11242810D01*
X51356452Y11766620D02*
X51975500Y11766620D01*
X51642166Y11385667D01*
X51785023Y11385667D01*
X51880261Y11338048D01*
X51927880Y11290429D01*
X51975500Y11195191D01*
X51975500Y10957096D01*
X51927880Y10861858D01*
X51880261Y10814239D01*
X51785023Y10766620D01*
X51499309Y10766620D01*
X51404071Y10814239D01*
X51356452Y10861858D01*
X53118357Y10814239D02*
X53261214Y10766620D01*
X53499309Y10766620D01*
X53594547Y10814239D01*
X53642166Y10861858D01*
X53689785Y10957096D01*
X53689785Y11052334D01*
X53642166Y11147572D01*
X53594547Y11195191D01*
X53499309Y11242810D01*
X53308833Y11290429D01*
X53213595Y11338048D01*
X53165976Y11385667D01*
X53118357Y11480905D01*
X53118357Y11576143D01*
X53165976Y11671381D01*
X53213595Y11719000D01*
X53308833Y11766620D01*
X53546928Y11766620D01*
X53689785Y11719000D01*
X54118357Y10766620D02*
X54118357Y11766620D01*
X54546928Y10766620D02*
X54546928Y11290429D01*
X54499309Y11385667D01*
X54404071Y11433286D01*
X54261214Y11433286D01*
X54165976Y11385667D01*
X54118357Y11338048D01*
X55023119Y10766620D02*
X55023119Y11433286D01*
X55023119Y11766620D02*
X54975500Y11719000D01*
X55023119Y11671381D01*
X55070738Y11719000D01*
X55023119Y11766620D01*
X55023119Y11671381D01*
X55880261Y10814239D02*
X55785023Y10766620D01*
X55594547Y10766620D01*
X55499309Y10814239D01*
X55451690Y10909477D01*
X55451690Y11290429D01*
X55499309Y11385667D01*
X55594547Y11433286D01*
X55785023Y11433286D01*
X55880261Y11385667D01*
X55927880Y11290429D01*
X55927880Y11195191D01*
X55451690Y11099953D01*
X56499309Y10766620D02*
X56404071Y10814239D01*
X56356452Y10909477D01*
X56356452Y11766620D01*
X57308833Y10766620D02*
X57308833Y11766620D01*
X57308833Y10814239D02*
X57213595Y10766620D01*
X57023119Y10766620D01*
X56927880Y10814239D01*
X56880261Y10861858D01*
X56832642Y10957096D01*
X56832642Y11242810D01*
X56880261Y11338048D01*
X56927880Y11385667D01*
X57023119Y11433286D01*
X57213595Y11433286D01*
X57308833Y11385667D01*
X40642166Y9823286D02*
X40642166Y9013762D01*
X40594547Y8918524D01*
X40546928Y8870905D01*
X40451690Y8823286D01*
X40308833Y8823286D01*
X40213595Y8870905D01*
X40642166Y9204239D02*
X40546928Y9156620D01*
X40356452Y9156620D01*
X40261214Y9204239D01*
X40213595Y9251858D01*
X40165976Y9347096D01*
X40165976Y9632810D01*
X40213595Y9728048D01*
X40261214Y9775667D01*
X40356452Y9823286D01*
X40546928Y9823286D01*
X40642166Y9775667D01*
X41118357Y9156620D02*
X41118357Y9823286D01*
X41118357Y10156620D02*
X41070738Y10109000D01*
X41118357Y10061381D01*
X41165976Y10109000D01*
X41118357Y10156620D01*
X41118357Y10061381D01*
X41451690Y9823286D02*
X41832642Y9823286D01*
X41594547Y10156620D02*
X41594547Y9299477D01*
X41642166Y9204239D01*
X41737404Y9156620D01*
X41832642Y9156620D01*
X42165976Y9156620D02*
X42165976Y10156620D01*
X42594547Y9156620D02*
X42594547Y9680429D01*
X42546928Y9775667D01*
X42451690Y9823286D01*
X42308833Y9823286D01*
X42213595Y9775667D01*
X42165976Y9728048D01*
X43499309Y9823286D02*
X43499309Y9156620D01*
X43070738Y9823286D02*
X43070738Y9299477D01*
X43118357Y9204239D01*
X43213595Y9156620D01*
X43356452Y9156620D01*
X43451690Y9204239D01*
X43499309Y9251858D01*
X43975500Y9156620D02*
X43975500Y10156620D01*
X43975500Y9775667D02*
X44070738Y9823286D01*
X44261214Y9823286D01*
X44356452Y9775667D01*
X44404071Y9728048D01*
X44451690Y9632810D01*
X44451690Y9347096D01*
X44404071Y9251858D01*
X44356452Y9204239D01*
X44261214Y9156620D01*
X44070738Y9156620D01*
X43975500Y9204239D01*
X44880261Y9251858D02*
X44927880Y9204239D01*
X44880261Y9156620D01*
X44832642Y9204239D01*
X44880261Y9251858D01*
X44880261Y9156620D01*
X45785023Y9204239D02*
X45689785Y9156620D01*
X45499309Y9156620D01*
X45404071Y9204239D01*
X45356452Y9251858D01*
X45308833Y9347096D01*
X45308833Y9632810D01*
X45356452Y9728048D01*
X45404071Y9775667D01*
X45499309Y9823286D01*
X45689785Y9823286D01*
X45785023Y9775667D01*
X46356452Y9156620D02*
X46261214Y9204239D01*
X46213595Y9251858D01*
X46165976Y9347096D01*
X46165976Y9632810D01*
X46213595Y9728048D01*
X46261214Y9775667D01*
X46356452Y9823286D01*
X46499309Y9823286D01*
X46594547Y9775667D01*
X46642166Y9728048D01*
X46689785Y9632810D01*
X46689785Y9347096D01*
X46642166Y9251858D01*
X46594547Y9204239D01*
X46499309Y9156620D01*
X46356452Y9156620D01*
X47118357Y9156620D02*
X47118357Y9823286D01*
X47118357Y9728048D02*
X47165976Y9775667D01*
X47261214Y9823286D01*
X47404071Y9823286D01*
X47499309Y9775667D01*
X47546928Y9680429D01*
X47546928Y9156620D01*
X47546928Y9680429D02*
X47594547Y9775667D01*
X47689785Y9823286D01*
X47832642Y9823286D01*
X47927880Y9775667D01*
X47975500Y9680429D01*
X47975500Y9156620D01*
X49165976Y10204239D02*
X48308833Y8918524D01*
X49499309Y9680429D02*
X49832642Y9680429D01*
X49975500Y9156620D02*
X49499309Y9156620D01*
X49499309Y10156620D01*
X49975500Y10156620D01*
X50832642Y9156620D02*
X50832642Y10156620D01*
X50832642Y9204239D02*
X50737404Y9156620D01*
X50546928Y9156620D01*
X50451690Y9204239D01*
X50404071Y9251858D01*
X50356452Y9347096D01*
X50356452Y9632810D01*
X50404071Y9728048D01*
X50451690Y9775667D01*
X50546928Y9823286D01*
X50737404Y9823286D01*
X50832642Y9775667D01*
X51737404Y9823286D02*
X51737404Y9013762D01*
X51689785Y8918524D01*
X51642166Y8870905D01*
X51546928Y8823286D01*
X51404071Y8823286D01*
X51308833Y8870905D01*
X51737404Y9204239D02*
X51642166Y9156620D01*
X51451690Y9156620D01*
X51356452Y9204239D01*
X51308833Y9251858D01*
X51261214Y9347096D01*
X51261214Y9632810D01*
X51308833Y9728048D01*
X51356452Y9775667D01*
X51451690Y9823286D01*
X51642166Y9823286D01*
X51737404Y9775667D01*
X52213595Y9156620D02*
X52213595Y9823286D01*
X52213595Y10156620D02*
X52165976Y10109000D01*
X52213595Y10061381D01*
X52261214Y10109000D01*
X52213595Y10156620D01*
X52213595Y10061381D01*
X52689785Y9823286D02*
X52689785Y9156620D01*
X52689785Y9728048D02*
X52737404Y9775667D01*
X52832642Y9823286D01*
X52975500Y9823286D01*
X53070738Y9775667D01*
X53118357Y9680429D01*
X53118357Y9156620D01*
X54023119Y9823286D02*
X54023119Y9013762D01*
X53975500Y8918524D01*
X53927880Y8870905D01*
X53832642Y8823286D01*
X53689785Y8823286D01*
X53594547Y8870905D01*
X54023119Y9204239D02*
X53927880Y9156620D01*
X53737404Y9156620D01*
X53642166Y9204239D01*
X53594547Y9251858D01*
X53546928Y9347096D01*
X53546928Y9632810D01*
X53594547Y9728048D01*
X53642166Y9775667D01*
X53737404Y9823286D01*
X53927880Y9823286D01*
X54023119Y9775667D01*
X54499309Y9537572D02*
X55261214Y9537572D01*
X55737404Y9156620D02*
X55737404Y10156620D01*
X56070738Y9442334D01*
X56404071Y10156620D01*
X56404071Y9156620D01*
X57308833Y9156620D02*
X57308833Y9680429D01*
X57261214Y9775667D01*
X57165976Y9823286D01*
X56975500Y9823286D01*
X56880261Y9775667D01*
X57308833Y9204239D02*
X57213595Y9156620D01*
X56975500Y9156620D01*
X56880261Y9204239D01*
X56832642Y9299477D01*
X56832642Y9394715D01*
X56880261Y9489953D01*
X56975500Y9537572D01*
X57213595Y9537572D01*
X57308833Y9585191D01*
X58213595Y9204239D02*
X58118357Y9156620D01*
X57927880Y9156620D01*
X57832642Y9204239D01*
X57785023Y9251858D01*
X57737404Y9347096D01*
X57737404Y9632810D01*
X57785023Y9728048D01*
X57832642Y9775667D01*
X57927880Y9823286D01*
X58118357Y9823286D01*
X58213595Y9775667D01*
X58642166Y9156620D02*
X58642166Y10156620D01*
X59070738Y9156620D02*
X59070738Y9680429D01*
X59023119Y9775667D01*
X58927880Y9823286D01*
X58785023Y9823286D01*
X58689785Y9775667D01*
X58642166Y9728048D01*
X59546928Y9156620D02*
X59546928Y9823286D01*
X59546928Y10156620D02*
X59499309Y10109000D01*
X59546928Y10061381D01*
X59594547Y10109000D01*
X59546928Y10156620D01*
X59546928Y10061381D01*
X60023119Y9823286D02*
X60023119Y9156620D01*
X60023119Y9728048D02*
X60070738Y9775667D01*
X60165976Y9823286D01*
X60308833Y9823286D01*
X60404071Y9775667D01*
X60451690Y9680429D01*
X60451690Y9156620D01*
X61308833Y9204239D02*
X61213595Y9156620D01*
X61023119Y9156620D01*
X60927880Y9204239D01*
X60880261Y9299477D01*
X60880261Y9680429D01*
X60927880Y9775667D01*
X61023119Y9823286D01*
X61213595Y9823286D01*
X61308833Y9775667D01*
X61356452Y9680429D01*
X61356452Y9585191D01*
X60880261Y9489953D01*
X61737404Y9204239D02*
X61832642Y9156620D01*
X62023119Y9156620D01*
X62118357Y9204239D01*
X62165976Y9299477D01*
X62165976Y9347096D01*
X62118357Y9442334D01*
X62023119Y9489953D01*
X61880261Y9489953D01*
X61785023Y9537572D01*
X61737404Y9632810D01*
X61737404Y9680429D01*
X61785023Y9775667D01*
X61880261Y9823286D01*
X62023119Y9823286D01*
X62118357Y9775667D01*
X40165976Y7594239D02*
X40261214Y7546620D01*
X40451690Y7546620D01*
X40546928Y7594239D01*
X40594547Y7689477D01*
X40594547Y7737096D01*
X40546928Y7832334D01*
X40451690Y7879953D01*
X40308833Y7879953D01*
X40213595Y7927572D01*
X40165976Y8022810D01*
X40165976Y8070429D01*
X40213595Y8165667D01*
X40308833Y8213286D01*
X40451690Y8213286D01*
X40546928Y8165667D01*
X41451690Y8213286D02*
X41451690Y7213286D01*
X41451690Y7594239D02*
X41356452Y7546620D01*
X41165976Y7546620D01*
X41070738Y7594239D01*
X41023119Y7641858D01*
X40975500Y7737096D01*
X40975500Y8022810D01*
X41023119Y8118048D01*
X41070738Y8165667D01*
X41165976Y8213286D01*
X41356452Y8213286D01*
X41451690Y8165667D01*
X41927880Y7546620D02*
X41927880Y8213286D01*
X41927880Y8022810D02*
X41975500Y8118048D01*
X42023119Y8165667D01*
X42118357Y8213286D01*
X42213595Y8213286D01*
X42404071Y8213286D02*
X42785023Y8213286D01*
X42546928Y8546620D02*
X42546928Y7689477D01*
X42594547Y7594239D01*
X42689785Y7546620D01*
X42785023Y7546620D01*
X43642166Y7546620D02*
X43070738Y7546620D01*
X43356452Y7546620D02*
X43356452Y8546620D01*
X43261214Y8403762D01*
X43165976Y8308524D01*
X43070738Y8260905D01*
X44261214Y8546620D02*
X44356452Y8546620D01*
X44451690Y8499000D01*
X44499309Y8451381D01*
X44546928Y8356143D01*
X44594547Y8165667D01*
X44594547Y7927572D01*
X44546928Y7737096D01*
X44499309Y7641858D01*
X44451690Y7594239D01*
X44356452Y7546620D01*
X44261214Y7546620D01*
X44165976Y7594239D01*
X44118357Y7641858D01*
X44070738Y7737096D01*
X44023119Y7927572D01*
X44023119Y8165667D01*
X44070738Y8356143D01*
X44118357Y8451381D01*
X44165976Y8499000D01*
X44261214Y8546620D01*
X45023119Y8213286D02*
X45023119Y7213286D01*
X45023119Y8165667D02*
X45118357Y8213286D01*
X45308833Y8213286D01*
X45404071Y8165667D01*
X45451690Y8118048D01*
X45499309Y8022810D01*
X45499309Y7737096D01*
X45451690Y7641858D01*
X45404071Y7594239D01*
X45308833Y7546620D01*
X45118357Y7546620D01*
X45023119Y7594239D01*
X45927880Y7546620D02*
X45927880Y8213286D01*
X45927880Y8546620D02*
X45880261Y8499000D01*
X45927880Y8451381D01*
X45975500Y8499000D01*
X45927880Y8546620D01*
X45927880Y8451381D01*
%TO.C,R1*%
X14815333Y42600620D02*
X14482000Y43076810D01*
X14243904Y42600620D02*
X14243904Y43600620D01*
X14624857Y43600620D01*
X14720095Y43553000D01*
X14767714Y43505381D01*
X14815333Y43410143D01*
X14815333Y43267286D01*
X14767714Y43172048D01*
X14720095Y43124429D01*
X14624857Y43076810D01*
X14243904Y43076810D01*
X15767714Y42600620D02*
X15196285Y42600620D01*
X15482000Y42600620D02*
X15482000Y43600620D01*
X15386761Y43457762D01*
X15291523Y43362524D01*
X15196285Y43314905D01*
%TO.C,SW1*%
X25978466Y34150239D02*
X26121323Y34102620D01*
X26359419Y34102620D01*
X26454657Y34150239D01*
X26502276Y34197858D01*
X26549895Y34293096D01*
X26549895Y34388334D01*
X26502276Y34483572D01*
X26454657Y34531191D01*
X26359419Y34578810D01*
X26168942Y34626429D01*
X26073704Y34674048D01*
X26026085Y34721667D01*
X25978466Y34816905D01*
X25978466Y34912143D01*
X26026085Y35007381D01*
X26073704Y35055000D01*
X26168942Y35102620D01*
X26407038Y35102620D01*
X26549895Y35055000D01*
X26883228Y35102620D02*
X27121323Y34102620D01*
X27311800Y34816905D01*
X27502276Y34102620D01*
X27740371Y35102620D01*
X28645133Y34102620D02*
X28073704Y34102620D01*
X28359419Y34102620D02*
X28359419Y35102620D01*
X28264180Y34959762D01*
X28168942Y34864524D01*
X28073704Y34816905D01*
%TO.C,C1*%
X24848333Y42797458D02*
X24800714Y42749839D01*
X24657857Y42702220D01*
X24562619Y42702220D01*
X24419761Y42749839D01*
X24324523Y42845077D01*
X24276904Y42940315D01*
X24229285Y43130791D01*
X24229285Y43273648D01*
X24276904Y43464124D01*
X24324523Y43559362D01*
X24419761Y43654600D01*
X24562619Y43702220D01*
X24657857Y43702220D01*
X24800714Y43654600D01*
X24848333Y43606981D01*
X25800714Y42702220D02*
X25229285Y42702220D01*
X25515000Y42702220D02*
X25515000Y43702220D01*
X25419761Y43559362D01*
X25324523Y43464124D01*
X25229285Y43416505D01*
%TO.C,Q1*%
X23755361Y17994381D02*
X23660123Y18042000D01*
X23564885Y18137239D01*
X23422028Y18280096D01*
X23326790Y18327715D01*
X23231552Y18327715D01*
X23279171Y18089620D02*
X23183933Y18137239D01*
X23088695Y18232477D01*
X23041076Y18422953D01*
X23041076Y18756286D01*
X23088695Y18946762D01*
X23183933Y19042000D01*
X23279171Y19089620D01*
X23469647Y19089620D01*
X23564885Y19042000D01*
X23660123Y18946762D01*
X23707742Y18756286D01*
X23707742Y18422953D01*
X23660123Y18232477D01*
X23564885Y18137239D01*
X23469647Y18089620D01*
X23279171Y18089620D01*
X24660123Y18089620D02*
X24088695Y18089620D01*
X24374409Y18089620D02*
X24374409Y19089620D01*
X24279171Y18946762D01*
X24183933Y18851524D01*
X24088695Y18803905D01*
%TO.C,J1*%
X58025309Y31027620D02*
X58025309Y30313334D01*
X57977690Y30170477D01*
X57882452Y30075239D01*
X57739595Y30027620D01*
X57644357Y30027620D01*
X59025309Y30027620D02*
X58453880Y30027620D01*
X58739595Y30027620D02*
X58739595Y31027620D01*
X58644357Y30884762D01*
X58549119Y30789524D01*
X58453880Y30741905D01*
X61041595Y25201620D02*
X61041595Y26201620D01*
X61279690Y26201620D01*
X61422547Y26154000D01*
X61517785Y26058762D01*
X61565404Y25963524D01*
X61613023Y25773048D01*
X61613023Y25630191D01*
X61565404Y25439715D01*
X61517785Y25344477D01*
X61422547Y25249239D01*
X61279690Y25201620D01*
X61041595Y25201620D01*
X61993976Y25487334D02*
X62470166Y25487334D01*
X61898738Y25201620D02*
X62232071Y26201620D01*
X62565404Y25201620D01*
X62755880Y26201620D02*
X63327309Y26201620D01*
X63041595Y25201620D02*
X63041595Y26201620D01*
X63613023Y25487334D02*
X64089214Y25487334D01*
X63517785Y25201620D02*
X63851119Y26201620D01*
X64184452Y25201620D01*
X64279690Y25106381D02*
X65041595Y25106381D01*
X65279690Y25201620D02*
X65279690Y26201620D01*
X65755880Y25201620D02*
X65755880Y26201620D01*
X66327309Y25201620D01*
X66327309Y26201620D01*
X61041595Y28122572D02*
X61803500Y28122572D01*
X61422547Y27741620D02*
X61422547Y28503524D01*
X62755880Y28741620D02*
X62279690Y28741620D01*
X62232071Y28265429D01*
X62279690Y28313048D01*
X62374928Y28360667D01*
X62613023Y28360667D01*
X62708261Y28313048D01*
X62755880Y28265429D01*
X62803500Y28170191D01*
X62803500Y27932096D01*
X62755880Y27836858D01*
X62708261Y27789239D01*
X62613023Y27741620D01*
X62374928Y27741620D01*
X62279690Y27789239D01*
X62232071Y27836858D01*
X63089214Y28741620D02*
X63422547Y27741620D01*
X63755880Y28741620D01*
X58311023Y20121620D02*
X57977690Y20597810D01*
X57739595Y20121620D02*
X57739595Y21121620D01*
X58120547Y21121620D01*
X58215785Y21074000D01*
X58263404Y21026381D01*
X58311023Y20931143D01*
X58311023Y20788286D01*
X58263404Y20693048D01*
X58215785Y20645429D01*
X58120547Y20597810D01*
X57739595Y20597810D01*
X58739595Y20121620D02*
X58739595Y21121620D01*
X59215785Y20121620D02*
X59215785Y21121620D01*
X59787214Y20121620D01*
X59787214Y21121620D01*
X60787214Y21074000D02*
X60691976Y21121620D01*
X60549119Y21121620D01*
X60406261Y21074000D01*
X60311023Y20978762D01*
X60263404Y20883524D01*
X60215785Y20693048D01*
X60215785Y20550191D01*
X60263404Y20359715D01*
X60311023Y20264477D01*
X60406261Y20169239D01*
X60549119Y20121620D01*
X60644357Y20121620D01*
X60787214Y20169239D01*
X60834833Y20216858D01*
X60834833Y20550191D01*
X60644357Y20550191D01*
X61565404Y23614000D02*
X61470166Y23661620D01*
X61327309Y23661620D01*
X61184452Y23614000D01*
X61089214Y23518762D01*
X61041595Y23423524D01*
X60993976Y23233048D01*
X60993976Y23090191D01*
X61041595Y22899715D01*
X61089214Y22804477D01*
X61184452Y22709239D01*
X61327309Y22661620D01*
X61422547Y22661620D01*
X61565404Y22709239D01*
X61613023Y22756858D01*
X61613023Y23090191D01*
X61422547Y23090191D01*
X62041595Y22661620D02*
X62041595Y23661620D01*
X62613023Y22661620D01*
X62613023Y23661620D01*
X63089214Y22661620D02*
X63089214Y23661620D01*
X63327309Y23661620D01*
X63470166Y23614000D01*
X63565404Y23518762D01*
X63613023Y23423524D01*
X63660642Y23233048D01*
X63660642Y23090191D01*
X63613023Y22899715D01*
X63565404Y22804477D01*
X63470166Y22709239D01*
X63327309Y22661620D01*
X63089214Y22661620D01*
%TO.C,D1*%
X12723904Y14279620D02*
X12723904Y15279620D01*
X12962000Y15279620D01*
X13104857Y15232000D01*
X13200095Y15136762D01*
X13247714Y15041524D01*
X13295333Y14851048D01*
X13295333Y14708191D01*
X13247714Y14517715D01*
X13200095Y14422477D01*
X13104857Y14327239D01*
X12962000Y14279620D01*
X12723904Y14279620D01*
X14247714Y14279620D02*
X13676285Y14279620D01*
X13962000Y14279620D02*
X13962000Y15279620D01*
X13866761Y15136762D01*
X13771523Y15041524D01*
X13676285Y14993905D01*
X11168095Y21899620D02*
X11168095Y22899620D01*
X11739523Y21899620D02*
X11310952Y22471048D01*
X11739523Y22899620D02*
X11168095Y22328191D01*
%TO.C,R2*%
X3131333Y51490620D02*
X2798000Y51966810D01*
X2559904Y51490620D02*
X2559904Y52490620D01*
X2940857Y52490620D01*
X3036095Y52443000D01*
X3083714Y52395381D01*
X3131333Y52300143D01*
X3131333Y52157286D01*
X3083714Y52062048D01*
X3036095Y52014429D01*
X2940857Y51966810D01*
X2559904Y51966810D01*
X3512285Y52395381D02*
X3559904Y52443000D01*
X3655142Y52490620D01*
X3893238Y52490620D01*
X3988476Y52443000D01*
X4036095Y52395381D01*
X4083714Y52300143D01*
X4083714Y52204905D01*
X4036095Y52062048D01*
X3464666Y51490620D01*
X4083714Y51490620D01*
D11*
%TO.C,R1*%
X14256000Y42264000D02*
X14256000Y41934000D01*
X14256000Y39524000D02*
X14256000Y39854000D01*
X20796000Y42264000D02*
X14256000Y42264000D01*
X20796000Y41934000D02*
X20796000Y42264000D01*
X20796000Y39854000D02*
X20796000Y39524000D01*
X20796000Y39524000D02*
X14256000Y39524000D01*
%TO.C,SW1*%
X36866000Y34128000D02*
X36566000Y34428000D01*
X33266000Y26928000D02*
X32266000Y26928000D01*
X26466000Y28728000D02*
X26466000Y33628000D01*
X39066000Y33628000D02*
X36566000Y33628000D01*
X32766000Y27428000D02*
X32766000Y26428000D01*
X39066000Y28828000D02*
X39066000Y33628000D01*
X39066000Y20228000D02*
X36466000Y20228000D01*
X34066000Y20228000D02*
X31466000Y20228000D01*
X26466000Y33628000D02*
X29266000Y33628000D01*
X36866000Y34728000D02*
X36866000Y34128000D01*
X26466000Y20228000D02*
X26466000Y25128000D01*
X39066000Y25128000D02*
X39066000Y20228000D01*
X29066000Y20228000D02*
X26466000Y20228000D01*
X36566000Y34428000D02*
X36866000Y34728000D01*
X35766000Y26928000D02*
G75*
G03*
X35766000Y26928000I-3000000J0D01*
G01*
%TO.C,C1*%
X24284000Y36984000D02*
X24284000Y42224000D01*
X24284000Y42224000D02*
X27024000Y42224000D01*
X24284000Y36984000D02*
X27024000Y36984000D01*
X27024000Y36984000D02*
X27024000Y42224000D01*
%TO.C,Q1*%
X14986000Y33902000D02*
X14986000Y36442000D01*
X20066000Y33902000D02*
X20066000Y36442000D01*
X22646000Y33902000D02*
X12406000Y33902000D01*
X22646000Y18012000D02*
X12406000Y18012000D01*
X12406000Y18012000D02*
X12406000Y33902000D01*
X17526000Y33902000D02*
X17526000Y36442000D01*
X22646000Y18012000D02*
X22646000Y33902000D01*
%TO.C,J1*%
X57658000Y29718000D02*
X60706000Y29718000D01*
X60706000Y29718000D02*
X60706000Y21590000D01*
X60706000Y21590000D02*
X57658000Y21590000D01*
X57658000Y21590000D02*
X57658000Y29718000D01*
%TO.C,D1*%
X12138000Y18464000D02*
X9198000Y18464000D01*
X12138000Y19484000D02*
X12138000Y14044000D01*
X9528000Y19484000D02*
X9198000Y19484000D01*
X12138000Y14044000D02*
X11808000Y14044000D01*
X12138000Y18584000D02*
X9198000Y18584000D01*
X12138000Y18704000D02*
X9198000Y18704000D01*
X11808000Y19484000D02*
X12138000Y19484000D01*
X9198000Y19484000D02*
X9198000Y14044000D01*
X9198000Y14044000D02*
X9528000Y14044000D01*
D12*
%TO.C,R2*%
X2936738Y48243243D02*
X2993313Y47954874D01*
X6558825Y50088789D02*
X6331419Y50274918D01*
X3005480Y49116704D02*
X2942878Y48829583D01*
X7044220Y47614710D02*
X7148094Y47889605D01*
X7160717Y49094947D02*
X7062623Y49371957D01*
X4899231Y46361279D02*
X5193061Y46356664D01*
X3106470Y49392672D02*
X3005480Y49116704D01*
X3810209Y46766283D02*
X4059150Y46610123D01*
X2919821Y48536622D02*
X2936738Y48243243D01*
X7220310Y48807186D02*
X7160717Y49094947D01*
X6294267Y46727260D02*
X6525521Y46908586D01*
X7239823Y48468758D02*
X7240297Y48514000D01*
D11*
X2540000Y46924000D02*
X2540000Y51054000D01*
D12*
X7062623Y49371957D02*
X6927841Y49633092D01*
X2942878Y48829583D02*
X2919821Y48536622D01*
X3088502Y47676851D02*
X3220542Y47414319D01*
X7240297Y48514000D02*
X7220310Y48807186D01*
X3847089Y50287926D02*
X3617747Y50104188D01*
X4608746Y46405730D02*
X4899231Y46361279D01*
D11*
X3556000Y48514000D02*
X6604000Y48514000D01*
D12*
X5769047Y46466539D02*
X6040544Y46578997D01*
X6730026Y47119620D02*
X6903999Y47356455D01*
X6525521Y46908586D02*
X6730026Y47119620D01*
X2993313Y47954874D02*
X3088502Y47676851D01*
X5484799Y46391968D02*
X5769047Y46466539D01*
X3415463Y49891025D02*
X3243979Y49652381D01*
X4340000Y50524000D02*
X4099246Y50438839D01*
X4099246Y50438839D02*
X3847089Y50287926D01*
X6080857Y50428463D02*
X5840000Y50524000D01*
X6927841Y49633092D02*
X6758866Y49873519D01*
X3386989Y47172136D02*
X3584765Y46954784D01*
X4326981Y46489193D02*
X4608746Y46405730D01*
X6903999Y47356455D02*
X7044220Y47614710D01*
X5193061Y46356664D02*
X5484799Y46391968D01*
X3584765Y46954784D02*
X3810209Y46766283D01*
D11*
X5080000Y50038000D02*
X5080000Y46990000D01*
X6020000Y51054000D02*
X7620000Y51054000D01*
X2540000Y51054000D02*
X4140000Y51054000D01*
D12*
X3243979Y49652381D02*
X3106470Y49392672D01*
D11*
X7620000Y51054000D02*
X7620000Y46924000D01*
D12*
X3220542Y47414319D02*
X3386989Y47172136D01*
X6758866Y49873519D02*
X6558825Y50088789D01*
D11*
X6690000Y45974000D02*
X3440000Y45974000D01*
D12*
X4059150Y46610123D02*
X4326981Y46489193D01*
X7148094Y47889605D02*
X7213700Y48176055D01*
X3617747Y50104188D02*
X3415463Y49891025D01*
X7213700Y48176055D02*
X7239823Y48468758D01*
X6331419Y50274918D02*
X6080857Y50428463D01*
X6040544Y46578997D02*
X6294267Y46727260D01*
%TD*%
%LPC*%
D13*
%TO.C,M1*%
X2176500Y19304000D03*
X2176500Y14224000D03*
D14*
X7256500Y19304000D03*
X7256500Y14224000D03*
%TD*%
D15*
%TO.C,R1*%
X21336000Y40894000D03*
D16*
X13716000Y40894000D03*
%TD*%
D17*
%TO.C,SW1*%
X35266000Y34428000D03*
D18*
X30266000Y34428000D03*
X32766000Y34428000D03*
D19*
X38366000Y26928000D03*
X27166000Y26928000D03*
D18*
X35266000Y19928000D03*
X30266000Y19928000D03*
%TD*%
D15*
%TO.C,C1*%
X25654000Y38354000D03*
X25654000Y40854000D03*
%TD*%
D20*
%TO.C,Q1*%
X17526000Y20932000D03*
D21*
X20066000Y37592000D03*
D22*
X17526000Y37592000D03*
X14986000Y37592000D03*
%TD*%
D23*
%TO.C,J1*%
X59182000Y28194000D03*
X59182000Y25654000D03*
X59182000Y23114000D03*
%TD*%
D24*
%TO.C,D1*%
X10668000Y20574000D03*
D25*
X10668000Y12954000D03*
%TD*%
D26*
%TO.C,R2*%
X2540000Y45974000D03*
X5080000Y51054000D03*
X7620000Y45974000D03*
%TD*%
D27*
%TO.C,J2*%
X9398000Y26543000D03*
X3397999Y26543000D03*
X6398000Y31243000D03*
%TD*%
D28*
%TO.C,U1*%
X15240000Y50800000D03*
X66040000Y7620000D03*
X13970000Y2540000D03*
X66040000Y35560000D03*
D29*
X27940000Y2540000D03*
D16*
X30480000Y2540000D03*
X33020000Y2540000D03*
X35560000Y2540000D03*
X38100000Y2540000D03*
X40640000Y2540000D03*
X43180000Y2540000D03*
X45720000Y2540000D03*
X50800000Y2540000D03*
X53340000Y2540000D03*
X55880000Y2540000D03*
X58420000Y2540000D03*
X60960000Y2540000D03*
X63500000Y2540000D03*
X63500000Y50800000D03*
X60960000Y50800000D03*
X58420000Y50800000D03*
X55880000Y50800000D03*
X53340000Y50800000D03*
X50800000Y50800000D03*
X48260000Y50800000D03*
X45720000Y50800000D03*
X41660000Y50800000D03*
X39120000Y50800000D03*
X36580000Y50800000D03*
X34040000Y50800000D03*
X31500000Y50800000D03*
X28960000Y50800000D03*
X26420000Y50800000D03*
X23880000Y50800000D03*
X21340000Y50800000D03*
X18800000Y50800000D03*
%TD*%
D30*
%TO.C,U2*%
X55626000Y44958000D03*
D31*
X56536255Y42586706D03*
X57446509Y40215411D03*
X58356764Y37844117D03*
X59267018Y35472823D03*
X60177273Y33101529D03*
%TD*%
M02*
