%TF.GenerationSoftware,KiCad,Pcbnew,6.0.1-79c1e3a40b~116~ubuntu20.04.1*%
%TF.CreationDate,2022-01-30T00:58:34-05:00*%
%TF.ProjectId,Protogasm-Board-V2,50726f74-6f67-4617-936d-2d426f617264,rev?*%
%TF.SameCoordinates,PX68290a0PY76b1be0*%
%TF.FileFunction,Legend,Top*%
%TF.FilePolarity,Positive*%
%FSLAX46Y46*%
G04 Gerber Fmt 4.6, Leading zero omitted, Abs format (unit mm)*
G04 Created by KiCad (PCBNEW 6.0.1-79c1e3a40b~116~ubuntu20.04.1) date 2022-01-30 00:58:34*
%MOMM*%
%LPD*%
G01*
G04 APERTURE LIST*
G04 Aperture macros list*
%AMRotRect*
0 Rectangle, with rotation*
0 The origin of the aperture is its center*
0 $1 length*
0 $2 width*
0 $3 Rotation angle, in degrees counterclockwise*
0 Add horizontal line*
21,1,$1,$2,0,0,$3*%
G04 Aperture macros list end*
%ADD10C,0.150000*%
%ADD11C,0.120000*%
%ADD12C,0.100000*%
%ADD13C,1.981200*%
%ADD14RotRect,1.981200X1.981200X240.000000*%
%ADD15C,1.600000*%
%ADD16O,1.600000X1.600000*%
%ADD17R,2.000000X2.000000*%
%ADD18C,2.000000*%
%ADD19R,2.500000X3.000000*%
%ADD20O,3.500000X3.500000*%
%ADD21R,1.905000X2.000000*%
%ADD22O,1.905000X2.000000*%
%ADD23C,2.159000*%
%ADD24R,1.800000X1.800000*%
%ADD25O,1.800000X1.800000*%
%ADD26C,1.524000*%
%ADD27C,2.540000*%
%ADD28R,1.600000X1.600000*%
%ADD29C,3.200000*%
G04 APERTURE END LIST*
D10*
X2621595Y9074620D02*
X2621595Y10074620D01*
X3002547Y10074620D01*
X3097785Y10027000D01*
X3145404Y9979381D01*
X3193023Y9884143D01*
X3193023Y9741286D01*
X3145404Y9646048D01*
X3097785Y9598429D01*
X3002547Y9550810D01*
X2621595Y9550810D01*
X3621595Y9074620D02*
X3621595Y9741286D01*
X3621595Y9550810D02*
X3669214Y9646048D01*
X3716833Y9693667D01*
X3812071Y9741286D01*
X3907309Y9741286D01*
X4383500Y9074620D02*
X4288261Y9122239D01*
X4240642Y9169858D01*
X4193023Y9265096D01*
X4193023Y9550810D01*
X4240642Y9646048D01*
X4288261Y9693667D01*
X4383500Y9741286D01*
X4526357Y9741286D01*
X4621595Y9693667D01*
X4669214Y9646048D01*
X4716833Y9550810D01*
X4716833Y9265096D01*
X4669214Y9169858D01*
X4621595Y9122239D01*
X4526357Y9074620D01*
X4383500Y9074620D01*
X5002547Y9741286D02*
X5383500Y9741286D01*
X5145404Y10074620D02*
X5145404Y9217477D01*
X5193023Y9122239D01*
X5288261Y9074620D01*
X5383500Y9074620D01*
X5859690Y9074620D02*
X5764452Y9122239D01*
X5716833Y9169858D01*
X5669214Y9265096D01*
X5669214Y9550810D01*
X5716833Y9646048D01*
X5764452Y9693667D01*
X5859690Y9741286D01*
X6002547Y9741286D01*
X6097785Y9693667D01*
X6145404Y9646048D01*
X6193023Y9550810D01*
X6193023Y9265096D01*
X6145404Y9169858D01*
X6097785Y9122239D01*
X6002547Y9074620D01*
X5859690Y9074620D01*
X7050166Y9741286D02*
X7050166Y8931762D01*
X7002547Y8836524D01*
X6954928Y8788905D01*
X6859690Y8741286D01*
X6716833Y8741286D01*
X6621595Y8788905D01*
X7050166Y9122239D02*
X6954928Y9074620D01*
X6764452Y9074620D01*
X6669214Y9122239D01*
X6621595Y9169858D01*
X6573976Y9265096D01*
X6573976Y9550810D01*
X6621595Y9646048D01*
X6669214Y9693667D01*
X6764452Y9741286D01*
X6954928Y9741286D01*
X7050166Y9693667D01*
X7954928Y9074620D02*
X7954928Y9598429D01*
X7907309Y9693667D01*
X7812071Y9741286D01*
X7621595Y9741286D01*
X7526357Y9693667D01*
X7954928Y9122239D02*
X7859690Y9074620D01*
X7621595Y9074620D01*
X7526357Y9122239D01*
X7478738Y9217477D01*
X7478738Y9312715D01*
X7526357Y9407953D01*
X7621595Y9455572D01*
X7859690Y9455572D01*
X7954928Y9503191D01*
X8383500Y9122239D02*
X8478738Y9074620D01*
X8669214Y9074620D01*
X8764452Y9122239D01*
X8812071Y9217477D01*
X8812071Y9265096D01*
X8764452Y9360334D01*
X8669214Y9407953D01*
X8526357Y9407953D01*
X8431119Y9455572D01*
X8383500Y9550810D01*
X8383500Y9598429D01*
X8431119Y9693667D01*
X8526357Y9741286D01*
X8669214Y9741286D01*
X8764452Y9693667D01*
X9240642Y9074620D02*
X9240642Y9741286D01*
X9240642Y9646048D02*
X9288261Y9693667D01*
X9383500Y9741286D01*
X9526357Y9741286D01*
X9621595Y9693667D01*
X9669214Y9598429D01*
X9669214Y9074620D01*
X9669214Y9598429D02*
X9716833Y9693667D01*
X9812071Y9741286D01*
X9954928Y9741286D01*
X10050166Y9693667D01*
X10097785Y9598429D01*
X10097785Y9074620D01*
X11193023Y10074620D02*
X11526357Y9074620D01*
X11859690Y10074620D01*
X12097785Y10074620D02*
X12716833Y10074620D01*
X12383500Y9693667D01*
X12526357Y9693667D01*
X12621595Y9646048D01*
X12669214Y9598429D01*
X12716833Y9503191D01*
X12716833Y9265096D01*
X12669214Y9169858D01*
X12621595Y9122239D01*
X12526357Y9074620D01*
X12240642Y9074620D01*
X12145404Y9122239D01*
X12097785Y9169858D01*
X2573976Y7750334D02*
X3050166Y7750334D01*
X2478738Y7464620D02*
X2812071Y8464620D01*
X3145404Y7464620D01*
X3478738Y7464620D02*
X3478738Y8131286D01*
X3478738Y7940810D02*
X3526357Y8036048D01*
X3573976Y8083667D01*
X3669214Y8131286D01*
X3764452Y8131286D01*
X4526357Y7464620D02*
X4526357Y8464620D01*
X4526357Y7512239D02*
X4431119Y7464620D01*
X4240642Y7464620D01*
X4145404Y7512239D01*
X4097785Y7559858D01*
X4050166Y7655096D01*
X4050166Y7940810D01*
X4097785Y8036048D01*
X4145404Y8083667D01*
X4240642Y8131286D01*
X4431119Y8131286D01*
X4526357Y8083667D01*
X5431119Y8131286D02*
X5431119Y7464620D01*
X5002547Y8131286D02*
X5002547Y7607477D01*
X5050166Y7512239D01*
X5145404Y7464620D01*
X5288261Y7464620D01*
X5383500Y7512239D01*
X5431119Y7559858D01*
X5907309Y7464620D02*
X5907309Y8131286D01*
X5907309Y8464620D02*
X5859690Y8417000D01*
X5907309Y8369381D01*
X5954928Y8417000D01*
X5907309Y8464620D01*
X5907309Y8369381D01*
X6383500Y8131286D02*
X6383500Y7464620D01*
X6383500Y8036048D02*
X6431119Y8083667D01*
X6526357Y8131286D01*
X6669214Y8131286D01*
X6764452Y8083667D01*
X6812071Y7988429D01*
X6812071Y7464620D01*
X7431119Y7464620D02*
X7335880Y7512239D01*
X7288261Y7559858D01*
X7240642Y7655096D01*
X7240642Y7940810D01*
X7288261Y8036048D01*
X7335880Y8083667D01*
X7431119Y8131286D01*
X7573976Y8131286D01*
X7669214Y8083667D01*
X7716833Y8036048D01*
X7764452Y7940810D01*
X7764452Y7655096D01*
X7716833Y7559858D01*
X7669214Y7512239D01*
X7573976Y7464620D01*
X7431119Y7464620D01*
X8954928Y8464620D02*
X8954928Y7655096D01*
X9002547Y7559858D01*
X9050166Y7512239D01*
X9145404Y7464620D01*
X9335880Y7464620D01*
X9431119Y7512239D01*
X9478738Y7559858D01*
X9526357Y7655096D01*
X9526357Y8464620D01*
X10002547Y7464620D02*
X10002547Y8464620D01*
X10573976Y7464620D01*
X10573976Y8464620D01*
X11240642Y8464620D02*
X11431119Y8464620D01*
X11526357Y8417000D01*
X11621595Y8321762D01*
X11669214Y8131286D01*
X11669214Y7797953D01*
X11621595Y7607477D01*
X11526357Y7512239D01*
X11431119Y7464620D01*
X11240642Y7464620D01*
X11145404Y7512239D01*
X11050166Y7607477D01*
X11002547Y7797953D01*
X11002547Y8131286D01*
X11050166Y8321762D01*
X11145404Y8417000D01*
X11240642Y8464620D01*
X13431119Y7464620D02*
X13097785Y7940810D01*
X12859690Y7464620D02*
X12859690Y8464620D01*
X13240642Y8464620D01*
X13335880Y8417000D01*
X13383500Y8369381D01*
X13431119Y8274143D01*
X13431119Y8131286D01*
X13383500Y8036048D01*
X13335880Y7988429D01*
X13240642Y7940810D01*
X12859690Y7940810D01*
X13764452Y8464620D02*
X14383500Y8464620D01*
X14050166Y8083667D01*
X14193023Y8083667D01*
X14288261Y8036048D01*
X14335880Y7988429D01*
X14383500Y7893191D01*
X14383500Y7655096D01*
X14335880Y7559858D01*
X14288261Y7512239D01*
X14193023Y7464620D01*
X13907309Y7464620D01*
X13812071Y7512239D01*
X13764452Y7559858D01*
X15526357Y7512239D02*
X15669214Y7464620D01*
X15907309Y7464620D01*
X16002547Y7512239D01*
X16050166Y7559858D01*
X16097785Y7655096D01*
X16097785Y7750334D01*
X16050166Y7845572D01*
X16002547Y7893191D01*
X15907309Y7940810D01*
X15716833Y7988429D01*
X15621595Y8036048D01*
X15573976Y8083667D01*
X15526357Y8178905D01*
X15526357Y8274143D01*
X15573976Y8369381D01*
X15621595Y8417000D01*
X15716833Y8464620D01*
X15954928Y8464620D01*
X16097785Y8417000D01*
X16526357Y7464620D02*
X16526357Y8464620D01*
X16954928Y7464620D02*
X16954928Y7988429D01*
X16907309Y8083667D01*
X16812071Y8131286D01*
X16669214Y8131286D01*
X16573976Y8083667D01*
X16526357Y8036048D01*
X17431119Y7464620D02*
X17431119Y8131286D01*
X17431119Y8464620D02*
X17383500Y8417000D01*
X17431119Y8369381D01*
X17478738Y8417000D01*
X17431119Y8464620D01*
X17431119Y8369381D01*
X18288261Y7512239D02*
X18193023Y7464620D01*
X18002547Y7464620D01*
X17907309Y7512239D01*
X17859690Y7607477D01*
X17859690Y7988429D01*
X17907309Y8083667D01*
X18002547Y8131286D01*
X18193023Y8131286D01*
X18288261Y8083667D01*
X18335880Y7988429D01*
X18335880Y7893191D01*
X17859690Y7797953D01*
X18907309Y7464620D02*
X18812071Y7512239D01*
X18764452Y7607477D01*
X18764452Y8464620D01*
X19716833Y7464620D02*
X19716833Y8464620D01*
X19716833Y7512239D02*
X19621595Y7464620D01*
X19431119Y7464620D01*
X19335880Y7512239D01*
X19288261Y7559858D01*
X19240642Y7655096D01*
X19240642Y7940810D01*
X19288261Y8036048D01*
X19335880Y8083667D01*
X19431119Y8131286D01*
X19621595Y8131286D01*
X19716833Y8083667D01*
X3050166Y6521286D02*
X3050166Y5711762D01*
X3002547Y5616524D01*
X2954928Y5568905D01*
X2859690Y5521286D01*
X2716833Y5521286D01*
X2621595Y5568905D01*
X3050166Y5902239D02*
X2954928Y5854620D01*
X2764452Y5854620D01*
X2669214Y5902239D01*
X2621595Y5949858D01*
X2573976Y6045096D01*
X2573976Y6330810D01*
X2621595Y6426048D01*
X2669214Y6473667D01*
X2764452Y6521286D01*
X2954928Y6521286D01*
X3050166Y6473667D01*
X3526357Y5854620D02*
X3526357Y6521286D01*
X3526357Y6854620D02*
X3478738Y6807000D01*
X3526357Y6759381D01*
X3573976Y6807000D01*
X3526357Y6854620D01*
X3526357Y6759381D01*
X3859690Y6521286D02*
X4240642Y6521286D01*
X4002547Y6854620D02*
X4002547Y5997477D01*
X4050166Y5902239D01*
X4145404Y5854620D01*
X4240642Y5854620D01*
X4573976Y5854620D02*
X4573976Y6854620D01*
X5002547Y5854620D02*
X5002547Y6378429D01*
X4954928Y6473667D01*
X4859690Y6521286D01*
X4716833Y6521286D01*
X4621595Y6473667D01*
X4573976Y6426048D01*
X5907309Y6521286D02*
X5907309Y5854620D01*
X5478738Y6521286D02*
X5478738Y5997477D01*
X5526357Y5902239D01*
X5621595Y5854620D01*
X5764452Y5854620D01*
X5859690Y5902239D01*
X5907309Y5949858D01*
X6383500Y5854620D02*
X6383500Y6854620D01*
X6383500Y6473667D02*
X6478738Y6521286D01*
X6669214Y6521286D01*
X6764452Y6473667D01*
X6812071Y6426048D01*
X6859690Y6330810D01*
X6859690Y6045096D01*
X6812071Y5949858D01*
X6764452Y5902239D01*
X6669214Y5854620D01*
X6478738Y5854620D01*
X6383500Y5902239D01*
X7288261Y5949858D02*
X7335880Y5902239D01*
X7288261Y5854620D01*
X7240642Y5902239D01*
X7288261Y5949858D01*
X7288261Y5854620D01*
X8193023Y5902239D02*
X8097785Y5854620D01*
X7907309Y5854620D01*
X7812071Y5902239D01*
X7764452Y5949858D01*
X7716833Y6045096D01*
X7716833Y6330810D01*
X7764452Y6426048D01*
X7812071Y6473667D01*
X7907309Y6521286D01*
X8097785Y6521286D01*
X8193023Y6473667D01*
X8764452Y5854620D02*
X8669214Y5902239D01*
X8621595Y5949858D01*
X8573976Y6045096D01*
X8573976Y6330810D01*
X8621595Y6426048D01*
X8669214Y6473667D01*
X8764452Y6521286D01*
X8907309Y6521286D01*
X9002547Y6473667D01*
X9050166Y6426048D01*
X9097785Y6330810D01*
X9097785Y6045096D01*
X9050166Y5949858D01*
X9002547Y5902239D01*
X8907309Y5854620D01*
X8764452Y5854620D01*
X9526357Y5854620D02*
X9526357Y6521286D01*
X9526357Y6426048D02*
X9573976Y6473667D01*
X9669214Y6521286D01*
X9812071Y6521286D01*
X9907309Y6473667D01*
X9954928Y6378429D01*
X9954928Y5854620D01*
X9954928Y6378429D02*
X10002547Y6473667D01*
X10097785Y6521286D01*
X10240642Y6521286D01*
X10335880Y6473667D01*
X10383500Y6378429D01*
X10383500Y5854620D01*
X11573976Y6902239D02*
X10716833Y5616524D01*
X11907309Y6378429D02*
X12240642Y6378429D01*
X12383500Y5854620D02*
X11907309Y5854620D01*
X11907309Y6854620D01*
X12383500Y6854620D01*
X13240642Y5854620D02*
X13240642Y6854620D01*
X13240642Y5902239D02*
X13145404Y5854620D01*
X12954928Y5854620D01*
X12859690Y5902239D01*
X12812071Y5949858D01*
X12764452Y6045096D01*
X12764452Y6330810D01*
X12812071Y6426048D01*
X12859690Y6473667D01*
X12954928Y6521286D01*
X13145404Y6521286D01*
X13240642Y6473667D01*
X14145404Y6521286D02*
X14145404Y5711762D01*
X14097785Y5616524D01*
X14050166Y5568905D01*
X13954928Y5521286D01*
X13812071Y5521286D01*
X13716833Y5568905D01*
X14145404Y5902239D02*
X14050166Y5854620D01*
X13859690Y5854620D01*
X13764452Y5902239D01*
X13716833Y5949858D01*
X13669214Y6045096D01*
X13669214Y6330810D01*
X13716833Y6426048D01*
X13764452Y6473667D01*
X13859690Y6521286D01*
X14050166Y6521286D01*
X14145404Y6473667D01*
X14621595Y5854620D02*
X14621595Y6521286D01*
X14621595Y6854620D02*
X14573976Y6807000D01*
X14621595Y6759381D01*
X14669214Y6807000D01*
X14621595Y6854620D01*
X14621595Y6759381D01*
X15097785Y6521286D02*
X15097785Y5854620D01*
X15097785Y6426048D02*
X15145404Y6473667D01*
X15240642Y6521286D01*
X15383500Y6521286D01*
X15478738Y6473667D01*
X15526357Y6378429D01*
X15526357Y5854620D01*
X16431119Y6521286D02*
X16431119Y5711762D01*
X16383500Y5616524D01*
X16335880Y5568905D01*
X16240642Y5521286D01*
X16097785Y5521286D01*
X16002547Y5568905D01*
X16431119Y5902239D02*
X16335880Y5854620D01*
X16145404Y5854620D01*
X16050166Y5902239D01*
X16002547Y5949858D01*
X15954928Y6045096D01*
X15954928Y6330810D01*
X16002547Y6426048D01*
X16050166Y6473667D01*
X16145404Y6521286D01*
X16335880Y6521286D01*
X16431119Y6473667D01*
X16907309Y6235572D02*
X17669214Y6235572D01*
X18145404Y5854620D02*
X18145404Y6854620D01*
X18478738Y6140334D01*
X18812071Y6854620D01*
X18812071Y5854620D01*
X19716833Y5854620D02*
X19716833Y6378429D01*
X19669214Y6473667D01*
X19573976Y6521286D01*
X19383500Y6521286D01*
X19288261Y6473667D01*
X19716833Y5902239D02*
X19621595Y5854620D01*
X19383500Y5854620D01*
X19288261Y5902239D01*
X19240642Y5997477D01*
X19240642Y6092715D01*
X19288261Y6187953D01*
X19383500Y6235572D01*
X19621595Y6235572D01*
X19716833Y6283191D01*
X20621595Y5902239D02*
X20526357Y5854620D01*
X20335880Y5854620D01*
X20240642Y5902239D01*
X20193023Y5949858D01*
X20145404Y6045096D01*
X20145404Y6330810D01*
X20193023Y6426048D01*
X20240642Y6473667D01*
X20335880Y6521286D01*
X20526357Y6521286D01*
X20621595Y6473667D01*
X21050166Y5854620D02*
X21050166Y6854620D01*
X21478738Y5854620D02*
X21478738Y6378429D01*
X21431119Y6473667D01*
X21335880Y6521286D01*
X21193023Y6521286D01*
X21097785Y6473667D01*
X21050166Y6426048D01*
X21954928Y5854620D02*
X21954928Y6521286D01*
X21954928Y6854620D02*
X21907309Y6807000D01*
X21954928Y6759381D01*
X22002547Y6807000D01*
X21954928Y6854620D01*
X21954928Y6759381D01*
X22431119Y6521286D02*
X22431119Y5854620D01*
X22431119Y6426048D02*
X22478738Y6473667D01*
X22573976Y6521286D01*
X22716833Y6521286D01*
X22812071Y6473667D01*
X22859690Y6378429D01*
X22859690Y5854620D01*
X23716833Y5902239D02*
X23621595Y5854620D01*
X23431119Y5854620D01*
X23335880Y5902239D01*
X23288261Y5997477D01*
X23288261Y6378429D01*
X23335880Y6473667D01*
X23431119Y6521286D01*
X23621595Y6521286D01*
X23716833Y6473667D01*
X23764452Y6378429D01*
X23764452Y6283191D01*
X23288261Y6187953D01*
X24145404Y5902239D02*
X24240642Y5854620D01*
X24431119Y5854620D01*
X24526357Y5902239D01*
X24573976Y5997477D01*
X24573976Y6045096D01*
X24526357Y6140334D01*
X24431119Y6187953D01*
X24288261Y6187953D01*
X24193023Y6235572D01*
X24145404Y6330810D01*
X24145404Y6378429D01*
X24193023Y6473667D01*
X24288261Y6521286D01*
X24431119Y6521286D01*
X24526357Y6473667D01*
X2573976Y4292239D02*
X2669214Y4244620D01*
X2859690Y4244620D01*
X2954928Y4292239D01*
X3002547Y4387477D01*
X3002547Y4435096D01*
X2954928Y4530334D01*
X2859690Y4577953D01*
X2716833Y4577953D01*
X2621595Y4625572D01*
X2573976Y4720810D01*
X2573976Y4768429D01*
X2621595Y4863667D01*
X2716833Y4911286D01*
X2859690Y4911286D01*
X2954928Y4863667D01*
X3859690Y4911286D02*
X3859690Y3911286D01*
X3859690Y4292239D02*
X3764452Y4244620D01*
X3573976Y4244620D01*
X3478738Y4292239D01*
X3431119Y4339858D01*
X3383500Y4435096D01*
X3383500Y4720810D01*
X3431119Y4816048D01*
X3478738Y4863667D01*
X3573976Y4911286D01*
X3764452Y4911286D01*
X3859690Y4863667D01*
X4335880Y4244620D02*
X4335880Y4911286D01*
X4335880Y4720810D02*
X4383500Y4816048D01*
X4431119Y4863667D01*
X4526357Y4911286D01*
X4621595Y4911286D01*
X4812071Y4911286D02*
X5193023Y4911286D01*
X4954928Y5244620D02*
X4954928Y4387477D01*
X5002547Y4292239D01*
X5097785Y4244620D01*
X5193023Y4244620D01*
X6050166Y4244620D02*
X5478738Y4244620D01*
X5764452Y4244620D02*
X5764452Y5244620D01*
X5669214Y5101762D01*
X5573976Y5006524D01*
X5478738Y4958905D01*
X6669214Y5244620D02*
X6764452Y5244620D01*
X6859690Y5197000D01*
X6907309Y5149381D01*
X6954928Y5054143D01*
X7002547Y4863667D01*
X7002547Y4625572D01*
X6954928Y4435096D01*
X6907309Y4339858D01*
X6859690Y4292239D01*
X6764452Y4244620D01*
X6669214Y4244620D01*
X6573976Y4292239D01*
X6526357Y4339858D01*
X6478738Y4435096D01*
X6431119Y4625572D01*
X6431119Y4863667D01*
X6478738Y5054143D01*
X6526357Y5149381D01*
X6573976Y5197000D01*
X6669214Y5244620D01*
X7431119Y4911286D02*
X7431119Y3911286D01*
X7431119Y4863667D02*
X7526357Y4911286D01*
X7716833Y4911286D01*
X7812071Y4863667D01*
X7859690Y4816048D01*
X7907309Y4720810D01*
X7907309Y4435096D01*
X7859690Y4339858D01*
X7812071Y4292239D01*
X7716833Y4244620D01*
X7526357Y4244620D01*
X7431119Y4292239D01*
X8335880Y4244620D02*
X8335880Y4911286D01*
X8335880Y5244620D02*
X8288261Y5197000D01*
X8335880Y5149381D01*
X8383500Y5197000D01*
X8335880Y5244620D01*
X8335880Y5149381D01*
%TO.C,R1*%
X14815333Y42600620D02*
X14482000Y43076810D01*
X14243904Y42600620D02*
X14243904Y43600620D01*
X14624857Y43600620D01*
X14720095Y43553000D01*
X14767714Y43505381D01*
X14815333Y43410143D01*
X14815333Y43267286D01*
X14767714Y43172048D01*
X14720095Y43124429D01*
X14624857Y43076810D01*
X14243904Y43076810D01*
X15767714Y42600620D02*
X15196285Y42600620D01*
X15482000Y42600620D02*
X15482000Y43600620D01*
X15386761Y43457762D01*
X15291523Y43362524D01*
X15196285Y43314905D01*
%TO.C,SW1*%
X25978466Y34150239D02*
X26121323Y34102620D01*
X26359419Y34102620D01*
X26454657Y34150239D01*
X26502276Y34197858D01*
X26549895Y34293096D01*
X26549895Y34388334D01*
X26502276Y34483572D01*
X26454657Y34531191D01*
X26359419Y34578810D01*
X26168942Y34626429D01*
X26073704Y34674048D01*
X26026085Y34721667D01*
X25978466Y34816905D01*
X25978466Y34912143D01*
X26026085Y35007381D01*
X26073704Y35055000D01*
X26168942Y35102620D01*
X26407038Y35102620D01*
X26549895Y35055000D01*
X26883228Y35102620D02*
X27121323Y34102620D01*
X27311800Y34816905D01*
X27502276Y34102620D01*
X27740371Y35102620D01*
X28645133Y34102620D02*
X28073704Y34102620D01*
X28359419Y34102620D02*
X28359419Y35102620D01*
X28264180Y34959762D01*
X28168942Y34864524D01*
X28073704Y34816905D01*
%TO.C,C1*%
X24848333Y42797458D02*
X24800714Y42749839D01*
X24657857Y42702220D01*
X24562619Y42702220D01*
X24419761Y42749839D01*
X24324523Y42845077D01*
X24276904Y42940315D01*
X24229285Y43130791D01*
X24229285Y43273648D01*
X24276904Y43464124D01*
X24324523Y43559362D01*
X24419761Y43654600D01*
X24562619Y43702220D01*
X24657857Y43702220D01*
X24800714Y43654600D01*
X24848333Y43606981D01*
X25800714Y42702220D02*
X25229285Y42702220D01*
X25515000Y42702220D02*
X25515000Y43702220D01*
X25419761Y43559362D01*
X25324523Y43464124D01*
X25229285Y43416505D01*
%TO.C,Q1*%
X23755361Y17994381D02*
X23660123Y18042000D01*
X23564885Y18137239D01*
X23422028Y18280096D01*
X23326790Y18327715D01*
X23231552Y18327715D01*
X23279171Y18089620D02*
X23183933Y18137239D01*
X23088695Y18232477D01*
X23041076Y18422953D01*
X23041076Y18756286D01*
X23088695Y18946762D01*
X23183933Y19042000D01*
X23279171Y19089620D01*
X23469647Y19089620D01*
X23564885Y19042000D01*
X23660123Y18946762D01*
X23707742Y18756286D01*
X23707742Y18422953D01*
X23660123Y18232477D01*
X23564885Y18137239D01*
X23469647Y18089620D01*
X23279171Y18089620D01*
X24660123Y18089620D02*
X24088695Y18089620D01*
X24374409Y18089620D02*
X24374409Y19089620D01*
X24279171Y18946762D01*
X24183933Y18851524D01*
X24088695Y18803905D01*
%TO.C,J1*%
X1129309Y23153620D02*
X1129309Y22439334D01*
X1081690Y22296477D01*
X986452Y22201239D01*
X843595Y22153620D01*
X748357Y22153620D01*
X2129309Y22153620D02*
X1557880Y22153620D01*
X1843595Y22153620D02*
X1843595Y23153620D01*
X1748357Y23010762D01*
X1653119Y22915524D01*
X1557880Y22867905D01*
X4145595Y17327620D02*
X4145595Y18327620D01*
X4383690Y18327620D01*
X4526547Y18280000D01*
X4621785Y18184762D01*
X4669404Y18089524D01*
X4717023Y17899048D01*
X4717023Y17756191D01*
X4669404Y17565715D01*
X4621785Y17470477D01*
X4526547Y17375239D01*
X4383690Y17327620D01*
X4145595Y17327620D01*
X5097976Y17613334D02*
X5574166Y17613334D01*
X5002738Y17327620D02*
X5336071Y18327620D01*
X5669404Y17327620D01*
X5859880Y18327620D02*
X6431309Y18327620D01*
X6145595Y17327620D02*
X6145595Y18327620D01*
X6717023Y17613334D02*
X7193214Y17613334D01*
X6621785Y17327620D02*
X6955119Y18327620D01*
X7288452Y17327620D01*
X7383690Y17232381D02*
X8145595Y17232381D01*
X8383690Y17327620D02*
X8383690Y18327620D01*
X8859880Y17327620D02*
X8859880Y18327620D01*
X9431309Y17327620D01*
X9431309Y18327620D01*
X4145595Y20248572D02*
X4907500Y20248572D01*
X4526547Y19867620D02*
X4526547Y20629524D01*
X5859880Y20867620D02*
X5383690Y20867620D01*
X5336071Y20391429D01*
X5383690Y20439048D01*
X5478928Y20486667D01*
X5717023Y20486667D01*
X5812261Y20439048D01*
X5859880Y20391429D01*
X5907500Y20296191D01*
X5907500Y20058096D01*
X5859880Y19962858D01*
X5812261Y19915239D01*
X5717023Y19867620D01*
X5478928Y19867620D01*
X5383690Y19915239D01*
X5336071Y19962858D01*
X6193214Y20867620D02*
X6526547Y19867620D01*
X6859880Y20867620D01*
X1415023Y12247620D02*
X1081690Y12723810D01*
X843595Y12247620D02*
X843595Y13247620D01*
X1224547Y13247620D01*
X1319785Y13200000D01*
X1367404Y13152381D01*
X1415023Y13057143D01*
X1415023Y12914286D01*
X1367404Y12819048D01*
X1319785Y12771429D01*
X1224547Y12723810D01*
X843595Y12723810D01*
X1843595Y12247620D02*
X1843595Y13247620D01*
X2319785Y12247620D02*
X2319785Y13247620D01*
X2891214Y12247620D01*
X2891214Y13247620D01*
X3891214Y13200000D02*
X3795976Y13247620D01*
X3653119Y13247620D01*
X3510261Y13200000D01*
X3415023Y13104762D01*
X3367404Y13009524D01*
X3319785Y12819048D01*
X3319785Y12676191D01*
X3367404Y12485715D01*
X3415023Y12390477D01*
X3510261Y12295239D01*
X3653119Y12247620D01*
X3748357Y12247620D01*
X3891214Y12295239D01*
X3938833Y12342858D01*
X3938833Y12676191D01*
X3748357Y12676191D01*
X4669404Y15740000D02*
X4574166Y15787620D01*
X4431309Y15787620D01*
X4288452Y15740000D01*
X4193214Y15644762D01*
X4145595Y15549524D01*
X4097976Y15359048D01*
X4097976Y15216191D01*
X4145595Y15025715D01*
X4193214Y14930477D01*
X4288452Y14835239D01*
X4431309Y14787620D01*
X4526547Y14787620D01*
X4669404Y14835239D01*
X4717023Y14882858D01*
X4717023Y15216191D01*
X4526547Y15216191D01*
X5145595Y14787620D02*
X5145595Y15787620D01*
X5717023Y14787620D01*
X5717023Y15787620D01*
X6193214Y14787620D02*
X6193214Y15787620D01*
X6431309Y15787620D01*
X6574166Y15740000D01*
X6669404Y15644762D01*
X6717023Y15549524D01*
X6764642Y15359048D01*
X6764642Y15216191D01*
X6717023Y15025715D01*
X6669404Y14930477D01*
X6574166Y14835239D01*
X6431309Y14787620D01*
X6193214Y14787620D01*
%TO.C,D1*%
X9044904Y25430220D02*
X9044904Y26430220D01*
X9283000Y26430220D01*
X9425857Y26382600D01*
X9521095Y26287362D01*
X9568714Y26192124D01*
X9616333Y26001648D01*
X9616333Y25858791D01*
X9568714Y25668315D01*
X9521095Y25573077D01*
X9425857Y25477839D01*
X9283000Y25430220D01*
X9044904Y25430220D01*
X10568714Y25430220D02*
X9997285Y25430220D01*
X10283000Y25430220D02*
X10283000Y26430220D01*
X10187761Y26287362D01*
X10092523Y26192124D01*
X9997285Y26144505D01*
X8759095Y31297620D02*
X8759095Y32297620D01*
X9330523Y31297620D02*
X8901952Y31869048D01*
X9330523Y32297620D02*
X8759095Y31726191D01*
%TO.C,R2*%
X3131333Y51490620D02*
X2798000Y51966810D01*
X2559904Y51490620D02*
X2559904Y52490620D01*
X2940857Y52490620D01*
X3036095Y52443000D01*
X3083714Y52395381D01*
X3131333Y52300143D01*
X3131333Y52157286D01*
X3083714Y52062048D01*
X3036095Y52014429D01*
X2940857Y51966810D01*
X2559904Y51966810D01*
X3512285Y52395381D02*
X3559904Y52443000D01*
X3655142Y52490620D01*
X3893238Y52490620D01*
X3988476Y52443000D01*
X4036095Y52395381D01*
X4083714Y52300143D01*
X4083714Y52204905D01*
X4036095Y52062048D01*
X3464666Y51490620D01*
X4083714Y51490620D01*
D11*
%TO.C,R1*%
X14256000Y42264000D02*
X14256000Y41934000D01*
X14256000Y39524000D02*
X14256000Y39854000D01*
X20796000Y42264000D02*
X14256000Y42264000D01*
X20796000Y41934000D02*
X20796000Y42264000D01*
X20796000Y39854000D02*
X20796000Y39524000D01*
X20796000Y39524000D02*
X14256000Y39524000D01*
%TO.C,SW1*%
X36866000Y34128000D02*
X36566000Y34428000D01*
X33266000Y26928000D02*
X32266000Y26928000D01*
X26466000Y28728000D02*
X26466000Y33628000D01*
X39066000Y33628000D02*
X36566000Y33628000D01*
X32766000Y27428000D02*
X32766000Y26428000D01*
X39066000Y28828000D02*
X39066000Y33628000D01*
X39066000Y20228000D02*
X36466000Y20228000D01*
X34066000Y20228000D02*
X31466000Y20228000D01*
X26466000Y33628000D02*
X29266000Y33628000D01*
X36866000Y34728000D02*
X36866000Y34128000D01*
X26466000Y20228000D02*
X26466000Y25128000D01*
X39066000Y25128000D02*
X39066000Y20228000D01*
X29066000Y20228000D02*
X26466000Y20228000D01*
X36566000Y34428000D02*
X36866000Y34728000D01*
X35766000Y26928000D02*
G75*
G03*
X35766000Y26928000I-3000000J0D01*
G01*
%TO.C,C1*%
X24284000Y36984000D02*
X24284000Y42224000D01*
X24284000Y42224000D02*
X27024000Y42224000D01*
X24284000Y36984000D02*
X27024000Y36984000D01*
X27024000Y36984000D02*
X27024000Y42224000D01*
%TO.C,Q1*%
X14986000Y33902000D02*
X14986000Y36442000D01*
X20066000Y33902000D02*
X20066000Y36442000D01*
X22646000Y33902000D02*
X12406000Y33902000D01*
X22646000Y18012000D02*
X12406000Y18012000D01*
X12406000Y18012000D02*
X12406000Y33902000D01*
X17526000Y33902000D02*
X17526000Y36442000D01*
X22646000Y18012000D02*
X22646000Y33902000D01*
%TO.C,J1*%
X762000Y21844000D02*
X3810000Y21844000D01*
X3810000Y21844000D02*
X3810000Y13716000D01*
X3810000Y13716000D02*
X762000Y13716000D01*
X762000Y13716000D02*
X762000Y21844000D01*
%TO.C,D1*%
X8582000Y29640000D02*
X5642000Y29640000D01*
X8582000Y30660000D02*
X8582000Y25220000D01*
X5972000Y30660000D02*
X5642000Y30660000D01*
X8582000Y25220000D02*
X8252000Y25220000D01*
X8582000Y29760000D02*
X5642000Y29760000D01*
X8582000Y29880000D02*
X5642000Y29880000D01*
X8252000Y30660000D02*
X8582000Y30660000D01*
X5642000Y30660000D02*
X5642000Y25220000D01*
X5642000Y25220000D02*
X5972000Y25220000D01*
D12*
%TO.C,R2*%
X2936738Y48243243D02*
X2993313Y47954874D01*
X6558825Y50088789D02*
X6331419Y50274918D01*
X3005480Y49116704D02*
X2942878Y48829583D01*
X7044220Y47614710D02*
X7148094Y47889605D01*
X7160717Y49094947D02*
X7062623Y49371957D01*
X4899231Y46361279D02*
X5193061Y46356664D01*
X3106470Y49392672D02*
X3005480Y49116704D01*
X3810209Y46766283D02*
X4059150Y46610123D01*
X2919821Y48536622D02*
X2936738Y48243243D01*
X7220310Y48807186D02*
X7160717Y49094947D01*
X6294267Y46727260D02*
X6525521Y46908586D01*
X7239823Y48468758D02*
X7240297Y48514000D01*
D11*
X2540000Y46924000D02*
X2540000Y51054000D01*
D12*
X7062623Y49371957D02*
X6927841Y49633092D01*
X2942878Y48829583D02*
X2919821Y48536622D01*
X3088502Y47676851D02*
X3220542Y47414319D01*
X7240297Y48514000D02*
X7220310Y48807186D01*
X3847089Y50287926D02*
X3617747Y50104188D01*
X4608746Y46405730D02*
X4899231Y46361279D01*
D11*
X3556000Y48514000D02*
X6604000Y48514000D01*
D12*
X5769047Y46466539D02*
X6040544Y46578997D01*
X6730026Y47119620D02*
X6903999Y47356455D01*
X6525521Y46908586D02*
X6730026Y47119620D01*
X2993313Y47954874D02*
X3088502Y47676851D01*
X5484799Y46391968D02*
X5769047Y46466539D01*
X3415463Y49891025D02*
X3243979Y49652381D01*
X4340000Y50524000D02*
X4099246Y50438839D01*
X4099246Y50438839D02*
X3847089Y50287926D01*
X6080857Y50428463D02*
X5840000Y50524000D01*
X6927841Y49633092D02*
X6758866Y49873519D01*
X3386989Y47172136D02*
X3584765Y46954784D01*
X4326981Y46489193D02*
X4608746Y46405730D01*
X6903999Y47356455D02*
X7044220Y47614710D01*
X5193061Y46356664D02*
X5484799Y46391968D01*
X3584765Y46954784D02*
X3810209Y46766283D01*
D11*
X5080000Y50038000D02*
X5080000Y46990000D01*
X6020000Y51054000D02*
X7620000Y51054000D01*
X2540000Y51054000D02*
X4140000Y51054000D01*
D12*
X3243979Y49652381D02*
X3106470Y49392672D01*
D11*
X7620000Y51054000D02*
X7620000Y46924000D01*
D12*
X3220542Y47414319D02*
X3386989Y47172136D01*
X6758866Y49873519D02*
X6558825Y50088789D01*
D11*
X6690000Y45974000D02*
X3440000Y45974000D01*
D12*
X4059150Y46610123D02*
X4326981Y46489193D01*
X7148094Y47889605D02*
X7213700Y48176055D01*
X3617747Y50104188D02*
X3415463Y49891025D01*
X7213700Y48176055D02*
X7239823Y48468758D01*
X6331419Y50274918D02*
X6080857Y50428463D01*
X6040544Y46578997D02*
X6294267Y46727260D01*
%TD*%
%LPC*%
D13*
%TO.C,U2*%
X36398523Y40132000D03*
X34198818Y41402000D03*
X31999114Y42672000D03*
X29799409Y43942000D03*
X27599705Y45212000D03*
D14*
X25400000Y46482000D03*
%TD*%
D15*
%TO.C,R1*%
X21336000Y40894000D03*
D16*
X13716000Y40894000D03*
%TD*%
D17*
%TO.C,SW1*%
X35266000Y34428000D03*
D18*
X30266000Y34428000D03*
X32766000Y34428000D03*
D19*
X38366000Y26928000D03*
X27166000Y26928000D03*
D18*
X35266000Y19928000D03*
X30266000Y19928000D03*
%TD*%
D15*
%TO.C,C1*%
X25654000Y38354000D03*
X25654000Y40854000D03*
%TD*%
D20*
%TO.C,Q1*%
X17526000Y20932000D03*
D21*
X20066000Y37592000D03*
D22*
X17526000Y37592000D03*
X14986000Y37592000D03*
%TD*%
D23*
%TO.C,J1*%
X2286000Y20320000D03*
X2286000Y17780000D03*
X2286000Y15240000D03*
%TD*%
D24*
%TO.C,D1*%
X7112000Y31750000D03*
D25*
X7112000Y24130000D03*
%TD*%
D26*
%TO.C,R2*%
X2540000Y45974000D03*
X5080000Y51054000D03*
X7620000Y45974000D03*
%TD*%
D27*
%TO.C,M1*%
X2286000Y30226000D03*
X2286000Y25146000D03*
%TD*%
D16*
%TO.C,U1*%
X18800000Y50800000D03*
X21340000Y50800000D03*
X23880000Y50800000D03*
X26420000Y50800000D03*
X28960000Y50800000D03*
X31500000Y50800000D03*
X34040000Y50800000D03*
X36580000Y50800000D03*
X39120000Y50800000D03*
X41660000Y50800000D03*
X45720000Y50800000D03*
X48260000Y50800000D03*
X50800000Y50800000D03*
X53340000Y50800000D03*
X55880000Y50800000D03*
X58420000Y50800000D03*
X60960000Y50800000D03*
X63500000Y50800000D03*
X63500000Y2540000D03*
X60960000Y2540000D03*
X58420000Y2540000D03*
X55880000Y2540000D03*
X53340000Y2540000D03*
X50800000Y2540000D03*
X45720000Y2540000D03*
X43180000Y2540000D03*
X40640000Y2540000D03*
X38100000Y2540000D03*
X35560000Y2540000D03*
X33020000Y2540000D03*
X30480000Y2540000D03*
D28*
X27940000Y2540000D03*
D29*
X66040000Y35560000D03*
X13970000Y2540000D03*
X66040000Y7620000D03*
X15240000Y50800000D03*
%TD*%
M02*
